<svg width="800" height="800" viewBox="0 0 800 800" fill="none" xmlns="http://www.w3.org/2000/svg">
<path d="M649.063 267.078L647.347 263.709C629.605 228.908 603.683 197.315 572.383 172.339L569.374 169.934L594.21 60.3761C576.741 50.0367 558.426 41.0823 539.645 33.7042L470.437 121.076L466.592 120.118C454.806 117.176 444.099 115.113 433.859 113.831C404.537 110.188 374.679 111.323 345.126 117.225L341.452 117.963L270.883 29.7618L218.27 53.279L243.081 160.279L239.694 162.665C202.341 188.953 171.817 224.311 151.394 264.9L149.697 268.281L36.9892 268.446L23.8911 318.977L122.847 366.243L122.554 370.424C118.99 421.302 129.213 471.785 152.101 516.389L153.914 519.923L84.9437 606.673L115.119 644.967L214.123 596.889L217.187 599.562C255.956 633.303 303.723 655.518 355.322 663.814L359.411 664.467L384.02 771.523L433.984 770.357L458.52 661.11L462.286 660.244C509.491 649.282 553.143 626.167 588.526 593.405L591.589 590.567L690.216 637.857L722.802 593.624L652.185 505.624L653.704 502.206C664.74 477.219 672.039 450.925 675.403 424.027C677.216 409.232 677.722 393.76 676.959 376.713L676.776 372.672L776.123 324.644L761.389 266.722L649.063 267.078ZM400 632.938C271.545 632.938 167.047 528.452 167.047 400.031C167.047 271.577 271.558 167.078 400 167.078C528.442 167.078 632.938 271.589 632.938 400.031C632.938 528.455 528.452 632.938 400 632.938Z" fill="black"/>
<path d="M400 179.359C278.327 179.359 179.344 278.347 179.344 400.016C179.344 521.659 278.331 620.625 400 620.625C521.661 620.625 620.641 521.662 620.641 400.016C620.641 278.342 521.666 179.359 400 179.359ZM533.258 518H266.727V413.416C266.727 383.558 326.748 368.433 350.089 363.672C337.436 350.94 329.606 333.423 329.606 314.094C329.606 275.294 361.173 243.714 399.98 243.714C438.78 243.714 470.353 275.294 470.353 314.094C470.353 333.411 462.522 350.934 449.877 363.672C473.18 368.414 533.262 383.552 533.262 413.416L533.258 518Z" fill="black"/>
<path d="M371.531 378.422L399.98 434.086L428.477 378.397C419.761 382.285 410.136 384.482 399.98 384.482C389.848 384.482 380.241 382.292 371.531 378.422Z" fill="black"/>
<path d="M399.969 372.188C431.988 372.188 458.044 346.125 458.044 314.106C458.044 282.088 431.994 256.025 399.969 256.025C367.95 256.025 341.894 282.088 341.894 314.106C341.9 346.125 367.95 372.188 399.969 372.188Z" fill="black"/>
<path d="M444.016 375.047L399.984 461.106L356.003 375.047C322.636 381.303 279.038 396.586 279.038 413.431V505.716H520.975L520.969 413.431C520.969 396.592 477.383 381.303 444.022 375.047H444.016Z" fill="black"/>
</svg>
