<svg width="800" height="800" viewBox="0 0 800 800" fill="none" xmlns="http://www.w3.org/2000/svg">
<path d="M439.328 110.031L425.437 103.055C417.343 98.9901 414.072 89.1329 418.137 81.0394C422.202 72.9462 432.059 69.6808 440.159 73.7457L454.05 80.7219C528.519 118.125 610.691 137.6 694.035 137.6C703.074 137.6 710.41 144.912 710.435 153.952L710.789 277.542C711.301 457.98 604.679 621.511 439.382 693.823C431.081 697.455 421.414 693.671 417.782 685.37C414.151 677.075 417.935 667.401 426.236 663.776C579.569 596.692 678.47 444.995 677.986 277.636L677.681 170.165C594.856 167.779 513.493 147.283 439.337 110.034L439.328 110.031ZM612.187 234.513C550.823 227.909 490.716 212.442 433.734 188.578L426.447 185.526C418.097 182.029 414.16 172.416 417.658 164.067C421.161 155.711 430.768 151.775 439.123 155.278L446.405 158.324C504.845 182.805 566.766 197.972 629.905 203.258C638.383 203.972 644.907 211.046 644.938 219.555L645.164 296.008C645.573 432.867 564.731 556.93 439.367 611.821C431.072 615.452 421.398 611.674 417.767 603.373C414.135 595.079 417.913 585.405 426.214 581.773C539.617 532.116 612.745 419.898 612.37 296.101L612.187 234.513ZM383.594 154.002V629.595C383.594 649.719 377.551 668.427 367.194 684.008C349.561 710.522 319.416 727.995 285.194 727.995C230.848 727.995 186.792 683.941 186.792 629.594C186.792 621.586 187.75 613.799 189.557 606.339C154.199 608.567 119.251 588.45 98.7852 553.013C76.0867 513.694 83.6058 465.225 114.135 434.489C79.187 414.805 55.5901 377.361 55.5901 334.397C55.5901 295.181 75.2495 260.563 105.248 239.853C104.949 238.614 104.79 237.326 104.79 235.996C104.79 186.825 140.85 146.085 187.962 138.766C195.28 91.6535 236.021 55.5941 285.192 55.5941C339.537 55.5941 383.593 99.6488 383.593 153.996L383.594 154.002ZM220.406 143.656C232.65 147.202 244.241 144.108 248 137.601C252.529 129.758 262.557 127.067 270.4 131.596C278.243 136.124 280.935 146.158 276.406 154.002C262.594 177.927 228.225 184.714 199.318 170.511C168.923 172.281 144.076 194.755 138.679 224.039C148.75 221.146 159.395 219.602 170.393 219.602C219.704 219.602 260.542 255.876 267.684 303.196C281.466 306.101 294.289 312.931 304.579 323.215C310.982 329.623 310.982 340.005 304.579 346.408C298.171 352.817 287.789 352.817 281.386 346.408C273.579 338.608 263.209 334.403 252.393 334.403C241.572 334.403 231.203 338.608 223.401 346.408C216.993 352.817 206.611 352.817 200.208 346.408C193.799 340.006 193.799 329.624 200.208 323.215C209.833 313.589 221.679 306.991 234.448 303.805C227.96 274.399 201.745 252.402 170.392 252.402C125.104 252.402 88.3919 289.115 88.3919 334.402C88.3919 377.566 121.742 412.943 164.081 416.158C167.139 402.895 173.853 390.566 183.808 380.618C190.21 374.209 200.592 374.209 207.001 380.618C213.404 387.02 213.404 397.402 207.001 403.811C199.195 411.612 194.99 421.982 194.99 432.804C194.99 443.619 199.195 453.99 207.001 461.796C213.404 468.198 213.404 478.58 207.001 484.99C200.593 491.392 190.211 491.392 183.808 484.99C173.749 474.931 166.998 462.449 163.989 449.027C159.387 448.771 154.852 448.246 150.415 447.471C119.647 465.799 109.235 505.504 127.191 536.619C146.05 569.279 180.022 582.31 208.746 567.638C226.788 545.408 254.333 531.2 285.193 531.2C294.25 531.2 301.593 538.543 301.593 547.6C301.593 556.658 294.25 564 285.193 564C263.891 564 244.958 574.157 232.977 589.885C232.8 590.135 232.617 590.379 232.422 590.623C224.359 601.518 219.592 615.006 219.592 629.6C219.592 665.831 248.962 695.2 285.192 695.2C321.422 695.2 350.792 665.83 350.792 629.6V497.044C304.253 489.231 268.792 448.759 268.792 400.005C268.792 390.947 276.135 383.605 285.192 383.605C294.25 383.605 301.592 390.947 301.592 400.005C301.592 430.57 322.497 456.255 350.792 463.536V154.005C350.792 117.773 321.422 88.4045 285.192 88.4045C252.483 88.4045 225.366 112.342 220.403 143.659L220.406 143.656Z" fill="black"/>
</svg>
