<svg width="800" height="800" viewBox="0 0 800 800" fill="none" xmlns="http://www.w3.org/2000/svg">
<path d="M428.297 642.734H356.092C338.837 642.734 322.713 633.481 314.008 618.595C309.436 610.771 300.971 605.918 291.913 605.918L85.2719 605.912C78.8816 605.912 73.6935 600.73 73.6935 594.334V143.412C73.6935 103.562 106.109 71.14 145.959 71.14H653.85C693.786 71.14 726.275 103.629 726.275 143.565V594.346C726.275 600.736 721.093 605.925 714.696 605.925H492.462C483.398 605.925 474.938 610.783 470.367 618.602C461.663 633.494 445.537 642.747 428.288 642.747L428.297 642.734ZM96.8594 582.761H291.922C309.177 582.761 325.302 592.014 334.006 606.9C338.578 614.725 347.043 619.577 356.102 619.577H428.306C437.364 619.577 445.823 614.719 450.395 606.9C459.099 592.014 475.225 582.761 492.48 582.761H703.136V143.558C703.136 116.384 681.034 94.2844 653.862 94.2844H145.972C118.891 94.2844 96.8563 116.319 96.8563 143.406L96.8594 582.761Z" fill="black"/>
<path d="M683.656 728.859H116.328C68.4766 728.859 29.5422 689.931 29.5422 642.08V609.933C29.5422 594.949 41.737 582.753 56.7219 582.753H291.909C309.164 582.753 325.289 592.006 333.994 606.892C338.565 614.717 347.031 619.569 356.089 619.569H428.294C437.351 619.569 445.811 614.711 450.383 606.892C459.086 592.006 475.212 582.753 492.467 582.753H743.248C758.245 582.753 770.439 594.948 770.439 609.933V642.08C770.439 689.931 731.511 728.859 683.653 728.859H683.656ZM56.7188 605.905C54.497 605.905 52.6966 607.711 52.6966 609.933V642.08C52.6966 677.163 81.2435 705.71 116.326 705.71H683.654C718.737 705.71 747.284 677.163 747.284 642.08V609.933C747.284 607.711 745.478 605.911 743.256 605.911L492.474 605.905C483.411 605.905 474.951 610.763 470.379 618.582C461.676 633.468 445.55 642.721 428.301 642.721H356.096C338.842 642.721 322.717 633.468 314.012 618.582C309.44 610.757 300.975 605.905 291.917 605.905H56.7188Z" fill="black"/>
<path d="M116.531 667.391H107.431C101.041 667.391 95.8525 662.209 95.8525 655.812C95.8525 649.422 101.034 644.234 107.431 644.234H116.531C122.922 644.234 128.11 649.416 128.11 655.812C128.11 662.209 122.928 667.391 116.531 667.391Z" fill="black"/>
<path d="M202.359 667.391H193.259C186.869 667.391 181.681 662.209 181.681 655.812C181.681 649.422 186.862 644.234 193.259 644.234H202.359C208.75 644.234 213.938 649.416 213.938 655.812C213.938 662.209 208.75 667.391 202.359 667.391Z" fill="black"/>
<path d="M290.688 516.437C284.297 516.437 279.109 511.256 279.109 504.859V401.106C279.109 394.716 284.291 389.528 290.688 389.528C297.078 389.528 302.266 394.709 302.266 401.106V504.859C302.266 511.256 297.084 516.437 290.688 516.437Z" fill="black"/>
<path d="M370.391 517.125C364 517.125 358.812 511.943 358.812 505.547V377.281C358.812 370.891 363.994 365.703 370.391 365.703C376.781 365.703 381.969 370.884 381.969 377.281V505.553C381.963 511.943 376.781 517.125 370.391 517.125Z" fill="black"/>
<path d="M450.094 517.828C443.703 517.828 438.515 512.646 438.515 506.25V417.725C438.515 411.334 443.697 406.146 450.094 406.146C456.484 406.146 461.672 411.328 461.672 417.725V506.25C461.672 512.64 456.484 517.828 450.094 517.828Z" fill="black"/>
<path d="M529.797 514.328C523.407 514.328 518.218 509.146 518.218 502.75V404.873C518.218 398.483 523.4 393.295 529.797 393.295C536.187 393.295 541.375 398.477 541.375 404.873V502.75C541.375 509.146 536.193 514.328 529.797 514.328Z" fill="black"/>
<path d="M609.5 515.031C603.11 515.031 597.922 509.849 597.922 503.453L597.928 320.406C597.928 314.016 603.11 308.828 609.506 308.828C615.896 308.828 621.085 314.009 621.085 320.406V503.453C621.078 509.843 615.897 515.025 609.5 515.025V515.031Z" fill="black"/>
<path d="M484.047 311.875C480.708 311.875 477.394 310.441 475.105 307.657C471.04 302.72 471.748 295.426 476.68 291.361L562.66 220.561C567.603 216.496 574.885 217.204 578.956 222.135C583.021 227.073 582.313 234.367 577.382 238.432L491.402 309.232C489.241 311.014 486.635 311.875 484.047 311.875Z" fill="black"/>
<path d="M418.531 313.469C416.883 313.469 415.217 313.121 413.63 312.376L355.543 285.186C349.75 282.469 347.254 275.585 349.964 269.792C352.674 263.994 359.547 261.504 365.357 264.214L423.445 291.404C429.237 294.121 431.733 301.005 429.023 306.798C427.058 311.003 422.889 313.469 418.531 313.469Z" fill="black"/>
<path d="M253.375 344.625C250.397 344.625 247.424 343.484 245.154 341.207C240.655 336.666 240.68 329.336 245.215 324.832L291.199 279.196C295.752 274.698 303.076 274.734 307.574 279.257C312.072 283.798 312.048 291.129 307.513 295.632L261.529 341.268C259.27 343.508 256.317 344.625 253.375 344.625Z" fill="black"/>
<path d="M598.797 253.625C572.942 253.625 551.909 232.592 551.909 206.738C551.909 180.883 572.942 159.85 598.797 159.85C624.645 159.85 645.678 180.883 645.678 206.738C645.684 232.592 624.645 253.625 598.797 253.625ZM598.797 183.002C585.711 183.002 575.061 193.652 575.061 206.738C575.061 219.823 585.712 230.473 598.797 230.473C611.882 230.473 622.528 219.823 622.528 206.738C622.528 193.426 612.103 183.002 598.797 183.002Z" fill="black"/>
<path d="M451.547 361.312C425.692 361.312 404.659 340.28 404.659 314.425C404.659 308.938 405.666 303.384 407.65 297.933C414.718 279.666 432.32 267.538 451.547 267.538C470.163 267.538 487.069 278.56 494.619 295.614C497.201 302.047 498.434 308.248 498.434 314.425C498.434 340.28 477.402 361.312 451.547 361.312ZM451.547 290.689C441.812 290.689 432.883 296.866 429.323 306.064C428.347 308.762 427.81 311.642 427.81 314.426C427.81 327.512 438.46 338.162 451.546 338.162C464.631 338.162 475.282 327.511 475.282 314.426C475.282 311.215 474.61 307.907 473.286 304.605C469.599 296.304 460.999 290.689 451.545 290.689H451.547Z" fill="black"/>
<path d="M326.547 311.875C312.735 311.875 299.594 305.674 290.5 294.858C283.31 285.623 279.66 275.406 279.66 264.981C279.66 259.397 280.667 253.793 282.651 248.325C289.676 230.155 307.285 218.094 326.548 218.094C345.103 218.094 361.998 229.025 369.59 245.937C372.202 252.425 373.435 258.688 373.435 264.981C373.435 269.15 372.837 273.343 371.598 277.792C365.781 297.916 347.27 311.874 326.548 311.874L326.547 311.875ZM326.547 241.252C316.775 241.252 307.839 247.361 304.323 256.449C303.335 259.19 302.81 262.058 302.81 264.982C302.81 271.598 305.904 276.963 308.498 280.308C312.899 285.526 319.582 288.719 326.547 288.719C337.02 288.719 346.389 281.632 349.325 271.476C349.966 269.157 350.283 267.058 350.283 264.982C350.283 261.607 349.63 258.342 348.287 254.991C344.662 246.953 335.849 241.252 326.547 241.252Z" fill="black"/>
<path d="M227.281 403.828C213.469 403.828 200.328 397.627 191.234 386.811C184.05 377.589 180.401 367.377 180.401 356.934C180.401 351.331 181.408 345.728 183.391 340.272C190.41 322.108 208.02 310.053 227.282 310.053C245.83 310.053 262.732 320.978 270.33 337.884C272.943 344.397 274.17 350.653 274.17 356.933C274.17 361.114 273.571 365.307 272.338 369.744C266.522 389.855 248.01 403.825 227.282 403.825L227.281 403.828ZM227.281 333.211C217.51 333.211 208.58 339.314 205.064 348.409C204.069 351.143 203.55 354.006 203.55 356.941C203.55 363.564 206.639 368.923 209.233 372.261C213.633 377.486 220.317 380.678 227.281 380.678C237.761 380.678 247.13 373.592 250.066 363.436C250.706 361.135 251.018 359.035 251.018 356.942C251.018 353.566 250.365 350.295 249.022 346.938C245.403 338.906 236.583 333.211 227.281 333.211Z" fill="black"/>
</svg>
