<svg width="800" height="800" viewBox="0 0 800 800" fill="none" xmlns="http://www.w3.org/2000/svg">
<path d="M768.547 273.922C751.609 257.106 722.27 257.106 705.448 273.922L600.725 378.645L600.853 63.6453C600.853 44.0828 584.991 28.2203 565.428 28.2203H53.7407C34.1782 28.2203 18.3157 44.0828 18.3157 63.6453V728.833C18.3157 752.447 37.5172 771.77 61.2532 771.77H639.378H639.5C641.051 771.77 642.241 771.77 643.553 771.532C658.94 770.58 673.369 764.019 683.989 753.282C695.677 741.356 702.239 725.609 702.239 709.032L702.233 570.556C702.233 563.995 696.868 558.629 690.307 558.629H600.732V505.078L768.544 337.031C777.01 328.565 781.667 317.353 781.667 305.422C781.667 293.611 777.016 282.406 768.544 273.934L768.547 273.922ZM751.731 290.859C755.668 294.796 757.816 300.045 757.816 305.532C757.816 311.135 755.668 316.268 751.731 320.205L746.482 325.454L717.143 296.115L722.392 290.866C730.144 282.986 743.858 282.986 751.731 290.859ZM500.184 571.859L470.845 542.52L700.205 312.911L729.544 342.25L500.184 571.859ZM459.272 564.706L477.881 583.315L450.684 592.025L459.272 564.706ZM678.256 582.473V708.908C678.256 719.168 674.203 728.945 666.928 736.459C660.367 743.136 651.425 747.195 641.641 747.671C641.042 747.671 640.09 747.671 639.492 747.794H639.37C618.02 747.794 600.606 730.258 600.606 708.908L600.728 582.358H678.255L678.256 582.473ZM576.639 709.023C576.639 723.696 581.766 737.289 590.238 747.909H61.2533C50.7552 747.909 42.1674 739.322 42.1674 728.823L42.1735 63.6358C42.1735 57.3125 47.3003 52.0636 53.7456 52.0636H565.433C571.756 52.0636 577.005 57.1905 577.005 63.6358L576.883 402.495L445.438 533.934C445.316 534.056 445.316 534.172 445.2 534.294C444.364 535.246 443.65 536.321 443.173 537.395C443.051 537.633 442.935 537.871 442.813 538.231C442.691 538.469 442.575 538.591 442.575 538.707L420.988 606.573C419.676 610.87 420.75 615.521 423.973 618.621C426.237 620.886 429.338 622.082 432.438 622.082C433.628 622.082 434.825 621.844 436.015 621.484L503.88 599.896C504.119 599.774 504.241 599.658 504.357 599.658C504.595 599.536 504.833 599.42 505.193 599.298C506.383 598.7 507.457 598.108 508.293 597.272C508.415 597.149 508.531 597.149 508.654 597.034L576.879 528.809L576.639 709.023Z" fill="black"/>
<path d="M166.469 406.312H95.2656C88.7044 406.312 83.3394 411.677 83.3394 418.239V489.326C83.3394 495.887 88.7044 501.252 95.2656 501.252H166.469C173.03 501.252 178.395 495.887 178.395 489.326V418.239C178.395 411.562 173.03 406.312 166.469 406.312ZM154.542 477.4H107.191V430.166H154.542V477.4Z" fill="black"/>
<path d="M491.719 412.875H237.078C230.517 412.875 225.152 418.24 225.152 424.801C225.152 431.363 230.517 436.728 237.078 436.728H491.734C498.296 436.728 503.661 431.363 503.661 424.801C503.655 418.24 498.29 412.875 491.728 412.875H491.719Z" fill="black"/>
<path d="M441.031 470.734H237.078C230.517 470.734 225.152 476.099 225.152 482.661C225.152 489.222 230.517 494.587 237.078 494.587H441.031C447.593 494.587 452.958 489.222 452.958 482.661C452.958 476.099 447.593 470.734 441.031 470.734Z" fill="black"/>
<path d="M166.469 556.953H95.2656C88.7044 556.953 83.3394 562.318 83.3394 568.879V639.967C83.3394 646.528 88.7044 651.893 95.2656 651.893H166.469C173.03 651.893 178.395 646.528 178.395 639.967V568.879C178.395 562.324 173.03 556.953 166.469 556.953ZM154.542 628.162H107.191V580.928H154.542V628.162Z" fill="black"/>
<path d="M380.672 563.641H237.069C230.508 563.641 225.142 569.006 225.142 575.567C225.142 582.128 230.508 587.493 237.069 587.493H380.672C387.233 587.493 392.598 582.128 392.598 575.567C392.598 569.006 387.233 563.641 380.672 563.641Z" fill="black"/>
<path d="M380.672 621.484H237.069C230.508 621.484 225.142 626.849 225.142 633.411C225.142 639.972 230.508 645.337 237.069 645.337H380.672C387.233 645.337 392.598 639.972 392.598 633.411C392.598 626.849 387.233 621.484 380.672 621.484Z" fill="black"/>
<path d="M101.578 163.953C103.843 165.98 106.705 167.054 109.568 167.054C112.668 167.054 115.653 165.864 118.033 163.593L153.097 128.529C157.748 123.878 157.748 116.365 153.097 111.713C148.446 107.062 140.933 107.062 136.282 111.713L109.329 138.667L104.44 134.254C99.5508 129.841 92.0374 130.201 87.6241 135.09C83.2113 139.979 83.5713 147.492 88.4603 151.906L101.578 163.953Z" fill="black"/>
<path d="M195.203 161.328H528.937C535.499 161.328 540.864 155.963 540.864 149.402C540.864 142.841 535.499 137.476 528.937 137.476L195.203 137.47C188.642 137.47 183.277 142.835 183.277 149.396C183.271 155.957 188.52 161.328 195.203 161.328Z" fill="black"/>
<path d="M101.578 249.828C103.843 251.855 106.705 252.929 109.568 252.929C112.668 252.929 115.653 251.739 118.033 249.468L153.097 214.404C157.748 209.753 157.748 202.24 153.097 197.588C148.446 192.937 140.933 192.937 136.282 197.588L109.329 224.542L104.44 220.129C99.5508 215.716 92.0374 216.076 87.6241 220.965C83.2108 225.854 83.5713 233.367 88.4603 237.781L101.578 249.828Z" fill="black"/>
<path d="M195.203 247.203H528.937C535.499 247.203 540.864 241.838 540.864 235.277C540.864 228.716 535.499 223.351 528.937 223.351L195.203 223.344C188.642 223.344 183.277 228.71 183.277 235.271C183.271 241.832 188.52 247.203 195.203 247.203Z" fill="black"/>
<path d="M101.578 335.719C103.843 337.745 106.705 338.819 109.568 338.819C112.668 338.819 115.653 337.629 118.033 335.359L153.097 300.295C157.748 295.644 157.748 288.13 153.097 283.479C148.446 278.828 140.933 278.828 136.282 283.479L109.329 310.432L104.44 306.019C99.5508 301.607 92.0374 301.967 87.6241 306.856C83.2113 311.744 83.5713 319.258 88.4603 323.671L101.578 335.719Z" fill="black"/>
<path d="M540.859 321.156C540.859 314.595 535.494 309.23 528.933 309.23L195.214 309.224C188.653 309.224 183.288 314.589 183.288 321.15C183.288 327.711 188.653 333.076 195.214 333.076H528.949C535.504 333.082 540.869 327.711 540.869 321.156H540.859Z" fill="black"/>
</svg>
