<svg width="800" height="800" viewBox="0 0 800 800" fill="none" xmlns="http://www.w3.org/2000/svg">
<path d="M642.641 143.328H157.359C152.525 143.328 148.613 147.241 148.613 152.075V509.043C148.613 513.877 152.525 517.79 157.359 517.79H642.656C647.49 517.79 651.403 513.877 651.403 509.043V152.075C651.397 147.241 647.484 143.328 642.65 143.328H642.641ZM633.894 500.297H166.097V160.813H633.894V500.297Z" fill="black"/>
<path d="M642.641 546.109H363.891C359.057 546.109 355.144 550.022 355.144 554.856V600.376C355.144 605.21 359.057 609.123 363.891 609.123H642.641C647.475 609.123 651.387 605.21 651.387 600.376V554.856C651.387 550.022 647.475 546.109 642.641 546.109ZM633.894 591.63H372.644V563.602H633.894V591.63Z" fill="black"/>
<path d="M266.875 551.359C252.397 551.359 240.617 563.139 240.617 577.617C240.617 592.107 252.397 603.881 266.875 603.881C281.365 603.881 293.139 592.101 293.139 577.617C293.139 563.14 281.359 551.359 266.875 551.359ZM266.875 586.388C262.041 586.388 258.11 582.451 258.11 577.617C258.11 572.783 262.041 568.852 266.875 568.852C271.709 568.852 275.646 572.783 275.646 577.617C275.646 582.451 271.709 586.388 266.875 586.388Z" fill="black"/>
<path d="M182.203 551.359C167.726 551.359 155.945 563.139 155.945 577.617C155.945 592.107 167.725 603.881 182.203 603.881C196.693 603.881 208.467 592.101 208.467 577.617C208.467 563.14 196.687 551.359 182.203 551.359ZM182.203 586.388C177.369 586.388 173.438 582.451 173.438 577.617C173.438 572.783 177.369 568.852 182.203 568.852C187.037 568.852 190.974 572.783 190.974 577.617C190.974 582.451 187.037 586.388 182.203 586.388Z" fill="black"/>
<path d="M203.922 358.844H304.734C307.878 358.844 310.783 357.159 312.339 354.425L354.953 279.633L404.136 420.05C405.29 423.364 408.311 425.653 411.808 425.891C412.004 425.897 412.193 425.909 412.388 425.909C415.666 425.909 418.681 424.072 420.189 421.124L465.348 332.299L476.353 354.04C477.848 356.988 480.863 358.843 484.159 358.843H596.079C600.913 358.843 604.826 354.931 604.826 350.097C604.826 345.263 600.913 341.35 596.079 341.35H489.518L473.161 309.025C471.665 306.077 468.656 304.222 465.36 304.222H465.354C462.064 304.222 459.049 306.065 457.554 309.007L413.865 394.945L365.098 255.729C363.968 252.494 361.051 250.211 357.639 249.906C354.13 249.558 350.944 251.316 349.241 254.289L299.638 341.343L203.922 341.349C199.088 341.349 195.176 345.262 195.176 350.096C195.176 354.93 199.088 358.842 203.922 358.842L203.922 358.844Z" fill="black"/>
<path d="M546.453 701.266H631.036C635.87 701.266 639.782 697.353 639.782 692.519V661.769H690.784C695.618 661.769 699.53 657.857 699.53 653.023L699.524 107.476C699.524 102.642 695.612 98.7296 690.778 98.7296H109.231C104.397 98.7296 100.485 102.642 100.485 107.476V653.007C100.485 657.841 104.397 661.754 109.231 661.754H420.668V692.504C420.668 697.338 424.581 701.25 429.415 701.25H478.963C483.797 701.25 487.71 697.338 487.71 692.504V661.754H537.716V692.504C537.71 697.344 541.622 701.256 546.462 701.256L546.453 701.266ZM622.283 683.774H555.198V661.77H622.283V683.774ZM470.208 683.774H438.152V661.77H470.208V683.774ZM117.973 644.278V116.231H682.036V644.278H117.973Z" fill="black"/>
</svg>
