<svg width="558" height="522" viewBox="0 0 558 522" fill="none" xmlns="http://www.w3.org/2000/svg">
<path fill-rule="evenodd" clip-rule="evenodd" d="M98.4047 16.4C98.4047 7.34235 105.747 0 114.805 0H442.805C451.862 0 459.205 7.3425 459.205 16.4V61.4016L551.13 131.263C555.213 134.363 557.606 139.197 557.606 144.318V472.318C557.606 485.886 553.01 498.465 543.787 507.695C534.559 516.923 521.973 521.519 508.404 521.519H49.2011C35.633 521.519 23.0542 516.923 13.8245 507.695C4.59485 498.466 0 485.887 0 472.318V144.318C0 139.197 2.3925 134.363 6.47578 131.263L98.4008 61.4016L98.4047 16.4ZM98.4047 102.6L42.8687 144.8L98.4047 179.511V102.6ZM131.205 200.013L178.691 229.687C179.252 229.626 179.826 229.602 180.406 229.602H377.203C377.783 229.602 378.35 229.626 378.918 229.687L426.398 200.013V32.7937H131.194L131.205 200.013ZM459.205 179.511L514.741 144.8L459.205 102.6V179.511ZM524.805 177.192L287.492 325.507C282.176 328.834 275.425 328.834 270.109 325.507L32.7969 177.192V472.317C32.7969 478.432 34.7622 482.247 37.0144 484.499C39.2605 486.751 43.0813 488.717 49.197 488.717H508.4C514.516 488.717 518.337 486.751 520.583 484.499C522.835 482.247 524.8 478.432 524.8 472.317L524.805 177.192ZM326.586 262.403H231.036L278.814 292.26L326.586 262.403ZM164.008 98.4025C164.008 89.3448 171.35 82.0025 180.408 82.0025H311.609C320.661 82.0025 328.009 89.345 328.009 98.4025C328.009 107.46 320.661 114.802 311.609 114.802H180.408C171.35 114.802 164.008 107.46 164.008 98.4025ZM164.008 180.402C164.008 171.345 171.35 164.002 180.408 164.002H377.205C386.256 164.002 393.605 171.345 393.605 180.402C393.605 189.454 386.256 196.802 377.205 196.802H180.408C171.35 196.802 164.008 189.454 164.008 180.402Z" fill="black"/>
</svg>
