<svg width="800" height="800" viewBox="0 0 800 800" fill="none" xmlns="http://www.w3.org/2000/svg">
<path d="M601.375 669.891C607.588 669.891 612.624 664.855 612.624 658.642L612.618 258.064C612.618 257.826 612.496 257.612 612.477 257.374C612.416 256.373 612.221 255.409 611.897 254.463C611.775 254.109 611.684 253.761 611.525 253.419C610.976 252.223 610.286 251.087 609.322 250.123L492.701 133.387C491.737 132.423 490.608 131.733 489.418 131.184C489.064 131.019 488.697 130.921 488.331 130.799C487.41 130.488 486.47 130.299 485.499 130.238C485.243 130.219 485.011 130.091 484.755 130.091H198.614C192.4 130.091 187.365 135.127 187.365 141.34V658.637C187.365 664.85 192.395 669.885 198.614 669.885L601.375 669.891ZM574.233 246.828H495.998V168.514L574.233 246.828ZM209.858 152.591H473.498V258.072C473.498 264.285 478.528 269.321 484.747 269.321H590.119V647.399H209.853L209.858 152.591Z" fill="black"/>
<path d="M266.094 283.781H394.792C401.006 283.781 406.041 278.746 406.041 272.533C406.041 266.319 401.012 261.284 394.792 261.284L266.094 261.29C259.88 261.29 254.845 266.325 254.845 272.539C254.851 278.746 259.88 283.781 266.094 283.781Z" fill="black"/>
<path d="M533.906 388.75H266.094C259.88 388.75 254.845 393.785 254.845 399.999C254.845 406.212 259.874 411.248 266.094 411.248H533.906C540.12 411.248 545.155 406.212 545.155 399.999C545.155 393.785 540.126 388.75 533.906 388.75Z" fill="black"/>
<path d="M533.906 325.031H266.094C259.88 325.031 254.845 330.067 254.845 336.28C254.845 342.493 259.874 347.529 266.094 347.529H533.906C540.12 347.529 545.155 342.493 545.155 336.28C545.155 330.067 540.126 325.031 533.906 325.031Z" fill="black"/>
<path d="M533.906 452.484H266.094C259.88 452.484 254.845 457.52 254.845 463.733C254.845 469.947 259.874 474.982 266.094 474.982H533.906C540.12 474.982 545.155 469.946 545.155 463.733C545.155 457.52 540.126 452.484 533.906 452.484Z" fill="black"/>
<path d="M408.063 516.203H266.083C259.869 516.203 254.834 521.239 254.834 527.452C254.834 533.665 259.863 538.701 266.083 538.701H408.063C414.276 538.701 419.311 533.665 419.311 527.452C419.305 521.238 414.276 516.203 408.063 516.203Z" fill="black"/>
<path d="M408.063 579.937H266.083C259.869 579.937 254.834 584.973 254.834 591.186C254.834 597.4 259.863 602.435 266.083 602.435H408.063C414.276 602.435 419.311 597.399 419.311 591.186C419.305 584.973 414.276 579.937 408.063 579.937Z" fill="black"/>
<path d="M266.094 220.062H394.792C401.006 220.062 406.041 215.027 406.041 208.814C406.041 202.6 401.012 197.565 394.792 197.565L266.094 197.571C259.88 197.571 254.845 202.607 254.845 208.82C254.851 215.027 259.88 220.062 266.094 220.062Z" fill="black"/>
<path d="M533.906 547.594H509.639V523.32C509.639 517.107 504.61 512.072 498.39 512.072C492.177 512.072 487.142 517.107 487.142 523.32L487.148 547.594H462.868C456.655 547.594 451.619 552.629 451.619 558.842C451.619 565.056 456.649 570.091 462.868 570.091H487.148V594.365C487.148 600.578 492.177 605.613 498.396 605.613C504.61 605.613 509.645 600.578 509.645 594.365L509.639 570.085H533.906C540.12 570.085 545.155 565.05 545.155 558.836C545.155 552.629 540.126 547.594 533.906 547.594Z" fill="black"/>
</svg>
