<svg width="800" height="800" viewBox="0 0 800 800" fill="none" xmlns="http://www.w3.org/2000/svg">
<path d="M53.625 400C53.625 208.703 208.703 53.625 400 53.625V23.7062C400 20.5569 403.937 18.1948 406.299 20.5569L487.378 76.4475C489.74 78.0222 489.74 81.1716 487.378 82.7462L406.299 138.637C403.937 140.212 400 138.637 400 135.488V105.573C237.828 105.573 105.578 237.825 105.578 399.995C105.578 494.459 151.239 583.417 227.594 638.511L196.894 680.234C107.153 615.689 53.625 510.203 53.625 400ZM393.687 779.438C396.05 781.012 399.986 779.437 399.986 776.288V746.374C591.283 746.374 746.361 591.296 746.361 399.999C746.361 289.788 692.833 184.312 603.094 119.749L573.175 161.466C649.536 216.569 695.191 306.308 695.191 399.982C695.191 562.154 562.939 694.404 400.769 694.404V664.49C400.769 661.34 396.832 658.978 394.47 661.34L313.391 717.231C311.029 718.806 311.029 721.955 313.391 723.53L393.687 779.438ZM231.516 519.656L255.13 486.594C246.469 473.209 240.957 458.255 237.027 443.295L196.091 436.209C188.217 434.634 183.493 428.335 183.493 421.249V380.32C183.493 372.446 189.004 366.147 196.091 365.36L236.239 359.061C240.176 344.102 245.687 329.147 254.342 315.763L230.728 281.913C226.004 275.614 226.791 266.953 232.303 262.235L260.648 233.889C266.16 228.378 274.82 227.591 280.326 232.315L313.389 255.929C327.561 247.268 342.515 240.969 358.262 237.038L365.348 196.89C366.923 189.016 373.222 184.292 380.308 184.292H421.238C429.111 184.292 435.41 189.803 436.198 196.89L443.284 237.038C458.243 240.975 473.198 247.274 486.582 255.141L519.645 231.527C525.943 227.59 533.817 227.59 539.323 233.102L567.668 261.447C573.18 266.959 573.967 275.62 569.243 281.125L545.629 314.188C553.502 328.36 559.801 342.527 563.732 357.486L603.88 364.572C611.754 366.147 616.478 372.446 616.478 379.532V420.462C616.478 428.335 610.967 434.634 603.88 435.422L563.732 442.508C559.795 457.467 553.496 472.422 545.629 485.806L569.243 518.869C573.967 525.167 573.18 533.828 567.668 538.547L539.323 566.892C533.811 572.404 525.15 573.191 519.645 568.467L486.582 544.853C473.197 552.726 459.031 559.025 444.071 562.956L436.985 603.892C435.41 611.765 429.111 616.489 422.025 616.489H381.096C373.222 616.489 366.923 610.978 366.136 603.892L359.05 563.743C344.09 559.807 329.136 554.295 315.751 545.64L281.901 569.254C275.603 573.978 266.942 573.191 262.223 567.68L233.878 539.334C227.579 534.61 226.791 525.955 231.516 519.656ZM333.853 466.128C370.853 503.128 430.68 503.128 467.678 466.128C504.678 429.128 504.678 369.302 467.678 332.303C430.678 295.305 370.852 295.303 333.853 332.303C296.853 369.303 296.853 429.13 333.853 466.128Z" fill="black"/>
</svg>
