<svg width="800" height="800" viewBox="0 0 800 800" fill="none" xmlns="http://www.w3.org/2000/svg">
<path d="M646 104.797H154C126.938 104.797 104.8 126.934 104.8 153.997V645.997C104.8 673.059 126.938 695.197 154 695.197H646C673.062 695.197 695.2 673.059 695.2 645.997L695.194 153.997C695.194 126.934 673.056 104.797 645.994 104.797H646ZM670.603 646C670.603 659.532 659.531 670.597 646.006 670.597L154.006 670.603C140.475 670.603 129.409 659.531 129.409 646.006L129.403 252.397H670.606L670.603 646ZM670.603 227.797H129.4V154C129.4 140.468 140.472 129.403 153.997 129.403H645.997C659.528 129.403 670.594 140.475 670.594 154L670.603 227.797Z" fill="black"/>
<path d="M584.5 201.969C572.201 201.969 561.13 192.13 561.13 178.598C561.13 165.067 570.969 155.228 584.5 155.228C598.031 155.228 607.87 165.067 607.87 178.598C607.87 192.13 596.799 201.969 584.5 201.969ZM584.5 165.073C577.121 165.073 570.968 171.226 570.968 178.605C570.968 185.984 577.121 192.137 584.5 192.137C591.879 192.137 598.031 185.984 598.031 178.605C598.031 171.22 591.879 165.073 584.5 165.073Z" fill="black"/>
<path d="M633.703 201.969C621.405 201.969 610.333 192.13 610.333 178.598C610.333 165.067 620.172 155.228 633.703 155.228C647.235 155.228 657.073 165.067 657.073 178.598C657.073 192.13 646.002 201.969 633.703 201.969ZM633.703 165.073C626.324 165.073 620.172 171.226 620.172 178.605C620.172 185.984 626.324 192.137 633.703 192.137C641.082 192.137 647.235 185.984 647.235 178.605C647.235 171.22 641.082 165.073 633.703 165.073Z" fill="black"/>
<path d="M535.297 201.969C522.998 201.969 511.927 192.13 511.927 178.598C511.927 165.067 521.765 155.228 535.297 155.228C548.828 155.228 558.667 165.067 558.667 178.598C558.667 192.13 547.595 201.969 535.297 201.969ZM535.297 165.073C527.918 165.073 521.765 171.226 521.765 178.605C521.765 185.984 527.918 192.137 535.297 192.137C542.676 192.137 548.828 185.984 548.828 178.605C548.828 171.22 542.676 165.073 535.297 165.073Z" fill="black"/>
<path d="M461.5 190.906H178.594C171.215 190.906 166.295 185.987 166.295 178.608C166.295 171.228 171.215 166.309 178.594 166.309H461.484C468.864 166.309 473.783 171.228 473.783 178.608C473.789 185.981 468.87 190.906 461.49 190.906H461.5Z" fill="black"/>
<path d="M572.203 363.094H227.797C220.418 363.094 215.498 358.174 215.498 350.795C215.498 343.416 220.418 338.497 227.797 338.497H572.203C579.582 338.497 584.502 343.416 584.502 350.795C584.502 358.174 579.582 363.094 572.203 363.094Z" fill="black"/>
<path d="M572.203 436.891H227.797C220.418 436.891 215.498 431.971 215.498 424.592C215.498 417.213 220.418 412.293 227.797 412.293H572.203C579.582 412.293 584.502 417.213 584.502 424.592C584.502 431.971 579.582 436.891 572.203 436.891Z" fill="black"/>
<path d="M572.203 510.703H227.797C220.418 510.703 215.498 505.784 215.498 498.405C215.498 491.025 220.418 486.106 227.797 486.106H572.203C579.582 486.106 584.502 491.025 584.502 498.405C584.502 505.784 579.582 510.703 572.203 510.703Z" fill="black"/>
<path d="M572.203 584.5H227.797C220.418 584.5 215.498 579.581 215.498 572.201C215.498 564.822 220.418 559.903 227.797 559.903H572.203C579.582 559.903 584.502 564.822 584.502 572.201C584.502 579.581 579.582 584.5 572.203 584.5Z" fill="black"/>
</svg>
