<svg width="800" height="800" viewBox="0 0 800 800" fill="none" xmlns="http://www.w3.org/2000/svg">
<path d="M615.25 295.453C615.25 319.233 595.975 338.502 572.202 338.502C548.428 338.502 529.153 319.233 529.153 295.453C529.153 271.68 548.428 252.405 572.202 252.405C595.975 252.405 615.25 271.68 615.25 295.453Z" fill="black"/>
<path d="M498.406 387.688V473.789H646.001V387.688C646.001 374.638 640.82 362.127 631.591 352.897C622.369 343.675 609.85 338.486 596.8 338.486H547.6C534.557 338.486 522.039 343.674 512.816 352.897C503.588 362.125 498.406 374.638 498.406 387.688Z" fill="black"/>
<path d="M436.891 178.594C436.891 198.973 420.375 215.495 399.995 215.495C379.616 215.495 363.094 198.973 363.094 178.594C363.094 158.214 379.616 141.698 399.995 141.698C420.375 141.698 436.891 158.214 436.891 178.594Z" fill="black"/>
<path d="M338.5 252.406V326.203H461.505V252.406C461.505 242.616 457.617 233.234 450.695 226.314C443.774 219.393 434.392 215.505 424.603 215.505H375.403C365.619 215.505 356.231 219.393 349.311 226.314C342.389 233.236 338.5 242.617 338.5 252.406Z" fill="black"/>
<path d="M455.344 418.438C455.344 449.009 430.564 473.791 399.997 473.791C369.425 473.791 344.644 449.011 344.644 418.438C344.644 387.872 369.423 363.091 399.997 363.091C430.562 363.091 455.344 387.87 455.344 418.438Z" fill="black"/>
<path d="M301.594 535.297V658.302H498.391V535.297C498.391 518.988 491.909 503.345 480.373 491.809C468.844 480.28 453.2 473.798 436.886 473.798H363.089C346.78 473.798 331.137 480.28 319.602 491.809C308.066 503.345 301.591 518.989 301.591 535.297H301.594Z" fill="black"/>
<path d="M270.844 295.453C270.844 319.233 251.569 338.502 227.789 338.502C204.016 338.502 184.741 319.233 184.741 295.453C184.741 271.68 204.016 252.405 227.789 252.405C251.569 252.405 270.844 271.68 270.844 295.453Z" fill="black"/>
<path d="M154 387.688V473.789H301.602V387.688C301.602 374.638 296.414 362.127 287.191 352.897C277.963 343.675 265.45 338.486 252.4 338.486H203.2C190.151 338.486 177.64 343.674 168.41 352.897C159.181 362.125 154 374.638 154 387.688Z" fill="black"/>
<path d="M400 756.703C311.639 756.715 226.422 723.933 160.859 664.692C95.2953 605.458 54.0547 523.994 45.1312 436.083C36.208 348.173 60.2375 260.083 112.569 188.88L143.55 216.406L154.622 121.375L61.5498 143.513L94.0936 172.45C40.9498 243.855 14.467 331.606 19.2279 420.497C23.9889 509.388 59.6936 593.794 120.162 659.122C180.63 724.448 262.045 766.556 350.303 778.153C438.553 789.75 528.084 770.109 603.381 722.623L590.246 701.811L590.24 701.817C533.306 737.748 467.34 756.786 400.006 756.712L400 756.703Z" fill="black"/>
<path d="M400 18.6876C328.016 18.6021 257.489 38.9688 196.625 77.4094L209.76 98.2219C280.036 53.9344 363.563 35.5688 445.932 46.2813C528.305 56.993 604.353 96.1173 660.963 156.908C717.572 217.692 751.197 296.325 756.025 379.252C760.859 462.173 736.603 544.173 687.439 611.127L656.452 583.575L645.38 678.606L738.452 656.469L705.914 627.538C762.463 551.549 788.702 457.225 779.516 362.944C770.33 268.663 726.379 181.194 656.219 117.553C586.06 53.9125 494.719 18.6641 400 18.6829L400 18.6876Z" fill="black"/>
</svg>
