<svg width="800" height="800" viewBox="0 0 800 800" fill="none" xmlns="http://www.w3.org/2000/svg">
<mask id="mask0_3_48" style="mask-type:luminance" maskUnits="userSpaceOnUse" x="6" y="6" width="788" height="788">
<path d="M6.39062 6.39062H793.594V793.594H6.39062V6.39062Z" fill="white"/>
</mask>
<g mask="url(#mask0_3_48)">
<path d="M277 6.39062H104.797C78.7047 6.41504 53.6922 16.7909 35.2469 35.2422C16.7953 53.6875 6.42032 78.6984 6.39532 104.792V276.995C6.41973 303.088 16.7956 328.1 35.2469 346.545C53.6922 364.997 78.7031 375.372 104.797 375.397H277C303.092 375.372 328.105 364.997 346.55 346.545C365.002 328.1 375.377 303.089 375.402 276.995V104.792C375.377 78.7 365.001 53.6875 346.55 35.2422C328.105 16.7906 303.094 6.41563 277 6.39062ZM326.2 276.984C326.182 290.028 320.994 302.534 311.771 311.756C302.549 320.978 290.043 326.167 276.999 326.185H104.796C91.753 326.167 79.2462 320.979 70.0244 311.756C60.8025 302.534 55.6139 290.028 55.5956 276.984V104.781C55.6139 91.738 60.8019 79.2313 70.0244 70.0094C79.2469 60.7875 91.7525 55.5989 104.796 55.5806H276.999C290.043 55.5989 302.549 60.7869 311.771 70.0094C320.993 79.2319 326.182 91.7375 326.2 104.781V276.984ZM695.2 6.39062H522.997C496.911 6.41504 471.892 16.7909 453.447 35.2422C434.995 53.6875 424.62 78.6984 424.595 104.792V276.995C424.62 303.088 434.996 328.1 453.447 346.545C471.892 364.997 496.909 375.372 522.997 375.397H695.2C721.292 375.372 746.305 364.997 764.756 346.545C783.202 328.1 793.577 303.089 793.602 276.995V104.792C793.577 78.7 783.201 53.6875 764.756 35.2422C746.305 16.7906 721.294 6.41563 695.2 6.39062ZM744.4 276.984C744.388 290.028 739.194 302.534 729.971 311.756C720.749 320.979 708.243 326.167 695.199 326.185H522.996C509.953 326.167 497.446 320.979 488.224 311.756C479.002 302.534 473.814 290.028 473.796 276.984V104.781C473.814 91.738 479.002 79.2313 488.224 70.0094C497.447 60.7875 509.953 55.5989 522.996 55.5806H695.199C708.243 55.5989 720.749 60.7869 729.971 70.0094C739.194 79.2317 744.388 91.7375 744.4 104.781V276.984ZM276.994 424.586H104.791C78.6984 424.61 53.6859 434.986 35.2406 453.438C16.7891 471.883 6.41407 496.9 6.38907 522.988V695.191C6.41348 721.283 16.7894 746.295 35.2406 764.747C53.6859 783.192 78.6969 793.567 104.791 793.592H276.994C303.086 793.568 328.098 783.192 346.544 764.747C364.995 746.295 375.37 721.284 375.395 695.191V522.988C375.371 496.902 364.995 471.883 346.544 453.438C328.098 434.986 303.088 424.611 276.994 424.586ZM326.194 695.18C326.175 708.223 320.988 720.73 311.765 729.952C302.543 739.174 290.037 744.368 276.993 744.38H104.79C91.7467 744.368 79.24 739.174 70.0181 729.952C60.7958 720.729 55.6076 708.223 55.5894 695.18V522.977C55.6077 509.933 60.7956 497.427 70.0181 488.205C79.2406 478.983 91.7462 473.794 104.79 473.776H276.993C290.036 473.794 302.543 478.982 311.765 488.205C320.987 497.427 326.175 509.933 326.194 522.977V695.18ZM695.194 424.586H522.991C496.905 424.61 471.886 434.986 453.441 453.438C434.989 471.883 424.614 496.9 424.589 522.988V695.191C424.613 721.283 434.989 746.295 453.441 764.747C471.886 783.192 496.903 793.567 522.991 793.592H695.194C721.286 793.568 746.298 783.192 764.75 764.747C783.195 746.295 793.57 721.284 793.595 695.191V522.988C793.571 496.902 783.195 471.883 764.75 453.438C746.298 434.986 721.288 424.611 695.194 424.586ZM744.394 695.18C744.382 708.223 739.188 720.73 729.965 729.952C720.743 739.174 708.237 744.368 695.193 744.38H522.99C509.947 744.368 497.44 739.174 488.218 729.952C478.996 720.729 473.808 708.223 473.789 695.18V522.977C473.808 509.933 478.996 497.427 488.218 488.205C497.441 478.983 509.946 473.794 522.99 473.776H695.193C708.236 473.794 720.743 478.982 729.965 488.205C739.187 497.427 744.382 509.933 744.394 522.977V695.18Z" fill="black"/>
</g>
</svg>
