<svg width="800" height="800" viewBox="0 0 800 800" fill="none" xmlns="http://www.w3.org/2000/svg">
<mask id="mask0_2_37" style="mask-type:luminance" maskUnits="userSpaceOnUse" x="6" y="660" width="788" height="134">
<path d="M6.39062 660.938H793.594V793.597H6.39062V660.938Z" fill="white"/>
</mask>
<g mask="url(#mask0_2_37)">
<path d="M777.203 662.391H22.7969C13.7392 662.391 6.39688 669.733 6.39688 678.791V711.591C6.39688 733.338 15.0333 754.2 30.4141 769.573C45.795 784.954 66.65 793.591 88.3969 793.591H711.6C733.347 793.591 754.209 784.954 769.583 769.573C784.964 754.199 793.6 733.338 793.6 711.591V678.791C793.6 674.445 791.873 670.27 788.797 667.194C785.72 664.118 781.552 662.391 777.2 662.391L777.203 662.391ZM760.803 711.591C760.803 724.64 755.621 737.158 746.393 746.381C737.17 755.61 724.652 760.792 711.602 760.792H88.3989C75.3496 760.792 62.838 755.61 53.6083 746.381C44.3799 737.159 39.1978 724.641 39.1978 711.591V695.191H285.198C285.198 703.894 288.652 712.231 294.805 718.384C300.957 724.538 309.294 727.991 317.998 727.991H481.998C490.696 727.991 499.039 724.537 505.192 718.384C511.338 712.232 514.799 703.895 514.799 695.191H760.799L760.803 711.591Z" fill="black"/>
</g>
<path d="M695.203 137.594C589.587 137.594 604.511 136.611 613.203 140.053V170.394H695.203C699.555 170.394 703.724 172.121 706.8 175.197C709.876 178.274 711.603 182.442 711.603 186.794V662.388H744.403V186.794C744.403 173.745 739.221 161.233 729.993 152.004C720.77 142.775 708.253 137.594 695.203 137.594ZM55.6094 186.794V662.387H88.4094V186.794C88.4094 177.736 95.7519 170.394 104.809 170.394H186.809V140.053C196.154 136.281 207.964 137.593 104.809 137.593C91.76 137.593 79.2484 142.775 70.0187 152.004C60.7891 161.232 55.6094 173.744 55.6094 186.794Z" fill="black"/>
<path d="M662.391 203.203H613.191V233.544C604.499 236.986 598.268 236.003 645.991 236.003V596.8H153.991V236.003C203.191 236.003 194.83 236.821 186.791 233.544V203.203H137.591C128.533 203.203 121.191 210.546 121.191 219.603V613.197C121.191 617.549 122.918 621.717 125.994 624.794C129.07 627.87 133.239 629.597 137.591 629.597H662.388C666.74 629.597 670.908 627.87 673.984 624.794C677.061 621.718 678.788 617.549 678.788 613.197V219.603C678.788 215.251 677.06 211.083 673.984 208.006C670.908 204.93 666.74 203.203 662.388 203.203L662.391 203.203Z" fill="black"/>
<path d="M416.406 400H383.606C374.549 400 367.206 407.343 367.206 416.4V547.602V547.595C367.206 556.653 374.549 563.995 383.606 563.995C392.664 563.995 400.006 556.653 400.006 547.595V498.402H416.406C433.984 498.402 450.227 489.021 459.016 473.799C467.805 458.576 467.805 439.82 459.016 424.599C450.227 409.376 433.984 400.002 416.406 400.002V400ZM416.406 465.6H400.006V432.8H416.406C425.464 432.8 432.806 440.143 432.806 449.2C432.806 458.258 425.464 465.6 416.406 465.6Z" fill="black"/>
<path d="M299.797 409.016C296.989 403.541 291.356 400.098 285.203 400.098C279.045 400.098 273.411 403.541 270.604 409.016L237.804 474.616C236.003 479.376 236.003 476.917 236.003 547.595C236.003 556.653 243.346 563.995 252.403 563.995C261.461 563.995 268.803 556.653 268.803 547.595V514.802H301.603V547.602V547.595C301.603 556.653 308.946 563.995 318.003 563.995C327.061 563.995 334.403 556.653 334.403 547.595V482.002C334.403 476.423 335.221 479.865 299.797 409.016ZM285.203 453.131L299.632 482.002H270.768L285.203 453.131Z" fill="black"/>
<path d="M547.594 531.187V432.792C556.651 432.792 563.994 425.45 563.994 416.392C563.994 407.335 556.651 399.992 547.594 399.992H514.8C505.742 399.992 498.4 407.335 498.4 416.392C498.4 425.45 505.742 432.792 514.8 432.792V531.194V531.188C505.742 531.188 498.4 538.53 498.4 547.588C498.4 556.645 505.742 563.988 514.8 563.988H547.6H547.594C556.652 563.988 563.994 556.645 563.994 547.588C563.994 538.53 556.651 531.187 547.594 531.187Z" fill="black"/>
<mask id="mask1_2_37" style="mask-type:luminance" maskUnits="userSpaceOnUse" x="218" y="6" width="364" height="363">
<path d="M218.75 6.39062H581.25V368.75H218.75V6.39062Z" fill="white"/>
</mask>
<g mask="url(#mask1_2_37)">
<path d="M580.391 211.391V162.191L542.013 146.773L542.019 146.779C538.863 135.372 534.408 124.36 528.731 113.979L545.131 75.9292L510.202 41.8167L472.152 58.2167C461.77 52.5465 450.759 48.0848 439.352 44.9293L424.593 6.39185H375.393L359.976 44.77C348.568 47.9193 337.563 52.3811 327.176 58.0512L289.126 41.6512L255.02 76.5809L271.42 114.631C265.743 125.019 261.288 136.023 258.132 147.431L219.595 162.189V211.389L257.973 226.807H257.967C261.122 238.214 265.578 249.219 271.254 259.607L254.854 297.657L289.62 332.422L327.67 316.022C338.058 321.699 349.062 326.154 360.47 329.31L375.393 367.194H424.593L440.01 328.816C451.418 325.66 462.423 321.205 472.81 315.535L510.86 331.935L545.626 297.169L529.226 259.119V259.113C534.896 248.731 539.358 237.721 542.513 226.313L580.391 211.391ZM346.031 207.948C350.767 212.642 352.184 219.728 349.632 225.881C347.075 232.033 341.051 236.031 334.392 235.995C325.371 235.995 324.883 233.37 289.947 198.44C286.84 195.358 285.094 191.165 285.094 186.794C285.094 182.418 286.84 178.231 289.947 175.149L322.747 142.349C329.18 135.916 339.604 135.916 346.031 142.349C352.464 148.782 352.464 159.207 346.031 165.64L324.711 186.794L346.031 207.948ZM431.969 142.348L399.169 240.75C396.27 249.356 386.95 253.982 378.344 251.083C369.738 248.184 365.111 238.858 368.01 230.252L400.81 131.85C403.844 123.025 413.463 118.325 422.295 121.358C431.127 124.392 435.826 134.011 432.793 142.843L431.969 142.348ZM510.033 197.945C475.267 233.205 474.608 235.995 465.594 235.995C458.929 236.032 452.905 232.034 450.347 225.882C447.796 219.729 449.218 212.643 453.948 207.949L475.269 186.794L453.948 165.639C447.515 159.206 447.515 148.782 453.948 142.349C460.375 135.916 470.806 135.916 477.233 142.349L510.033 175.149C513.139 178.231 514.885 182.418 514.885 186.794C514.885 191.164 513.139 195.357 510.033 198.44L510.033 197.945Z" fill="black"/>
</g>
</svg>
