<svg width="800" height="800" viewBox="0 0 800 800" fill="none" xmlns="http://www.w3.org/2000/svg">
<path d="M401.25 26.2969C350.097 26.2969 286.809 38.1988 234.906 70.3344C183.003 102.47 142.945 156.431 142.945 235.428C142.945 319.358 202.766 435.756 263.161 533.866C293.361 582.92 323.897 626.998 347.773 658.981C359.712 674.972 369.972 687.967 377.827 697.128C381.751 701.712 385.059 705.331 387.916 708.108C389.344 709.5 390.644 710.684 392.194 711.831C393.738 712.979 394.391 715.097 401.276 715.097C407.813 715.097 408.515 713.076 410.071 711.996C411.622 710.916 412.995 709.878 414.442 708.56C417.341 705.917 420.612 702.389 424.604 698.013C432.587 689.267 443.091 676.974 455.207 661.618C479.451 630.899 510.395 588.308 540.901 540.225C601.874 444.119 661.774 327.054 659.577 235.226C659.529 156.344 619.545 102.455 567.688 70.3505C515.79 38.2161 452.429 26.2896 401.282 26.2896L401.25 26.2969ZM389 110.739H413.622V141.439C441.052 144.039 466.052 155.019 486.052 171.828L517.21 140.981L534.557 158.492L503.422 189.339C519.713 209.194 530.289 233.864 532.805 260.836H563.7V285.439H532.828C530.332 312.428 519.742 337.111 503.446 356.978L534.555 387.85L517.208 405.294L486.099 374.495C466.091 391.317 441.067 402.309 413.619 404.909V435.538H388.997V404.934C361.458 402.426 336.318 391.488 316.232 374.667L285.311 405.295L268.063 387.852L298.935 357.267C282.497 337.358 271.822 312.566 269.314 285.441H238.925V260.838H269.339C271.866 233.75 282.517 208.977 298.935 189.078L268.063 158.5L285.311 140.989L316.28 171.641C336.361 154.838 361.489 143.931 388.997 141.416L389 110.739ZM401.085 165.414C341.412 165.414 293.315 213.509 293.315 273.184C293.315 332.859 341.41 380.955 401.085 380.955C460.759 380.955 508.856 332.859 508.856 273.184C508.856 213.509 460.76 165.414 401.085 165.414ZM443.224 214.255C458.843 214.255 471.715 227.249 471.715 242.867C471.715 258.485 458.837 271.358 443.224 271.358C427.605 271.358 414.612 258.479 414.612 242.867C414.612 227.248 427.606 214.255 443.224 214.255ZM354.504 224.246C370.123 224.246 383.117 237.149 383.117 252.762C383.117 268.381 370.122 281.252 354.504 281.252C338.885 281.252 325.988 268.374 325.988 252.762C325.988 237.143 338.885 224.246 354.504 224.246ZM413.531 293.698C429.15 293.698 442.046 306.692 442.046 322.31C442.046 337.928 429.15 350.801 413.531 350.801C397.912 350.801 385.015 337.922 385.015 322.31C385.015 306.691 397.912 293.698 413.531 293.698ZM527.209 599.948L521.923 623.923C552.404 630.521 577.526 639.64 593.945 649.534C610.37 659.421 616.553 668.998 616.553 676.127C616.553 681.712 613.098 688.438 603.29 696.213C593.482 703.989 577.941 711.759 558.246 718.363C518.854 731.571 462.976 740.152 401.246 740.152C339.527 740.152 283.668 731.577 244.277 718.363C224.582 711.759 209.035 703.989 199.234 696.213C189.425 688.437 186.068 681.711 186.068 676.127C186.068 669.133 191.97 659.807 207.76 650.084C223.55 640.361 247.745 631.388 277.237 624.741L271.787 600.693C240.505 607.742 214.285 617.246 194.888 629.184C175.491 641.128 161.471 656.71 161.471 676.126C161.471 691.617 170.754 704.965 183.98 715.451C197.206 725.937 214.987 734.482 236.471 741.684C279.44 756.094 337.294 764.749 401.252 764.749C465.205 764.749 523.182 756.094 566.158 741.684C587.643 734.481 605.429 725.937 618.649 715.451C631.875 704.965 641.158 691.616 641.158 676.126C641.158 656.338 626.602 640.53 606.563 628.463C586.526 616.397 559.48 606.937 527.212 599.948H527.209Z" fill="black"/>
</svg>
