<svg width="800" height="800" viewBox="0 0 800 800" fill="none" xmlns="http://www.w3.org/2000/svg">
<mask id="mask0_1_13" style="mask-type:luminance" maskUnits="userSpaceOnUse" x="110" y="6" width="580" height="749">
<path d="M110.938 6.39062H689.062V754.688H110.938V6.39062Z" fill="white"/>
</mask>
<g mask="url(#mask0_1_13)">
<path d="M606.375 511.391C620.267 507.094 634.731 504.927 649.277 504.957H662.399C666.726 504.957 672.897 506.27 678.146 507.32C683.395 508.369 685.232 508.894 688.644 509.944L688.638 176.96C688.772 175.91 688.772 174.854 688.638 173.81C688.082 171.479 686.904 169.349 685.226 167.64L527.789 10.2022C526.025 8.31625 523.742 6.99171 521.227 6.39967C520.184 6.2654 519.122 6.2654 518.078 6.39967H177.875C160.236 6.39967 143.317 13.4066 130.84 25.8825C118.364 38.3584 111.358 55.2762 111.358 72.9169V687.729C111.358 705.375 118.365 722.293 130.84 734.764C143.316 747.239 160.234 754.247 177.875 754.247H550.359L546.294 750.31V750.316C539.574 743.492 533.556 736.022 528.319 728.008C527.141 726.171 525.957 724.334 524.907 722.497L522.545 718.297C522.545 718.297 521.892 717.12 521.495 716.46C521.105 715.807 519.268 712.133 518.218 709.899C517.168 707.671 515.465 703.6 514.281 700.323V700.329C512.987 697.161 511.895 693.92 510.997 690.618C509.966 687.481 509.136 684.283 508.507 681.042C508.446 680.651 508.446 680.248 508.507 679.858C507.854 676.708 507.195 673.559 506.804 670.409C506.804 666.998 505.889 663.457 505.626 660.046C505.364 656.634 505.626 653.619 505.626 650.335L505.62 649.291C505.553 618.573 515.294 588.641 533.415 563.841C551.537 539.037 577.098 520.665 606.383 511.401L606.375 511.391ZM596.793 386.878H452.475C445.23 386.878 439.353 381.007 439.353 373.756C439.353 366.511 445.23 360.639 452.475 360.639H596.793C604.043 360.639 609.915 366.511 609.915 373.756C609.915 381.007 604.043 386.878 596.793 386.878ZM609.915 426.239C609.915 429.718 608.536 433.057 606.07 435.516C603.61 437.976 600.278 439.355 596.793 439.355H360.636C353.391 439.355 347.514 433.484 347.514 426.239C347.514 418.994 353.391 413.117 360.636 413.117H596.793C600.278 413.117 603.61 414.502 606.07 416.962C608.536 419.421 609.915 422.76 609.915 426.239ZM531.192 51.1297L587.612 107.416L644.026 163.83H571.473C560.798 163.793 550.574 159.539 543.031 151.995C535.481 144.451 531.226 134.222 531.19 123.553L531.192 51.1297ZM190.067 308.161H596.785C604.036 308.161 609.908 314.032 609.908 321.277C609.908 328.522 604.036 334.4 596.785 334.4H190.067C182.822 334.4 176.95 328.522 176.95 321.277C176.95 314.032 182.822 308.161 190.067 308.161ZM190.067 360.639H386.863C394.108 360.639 399.986 366.511 399.986 373.755C399.986 381.006 394.108 386.878 386.863 386.878H190.067C182.822 386.878 176.95 381.006 176.95 373.755C176.95 366.511 182.822 360.639 190.067 360.639ZM190.067 413.117H308.151C315.396 413.117 321.267 418.995 321.267 426.24C321.267 433.485 315.396 439.356 308.151 439.356H190.067C182.822 439.356 176.95 433.485 176.95 426.24C176.95 418.995 182.822 413.117 190.067 413.117ZM190.067 491.841C182.822 491.841 176.95 485.963 176.95 478.718C176.95 471.473 182.822 465.602 190.067 465.602H596.785C600.271 465.602 603.603 466.981 606.063 469.441C608.528 471.9 609.908 475.239 609.908 478.718C609.938 480.58 609.536 482.423 608.73 484.095C608.498 484.706 608.193 485.279 607.808 485.804C607.265 486.561 606.655 487.263 605.971 487.904C605.464 488.453 604.891 488.942 604.268 489.344C603.597 489.863 602.84 490.266 602.034 490.529C601.253 490.925 600.411 491.194 599.544 491.316L596.785 491.841L190.067 491.841Z" fill="black"/>
</g>
<path d="M649.281 531.188C617.964 531.188 587.928 543.632 565.784 565.777C543.641 587.92 531.195 617.956 531.195 649.273C531.195 680.591 543.64 710.627 565.784 732.77C587.928 754.914 617.964 767.353 649.281 767.353C691.469 767.353 730.445 744.85 751.539 708.314C772.633 671.778 772.633 626.766 751.539 590.236C730.445 553.7 691.469 531.191 649.281 531.191V531.188ZM701.759 662.389H596.797V636.15H701.759V662.389Z" fill="black"/>
</svg>
