<svg width="800" height="800" viewBox="0 0 800 800" fill="none" xmlns="http://www.w3.org/2000/svg">
<path d="M170.391 236C170.391 201.203 184.215 167.83 208.819 143.227C233.422 118.623 266.795 104.798 301.592 104.798C336.389 104.798 369.756 118.623 394.366 143.227C418.969 167.83 432.794 201.203 432.794 236C432.794 270.797 418.969 304.164 394.366 328.773C369.756 353.377 336.389 367.202 301.592 367.202C266.808 367.159 233.459 353.322 208.861 328.731C184.264 304.134 170.427 270.784 170.391 236ZM520.813 535.469C493.536 480.916 446.892 438.491 390.002 416.488C333.117 394.484 270.067 394.484 213.173 416.488C156.28 438.491 109.645 480.916 82.3625 535.469L75.4472 549.318V549.324C73.1645 553.877 71.9803 558.906 71.9866 564.003V662.404C71.9866 671.108 75.4411 679.451 81.5935 685.598C87.7458 691.75 96.0892 695.205 104.787 695.205H498.397C507.094 695.205 515.437 691.75 521.584 685.598C527.736 679.452 531.191 671.108 531.191 662.404V564.003C531.197 558.918 530.013 553.901 527.736 549.348L520.813 535.469ZM662.389 334.406V268.806H596.789V334.406H531.189V400.006H596.789V465.606H662.389V400.006H727.989V334.406H662.389Z" fill="black"/>
</svg>
