<svg width="800" height="800" viewBox="0 0 800 800" fill="none" xmlns="http://www.w3.org/2000/svg">
<path d="M496.156 348.766C500.27 343.443 499.348 335.802 494.081 331.614C488.82 327.427 481.166 328.245 476.906 333.451C473.152 338.187 467.385 340.861 461.348 340.666C455.318 340.47 449.727 337.431 446.291 332.469C444.002 330.131 440.865 328.813 437.593 328.813C434.322 328.813 431.191 330.131 428.896 332.469C424.099 337.272 424.099 345.06 428.896 349.864C437.343 359.77 449.769 365.385 462.783 365.172C475.802 364.958 488.039 358.94 496.156 348.766Z" fill="black"/>
<path d="M372.078 348.766C376.192 343.443 375.27 335.802 370.009 331.614C364.742 327.427 357.088 328.245 352.828 333.451C349.08 338.187 343.306 340.861 337.276 340.666C331.24 340.47 325.655 337.431 322.213 332.469C319.924 330.131 316.793 328.813 313.515 328.813C310.244 328.813 307.112 330.131 304.824 332.469C300.02 337.272 300.02 345.06 304.824 349.864C313.265 359.77 325.691 365.385 338.711 365.172C351.724 364.958 363.961 358.94 372.078 348.766Z" fill="black"/>
<path d="M433.203 398.063C430.908 395.713 427.759 394.4 424.481 394.425C421.197 394.449 418.066 395.804 415.808 398.185C411.682 402.524 405.957 404.972 399.969 404.972C393.981 404.972 388.256 402.524 384.124 398.185C381.865 395.804 378.734 394.449 375.451 394.425C372.173 394.4 369.024 395.713 366.729 398.063C361.956 402.86 361.901 410.593 366.607 415.458C375.396 424.412 387.419 429.459 399.969 429.459C412.512 429.459 424.536 424.412 433.325 415.458C438.031 410.593 437.976 402.86 433.203 398.063Z" fill="black"/>
<path d="M92.5 769H707.5C710.759 769 713.89 767.7 716.197 765.399C718.499 763.092 719.799 759.961 719.799 756.701C719.988 688.134 685.753 624.053 628.655 586.092C589.745 561.483 548.406 540.956 505.285 524.837C494.829 514.26 476.872 495.314 474.291 477.853C494.719 468.814 512.31 454.39 525.175 436.123C538.047 417.861 545.708 396.444 547.349 374.167C562.705 371.079 576.303 362.241 585.361 349.461C594.413 336.68 598.24 320.92 596.061 305.406C604.191 296.397 608.756 284.722 608.89 272.581C609.024 260.447 604.728 248.673 596.793 239.481V184.745C596.793 99.9983 508.48 30.9921 399.996 30.9921C291.505 30.9921 203.199 99.9983 203.199 184.745V239.481C195.271 248.673 190.968 260.447 191.102 272.581C191.242 284.721 195.802 296.397 203.938 305.406C201.753 320.921 205.58 336.681 214.637 349.461C223.689 362.242 237.287 371.08 252.643 374.167C254.285 396.445 261.951 417.862 274.817 436.123C287.689 454.39 305.273 468.814 325.707 477.853C323.126 495.322 305.168 514.261 294.714 524.837H294.708C251.586 540.956 210.247 561.483 171.337 586.092C114.239 624.05 80.0045 688.131 80.1936 756.701C80.1936 759.961 81.4936 763.092 83.8008 765.399C86.108 767.7 89.233 769 92.4983 769H92.5ZM277 719.8H252.397C245.604 719.8 240.098 714.295 240.098 707.501C240.098 700.708 245.604 695.197 252.397 695.197H276.994C283.787 695.197 289.292 700.708 289.292 707.501C289.292 714.295 283.787 719.8 276.994 719.8H277ZM412.303 744.397H387.694V712.17L399.992 708.111L412.291 712.17L412.303 744.397ZM461.503 702.697L407.75 684.863L407.744 684.869C402.721 683.141 397.27 683.141 392.247 684.869L338.494 702.703V670.598H461.499L461.503 702.697ZM514.641 620.409L551.542 571.581H551.53C573.546 581.646 594.761 593.364 615 606.641C661.655 637.58 691.178 688.538 694.828 744.397H609.099V670.6C609.074 664.081 606.48 657.838 601.872 653.223C597.258 648.615 591.014 646.021 584.496 645.997H412.292V598.767C416.388 598.01 420.386 596.814 424.225 595.197L483.264 627.179C488.434 629.993 494.445 630.854 500.201 629.615C505.957 628.376 511.072 625.11 514.63 620.417L514.641 620.409ZM547.594 348.581V321.397C555.437 323.411 563.664 323.326 571.458 321.153C568.845 333.842 559.8 344.241 547.594 348.581ZM399.998 104.8C406.523 104.8 412.779 107.394 417.394 112.002C422.002 116.616 424.596 122.873 424.596 129.398C424.596 135.923 422.002 142.178 417.394 146.793C412.78 151.407 406.523 154.001 399.998 154.001C393.473 154.001 387.218 151.407 382.603 146.793C377.989 142.179 375.395 135.923 375.395 129.398C375.395 122.873 377.989 116.617 382.603 112.002C387.217 107.394 393.473 104.8 399.998 104.8ZM252.397 348.581C240.19 344.242 231.144 333.841 228.533 321.152C236.345 323.208 244.542 323.294 252.397 321.396V348.581ZM218.944 284.128H218.938C215.282 277.848 214.525 270.285 216.856 263.4C219.194 256.515 224.394 250.973 231.114 248.214C272.936 225.827 332.836 213.528 399.989 213.528C467.145 213.528 527.045 225.827 568.864 248.214H568.87C575.377 251.138 580.394 256.613 582.756 263.345C585.112 270.077 584.605 277.487 581.346 283.834C578.087 290.182 572.368 294.912 565.519 296.92C558.671 298.928 551.304 298.037 545.127 294.46C511.674 276.87 454.599 265.554 399.985 265.554C345.371 265.554 288.302 276.87 254.843 294.46H254.849C248.806 298.245 241.439 299.282 234.585 297.311C227.73 295.339 222.042 290.542 218.929 284.127L218.944 284.128ZM277 370.23L276.994 311.313C316.306 296.609 358.03 289.431 399.999 290.158C441.96 289.432 483.685 296.609 522.997 311.313V370.23C522.997 425.455 467.772 470.352 399.999 470.352C332.225 470.352 276.994 425.455 276.994 370.23H277ZM348.949 487.081C382.17 497.573 417.82 497.573 451.042 487.081C456.633 504.342 466.197 520.058 478.96 532.955L419.549 569.978H419.555C413.695 573.659 406.914 575.606 399.998 575.606C393.077 575.606 386.302 573.659 380.436 569.978L321.025 532.955H321.031C333.794 520.058 343.358 504.342 348.949 487.081ZM184.986 606.638C205.225 593.362 226.441 581.644 248.456 571.578L285.358 620.406V620.412C288.91 625.106 294.031 628.371 299.78 629.61C305.536 630.849 311.548 629.989 316.718 627.175L375.757 595.192H375.763C379.596 596.81 383.6 598.006 387.689 598.763V645.993H215.486C208.968 646.017 202.724 648.611 198.116 653.219C193.502 657.833 190.908 664.077 190.889 670.596V744.393H105.153C108.803 688.533 138.325 637.575 184.982 606.636L184.986 606.638Z" fill="black"/>
</svg>
