<svg width="800" height="800" viewBox="0 0 800 800" fill="none" xmlns="http://www.w3.org/2000/svg">
<path d="M221.766 514.016C221.766 470.198 241.07 429.945 272.858 402.467C264.685 396.828 255.773 392.366 246.125 389.1L245.234 388.801C231.275 410.487 210.773 426.973 186.867 426.973C163.253 426.973 143.05 410.933 128.939 389.694C86.7573 404.397 58.3886 444.205 58.3886 488.912V504.953C58.3886 516.391 67.7453 525.753 79.1839 525.753L221.768 525.747L221.766 514.016Z" fill="black"/>
<path d="M186.859 412.781C222.736 412.781 251.825 360.92 251.825 325.037C251.825 289.161 222.742 260.072 186.859 260.072C150.983 260.072 121.894 289.161 121.894 325.037C121.894 360.92 150.983 412.781 186.859 412.781Z" fill="black"/>
<path d="M669.578 389.094L668.687 388.795C654.728 410.481 634.226 426.967 610.167 426.967C586.553 426.967 566.349 410.926 552.239 389.687C543.181 392.806 534.862 397.115 527.287 402.455C559.074 429.934 578.379 470.187 578.379 514.004V525.741H720.97C732.408 525.741 741.618 516.378 741.618 504.941V488.9C741.612 443.6 712.651 403.353 669.579 389.096L669.578 389.094Z" fill="black"/>
<path d="M545.25 325.031C545.25 360.914 574.333 412.775 610.216 412.775C646.092 412.775 675.181 360.914 675.181 325.031C675.181 289.155 646.098 260.066 610.216 260.066C574.333 260.066 545.25 289.155 545.25 325.031Z" fill="black"/>
<path d="M537.984 560.5C552.389 560.5 564.125 548.915 564.125 534.353V514.009C564.125 456.825 527.437 406.027 473.078 388.052L468.47 386.568C451.386 412.564 426.881 432.162 398.218 432.162C369.85 432.162 345.49 413.003 328.559 387.461L326.923 388.053C272.565 406.028 235.876 456.821 235.876 514.01V534.354C235.876 548.917 247.613 560.501 262.164 560.501H287.561V520.254C287.561 516.244 290.826 512.826 294.989 512.826C298.999 512.826 302.417 516.244 302.417 520.254V560.507H497.729V520.254C497.729 516.244 500.995 512.826 505.157 512.826C509.167 512.826 512.585 516.244 512.585 520.254V560.507L537.984 560.5Z" fill="black"/>
<path d="M398.141 417.922C443.459 417.922 480.197 352.413 480.197 307.094C480.197 261.775 443.459 225.037 398.141 225.037C352.822 225.037 316.078 261.775 316.078 307.094C316.084 352.413 352.822 417.922 398.141 417.922Z" fill="black"/>
<path d="M192.547 192.438C302.453 82.5625 478.344 78.5391 593.469 179.76H575.622C571.514 179.76 568.194 183.081 568.194 187.188C568.194 191.296 571.514 194.616 575.622 194.616H612.756C613.721 194.616 614.685 194.421 615.594 194.043C617.413 193.292 618.86 191.845 619.617 190.027C619.989 189.117 620.19 188.153 620.19 187.188V150.054C620.19 145.946 616.87 142.626 612.762 142.626C608.655 142.626 605.334 145.946 605.334 150.054V170.482C484.442 62.2369 298.162 65.826 182.053 181.938C179.154 184.838 179.154 189.537 182.053 192.443C184.952 195.342 189.652 195.342 192.551 192.437L192.547 192.438Z" fill="black"/>
<path d="M607.5 607.391C497.375 717.492 321 721.294 205.891 619.445H223.456C227.564 619.445 230.884 616.125 230.884 612.017C230.884 607.909 227.564 604.589 223.456 604.589H186.322C182.214 604.589 178.894 607.909 178.894 612.017V649.151C178.894 653.259 182.214 656.579 186.322 656.579C190.43 656.579 193.75 653.259 193.75 649.151V628.467C252.228 681.281 326.025 708.026 400.031 708.026C478.969 708.026 557.922 677.984 618 617.895C620.899 614.996 620.899 610.296 618 607.391C615.095 604.492 610.395 604.492 607.496 607.391L607.5 607.391Z" fill="black"/>
</svg>
