<svg width="800" height="800" viewBox="0 0 800 800" fill="none" xmlns="http://www.w3.org/2000/svg">
<path d="M707.5 400C707.5 482.141 675.505 559.359 617.436 617.437C612.626 622.247 612.626 630.023 617.436 634.833C619.835 637.232 622.984 638.434 626.133 638.434C629.283 638.434 632.432 637.231 634.831 634.833C697.545 572.102 732.097 488.708 732.097 400.005C732.097 311.301 697.545 227.911 634.825 165.176C630.015 160.367 622.239 160.367 617.429 165.176C612.62 169.986 612.62 177.762 617.429 182.572C675.504 240.647 707.5 317.869 707.5 400.009L707.5 400Z" fill="black"/>
<path d="M173.859 638.437C177.009 638.437 180.158 637.235 182.557 634.836C187.366 630.027 187.366 622.251 182.557 617.441C124.488 559.36 92.4991 482.138 92.4991 400.004C92.4991 317.863 124.494 240.644 182.563 182.566C187.373 177.756 187.373 169.981 182.563 165.171C177.754 160.361 169.978 160.361 165.168 165.171C102.447 227.897 67.8959 311.296 67.8959 399.999C67.8959 488.702 102.447 572.093 165.168 634.827C167.579 637.226 170.716 638.428 173.859 638.428L173.859 638.437Z" fill="black"/>
<path d="M633.703 400C633.703 462.42 609.387 521.119 565.252 565.266C560.442 570.075 560.442 577.851 565.252 582.661C567.65 585.06 570.8 586.262 573.949 586.262C577.098 586.262 580.248 585.06 582.647 582.661C683.361 481.947 683.361 318.067 582.647 217.364C577.837 212.555 570.061 212.555 565.251 217.364C560.442 222.174 560.442 229.95 565.251 234.759C609.386 278.888 633.703 337.58 633.703 400.009L633.703 400Z" fill="black"/>
<path d="M217.359 582.656C219.758 585.055 222.908 586.257 226.057 586.257C229.206 586.257 232.356 585.055 234.754 582.656C239.564 577.847 239.564 570.071 234.754 565.261C190.62 521.12 166.303 462.423 166.303 399.995C166.303 337.567 190.618 278.876 234.754 234.73C239.564 229.92 239.564 222.144 234.754 217.334C229.945 212.524 222.169 212.525 217.359 217.334C116.651 318.061 116.651 481.928 217.359 582.647L217.359 582.656Z" fill="black"/>
<path d="M513.062 530.453C515.461 532.852 518.611 534.054 521.76 534.054C524.909 534.054 528.059 532.852 530.457 530.453C602.387 458.511 602.387 341.469 530.457 269.531C525.648 264.722 517.872 264.722 513.062 269.531C508.252 274.341 508.253 282.117 513.062 286.927C575.398 349.262 575.398 450.708 513.062 513.067C508.265 517.877 508.265 525.659 513.062 530.456L513.062 530.453Z" fill="black"/>
<path d="M269.547 530.453C271.946 532.852 275.095 534.054 278.244 534.054C281.394 534.054 284.543 532.852 286.942 530.453C291.751 525.644 291.751 517.868 286.942 513.058C224.606 450.722 224.606 349.277 286.942 286.917C291.751 282.108 291.751 274.332 286.942 269.522C282.132 264.712 274.356 264.712 269.547 269.522C197.604 341.47 197.604 458.522 269.547 530.444L269.547 530.453Z" fill="black"/>
<path d="M400 313.891C446.619 313.891 486.102 353.375 486.102 399.992C486.102 446.609 446.617 486.094 400 486.094C353.383 486.094 313.898 446.609 313.898 399.992C313.898 353.375 353.383 313.891 400 313.891Z" fill="black"/>
</svg>
