<svg width="800" height="800" viewBox="0 0 800 800" fill="none" xmlns="http://www.w3.org/2000/svg">
<path d="M703.187 632.469C703.187 613.402 695.808 594.956 682.277 581.425L502.089 401.222C515.621 372.933 523 341.566 523 308.356C523 299.134 522.384 290.522 521.157 281.909C520.54 276.99 515.621 273.297 510.701 273.914C505.782 274.53 502.089 279.45 502.706 284.369C503.939 292.365 503.939 300.36 503.939 308.966C503.939 416.589 416.609 503.919 308.986 503.919C201.362 503.919 115.267 415.974 115.267 308.966C115.267 201.953 202.597 114.013 310.22 114.013C384.634 114.013 453.518 157.677 486.111 224.713C488.57 229.016 494.106 231.475 498.409 229.016C502.712 226.556 505.172 221.02 502.712 216.717C467.659 142.92 392.012 95.5625 310.212 95.5625C192.743 95.5625 96.8059 190.887 96.8059 308.969C96.8059 427.047 192.747 522.375 310.212 522.375C342.195 522.375 372.328 515.612 399.384 502.697L580.196 683.509C594.344 697.657 612.789 704.42 631.24 704.42C649.692 704.42 668.142 697.658 682.284 683.509C695.816 669.984 703.195 651.533 703.195 632.472L703.187 632.469ZM593.105 670.597L416.605 493.472C447.97 475.02 474.417 449.191 492.863 418.441L669.363 594.941C679.201 604.78 684.737 618.311 684.737 633.069C684.737 647.217 679.201 660.742 669.363 671.197C648.452 690.881 614.016 690.881 593.105 670.586V670.597Z" fill="black"/>
<path d="M284.984 225.328L165.673 344.639C161.981 348.332 161.981 353.861 165.673 357.554C169.366 361.247 174.896 361.247 178.588 357.554L284.368 251.774L400.604 368.01L593.713 174.901L591.87 190.276C591.254 195.195 594.946 200.115 599.866 200.731H601.099C605.402 200.731 609.711 197.038 610.321 192.735L615.857 145.377L566.657 139.225C561.738 138.609 556.818 142.301 556.202 147.221C555.585 152.14 559.278 157.06 564.197 157.676L582.032 160.136L400.61 341.558L284.984 225.328Z" fill="black"/>
</svg>
