<svg width="800" height="800" viewBox="0 0 800 800" fill="none" xmlns="http://www.w3.org/2000/svg">
<path d="M757.578 554.687L654.886 451.995L597.397 509.484L700.089 612.177C715.952 628.039 741.716 628.039 757.578 612.177C773.441 596.197 773.441 570.55 757.578 554.687Z" fill="black"/>
<path d="M30.4844 496.25H110.636V574.253H30.4844V496.25Z" fill="black"/>
<path d="M100.734 360.156H234.438C247.56 360.156 258.291 349.42 258.291 336.303L258.297 202.478C258.297 189.356 247.561 178.625 234.444 178.625L100.734 178.619C87.6117 178.619 76.8811 189.355 76.8811 202.472V336.175C76.8811 349.42 87.4953 360.156 100.734 360.156ZM127.694 233.13C127.694 223.706 138.192 217.981 146.059 223.108L201.998 259.369C209.274 264.02 209.274 274.633 201.998 279.406L146.059 315.667C138.07 320.794 127.694 315.069 127.694 305.645V233.13Z" fill="black"/>
<path d="M197.469 125.672H543.359V157.037C560.297 162.402 576.281 170.16 591.07 179.937L591.064 77.9594C591.064 51.5984 569.714 30.2484 543.353 30.2484H197.463C171.102 30.2484 149.752 51.5984 149.752 77.9594V154.772H197.463L197.469 125.672ZM287.997 66.0343H452.841C459.402 66.0343 464.767 71.3994 464.767 77.9606C464.767 84.5219 459.402 89.8869 452.841 89.8869H287.997C281.436 89.8869 276.071 84.5219 276.071 77.9606C276.071 71.3994 281.436 66.0343 287.997 66.0343Z" fill="black"/>
<path d="M543.359 521.781V626.622H197.469V598.119H149.758V722.039C149.758 748.4 171.108 769.75 197.469 769.75H543.359C569.72 769.75 591.07 748.4 591.07 722.039L591.064 536.805L566.852 512.592C559.222 516.169 551.349 519.269 543.36 521.778L543.359 521.781ZM370.406 728C353.945 728 340.591 714.639 340.591 698.184C340.591 681.723 353.951 668.369 370.406 668.369C386.867 668.369 400.222 681.729 400.222 698.184C400.228 714.645 386.867 728 370.406 728Z" fill="black"/>
<path d="M149.766 384.016H197.477V472.394H149.766V384.016Z" fill="black"/>
<path d="M565.063 259.375C543.713 238.025 515.209 226.214 484.911 226.214C454.612 226.214 426.225 238.024 404.759 259.375C383.409 280.725 371.598 309.228 371.598 339.527C371.598 369.825 383.409 398.213 404.759 419.678C426.109 441.15 454.612 452.839 484.911 452.839C515.209 452.839 543.597 441.029 565.063 419.678C586.413 398.328 598.223 369.825 598.223 339.527C598.223 309.228 586.413 280.841 565.063 259.375ZM414.067 363.378C400.945 363.378 390.214 352.642 390.214 339.525C390.214 326.403 400.95 315.672 414.067 315.672C427.19 315.672 437.92 326.408 437.92 339.525C437.92 352.648 427.184 363.378 414.067 363.378ZM484.911 363.378C471.788 363.378 461.058 352.642 461.058 339.525C461.058 326.403 471.794 315.672 484.911 315.672C498.033 315.672 508.764 326.408 508.764 339.525C508.77 352.648 498.15 363.378 484.911 363.378ZM555.883 363.378C542.76 363.378 532.03 352.642 532.03 339.525C532.03 326.403 542.766 315.672 555.883 315.672C569.005 315.672 579.736 326.408 579.736 339.525C579.736 352.648 569.122 363.378 555.883 363.378Z" fill="black"/>
<path d="M617.797 441.734C668.725 376.017 663.836 281.187 603.606 220.953C538.006 155.353 431.856 155.353 366.372 220.953C300.894 286.431 300.894 392.594 366.372 458.062C426.608 518.298 521.425 523.187 587.262 472.375L593.94 479.052L624.476 448.517L617.797 441.734ZM484.923 476.683C448.308 476.683 413.836 462.37 387.956 436.484C362.072 410.6 347.758 376.133 347.758 339.517C347.758 302.901 362.071 268.43 387.956 242.55C413.841 216.666 448.308 202.351 484.923 202.351C521.539 202.351 556.011 216.664 581.891 242.55C607.775 268.434 622.089 302.901 622.089 339.517C622.089 376.133 607.776 410.605 581.891 436.484C556.012 462.369 521.545 476.683 484.923 476.683Z" fill="black"/>
<path d="M352.281 496.25H134.609V574.253H352.281V496.25ZM311.369 547.178H175.517C168.956 547.178 163.591 541.813 163.591 535.252C163.591 528.691 168.956 523.326 175.517 523.326H311.369C317.93 523.326 323.295 528.691 323.295 535.252C323.295 541.813 317.93 547.178 311.369 547.178Z" fill="black"/>
</svg>
