<svg width="800" height="800" viewBox="0 0 800 800" fill="none" xmlns="http://www.w3.org/2000/svg">
<path d="M321.281 384.25C321.281 401.639 307.182 415.738 289.794 415.738C272.405 415.738 258.306 401.639 258.306 384.25C258.306 366.862 272.405 352.763 289.794 352.763C307.182 352.763 321.281 366.862 321.281 384.25Z" fill="black"/>
<path d="M541.688 384.25C541.688 401.639 527.588 415.738 510.2 415.738C492.812 415.738 478.713 401.639 478.713 384.25C478.713 366.862 492.812 352.763 510.2 352.763C527.588 352.763 541.688 366.862 541.688 384.25Z" fill="black"/>
<path d="M431.484 384.25C431.484 401.639 417.385 415.738 399.997 415.738C382.602 415.738 368.509 401.639 368.509 384.25C368.509 366.862 382.602 352.763 399.997 352.763C417.386 352.763 431.484 366.862 431.484 384.25Z" fill="black"/>
<path d="M336.156 612.547C379.589 623.24 425.011 622.837 468.248 611.363C484.667 633.916 509.581 648.789 537.225 652.538C564.867 656.285 592.847 648.583 614.678 631.218C636.511 613.853 650.311 588.328 652.873 560.55C655.443 532.774 646.562 505.149 628.283 484.074C643.828 453.099 651.916 418.919 651.903 384.257C651.903 254.05 538.859 148.1 399.997 148.1C261.13 148.106 148.091 254.063 148.091 384.257C148.188 428.483 161.329 471.689 185.872 508.475C181.099 518.778 175.545 528.696 169.264 538.157L158.717 553.903V553.897C150.215 566.605 146.62 581.961 148.61 597.122C150.599 612.277 158.027 626.193 169.521 636.271C181.014 646.354 195.778 651.908 211.067 651.908C255.813 651.957 299.496 638.212 336.153 612.547L336.156 612.547ZM549.562 588.933C539.125 588.933 529.109 584.783 521.731 577.403C514.353 570.024 510.202 560.008 510.202 549.572C510.202 539.135 514.352 529.119 521.731 521.741C529.11 514.363 539.127 510.211 549.562 510.211C560 510.211 570.016 514.362 577.394 521.741C584.772 529.12 588.923 539.136 588.923 549.572C588.923 560.009 584.773 570.025 577.394 577.403C570.014 584.781 559.998 588.933 549.562 588.933ZM211.062 384.261C211.062 288.619 295.687 211.073 399.984 211.073C504.281 211.073 588.906 288.613 588.906 384.261C588.876 407.077 583.962 429.628 574.496 450.386C543.924 442.696 511.513 449.531 486.641 468.909C461.775 488.288 447.224 518.048 447.207 549.573V551.856C405.624 561.793 361.971 558.375 322.438 542.097C293.08 571.998 252.949 588.875 211.049 588.936L221.596 573.189C236.97 549.848 249.049 524.501 257.491 497.853C227.919 467.409 211.275 426.704 211.049 384.261L211.062 384.261Z" fill="black"/>
</svg>
