<svg width="800" height="800" viewBox="0 0 800 800" fill="none" xmlns="http://www.w3.org/2000/svg">
<path d="M400 104.797H137.594C124.544 104.797 112.033 109.979 102.803 119.207C93.5735 128.436 88.3927 140.948 88.3927 153.998V645.998C88.3927 659.047 93.5745 671.565 102.803 680.789C112.032 690.017 124.544 695.199 137.594 695.199H400C413.049 695.199 425.561 690.017 434.791 680.789C444.013 671.566 449.201 659.048 449.201 645.998V153.998C449.201 140.949 444.013 128.437 434.791 119.207C425.562 109.979 413.05 104.797 400 104.797ZM334.4 137.597V153.997H203.198V137.597H334.4ZM416.4 646.003V645.997C416.4 650.349 414.673 654.517 411.597 657.594C408.52 660.67 404.346 662.397 400 662.397H137.594C128.536 662.397 121.194 655.055 121.194 645.997V153.997C121.194 144.94 128.536 137.597 137.594 137.597H170.394V153.997C170.394 162.695 173.848 171.038 180 177.191C186.153 183.344 194.496 186.798 203.194 186.798H334.396C343.093 186.798 351.436 183.343 357.59 177.191C363.736 171.039 367.196 162.695 367.196 153.997V137.597H399.996C404.342 137.597 408.517 139.325 411.593 142.401C414.669 145.477 416.397 149.645 416.397 153.997L416.4 646.003Z" fill="black"/>
<path d="M367.203 383.594C358.145 383.594 350.803 390.936 350.803 399.994C350.803 421.741 342.161 442.597 326.786 457.977C311.405 473.351 290.55 481.994 268.803 481.994C247.056 481.994 226.194 473.351 210.82 457.977C195.439 442.596 186.803 421.741 186.803 399.994C186.803 378.241 195.44 357.384 210.82 342.011C226.195 326.63 247.056 317.994 268.803 317.994C278.08 317.994 287.291 319.605 296.025 322.748C300.145 324.372 304.753 324.262 308.787 322.437C312.828 320.612 315.953 317.231 317.461 313.068C318.968 308.9 318.724 304.304 316.789 300.318C314.848 296.332 311.388 293.305 307.176 291.913C294.878 287.446 281.889 285.169 268.803 285.193C238.353 285.193 209.153 297.285 187.626 318.818C166.1 340.345 154.001 369.545 154.001 399.995C154.001 430.439 166.098 459.639 187.626 481.172C209.153 502.698 238.353 514.797 268.803 514.797C299.247 514.797 328.447 502.699 349.979 481.172C371.506 459.639 383.604 430.439 383.604 399.995C383.604 395.643 381.877 391.475 378.801 388.398C375.725 385.322 371.549 383.594 367.203 383.594Z" fill="black"/>
<path d="M231.25 371.953C224.817 365.52 214.392 365.52 207.959 371.953C201.526 378.386 201.526 388.811 207.959 395.237L257.159 444.437C260.4 447.684 264.85 449.418 269.427 449.235C274.011 449.046 278.302 446.952 281.268 443.455L379.67 328.653C385.554 321.769 384.748 311.417 377.863 305.533C370.979 299.643 360.627 300.449 354.743 307.333L267.823 408.688L231.25 371.953Z" fill="black"/>
<path d="M507.25 320.625C499.675 316.304 490.044 318.666 485.333 326.002C480.615 333.332 482.464 343.08 489.544 348.176C502.014 354.981 511.608 366.052 516.571 379.365C521.539 392.67 521.539 407.326 516.571 420.637C511.609 433.942 502.014 445.015 489.544 451.819C485.632 454.053 482.812 457.789 481.738 462.159C480.67 466.529 481.439 471.149 483.874 474.933C486.303 478.724 490.185 481.342 494.61 482.178C499.029 483.021 503.601 482.007 507.25 479.377C535.602 462.995 553.063 432.739 553.063 400C553.063 367.255 535.6 337.002 507.25 320.625Z" fill="black"/>
<path d="M588.766 189.094C585.012 186.365 580.276 185.352 575.735 186.311C571.194 187.269 567.275 190.101 564.944 194.117C562.606 198.127 562.087 202.937 563.497 207.356C564.913 211.775 568.136 215.388 572.366 217.304C615.738 241.767 648.989 280.867 666.177 327.601C683.364 374.336 683.364 425.661 666.177 472.395C648.989 519.136 615.738 558.229 572.366 582.698C565.56 587.642 563.607 596.932 567.831 604.201C572.06 611.47 581.1 614.37 588.765 610.903C638.685 582.547 676.931 537.398 696.693 483.492C716.456 429.586 716.456 370.412 696.693 316.508C676.931 262.601 638.685 217.453 588.765 189.097L588.766 189.094Z" fill="black"/>
<path d="M629.594 400C629.881 343.145 603.086 289.556 557.438 255.677C550.187 250.244 539.908 251.709 534.477 258.96C529.044 266.205 530.509 276.484 537.754 281.915C574.925 309.79 596.793 353.54 596.793 399.999C596.793 446.453 574.925 490.203 537.754 518.078C530.509 523.51 529.045 533.788 534.477 541.038C539.909 548.283 550.188 549.748 557.438 544.316C603.086 510.435 629.88 456.849 629.594 400Z" fill="black"/>
</svg>
