<svg width="800" height="800" viewBox="0 0 800 800" fill="none" xmlns="http://www.w3.org/2000/svg">
<path d="M604.672 699.141H195.328V348.359H163.841V730.625H636.169V348.359H604.681L604.672 699.141Z" fill="black"/>
<path d="M69.375 69.375V218.942H226.813V663.864H573.188V218.942H730.625V69.375H69.375ZM541.703 632.375H258.313V160.047H541.703V632.375ZM699.141 187.453H573.189V160.061H651.913V128.573H148.1V160.061H226.817V187.77H100.866V100.863H699.131L699.141 187.453Z" fill="black"/>
<path d="M331.672 445.031C340.62 454.62 353.192 459.991 366.303 459.832C375.904 460.278 385.364 457.385 393.073 451.641C399.531 446.319 404.609 439.514 407.868 431.805C410.969 424.237 413.496 416.449 415.431 408.509H450.068H450.062C449.116 414.429 447.529 420.24 445.344 425.824C442.835 432.508 439.332 438.77 434.95 444.404L430.543 449.757L462.031 464.24L464.551 461.408C470.685 453.986 475.288 445.424 478.089 436.213C481.092 427.229 483.1 417.933 484.07 408.51H510.206V379.543H484.7V379.537C483.278 365.895 477.669 353.023 468.642 342.696C459.743 333.046 447.133 327.657 434.005 327.895C424.361 327.486 414.883 330.501 407.241 336.397C400.783 341.725 395.705 348.531 392.44 356.239C389.339 363.911 386.812 371.803 384.884 379.853H349.935C351.73 369.874 355.245 360.286 360.323 351.514L363.473 346.161L331.985 333.252L329.782 336.713C325.387 343.653 321.994 351.178 319.705 359.071C317.691 365.852 316.323 372.81 315.609 379.854H289.792V408.821H315.609C316.934 422.304 322.561 435.005 331.673 445.033L331.672 445.031ZM428.028 370.72H428.022C429.835 368.206 432.801 366.784 435.896 366.942C439.308 366.863 442.567 368.377 444.709 371.032C446.839 373.595 448.347 376.61 449.122 379.851H423.298C424.446 376.702 426.033 373.729 428.022 371.032L428.028 370.72ZM377.016 408.189C375.923 411.107 374.44 413.859 372.603 416.374C370.894 418.84 368.043 420.262 365.047 420.152C361.507 420.28 358.077 418.907 355.598 416.374C353.529 414.012 352.028 411.216 351.192 408.189H377.016Z" fill="black"/>
</svg>
