<svg width="800" height="800" viewBox="0 0 800 800" fill="none" xmlns="http://www.w3.org/2000/svg">
<path d="M197.297 684.734V512.406H91.0281V708.969H197.297V684.734Z" fill="black"/>
<path d="M209.094 678.188C230.742 675.905 298.595 668.977 314.659 668.977C325.347 669.655 335.991 670.912 346.537 672.762C379.991 677.565 430.614 684.963 467.375 680.006C516.417 673.396 588.523 640.645 597.105 636.628L701.725 538.539C707.45 532.124 709.952 523.458 708.53 514.98C707.108 506.496 701.908 499.124 694.401 494.93C689.298 492.098 683.445 490.908 677.64 491.53C671.835 492.147 666.36 494.545 661.973 498.397L569.712 578.609C569.071 579.226 568.283 579.659 567.429 579.866C521.848 592.543 501.621 585.061 468.162 572.701C455.802 568.215 441.788 563.021 423.765 557.741V557.747C420.957 556.929 419.169 554.183 419.566 551.284C419.956 548.385 422.416 546.218 425.34 546.175L518.699 544.521C527.134 544.521 534.935 540.023 539.152 532.717C543.37 525.411 543.37 516.408 539.152 509.103C534.935 501.791 527.134 497.293 518.699 497.293C507.444 495.248 492.405 491.86 475.01 488.003C431.48 478.243 371.805 464.859 340.007 466.983C301.751 469.503 223.185 530.905 209.093 542.08L209.094 678.188Z" fill="black"/>
<path d="M474.781 417.156H578.534V303.014H692.683V199.261H578.534V85.1188H474.781V199.261H360.639V303.014H474.781V417.156Z" fill="black"/>
</svg>
