<svg width="800" height="800" viewBox="0 0 800 800" fill="none" xmlns="http://www.w3.org/2000/svg">
<path d="M711.438 229.516L644.036 95.6952C638.439 83.8667 629.638 73.8453 618.639 66.7578C607.641 59.6715 594.878 55.802 581.798 55.5945H463.72C444 56.095 425.445 65.0549 412.792 80.1913L409.594 83.884H409.6C407.653 86.2704 405.926 88.8218 404.43 91.5073L401.476 96.6709L394.097 111.429L375.402 145.382V150.058L334.075 229.514C328.79 240.659 326.098 252.854 326.202 265.189V640.329C326.067 642.215 326.067 644.108 326.202 645.987C326.08 647.629 326.08 649.271 326.202 650.907C326.946 656.968 328.1 662.967 329.644 668.869C330.913 673.825 332.561 678.678 334.569 683.384C339.501 695.432 346.77 706.388 355.968 715.61C359.905 719.754 364.275 723.465 369.005 726.676C371.312 728.537 373.784 730.185 376.384 731.595L379.827 733.56L379.833 733.567C383.11 735.697 386.669 737.351 390.41 738.486C401.293 742.728 412.926 744.736 424.602 744.388H635.68C658.513 743.619 680.138 733.902 695.873 717.338C711.613 700.768 720.207 678.679 719.81 655.833V265.177C719.877 252.793 717.009 240.568 711.442 229.502L711.438 229.516ZM670.605 647.469C671.069 660.103 666.473 672.401 657.836 681.642C649.2 690.877 637.242 696.285 624.602 696.669H424.602C411.79 694.539 399.944 688.527 390.653 679.45C386.082 674.732 382.267 669.337 379.337 663.46C379.252 662.642 379.252 661.818 379.337 661C379.234 660.103 379.234 659.193 379.337 658.296C376.994 652.54 375.419 646.504 374.662 640.333V295.927V295.933C374.613 268.247 382.005 241.063 396.067 217.21L407.627 197.532L410.581 192.118L423.13 170.713L432.23 155.461L445.017 129.386L449.204 122.989C451.419 117.826 460.764 104.538 465.933 104.538H582.046C586.965 104.538 597.543 116.836 599.758 122.006L653.383 220.408C665.517 243.125 671.938 268.455 672.079 294.211L670.605 647.469Z" fill="black"/>
<path d="M354.984 138.75C362.858 126.696 359.904 112.425 357.444 112.181L332.847 106.523H332.841C313.78 101.775 293.59 105.736 277.738 117.345C275.59 118.944 273.533 120.671 271.592 122.514L267.655 126.207L234.935 163.102L178.599 225.34C171.36 233.537 166.135 243.309 163.346 253.881L82.657 572.209C81.8697 575.279 81.2959 578.404 80.9358 581.559C78.1037 602.976 82.8034 624.717 94.2231 643.058C98.9594 650.791 104.941 657.694 111.936 663.473C114.487 665.896 117.288 668.045 120.297 669.87C129.3 676.181 139.39 680.771 150.065 683.402L296.19 719.809C301.109 719.809 304.063 709.97 303.813 698.405C303.569 686.845 295.695 675.034 289.299 673.808L161.625 642.075C150.712 638.095 141.277 630.887 134.569 621.408C127.684 610.226 124.736 597.061 126.201 584.017L209.35 254.376L283.146 183.777L306.023 159.18C309.221 155.487 320.293 146.142 324.962 147.369L337.755 150.568C340.471 154.01 348.833 148.108 354.985 138.757L354.984 138.75Z" fill="black"/>
<path d="M572.203 503.312C560.484 498.436 548.148 495.207 535.552 493.718C527.678 492.241 521.282 490.519 516.856 489.293L516.85 489.287C513.438 488.42 510.252 486.821 507.506 484.611C505.845 483.006 504.954 480.772 505.046 478.465C504.93 475.218 506.517 472.142 509.227 470.347C517.027 466.734 526.024 466.734 533.824 470.347C536.479 471.568 538.645 473.649 539.976 476.249C540.892 477.635 542.167 478.74 543.669 479.448C545.292 479.753 546.959 479.753 548.588 479.448H588.438C589.763 479.338 591.001 478.721 591.88 477.726C592.869 476.756 593.406 475.419 593.357 474.034C593.046 467.588 590.91 461.363 587.211 456.078C582.536 449.278 576.609 443.431 569.742 438.859C561.057 433.494 551.469 429.746 541.453 427.787V410.568C541.429 408.884 540.721 407.285 539.482 406.137C538.249 405.075 536.687 404.465 535.057 404.416H510.454C508.91 404.501 507.433 405.112 506.273 406.137C504.955 407.224 504.228 408.866 504.308 410.568V427.542C489.983 429.141 476.542 435.257 465.93 445.004C456.695 453.848 451.605 466.171 451.91 478.953C451.739 487.687 454.223 496.268 459.045 503.556C464.105 510.917 471.197 516.642 479.46 520.036C489.586 524.516 500.256 527.659 511.193 529.386C518.243 530.485 525.219 531.962 532.104 533.811C535.949 534.751 539.611 536.332 542.932 538.487C545.007 540.165 546.185 542.71 546.13 545.377C545.965 549.021 543.64 552.213 540.222 553.495C534.845 555.686 529.052 556.693 523.248 556.443C519.684 556.602 516.113 556.187 512.671 555.216C509.931 554.569 507.343 553.397 505.048 551.774C503.229 550.321 501.575 548.673 500.128 546.855C498.95 545.628 497.632 544.553 496.192 543.656C494.403 543.333 492.566 543.333 490.778 543.656H452.405C451.019 543.607 449.682 544.138 448.712 545.127C447.784 546.037 447.253 547.276 447.235 548.576C447.546 556.162 449.835 563.541 453.875 569.974C458.618 577.152 465.033 583.06 472.577 587.198C482.282 592.398 492.877 595.736 503.814 597.036V613.516C503.735 615.219 504.468 616.861 505.786 617.947C506.878 619.076 508.392 619.699 509.967 619.668H534.564C536.218 619.736 537.823 619.113 538.995 617.947C540.228 616.8 540.942 615.201 540.96 613.516V596.786C551.446 595.352 561.602 592.105 570.971 587.198C579.199 583.041 586.224 576.865 591.393 569.235C596.148 561.911 598.711 553.373 598.772 544.638C598.98 536.002 596.764 527.482 592.376 520.035C587.371 512.662 580.375 506.858 572.203 503.312Z" fill="black"/>
</svg>
