<svg width="800" height="800" viewBox="0 0 800 800" fill="none" xmlns="http://www.w3.org/2000/svg">
<path d="M640.563 162.656H74.0156C67.6375 162.656 62.4435 167.85 62.4435 174.228V296.872C62.4435 303.25 67.6375 308.444 74.0156 308.444C124.553 308.444 165.727 349.54 165.727 400.077C165.727 450.615 124.631 491.71 74.0156 491.71C67.6375 491.71 62.4435 496.904 62.4435 503.282V625.926C62.4435 632.304 67.6375 637.498 74.0156 637.498L256.094 637.492C262.472 637.492 267.666 632.298 267.666 625.92V582.231C267.666 575.853 262.472 570.659 256.094 570.659C249.716 570.659 244.522 575.853 244.522 582.231V614.426H85.5059V514.292C143.367 508.469 188.711 459.501 188.711 400.149C188.711 340.793 143.367 291.751 85.5059 286.007V185.873H244.6V218.068C244.6 224.446 249.794 229.64 256.172 229.64C262.55 229.64 267.744 224.446 267.744 218.068V185.873H640.713C681.411 185.873 714.633 219.015 714.633 259.793V540.668C714.633 581.367 681.491 614.589 640.713 614.589H347.478C341.1 614.589 335.906 619.783 335.906 626.161C335.906 632.539 341.1 637.733 347.478 637.733H640.557C694.005 637.733 737.541 594.281 737.541 540.749V259.561C737.541 206.113 694.089 162.577 640.557 162.577L640.563 162.656Z" fill="black"/>
<path d="M523.516 336L422.753 438.02C418.267 442.586 418.346 449.831 422.833 454.317C425.115 456.521 428.027 457.625 430.938 457.625C433.849 457.625 436.919 456.521 439.123 454.238L539.885 352.217C544.371 347.652 544.292 340.407 539.806 335.921C535.241 331.435 527.996 331.514 523.509 336L523.516 336Z" fill="black"/>
<path d="M421.25 358.672C410.862 358.672 402.433 350.249 402.433 339.855C402.433 329.466 410.856 321.037 421.25 321.037C431.638 321.037 440.067 329.46 440.067 339.855C440.067 350.243 431.644 358.672 421.25 358.672ZM421.25 297.978C398.184 297.978 379.373 316.795 379.373 339.855C379.373 362.92 398.191 381.731 421.25 381.731C444.316 381.731 463.127 362.914 463.127 339.855C463.127 316.789 444.309 297.978 421.25 297.978Z" fill="black"/>
<path d="M545.469 440.453C555.857 440.453 564.286 448.876 564.286 459.27C564.286 469.658 555.863 478.087 545.469 478.087C535.081 478.087 526.652 469.665 526.652 459.27C526.652 448.882 535.074 440.453 545.469 440.453ZM503.592 459.27C503.592 482.336 522.409 501.147 545.469 501.147C568.534 501.147 587.345 482.33 587.345 459.27C587.345 436.205 568.528 417.394 545.469 417.394C522.403 417.394 503.592 436.211 503.592 459.27Z" fill="black"/>
<path d="M256.094 275.547C249.716 275.547 244.522 280.741 244.522 287.119V363.633C244.522 370.011 249.716 375.205 256.094 375.205C262.472 375.205 267.666 370.011 267.666 363.633V287.119C267.666 280.741 262.472 275.547 256.094 275.547Z" fill="black"/>
<path d="M256.094 423.922C249.716 423.922 244.522 429.116 244.522 435.494V512.008C244.522 518.386 249.716 523.58 256.094 523.58C262.472 523.58 267.666 518.386 267.666 512.008V435.494C267.666 429.116 262.472 423.922 256.094 423.922Z" fill="black"/>
</svg>
