<svg width="800" height="800" viewBox="0 0 800 800" fill="none" xmlns="http://www.w3.org/2000/svg">
<path d="M300.672 401.234C300.892 401.363 301.111 401.497 301.325 401.625C306.36 404.677 311.542 407.503 316.858 410.103C317.267 410.292 317.676 410.487 318.091 410.677C320.209 411.684 322.352 412.66 324.506 413.588C325.184 413.881 325.867 414.186 326.545 414.467C329.023 415.504 331.525 416.505 334.052 417.445C334.443 417.586 334.846 417.714 335.23 417.86C337.452 418.672 339.686 419.429 341.944 420.143C342.921 420.466 343.897 420.759 344.886 421.059C346.674 421.596 348.475 422.108 350.275 422.597C351.191 422.841 352.1 423.103 353.028 423.347C355.518 423.976 358.027 424.562 360.553 425.093C361.536 425.307 362.531 425.496 363.514 425.673C365.351 426.027 367.2 426.356 369.056 426.674C370.051 426.839 371.033 427.003 372.022 427.156C374.665 427.541 377.338 427.895 380.03 428.181C380.646 428.242 381.257 428.291 381.873 428.346C384.174 428.56 386.487 428.749 388.819 428.871C389.643 428.92 390.473 428.975 391.291 429.005C394.172 429.14 397.058 429.225 399.964 429.225C402.875 429.225 405.768 429.134 408.649 429.005C409.467 428.975 410.297 428.92 411.127 428.871C413.446 428.737 415.753 428.554 418.061 428.346C418.677 428.291 419.294 428.242 419.91 428.181C422.596 427.901 425.257 427.547 427.906 427.156C428.901 427.003 429.895 426.839 430.89 426.674C432.74 426.356 434.577 426.027 436.402 425.679C437.397 425.49 438.385 425.301 439.386 425.087C441.907 424.562 444.41 423.97 446.894 423.341C447.828 423.103 448.749 422.835 449.683 422.584C451.478 422.096 453.26 421.59 455.03 421.059C456.025 420.759 457.02 420.46 458.008 420.143C460.236 419.429 462.439 418.672 464.637 417.891C465.076 417.726 465.516 417.573 465.961 417.421C468.458 416.487 470.93 415.498 473.377 414.467C474.079 414.186 474.769 413.875 475.47 413.576C477.607 412.654 479.719 411.684 481.818 410.689C482.251 410.493 482.685 410.286 483.124 410.084C485.761 408.803 488.386 407.454 490.967 406.044C490.973 406.038 490.992 406.026 491.004 406.026C493.58 404.61 496.106 403.145 498.609 401.625C498.847 401.472 499.079 401.332 499.317 401.192C554.273 367.482 591.034 306.709 591.034 237.457C591.028 131.774 505.328 45.7542 399.987 45.7542C294.647 45.7542 208.94 131.771 208.94 237.473C208.94 306.723 245.72 367.509 300.682 401.223L300.672 401.234Z" fill="black"/>
<path d="M524.594 736.297C523.098 734.826 521.627 733.312 520.175 731.768C519.717 731.28 519.247 730.816 518.789 730.309C516.934 728.277 515.139 726.19 513.388 724.059C512.973 723.541 512.57 723.003 512.155 722.485C510.843 720.831 509.549 719.146 508.304 717.437C507.742 716.668 507.211 715.899 506.668 715.136C505.563 713.555 504.501 711.981 503.463 710.363C502.957 709.582 502.45 708.819 501.968 708.025C500.79 706.115 499.649 704.174 498.544 702.215C498.282 701.733 497.995 701.281 497.726 700.799C496.402 698.351 495.138 695.879 493.948 693.352C493.618 692.669 493.325 691.973 493.014 691.283C492.166 689.41 491.336 687.511 490.548 685.601C490.188 684.704 489.834 683.801 489.486 682.891C488.784 681.078 488.125 679.229 487.485 677.374C487.192 676.507 486.886 675.64 486.606 674.773C485.843 672.393 485.141 670.019 484.494 667.583C484.408 667.248 484.298 666.912 484.213 666.57C483.499 663.824 482.882 661.034 482.315 658.227C482.15 657.391 482.016 656.56 481.863 655.724C481.503 653.704 481.161 651.647 480.887 649.608C480.746 648.607 480.618 647.619 480.502 646.618C480.264 644.585 480.069 642.541 479.91 640.484C479.837 639.562 479.751 638.671 479.696 637.749C479.526 634.807 479.416 631.853 479.416 628.869C479.416 545.97 546.664 478.514 629.323 478.514C632.003 478.514 634.652 478.593 637.289 478.728C637.38 478.728 637.472 478.728 637.557 478.734C602.584 452.635 560.146 434.117 510.818 423.479C508.243 425.017 505.648 426.476 503.018 427.916C502.853 427.996 502.688 428.081 502.523 428.179C499.832 429.643 497.11 431.035 494.351 432.372C493.911 432.585 493.484 432.805 493.039 433.019C490.151 434.41 487.234 435.735 484.286 437.004C483.853 437.175 483.407 437.358 482.962 437.541C480.526 438.555 478.091 439.519 475.631 440.441C474.74 440.776 473.855 441.118 472.964 441.442C470.224 442.418 467.477 443.37 464.7 444.243C463.974 444.469 463.235 444.683 462.509 444.902C460.22 445.586 457.919 446.251 455.612 446.868C454.495 447.167 453.378 447.466 452.243 447.741C449.856 448.333 447.464 448.888 445.053 449.401C444.027 449.62 443.014 449.834 441.983 450.048C439.474 450.542 436.953 450.994 434.427 451.397C433.358 451.58 432.278 451.744 431.198 451.903C428.506 452.288 425.796 452.642 423.098 452.929C422.58 453.002 422.067 453.069 421.548 453.112C418.502 453.417 415.438 453.637 412.368 453.82C411.502 453.856 410.635 453.905 409.768 453.948C406.503 454.1 403.244 454.198 399.966 454.198C396.688 454.198 393.435 454.088 390.176 453.948C389.309 453.911 388.443 453.862 387.576 453.82C384.506 453.649 381.442 453.417 378.396 453.112C377.884 453.063 377.365 452.996 376.846 452.929C374.136 452.648 371.438 452.294 368.753 451.903C367.666 451.738 366.586 451.58 365.512 451.397C362.985 450.994 360.464 450.548 357.956 450.048C356.93 449.834 355.911 449.62 354.892 449.401C352.475 448.894 350.082 448.333 347.69 447.741C346.567 447.466 345.443 447.167 344.327 446.868C342.013 446.245 339.706 445.586 337.417 444.902C336.691 444.683 335.959 444.469 335.251 444.249C332.461 443.37 329.715 442.412 326.968 441.442C326.077 441.118 325.192 440.789 324.307 440.447C321.841 439.519 319.388 438.549 316.946 437.529C316.513 437.358 316.08 437.181 315.64 437.01C312.698 435.753 309.775 434.423 306.882 433.025C306.454 432.811 306.021 432.598 305.588 432.39C302.823 431.053 300.094 429.644 297.384 428.179C297.22 428.087 297.067 428.008 296.902 427.928C294.284 426.494 291.659 425.023 289.096 423.491C175.93 447.88 100.799 512.194 65.7677 614.694C45.2474 674.79 45.0396 731.094 46.0896 754.233H546.637C546.478 754.124 546.331 754.014 546.179 753.904C543.89 752.378 541.644 750.785 539.44 749.119C539.007 748.789 538.58 748.447 538.146 748.112C536.383 746.751 534.649 745.347 532.952 743.925C532.244 743.326 531.549 742.704 530.853 742.1C529.418 740.848 528.021 739.567 526.635 738.267C525.958 737.614 525.274 736.954 524.597 736.295L524.594 736.297Z" fill="black"/>
<path d="M753.391 713.531C742.447 729.773 728.531 743.555 712.503 754.236H753.873C754.276 745.154 754.501 730.987 753.391 713.531Z" fill="black"/>
<path d="M640.656 753.703C643.372 753.465 646.07 753.135 648.743 752.72C649.848 752.556 650.934 752.336 652.033 752.141C653.559 751.866 655.079 751.542 656.593 751.207C692.158 743.223 722.064 720.011 739.069 688.726C739.118 688.634 739.173 688.536 739.228 688.445C740.455 686.18 741.584 683.861 742.67 681.517C743.384 679.943 744.111 678.368 744.764 676.756C745.191 675.743 745.588 674.694 745.99 673.65C746.967 671.086 747.895 668.48 748.713 665.825C752.296 654.119 754.236 641.728 754.236 628.88C754.236 575.431 720.729 529.716 673.682 511.724C673.077 511.504 672.479 511.254 671.863 511.022C670.593 510.558 669.318 510.149 668.03 509.715C667.377 509.508 666.724 509.276 666.065 509.062C664.752 508.66 663.422 508.299 662.079 507.939C661.444 507.768 660.809 507.567 660.175 507.414C658.789 507.06 657.398 506.743 655.994 506.444C655.389 506.304 654.791 506.151 654.181 506.035C652.74 505.736 651.282 505.492 649.829 505.248C649.249 505.144 648.669 505.034 648.089 504.943C646.612 504.729 645.123 504.552 643.634 504.381C643.06 504.308 642.486 504.216 641.9 504.173C640.374 504.009 638.812 503.911 637.274 503.813C636.731 503.777 636.188 503.722 635.644 503.697C633.551 503.588 631.457 503.533 629.346 503.533C560.474 503.533 504.449 559.776 504.449 628.887C504.449 698.003 560.472 754.242 629.346 754.242C632.385 754.242 635.376 754.089 638.366 753.882C639.123 753.827 639.898 753.766 640.655 753.705L640.656 753.703ZM627.186 686.173C627.033 686.192 626.893 686.192 626.746 686.192C623.487 686.192 620.356 684.934 618.006 682.64L560.376 626.377L577.845 608.494L626.118 655.607L697.315 575.766L715.979 592.399L636.09 682.011C633.814 684.544 630.592 686.057 627.186 686.173Z" fill="black"/>
</svg>
