<svg width="800" height="800" viewBox="0 0 800 800" fill="none" xmlns="http://www.w3.org/2000/svg">
<path d="M400 769C395.935 768.994 391.937 767.987 388.361 766.07C289.722 715.356 206.689 638.842 148.095 544.68C89.5013 450.517 57.5309 342.227 55.6028 231.336C55.4929 197.656 58.5447 164.045 64.7214 130.939C65.9971 124.268 69.9827 118.421 75.7261 114.783C81.4634 111.151 88.458 110.053 95.037 111.755C120.043 118.164 145.764 121.344 171.575 121.216C250.103 121.6 325.775 91.7659 382.903 37.8909C387.499 33.472 393.627 31 399.998 31C406.376 31 412.504 33.4719 417.1 37.8909C474.234 91.7613 549.893 121.594 628.428 121.21C654.24 121.338 679.965 118.152 704.965 111.743C711.545 110.046 718.539 111.139 724.282 114.777C730.02 118.408 734.005 124.261 735.287 130.933C741.458 164.044 744.516 197.656 744.4 231.336C742.471 342.231 710.507 450.523 651.907 544.68C593.307 638.836 510.275 715.352 411.642 766.07C408.065 767.987 404.067 768.994 400.008 769H400ZM109.047 165.047C106.19 187.025 104.768 209.169 104.805 231.331C106.618 331.081 134.908 428.55 186.782 513.769C238.649 598.986 312.239 668.883 400 716.316C487.769 668.886 561.36 598.988 613.219 513.769C665.093 428.545 693.383 331.081 695.196 231.331C695.232 209.169 693.816 187.027 690.954 165.047C670.305 168.636 649.384 170.43 628.423 170.406C545.085 170.601 464.298 141.695 400.001 88.6792C335.701 141.695 254.908 170.601 171.563 170.406C150.604 170.43 129.68 168.636 109.032 165.047H109.047ZM381.781 502.094L529.383 329.891C534.772 323.183 536.268 314.144 533.32 306.056C530.372 297.969 523.414 292.012 514.966 290.345C506.525 288.679 497.821 291.548 492.023 297.908L364.385 446.803L308.984 372.939C303.71 365.907 295.086 362.227 286.359 363.277C277.637 364.327 270.135 369.954 266.68 378.035C263.226 386.116 264.349 395.43 269.622 402.462L343.419 500.863H343.425C347.887 506.839 354.833 510.452 362.291 510.684C362.566 510.708 362.834 510.708 363.097 510.708C370.287 510.708 377.116 507.559 381.779 502.09L381.781 502.094Z" fill="black"/>
</svg>
