<svg width="800" height="800" viewBox="0 0 800 800" fill="none" xmlns="http://www.w3.org/2000/svg">
<path fill-rule="evenodd" clip-rule="evenodd" d="M562.828 188.375C564.14 191.256 567.168 193.752 571.88 195.852C576.604 197.677 580.272 201.095 582.903 206.088C584.471 208.706 586.308 213.43 588.408 220.26C591.826 232.327 593.523 245.98 593.523 261.196C593.523 270.376 592.735 284.15 591.161 302.522C590.642 310.652 588.011 316.042 583.287 318.66C578.038 321.541 574.101 326.015 571.477 332.045C569.902 334.926 568.059 340.309 565.965 348.182C560.454 368.123 551.537 381.117 539.201 387.148C535.795 388.723 533.165 392.257 531.328 397.774C521.355 432.149 496.306 454.329 456.151 464.29C413.115 474.525 373.754 472.816 338.073 459.175C297.137 443.959 272.607 415.089 264.471 372.585C263.415 365.511 262.372 360.121 261.322 356.447C260.016 352.254 258.704 349.495 257.385 348.183C255.548 346.608 252.142 346.346 247.15 347.395C217.761 353.432 200.701 340.572 195.984 308.82C193.366 293.074 191.913 281.922 191.657 275.367C191.394 263.038 193.366 251.888 197.559 241.914C200.44 235.091 203.723 229.848 207.398 226.167C213.696 220.918 217.499 216.982 218.811 214.357C219.861 212.257 220.117 206.618 219.599 197.432C219.08 165.426 225.366 139.187 238.489 118.709C252.399 95.6195 269.452 79.3477 289.655 69.9117C329.272 51.0211 369.941 43.1477 411.67 46.2977H425.043C448.926 48.3974 466.901 51.0217 478.975 54.1713C503.639 60.47 525.685 75.8197 545.093 100.223C561.365 121.738 567.267 147.062 562.806 176.187C561.78 181.418 561.78 185.489 562.83 188.376L562.828 188.375ZM406.962 104.147C402.769 104.147 399.351 103.494 396.727 102.182C393.053 100.869 391.344 98.6416 391.612 95.4922C391.612 93.1241 393.059 91.6897 395.952 91.1527C414.317 87.216 430.058 86.0441 443.186 87.6188C459.189 89.4438 473.752 95.883 486.875 106.9C507.872 123.959 521.378 147.836 527.408 178.544C528.201 183.787 529.642 187.461 531.747 189.555C533.585 191.654 536.99 192.576 541.983 192.319C546.707 192.057 549.46 190.22 550.247 186.808L551.425 176.969C552.475 152.568 545.261 130.258 529.777 110.057C514.817 89.8535 495.524 76.8597 471.91 71.091C429.93 60.0802 384.403 60.2022 335.332 71.4816C290.983 81.4547 261.461 103.763 246.769 138.394C237.065 159.647 232.597 183.005 233.384 208.457C233.384 209.769 232.993 211.606 232.206 213.968C231.687 215.543 233 216.458 236.143 216.721C241.654 217.514 245.072 216.458 246.385 213.577C249.79 204.91 252.421 197.69 254.258 191.929C266.856 142.588 298.863 110.582 350.291 95.8899C358.958 93.2593 366.832 92.6061 373.905 93.9246C378.635 95.2307 380.991 97.9957 380.991 102.189C380.991 106.913 378.373 109.275 373.118 109.275C362.363 108.219 351.73 109.666 341.24 113.602C312.113 124.357 290.33 144.035 275.902 172.641C261.467 201.243 258.19 230.887 266.063 261.595C266.582 261.332 270 257.92 276.299 251.359C280.754 246.629 285.881 245.194 291.649 247.032C276.164 265.397 267.235 279.435 264.885 289.146C263.048 298.594 266.46 308.305 275.121 318.272C280.37 309.343 284.306 302.659 286.931 298.197C292.18 289.53 299.4 284.281 308.579 282.45C304.643 287.956 299.662 295.823 293.632 306.064C288.383 313.938 283.128 320.103 277.885 324.564C272.892 328.758 271.58 333.347 273.948 338.34C274.467 339.652 275.254 342.93 276.31 348.179C277.36 352.903 278.929 356.309 281.034 358.415C295.994 345.03 306.102 332.829 311.35 321.818C314.231 316.825 317.252 315.513 320.395 317.881C323.026 319.45 323.026 322.861 320.395 328.117C316.202 335.99 307.279 345.567 293.638 356.84C286.283 365.238 282.615 371.409 282.615 375.346C282.352 379.283 285.636 386.76 292.454 397.782C296.128 395.164 299.93 390.708 303.867 384.397C308.848 377.323 312.26 372.721 314.103 370.622C326.963 357.249 336.272 348.839 342.051 345.439C342.051 352.513 340.086 357.64 336.149 360.783C331.169 364.72 325.657 370.884 319.621 379.289C311.747 389.262 306.633 395.555 304.271 398.174C297.716 405.528 297.85 411.949 304.661 417.461C305.974 418.773 307.945 420.61 310.563 422.973C312.925 424.81 315.422 425.591 318.04 425.335C327.489 413.006 334.568 405.003 339.293 401.324C344.017 397.387 350.182 395.025 357.793 394.237C353.857 398.968 347.692 405.26 339.293 413.128C332.738 420.214 328.533 427.691 326.69 435.564L338.5 440.679C351.36 447.496 360.289 445.134 365.264 433.592C366.576 430.711 368.017 429.003 369.591 428.484C374.322 425.066 376.812 421.398 377.068 417.461C377.068 414.842 375.756 410.643 373.132 404.863C369.195 396.465 368.676 386.888 371.557 376.127C374.444 365.373 379.687 357.243 387.304 351.726C393.602 346.995 398.717 346.611 402.654 350.548C404.754 352.91 405.144 355.003 403.832 356.846C403.307 358.684 401.604 360.649 398.717 362.748C387.426 372.453 384.545 384.655 390.056 399.352C392.418 405.907 396.221 410.375 401.464 412.737C406.457 414.574 413.671 415.227 423.112 414.702C431.254 413.908 437.944 410.899 443.194 405.65C448.437 400.401 451.458 393.974 452.239 386.363C453.814 367.735 445.165 356.711 426.263 353.307C424.425 352.782 421.807 352.385 418.389 352.129C414.971 351.073 412.353 349.107 410.515 346.227C423.638 339.14 435.051 337.7 444.756 341.899C454.46 345.836 461.681 355.016 466.404 369.451C470.079 380.462 478.08 385.851 490.422 385.588C509.575 385.588 519.542 379.167 520.336 366.301C524.791 343.205 526.5 325.365 525.444 312.773C524.394 302.012 523.741 293.882 523.479 288.371C522.692 278.392 522.307 270.134 522.307 263.573C522.307 225.26 514.952 187.077 500.268 149.034C497.119 141.423 491.735 133.946 484.124 126.591C475.994 117.674 465.624 111.375 453.038 107.707C445.165 105.87 433.226 104.558 417.21 103.77L406.962 104.147ZM533.702 221.834C535.539 229.445 536.717 239.284 537.235 251.358C537.235 258.175 537.376 268.673 537.638 282.845C538.157 290.456 539.079 298.196 540.391 306.069C541.703 312.624 544.847 316.695 549.839 318.27C554.563 319.844 559.678 318.789 565.19 315.12C569.126 313.021 572.007 308.699 573.85 302.138C580.937 275.105 580.937 249.654 573.85 225.777C572.013 219.478 568.467 214.62 563.224 211.208C557.975 207.534 552.067 205.831 545.512 206.1C536.32 206.875 532.383 212.13 533.702 221.834ZM537.638 349.752C536.326 354.995 537.113 359.334 540 362.734C545.512 359.328 549.583 351.589 552.201 339.523C552.989 335.061 550.889 332.168 545.902 330.856C542.228 330.593 540.391 332.565 540.391 336.758C540.135 339.913 539.213 344.246 537.638 349.752ZM470.726 391.084C465.477 411.025 454.063 424.281 436.473 430.836C430.436 433.198 424.528 439.1 418.76 448.548C440.276 449.598 459.696 445.265 477.012 435.56C494.59 426.124 505.479 413.391 509.671 397.382C503.635 400.531 497.073 401.056 489.993 398.957C486.075 397.638 479.641 395.014 470.724 391.083L470.726 391.084ZM517.565 491.841C516.515 492.103 514.684 493.415 512.06 495.777C501.818 504.438 493.688 510.468 487.645 513.881C447.497 534.084 405.65 540.779 362.085 533.955C338.995 530.281 320.361 520.18 306.194 503.646C304.357 500.497 302.91 498.135 301.867 496.56C300.292 493.941 297.93 492.489 294.78 492.233C266.966 503.78 244.793 517.556 228.265 533.559C208.587 552.45 195.074 576.07 187.732 604.409C195.605 598.373 203.345 591.024 210.955 582.37C218.829 572.397 224.731 564.92 228.668 559.934C230.236 557.822 231.42 556.394 232.202 555.595C233.776 554.026 235.485 553.885 237.316 555.204C240.991 557.822 240.6 561.759 236.138 567.014C231.414 571.47 224.597 578.69 215.673 588.663C207.543 596.792 200.322 603.36 194.024 608.341C184.32 615.952 178.674 626.053 177.099 638.656C176.837 640.225 176.709 651.907 176.709 673.678C182.22 669.485 188.385 663.839 195.215 656.76C202.826 648.886 208.588 643.118 212.524 639.444C214.099 638.132 218.957 631.967 227.093 620.944C233.13 613.589 239.16 608.609 245.197 605.984C246.252 608.603 245.587 611.886 243.231 615.823C237.463 625.528 229.456 635.111 219.22 644.559C214.228 649.54 204.792 657.81 190.875 669.345C170.409 685.611 165.155 705.289 175.128 728.384C181.695 723.66 187.201 724.313 191.669 730.349C194.55 734.805 199.933 737.436 207.806 738.223C235.62 741.11 269.208 742.16 308.569 741.372C313.818 741.372 317.236 741.238 318.804 740.982C322.479 739.926 325.372 737.832 327.471 734.677C330.889 727.334 337.573 718.802 347.546 709.091C358.569 698.336 365.912 690.072 369.585 684.305C373.26 678.268 377.715 677.347 382.97 681.54C378.777 688.626 370.77 697.946 358.96 709.495C346.63 721.561 338.097 731.534 333.374 739.409C350.433 739.928 362.372 739.146 369.189 737.047C380.212 733.897 388.477 726.543 393.988 714.995C395.294 712.377 397.662 709.227 401.062 705.559C404.736 701.622 407.36 698.735 408.935 696.892C412.872 692.955 416.156 692.046 418.774 694.139C420.086 695.977 420.221 697.814 419.165 699.651L415.631 703.978C413 707.384 408.673 712.242 402.642 718.541C397.393 724.309 393.725 729.833 391.62 735.082C404.223 736.388 412.096 736.388 415.234 735.082C418.652 734.026 423.901 729.18 430.98 720.513C440.166 709.502 445.415 702.666 446.727 700.047C448.839 696.11 451.457 695.189 454.601 697.282C458.275 699.65 458.403 702.928 455.004 707.121C453.691 708.958 450.011 713.158 443.981 719.725C439.257 724.968 436.107 729.826 434.533 734.288C455.786 739.018 471.27 732.579 480.981 715C485.437 710.02 488.592 706.339 490.429 703.99C492.791 701.359 494.5 699.796 495.538 699.259C497.375 698.21 499.475 698.997 501.837 701.628C501.574 705.821 498.821 710.807 493.572 716.575C487.805 722.611 484.258 727.47 482.946 731.144C495.544 732.713 504.729 732.713 510.498 731.144C519.159 728.513 524.926 721.958 527.813 711.466C529.119 705.698 531.884 703.855 536.078 705.955C540.271 708.054 541.058 711.332 538.44 715.793C537.921 716.843 536.993 718.546 535.687 720.902C534.893 722.739 535.553 724.973 537.652 727.604C545.782 725.504 556.537 723.411 569.927 721.305C590.393 718.418 601.549 716.843 603.38 716.575C605.48 716.056 610.601 714.213 618.731 711.063C626.86 708.183 630.797 701.481 630.541 690.988C630.541 658.451 629.229 634.178 626.604 618.173C621.355 581.435 607.579 552.182 585.278 530.41C578.191 523.324 568.353 516.11 555.754 508.762C541.582 501.676 531.084 496.03 524.267 491.837C522.161 490.531 519.927 490.531 517.565 491.843L517.565 491.841ZM540.001 480.824C570.97 491.328 596.421 511.139 616.362 540.266C636.04 569.124 645.354 600.221 644.31 633.552C644.31 635.652 644.176 647.327 643.92 668.58C643.92 682.752 643.26 694.422 641.954 703.608C640.898 710.163 638.933 715.15 636.052 718.556C633.422 721.705 628.966 723.939 622.667 725.257C584.092 733.131 560.606 737.721 552.214 739.033C525.719 743.226 501.97 745.588 480.973 746.107C414.323 747.419 368.144 749.128 342.417 751.222C326.152 752.528 284.825 753.584 218.43 754.365C203.482 754.365 190.359 749.775 179.069 740.589C175.132 737.708 173.692 733.772 174.741 728.779C164.506 722.48 158.604 712.513 157.029 698.865C154.41 670.263 155.454 648.621 160.178 633.924C168.839 606.11 175.266 586.69 179.466 575.679C197.569 534.212 229.838 504.17 276.292 485.541C290.983 479.505 303.588 481.739 314.08 492.231C332.445 510.865 360.4 520.576 397.917 521.357C411.827 521.62 427.306 518.995 444.353 513.484C463.513 506.129 478.069 500.752 488.042 497.346C493.291 495.247 496.837 492.354 498.675 488.679C503.655 480.806 510.088 476.735 517.962 476.478C523.199 476.234 530.553 477.674 540.001 480.824ZM403.416 431.227C399.748 430.708 396.995 429.78 395.152 428.474C390.959 425.325 387.144 424.934 383.739 427.296C381.914 428.871 379.283 431.489 375.865 435.17C371.141 440.163 369.566 444.099 371.141 446.98C372.453 449.599 374.943 451.051 378.618 451.308C382.811 451.832 385.973 452.229 388.066 452.485C399.876 453.535 408.397 447.236 413.652 433.595C411.021 433.064 407.622 432.283 403.416 431.227ZM207.401 291.499C208.188 294.917 209.5 300.166 211.338 307.246C214.755 322.468 223.667 331.378 238.095 334.01C244.144 335.316 248.203 335.182 250.302 333.619C252.402 331.507 253.183 327.314 252.664 321.015C251.09 306.068 249.777 294.776 248.728 287.165C247.415 274.043 247.153 262.764 247.934 253.315V246.229C246.109 238.356 242.557 233.509 237.308 231.666C232.059 229.566 226.554 231.141 220.78 236.39C209.488 246.095 204.777 259.748 206.601 277.326C206.083 281.007 206.345 285.725 207.401 291.499ZM233.377 672.108C246.762 655.836 261.582 643.763 277.854 635.889C273.917 643.244 267.093 651.112 257.377 659.503C247.661 667.895 241.502 674.201 238.877 678.394C230.747 692.823 218.674 705.286 202.659 715.785C215.8 696.119 226.023 681.55 233.377 672.108ZM316.03 674.073C315.768 674.861 314.584 676.173 312.49 678.01C292.025 698.995 276.278 717.505 265.256 733.51C264.469 727.999 264.865 723.275 266.434 719.338C266.953 718.026 269.053 715.261 272.733 711.061C284.281 696.37 295.169 683.247 305.398 671.7C308.279 666.976 311.3 665.933 314.444 668.557C316.55 670.407 317.086 672.242 316.03 674.073Z" fill="black"/>
</svg>
