<svg width="800" height="800" viewBox="0 0 800 800" fill="none" xmlns="http://www.w3.org/2000/svg">
<path d="M547.594 507.25V596.062C547.594 604.473 544.255 612.548 538.304 618.498C532.353 624.448 524.278 627.794 515.862 627.794H283.643C275.318 627.666 267.371 624.266 261.525 618.328C255.677 612.389 252.406 604.393 252.406 596.062V507.249C252.272 490.263 258.265 473.802 269.295 460.881C280.318 447.953 295.631 439.438 312.428 436.893L349.329 431.479L352.161 491.379L375.404 558.664L387.702 468.753L371.344 440.34C370.35 438.723 370.319 436.69 371.271 435.042C372.223 433.401 373.999 432.412 375.898 432.467L400.494 427.914L425.091 432.467H425.097C426.996 432.412 428.772 433.401 429.718 435.042C430.67 436.69 430.639 438.723 429.644 440.34L412.304 468.753L424.602 558.664L448.59 491.873L451.422 431.973L488.324 437.387H488.317C504.894 440.079 519.971 448.593 530.835 461.392C541.699 474.197 547.644 490.457 547.6 507.248L547.594 507.25Z" fill="black"/>
<path d="M321.281 321.516C322.758 330.372 326.939 337.134 330.754 337.628C334.483 352.765 341.307 366.961 350.804 379.328C362.687 394.886 381.163 403.986 400.743 403.925C420.262 403.766 438.652 394.709 450.676 379.328C459.965 366.92 466.582 352.723 470.11 337.628C474.047 337.628 478.106 330.371 479.583 321.516C481.06 312.659 479.583 303.559 475.03 302.82H473.803V301.593C481.633 286.64 482.751 269.075 476.879 253.253C470.952 237.658 459.038 225.079 443.791 218.323C392.376 195.197 352.404 223.737 341.21 225.824C330.016 227.918 336.047 243.165 336.047 243.165C308.495 264.813 323.748 298.518 325.347 302.943C321.526 303.804 319.56 312.049 321.281 321.516Z" fill="black"/>
<path d="M785.969 470.234V559.041C785.969 567.457 782.624 575.527 776.673 581.477C770.722 587.427 762.647 590.772 754.231 590.772H564.075V507.252C564.148 489.252 558.575 471.674 548.139 457.002C537.702 442.33 522.925 431.3 505.897 425.458C517.121 412.018 532.953 403.247 550.3 400.861L587.201 395.447L590.033 455.347L614.021 522.138L626.319 432.227L609.096 403.321C608.101 401.703 608.071 399.671 609.023 398.023C609.969 396.381 611.745 395.392 613.643 395.447L638.24 390.894L662.837 395.447H662.843C664.741 395.393 666.517 396.381 667.469 398.023C668.421 399.671 668.391 401.704 667.396 403.321L651.038 431.733L663.337 521.644L687.324 454.854L690.156 394.954L727.058 400.367H727.052C743.561 403.138 758.545 411.683 769.336 424.483C780.127 437.276 786.023 453.492 785.969 470.234Z" fill="black"/>
<path d="M559.156 284.625C560.633 293.481 564.814 300.244 568.629 300.737C572.169 315.819 578.785 330.016 588.063 342.431C599.947 357.989 618.423 367.089 637.996 367.034C657.521 366.87 675.906 357.812 687.935 342.431C697.286 329.998 703.945 315.759 707.498 300.609C711.434 300.609 715.493 293.352 716.97 284.497C718.447 275.641 716.97 266.541 712.417 265.802H711.679V264.447V264.453C719.509 249.499 720.626 231.934 714.755 216.112C708.828 200.518 696.914 187.939 681.667 181.182C630.252 158.056 590.28 186.596 579.086 188.684C567.892 190.777 573.922 206.024 573.922 206.024C546.371 227.673 561.624 261.377 563.223 265.802C559.897 266.791 557.437 275.153 559.158 284.626L559.156 284.625Z" fill="black"/>
<path d="M257.078 450.547C243.443 466.294 235.936 486.423 235.917 507.248V590.763L45.7609 590.769C37.3625 590.738 29.3234 587.375 23.3984 581.43C17.478 575.485 14.1516 567.429 14.1516 559.036V470.23C14.06 453.207 20.1208 436.729 31.2172 423.825C42.3134 410.917 57.7 402.457 74.5406 399.997L111.442 394.584L114.274 454.484L138.262 521.274L150.56 431.363L134.202 402.951L134.196 402.945C133.202 401.327 133.177 399.295 134.123 397.653C135.075 396.011 136.851 395.016 138.75 395.077L163.346 390.524L187.943 395.077H187.949C189.848 395.016 191.624 396.011 192.576 397.653C193.522 399.295 193.497 401.327 192.503 402.945L176.145 431.357L188.443 521.268L212.431 454.477L215.263 394.577L252.164 399.991L252.152 399.997C269.504 402.384 285.337 411.155 296.555 424.594C281.236 429.398 267.558 438.383 257.078 450.547Z" fill="black"/>
<path d="M83.3906 284.625C84.8677 293.481 89.0486 300.244 92.8633 300.737C96.4094 315.819 103.026 330.016 112.298 342.431C124.181 357.989 142.663 367.089 162.237 367.034C181.762 366.87 200.146 357.812 212.176 342.431C221.465 330.029 228.082 315.826 231.61 300.737C235.547 300.737 239.606 293.48 241.083 284.625C242.56 275.769 241.083 266.669 236.53 265.93H236.407V264.575C244.238 249.627 245.355 232.056 239.484 216.234C233.557 200.639 221.643 188.061 206.396 181.304C154.981 158.178 115.009 186.718 103.815 188.806C92.6211 190.899 98.6514 206.146 98.6514 206.146C71.0998 227.795 86.3528 261.499 87.9518 265.924C83.6428 266.791 81.6714 275.153 83.3925 284.626L83.3906 284.625Z" fill="black"/>
</svg>
