<svg width="800" height="800" viewBox="0 0 800 800" fill="none" xmlns="http://www.w3.org/2000/svg">
<path d="M705.234 155.797C705.234 114.025 671.494 80.2906 629.728 80.2906C587.956 80.2906 554.222 114.031 554.222 155.797C554.222 197.569 587.963 231.303 629.728 231.303C671.5 231.303 705.234 195.958 705.234 155.797ZM584.745 155.797C584.745 131.7 604.027 110.814 629.728 110.814C655.43 110.814 674.711 130.095 674.711 155.797C674.711 181.498 653.831 199.175 629.728 199.175C605.631 199.175 584.745 179.894 584.745 155.797Z" fill="black"/>
<path d="M245.766 546.187C245.766 504.416 212.025 470.681 170.259 470.681C128.487 470.681 94.7531 504.422 94.7531 546.187C94.7531 587.959 128.494 621.694 170.259 621.694C212.025 621.694 245.766 587.959 245.766 546.187ZM125.277 546.187C125.277 522.091 144.558 501.205 170.259 501.205C195.961 501.205 215.242 520.486 215.242 546.187C215.242 571.889 195.961 591.17 170.259 591.17C144.552 591.17 125.277 570.284 125.277 546.187Z" fill="black"/>
<path d="M650.609 377.516C681.133 338.959 771.098 218.469 771.098 154.203C771.098 77.0906 708.445 12.8281 629.723 12.8281C551.006 12.8281 488.348 77.0859 488.348 155.809C488.348 220.073 579.919 343.778 608.838 380.731C583.136 391.98 557.428 404.828 531.725 416.077C470.678 444.995 408.019 481.945 399.988 539.783C396.777 560.669 403.198 581.555 408.02 600.83C409.625 607.257 411.23 615.289 412.841 621.716C416.052 639.386 417.663 665.094 398.382 677.947C390.35 684.374 377.496 689.196 364.642 692.406C313.232 708.47 261.821 724.534 212.023 740.6C250.579 689.19 311.626 597.619 311.626 544.6C311.626 467.487 248.973 403.225 170.251 403.225C93.1384 403.225 28.8759 465.878 28.8759 544.6C28.8759 616.897 144.543 763.084 157.398 779.147C160.608 782.357 165.43 785.574 168.647 785.574C171.857 785.574 173.468 783.969 176.679 783.969H181.5C245.765 763.083 310.022 743.808 374.282 722.922C388.741 718.1 404.805 713.284 417.66 703.64C441.757 684.359 451.4 653.836 443.361 615.279C441.756 607.247 440.151 600.82 438.54 592.787C433.718 575.117 428.902 559.047 432.113 544.594C438.54 501.215 493.159 469.087 546.175 443.38C578.303 428.92 610.439 412.856 642.567 398.397C650.606 395.18 653.822 385.543 650.606 377.511L650.609 377.516ZM61.0156 546.203C61.0156 485.156 110.82 436.956 170.263 436.956C231.309 436.956 279.509 486.761 279.509 546.203C279.509 592.791 208.825 695.611 170.263 745.422C131.706 694.012 61.0156 592.797 61.0156 546.203ZM629.734 44.9687C690.781 44.9687 738.981 94.7734 738.981 154.216C738.981 200.803 668.297 303.623 629.734 353.434C591.178 303.63 520.494 202.416 520.494 155.825C520.494 94.7781 568.688 44.9734 629.734 44.9734V44.9687Z" fill="black"/>
</svg>
