<svg width="800" height="800" viewBox="0 0 800 800" fill="none" xmlns="http://www.w3.org/2000/svg">
<path d="M664.297 341.797C664.297 341.797 646.152 304.78 610.708 275C593.527 260.535 567.922 247.547 538.125 240.558C454.288 220.917 348.422 232.489 302.078 248.822C282.358 255.768 196.378 342.028 196.378 342.028C126.969 353.131 85.1109 369.824 85.1109 409.814V477.472C85.1109 494.83 99.143 508.863 116.483 508.863H127.616C127.341 506.006 127.225 503.095 127.225 500.165C127.225 449.292 168.472 408.081 219.37 408.081C270.225 408.081 311.516 449.292 311.516 500.165C311.516 503.095 311.32 506.012 311.064 508.863H480.767C480.529 506.006 480.352 503.095 480.352 500.165C480.352 449.292 521.643 408.081 572.497 408.081C623.388 408.081 664.643 449.292 664.643 500.165C664.643 503.095 664.484 506.012 664.228 508.863H678.675C698.706 508.863 714.923 492.645 714.923 472.589V389.777C714.874 369.745 693.737 349.353 664.295 341.797L664.297 341.797ZM245.047 346.442L313.003 282.892C324.337 273.071 365.116 264.02 429.781 264.02L429.818 346.442H245.047ZM465.641 346.442V264.77C519.841 264.886 597.794 288.189 621.195 346.442H465.641Z" fill="black"/>
<path d="M572.469 430.641C534.034 430.641 502.98 461.775 502.98 500.172C502.98 538.569 534.034 569.739 572.469 569.739C610.866 569.739 642 538.569 642 500.172C642 461.775 610.866 430.641 572.469 430.641ZM572.469 538.428C551.369 538.428 534.267 521.327 534.267 500.189C534.267 479.034 551.369 461.933 572.469 461.933C593.605 461.933 610.708 479.034 610.708 500.189C610.708 521.325 593.606 538.428 572.469 538.428Z" fill="black"/>
<path d="M219.375 430.641C180.978 430.641 149.844 461.775 149.844 500.172C149.844 538.569 180.978 569.739 219.375 569.739C257.772 569.739 288.864 538.569 288.864 500.172C288.87 461.775 257.773 430.641 219.375 430.641ZM219.375 538.428C198.239 538.428 181.136 521.327 181.136 500.189C181.136 479.034 198.237 461.933 219.375 461.933C240.475 461.933 257.614 479.034 257.614 500.189C257.632 521.325 240.494 538.428 219.375 538.428Z" fill="black"/>
</svg>
