<svg width="24" height="24" viewBox="0 0 24 24" fill="none" xmlns="http://www.w3.org/2000/svg">
<g id="icon/general/24x24/outline/activity">
<path id="&#240;&#159;&#142;&#168; Icon &#208;&#161;olor" d="M14.329 20.0004C14.262 20.0004 14.193 19.9974 14.124 19.9904C13.244 19.9034 12.554 19.2824 12.364 18.4074L9.681 6.01542L6.918 12.3974C6.759 12.7634 6.398 13.0004 6 13.0004H3C2.447 13.0004 2 12.5524 2 12.0004C2 11.4474 2.447 11.0004 3 11.0004H5.344L7.85 5.21142C8.205 4.39542 8.987 3.92042 9.876 4.00942C10.756 4.09642 11.446 4.71742 11.636 5.59242L14.319 17.9844L17.082 11.6024C17.241 11.2364 17.601 11.0004 18 11.0004H21C21.553 11.0004 22 11.4474 22 12.0004C22 12.5524 21.553 13.0004 21 13.0004H18.656L16.15 18.7884C15.823 19.5414 15.122 20.0004 14.329 20.0004Z" fill="#383B46"/>
<mask id="mask0_11506_94241" style="mask-type:luminance" maskUnits="userSpaceOnUse" x="2" y="3" width="20" height="18">
<path id="&#240;&#159;&#142;&#168; Icon &#208;&#161;olor_2" d="M14.329 20.0004C14.262 20.0004 14.193 19.9974 14.124 19.9904C13.244 19.9034 12.554 19.2824 12.364 18.4074L9.681 6.01542L6.918 12.3974C6.759 12.7634 6.398 13.0004 6 13.0004H3C2.447 13.0004 2 12.5524 2 12.0004C2 11.4474 2.447 11.0004 3 11.0004H5.344L7.85 5.21142C8.205 4.39542 8.987 3.92042 9.876 4.00942C10.756 4.09642 11.446 4.71742 11.636 5.59242L14.319 17.9844L17.082 11.6024C17.241 11.2364 17.601 11.0004 18 11.0004H21C21.553 11.0004 22 11.4474 22 12.0004C22 12.5524 21.553 13.0004 21 13.0004H18.656L16.15 18.7884C15.823 19.5414 15.122 20.0004 14.329 20.0004Z" fill="white"/>
</mask>
<g mask="url(#mask0_11506_94241)">
</g>
</g>
</svg>
