<svg width="24" height="24" viewBox="0 0 24 24" fill="none" xmlns="http://www.w3.org/2000/svg">
<path fill-rule="evenodd" clip-rule="evenodd" d="M6 3.5C6.49705 3.5 6.9 3.90294 6.9 4.4V5.5H8C8.49706 5.5 8.9 5.90294 8.9 6.4C8.9 6.89705 8.49706 7.3 8 7.3H6.9V8.4C6.9 8.89706 6.49705 9.3 6 9.3C5.50294 9.3 5.1 8.89706 5.1 8.4V7.3H4C3.50294 7.3 3.1 6.89705 3.1 6.4C3.1 5.90294 3.50294 5.5 4 5.5H5.1V4.4C5.1 3.90294 5.50294 3.5 6 3.5ZM11.1001 6.41125C11.0939 5.91423 11.4917 5.50628 11.9887 5.50007L19.9887 5.40007C20.4858 5.39386 20.8937 5.79173 20.8999 6.28875C20.9061 6.78577 20.5083 7.19372 20.0112 7.19993L12.0112 7.29993C11.5142 7.30614 11.1063 6.90826 11.1001 6.41125ZM3.1 13.3C3.1 12.8029 3.50294 12.4 4 12.4H20C20.4971 12.4 20.9 12.8029 20.9 13.3C20.9 13.7971 20.4971 14.2 20 14.2H4C3.50294 14.2 3.1 13.7971 3.1 13.3ZM4 18.4C3.50294 18.4 3.1 18.8029 3.1 19.3C3.1 19.7971 3.50294 20.2 4 20.2H20C20.4971 20.2 20.9 19.7971 20.9 19.3C20.9 18.8029 20.4971 18.4 20 18.4H4Z" fill="black"/>
</svg>
