<svg width="24" height="24" viewBox="0 0 24 24" fill="none" xmlns="http://www.w3.org/2000/svg">
<path fill-rule="evenodd" clip-rule="evenodd" d="M12 22C17.5228 22 22 17.5228 22 12C22 6.47715 17.5228 2 12 2C6.47715 2 2 6.47715 2 12C2 17.5228 6.47715 22 12 22ZM12 7C12.4142 7 12.75 7.33579 12.75 7.75V11H16C16.4142 11 16.75 11.3358 16.75 11.75C16.75 12.1642 16.4142 12.5 16 12.5H12.75V15.75C12.75 16.1642 12.4142 16.5 12 16.5C11.5858 16.5 11.25 16.1642 11.25 15.75V12.5H8C7.58579 12.5 7.25 12.1642 7.25 11.75C7.25 11.3358 7.58579 11 8 11H11.25V7.75C11.25 7.33579 11.5858 7 12 7Z" fill="black"/>
</svg>
