<svg width="24" height="24" viewBox="0 0 24 24" fill="none" xmlns="http://www.w3.org/2000/svg">
<path fill-rule="evenodd" clip-rule="evenodd" d="M8.83593 4.8H6.33451L1.2 18.9231H3.55096L4.77346 15.3824H10.397L11.6195 18.9231H13.9704L8.83593 4.8ZM9.7386 13.4836H5.43163L7.55691 7.29238H7.63214L9.7386 13.4836Z" fill="black"/>
<path d="M6.33451 4.8V4.6H6.19441L6.14654 4.73167L6.33451 4.8ZM8.83593 4.8L9.0239 4.73167L8.97603 4.6H8.83593V4.8ZM1.2 18.9231L1.01203 18.8547L0.914479 19.1231H1.2V18.9231ZM3.55096 18.9231V19.1231H3.69349L3.74001 18.9884L3.55096 18.9231ZM4.77346 15.3824V15.1824H4.63093L4.58442 15.3171L4.77346 15.3824ZM10.397 15.3824L10.586 15.3171L10.5395 15.1824H10.397V15.3824ZM11.6195 18.9231L11.4304 18.9884L11.4769 19.1231H11.6195V18.9231ZM13.9704 18.9231V19.1231H14.256L14.1584 18.8547L13.9704 18.9231ZM5.43163 13.4836L5.24247 13.4187L5.15152 13.6836H5.43163V13.4836ZM9.7386 13.4836V13.6836H10.0179L9.92794 13.4192L9.7386 13.4836ZM7.55691 7.29238V7.09238H7.41411L7.36774 7.22745L7.55691 7.29238ZM7.63214 7.29238L7.82148 7.22796L7.77535 7.09238H7.63214V7.29238ZM6.33451 5H8.83593V4.6H6.33451V5ZM1.38796 18.9914L6.52247 4.86834L6.14654 4.73167L1.01203 18.8547L1.38796 18.9914ZM3.55096 18.7231H1.2V19.1231H3.55096V18.7231ZM4.58442 15.3171L3.36191 18.8578L3.74001 18.9884L4.96251 15.4477L4.58442 15.3171ZM10.397 15.1824H4.77346V15.5824H10.397V15.1824ZM11.8085 18.8578L10.586 15.3171L10.2079 15.4477L11.4304 18.9884L11.8085 18.8578ZM13.9704 18.7231H11.6195V19.1231H13.9704V18.7231ZM8.64797 4.86834L13.7825 18.9914L14.1584 18.8547L9.0239 4.73167L8.64797 4.86834ZM5.43163 13.6836H9.7386V13.2836H5.43163V13.6836ZM7.36774 7.22745L5.24247 13.4187L5.6208 13.5485L7.74607 7.35732L7.36774 7.22745ZM7.63214 7.09238H7.55691V7.49238H7.63214V7.09238ZM9.92794 13.4192L7.82148 7.22796L7.4428 7.3568L9.54926 13.548L9.92794 13.4192Z" fill="black"/>
<path fill-rule="evenodd" clip-rule="evenodd" d="M22.1745 9.5472C21.4974 8.79555 20.4254 8.41972 18.996 8.41972C17.7547 8.41972 16.7767 8.63731 16.062 9.11203C15.2156 9.62632 14.689 10.4571 14.4821 11.5846L16.6074 11.7626C16.7202 11.2285 17.0023 10.8329 17.4161 10.5758C17.7735 10.3384 18.2437 10.2395 18.8455 10.2395C20.2373 10.2395 20.9332 10.8923 20.9332 12.2373V12.6329L18.8079 12.6923C17.3785 12.7318 16.2688 13.0483 15.4789 13.6417C14.6138 14.2549 14.2 15.145 14.2 16.2923C14.2 17.1428 14.5009 17.8351 15.1028 18.389C15.6858 18.923 16.4757 19.1999 17.4913 19.1999C18.3377 19.1999 19.0712 19.0417 19.6919 18.745C20.2373 18.4681 20.7075 18.0923 21.0836 17.578V18.923H23.0772V12.3955C23.0772 11.1494 22.7763 10.1999 22.1745 9.5472ZM18.9584 14.3143L20.9333 14.2549V14.7692C20.9333 15.5604 20.6323 16.2132 20.0681 16.7275C19.5039 17.222 18.808 17.4791 17.9804 17.4791C17.5102 17.4791 17.1341 17.3407 16.8332 17.1033C16.5322 16.8659 16.4006 16.5692 16.4006 16.2132C16.4006 14.9868 17.2469 14.3538 18.9584 14.3143Z" fill="black"/>
<path d="M22.1745 9.5472L22.0259 9.68106L22.0274 9.68277L22.1745 9.5472ZM16.062 9.11203L16.1659 9.28309L16.1726 9.27863L16.062 9.11203ZM14.4821 11.5846L14.2854 11.5485L14.2456 11.7654L14.4654 11.7839L14.4821 11.5846ZM16.6074 11.7626L16.5907 11.9619L16.7666 11.9766L16.8031 11.8039L16.6074 11.7626ZM17.4161 10.5758L17.5217 10.7457L17.5268 10.7424L17.4161 10.5758ZM20.9332 12.6329L20.9387 12.8328L21.1332 12.8274V12.6329H20.9332ZM18.8079 12.6923L18.8134 12.8922L18.8135 12.8922L18.8079 12.6923ZM15.4789 13.6417L15.5946 13.8049L15.599 13.8016L15.4789 13.6417ZM15.1028 18.389L14.9673 18.5361L14.9677 18.5364L15.1028 18.389ZM19.6919 18.745L19.7781 18.9255L19.7824 18.9233L19.6919 18.745ZM21.0836 17.578H21.2836V16.9657L20.9222 17.4599L21.0836 17.578ZM21.0836 18.923H20.8836V19.123H21.0836V18.923ZM23.0772 18.923V19.123H23.2772V18.923H23.0772ZM20.9333 14.2549H21.1333V14.0488L20.9272 14.055L20.9333 14.2549ZM18.9584 14.3143L18.9631 14.5142L18.9644 14.5142L18.9584 14.3143ZM20.0681 16.7275L20.1999 16.8779L20.2028 16.8753L20.0681 16.7275ZM18.996 8.61972C20.3937 8.61972 21.4007 8.98707 22.0259 9.68105L22.3231 9.41334C21.594 8.60402 20.457 8.21972 18.996 8.21972V8.61972ZM16.1726 9.27863C16.8411 8.83457 17.7741 8.61972 18.996 8.61972V8.21972C17.7352 8.21972 16.7122 8.44004 15.9513 8.94543L16.1726 9.27863ZM14.6788 11.6207C14.8774 10.5387 15.3767 9.76243 16.1658 9.28295L15.9581 8.94111C15.0545 9.4902 14.5006 10.3755 14.2854 11.5485L14.6788 11.6207ZM16.6241 11.5633L14.4988 11.3853L14.4654 11.7839L16.5907 11.9619L16.6241 11.5633ZM17.3106 10.4059C16.8485 10.693 16.5353 11.1361 16.4117 11.7212L16.8031 11.8039C16.9051 11.3209 17.1561 10.9728 17.5217 10.7456L17.3106 10.4059ZM18.8455 10.0395C18.2253 10.0395 17.7096 10.1407 17.3055 10.4092L17.5268 10.7424C17.8373 10.5361 18.262 10.4395 18.8455 10.4395V10.0395ZM21.1332 12.2373C21.1332 11.5322 20.9503 10.9712 20.5492 10.5892C20.1499 10.2089 19.5691 10.0395 18.8455 10.0395V10.4395C19.5137 10.4395 19.9767 10.5964 20.2733 10.8788C20.568 11.1595 20.7332 11.5974 20.7332 12.2373H21.1332ZM21.1332 12.6329V12.2373H20.7332V12.6329H21.1332ZM18.8135 12.8922L20.9387 12.8328L20.9276 12.433L18.8023 12.4923L18.8135 12.8922ZM15.599 13.8016C16.344 13.242 17.4077 12.9311 18.8134 12.8922L18.8024 12.4923C17.3493 12.5325 16.1937 12.8546 15.3588 13.4818L15.599 13.8016ZM14.4 16.2923C14.4 15.2002 14.7897 14.3753 15.5946 13.8049L15.3633 13.4785C14.4378 14.1345 14 15.0898 14 16.2923H14.4ZM15.2382 18.2418C14.6788 17.727 14.4 17.0886 14.4 16.2923H14C14 17.197 14.3231 17.9432 14.9673 18.5361L15.2382 18.2418ZM17.4913 18.9999C16.5134 18.9999 15.7758 18.7343 15.2379 18.2415L14.9677 18.5364C15.5958 19.1118 16.4381 19.3999 17.4913 19.3999V18.9999ZM19.6056 18.5646C19.0159 18.8465 18.3126 18.9999 17.4913 18.9999V19.3999C18.3627 19.3999 19.1265 19.2369 19.7781 18.9254L19.6056 18.5646ZM20.9222 17.4599C20.5666 17.9461 20.1219 18.3024 19.6013 18.5667L19.7824 18.9233C20.3527 18.6338 20.8483 18.2384 21.2451 17.696L20.9222 17.4599ZM21.2836 18.923V17.578H20.8836V18.923H21.2836ZM23.0772 18.723H21.0836V19.123H23.0772V18.723ZM22.8772 12.3955V18.923H23.2772V12.3955H22.8772ZM22.0274 9.68277C22.5836 10.286 22.8772 11.1793 22.8772 12.3955H23.2772C23.2772 11.1195 22.969 10.1139 22.3215 9.41162L22.0274 9.68277ZM20.9272 14.055L18.9524 14.1144L18.9644 14.5142L20.9393 14.4549L20.9272 14.055ZM21.1333 14.7692V14.2549H20.7333V14.7692H21.1333ZM20.2028 16.8753C20.8077 16.3239 21.1333 15.6179 21.1333 14.7692H20.7333C20.7333 15.503 20.4569 16.1024 19.9334 16.5797L20.2028 16.8753ZM17.9804 17.6791C18.853 17.6791 19.5967 17.4066 20.1999 16.8779L19.9363 16.5771C19.4111 17.0374 18.763 17.2791 17.9804 17.2791V17.6791ZM16.7093 17.2603C17.0473 17.527 17.4677 17.6791 17.9804 17.6791V17.2791C17.5528 17.2791 17.2208 17.1544 16.957 16.9463L16.7093 17.2603ZM16.2006 16.2132C16.2006 16.6282 16.3585 16.9836 16.7093 17.2603L16.957 16.9463C16.706 16.7482 16.6006 16.5103 16.6006 16.2132H16.2006ZM18.9538 14.1143C18.0799 14.1345 17.3918 14.306 16.9183 14.6582C16.4334 15.0188 16.2006 15.5484 16.2006 16.2132H16.6006C16.6006 15.6516 16.7909 15.2515 17.1571 14.9792C17.5346 14.6984 18.1255 14.5336 18.9631 14.5142L18.9538 14.1143Z" fill="black"/>
</svg>
