<svg width="24" height="24" viewBox="0 0 24 24" fill="none" xmlns="http://www.w3.org/2000/svg">
<g id="icon/general/24x24/fill/alert-triangle-fill">
<path id="&#240;&#159;&#142;&#168; Icon &#208;&#161;olor" fill-rule="evenodd" clip-rule="evenodd" d="M14.8883 3.584L22.5603 16.303C23.1283 17.246 23.1453 18.38 22.6053 19.336C22.0263 20.363 20.9013 21 19.6713 21H4.32733C3.09733 21 1.97233 20.363 1.39333 19.336C0.853325 18.38 0.870325 17.246 1.43833 16.303L9.11032 3.584C9.70932 2.592 10.7893 2 11.9993 2C13.2093 2 14.2893 2.592 14.8883 3.584ZM12.9993 13C12.9993 13.552 12.5513 14 11.9993 14C11.4473 14 10.9993 13.552 10.9993 13V9C10.9993 8.448 11.4473 8 11.9993 8C12.5513 8 12.9993 8.448 12.9993 9V13ZM11.9993 17C11.4473 17 10.9993 16.552 10.9993 16C10.9993 15.448 11.4473 15 11.9993 15C12.5513 15 12.9993 15.448 12.9993 16C12.9993 16.552 12.5513 17 11.9993 17Z" fill="#383B46"/>
<mask id="mask0_11506_95403" style="mask-type:luminance" maskUnits="userSpaceOnUse" x="1" y="2" width="22" height="19">
<path id="&#240;&#159;&#142;&#168; Icon &#208;&#161;olor_2" fill-rule="evenodd" clip-rule="evenodd" d="M14.8883 3.584L22.5603 16.303C23.1283 17.246 23.1453 18.38 22.6053 19.336C22.0263 20.363 20.9013 21 19.6713 21H4.32733C3.09733 21 1.97233 20.363 1.39333 19.336C0.853325 18.38 0.870325 17.246 1.43833 16.303L9.11032 3.584C9.70932 2.592 10.7893 2 11.9993 2C13.2093 2 14.2893 2.592 14.8883 3.584ZM12.9993 13C12.9993 13.552 12.5513 14 11.9993 14C11.4473 14 10.9993 13.552 10.9993 13V9C10.9993 8.448 11.4473 8 11.9993 8C12.5513 8 12.9993 8.448 12.9993 9V13ZM11.9993 17C11.4473 17 10.9993 16.552 10.9993 16C10.9993 15.448 11.4473 15 11.9993 15C12.5513 15 12.9993 15.448 12.9993 16C12.9993 16.552 12.5513 17 11.9993 17Z" fill="white"/>
</mask>
<g mask="url(#mask0_11506_95403)">
</g>
</g>
</svg>
