<svg width="24" height="24" viewBox="0 0 24 24" fill="none" xmlns="http://www.w3.org/2000/svg">
<g id="icon/general/24x24/outline/alert-triangle">
<path id="&#240;&#159;&#142;&#168; Icon &#208;&#161;olor" fill-rule="evenodd" clip-rule="evenodd" d="M14.8882 3.584L22.5602 16.303C23.1292 17.246 23.1462 18.38 22.6062 19.336C22.0262 20.363 20.9022 21 19.6712 21H4.32721C3.09721 21 1.97221 20.363 1.39321 19.336C0.85321 18.38 0.870211 17.246 1.43921 16.303L9.11121 3.584C9.70921 2.592 10.7892 2 11.9992 2C13.2092 2 14.2892 2.592 14.8882 3.584ZM20.8642 18.353C20.6352 18.758 20.1892 19 19.6712 19H4.32721C3.80921 19 3.36321 18.758 3.13521 18.353C3.02721 18.163 2.88521 17.776 3.15221 17.336L10.8232 4.618C11.2902 3.844 12.7082 3.844 13.1752 4.618L20.8472 17.336C21.1132 17.776 20.9722 18.163 20.8642 18.353ZM10.9995 9C10.9995 8.448 11.4475 8 11.9995 8C12.5515 8 12.9995 8.448 12.9995 9V13C12.9995 13.552 12.5515 14 11.9995 14C11.4475 14 10.9995 13.552 10.9995 13V9ZM10.9995 16C10.9995 15.448 11.4475 15 11.9995 15C12.5515 15 12.9995 15.448 12.9995 16C12.9995 16.552 12.5515 17 11.9995 17C11.4475 17 10.9995 16.552 10.9995 16Z" fill="#383B46"/>
<mask id="mask0_11506_93301" style="mask-type:luminance" maskUnits="userSpaceOnUse" x="1" y="2" width="22" height="19">
<path id="&#240;&#159;&#142;&#168; Icon &#208;&#161;olor_2" fill-rule="evenodd" clip-rule="evenodd" d="M14.8882 3.584L22.5602 16.303C23.1292 17.246 23.1462 18.38 22.6062 19.336C22.0262 20.363 20.9022 21 19.6712 21H4.32721C3.09721 21 1.97221 20.363 1.39321 19.336C0.85321 18.38 0.870211 17.246 1.43921 16.303L9.11121 3.584C9.70921 2.592 10.7892 2 11.9992 2C13.2092 2 14.2892 2.592 14.8882 3.584ZM20.8642 18.353C20.6352 18.758 20.1892 19 19.6712 19H4.32721C3.80921 19 3.36321 18.758 3.13521 18.353C3.02721 18.163 2.88521 17.776 3.15221 17.336L10.8232 4.618C11.2902 3.844 12.7082 3.844 13.1752 4.618L20.8472 17.336C21.1132 17.776 20.9722 18.163 20.8642 18.353ZM10.9995 9C10.9995 8.448 11.4475 8 11.9995 8C12.5515 8 12.9995 8.448 12.9995 9V13C12.9995 13.552 12.5515 14 11.9995 14C11.4475 14 10.9995 13.552 10.9995 13V9ZM10.9995 16C10.9995 15.448 11.4475 15 11.9995 15C12.5515 15 12.9995 15.448 12.9995 16C12.9995 16.552 12.5515 17 11.9995 17C11.4475 17 10.9995 16.552 10.9995 16Z" fill="white"/>
</mask>
<g mask="url(#mask0_11506_93301)">
</g>
</g>
</svg>
