<svg width="24" height="24" viewBox="0 0 24 24" fill="none" xmlns="http://www.w3.org/2000/svg">
<g id="icon/general/24x24/fill/archive-fill">
<path id="&#240;&#159;&#142;&#168; Icon &#208;&#161;olor" fill-rule="evenodd" clip-rule="evenodd" d="M6 3H18C19.654 3 21 4.346 21 6C21 6.883 20.609 7.67 20 8.22V18C20 19.654 18.654 21 17 21H7C5.346 21 4 19.654 4 18V8.22C3.391 7.67 3 6.883 3 6C3 4.346 4.346 3 6 3ZM18 7H6C5.449 7 5 6.551 5 6C5 5.449 5.449 5 6 5H18C18.552 5 19 5.449 19 6C19 6.551 18.552 7 18 7ZM15 13.134C15 13.61 14.61 14 14.134 14H9.866C9.39 14 9 13.61 9 13.134V12.866C9 12.39 9.39 12 9.866 12H14.134C14.61 12 15 12.39 15 12.866V13.134Z" fill="#383B46"/>
<mask id="mask0_11506_95922" style="mask-type:luminance" maskUnits="userSpaceOnUse" x="3" y="3" width="18" height="18">
<path id="&#240;&#159;&#142;&#168; Icon &#208;&#161;olor_2" fill-rule="evenodd" clip-rule="evenodd" d="M6 3H18C19.654 3 21 4.346 21 6C21 6.883 20.609 7.67 20 8.22V18C20 19.654 18.654 21 17 21H7C5.346 21 4 19.654 4 18V8.22C3.391 7.67 3 6.883 3 6C3 4.346 4.346 3 6 3ZM18 7H6C5.449 7 5 6.551 5 6C5 5.449 5.449 5 6 5H18C18.552 5 19 5.449 19 6C19 6.551 18.552 7 18 7ZM15 13.134C15 13.61 14.61 14 14.134 14H9.866C9.39 14 9 13.61 9 13.134V12.866C9 12.39 9.39 12 9.866 12H14.134C14.61 12 15 12.39 15 12.866V13.134Z" fill="white"/>
</mask>
<g mask="url(#mask0_11506_95922)">
</g>
</g>
</svg>
