<svg width="24" height="24" viewBox="0 0 24 24" fill="none" xmlns="http://www.w3.org/2000/svg">
<g id="icon/general/24x24/fill/arrow-circle-down-fill">
<path id="&#240;&#159;&#142;&#168; Icon &#208;&#161;olor" fill-rule="evenodd" clip-rule="evenodd" d="M2 12.0002C2 6.48624 6.485 2.00024 12 2.00024C17.514 2.00024 22 6.48624 22 12.0002C22 17.5142 17.514 22.0002 12 22.0002C6.485 22.0002 2 17.5142 2 12.0002ZM12.69 16.7232L15.69 13.8612C16.089 13.4802 16.105 12.8472 15.723 12.4472C15.341 12.0472 14.709 12.0332 14.309 12.4142L13 13.6632V8.00024C13 7.44724 12.552 7.00024 12 7.00024C11.447 7.00024 11 7.44724 11 8.00024V13.5862L9.707 12.2932C9.316 11.9022 8.683 11.9022 8.293 12.2932C7.902 12.6832 7.902 13.3162 8.293 13.7072L11.292 16.7062C11.384 16.7992 11.495 16.8722 11.617 16.9232C11.739 16.9732 11.869 17.0002 12 17.0002C12.128 17.0002 12.256 16.9732 12.377 16.9242C12.4191 16.9067 12.4553 16.8803 12.4918 16.8537C12.5073 16.8424 12.5229 16.831 12.539 16.8202C12.5566 16.8086 12.575 16.7984 12.5934 16.7883C12.6272 16.7697 12.6609 16.7511 12.69 16.7232Z" fill="#383B46"/>
<mask id="mask0_11506_95807" style="mask-type:luminance" maskUnits="userSpaceOnUse" x="2" y="2" width="20" height="21">
<path id="&#240;&#159;&#142;&#168; Icon &#208;&#161;olor_2" fill-rule="evenodd" clip-rule="evenodd" d="M2 12.0002C2 6.48624 6.485 2.00024 12 2.00024C17.514 2.00024 22 6.48624 22 12.0002C22 17.5142 17.514 22.0002 12 22.0002C6.485 22.0002 2 17.5142 2 12.0002ZM12.69 16.7232L15.69 13.8612C16.089 13.4802 16.105 12.8472 15.723 12.4472C15.341 12.0472 14.709 12.0332 14.309 12.4142L13 13.6632V8.00024C13 7.44724 12.552 7.00024 12 7.00024C11.447 7.00024 11 7.44724 11 8.00024V13.5862L9.707 12.2932C9.316 11.9022 8.683 11.9022 8.293 12.2932C7.902 12.6832 7.902 13.3162 8.293 13.7072L11.292 16.7062C11.384 16.7992 11.495 16.8722 11.617 16.9232C11.739 16.9732 11.869 17.0002 12 17.0002C12.128 17.0002 12.256 16.9732 12.377 16.9242C12.4191 16.9067 12.4553 16.8803 12.4918 16.8537C12.5073 16.8424 12.5229 16.831 12.539 16.8202C12.5566 16.8086 12.575 16.7984 12.5934 16.7883C12.6272 16.7697 12.6609 16.7511 12.69 16.7232Z" fill="white"/>
</mask>
<g mask="url(#mask0_11506_95807)">
</g>
</g>
</svg>
