<svg width="24" height="24" viewBox="0 0 24 24" fill="none" xmlns="http://www.w3.org/2000/svg">
<g id="icon/general/24x24/fill/arrow-up-fill">
<path id="&#240;&#159;&#142;&#168; Icon &#208;&#161;olor" d="M16.2122 16H7.78617C7.11317 16 6.50617 15.598 6.20117 14.951C5.85617 14.218 5.95617 13.351 6.45917 12.741L10.6732 7.64205C11.3452 6.82505 12.6532 6.82505 13.3252 7.64205L17.5382 12.74C18.0422 13.351 18.1432 14.218 17.7972 14.951C17.4922 15.598 16.8852 16 16.2122 16Z" fill="#383B46"/>
<mask id="mask0_11506_95358" style="mask-type:luminance" maskUnits="userSpaceOnUse" x="5" y="7" width="13" height="9">
<path id="&#240;&#159;&#142;&#168; Icon &#208;&#161;olor_2" d="M16.2122 16H7.78617C7.11317 16 6.50617 15.598 6.20117 14.951C5.85617 14.218 5.95617 13.351 6.45917 12.741L10.6732 7.64205C11.3452 6.82505 12.6532 6.82505 13.3252 7.64205L17.5382 12.74C18.0422 13.351 18.1432 14.218 17.7972 14.951C17.4922 15.598 16.8852 16 16.2122 16Z" fill="white"/>
</mask>
<g mask="url(#mask0_11506_95358)">
</g>
</g>
</svg>
