<svg width="24" height="24" viewBox="0 0 24 24" fill="none" xmlns="http://www.w3.org/2000/svg">
<g id="icon/general/24x24/outline/arrow-ios-up">
<path id="&#240;&#159;&#142;&#168; Icon &#208;&#161;olor" d="M17.9998 14.9999C17.7738 14.9999 17.5468 14.9239 17.3597 14.7679L11.9887 10.2919L6.62675 14.6069C6.19775 14.9539 5.56775 14.8859 5.22075 14.4549C4.87475 14.0249 4.94275 13.3959 5.37375 13.0489L11.3737 8.22092C11.7437 7.92192 12.2747 7.92592 12.6407 8.23192L18.6407 13.2319C19.0647 13.5849 19.1217 14.2159 18.7688 14.6399C18.5708 14.8769 18.2867 14.9999 17.9998 14.9999Z" fill="#383B46"/>
<mask id="mask0_11506_95076" style="mask-type:luminance" maskUnits="userSpaceOnUse" x="5" y="7" width="14" height="8">
<path id="&#240;&#159;&#142;&#168; Icon &#208;&#161;olor_2" d="M17.9998 14.9999C17.7738 14.9999 17.5468 14.9239 17.3597 14.7679L11.9887 10.2919L6.62675 14.6069C6.19775 14.9539 5.56775 14.8859 5.22075 14.4549C4.87475 14.0249 4.94275 13.3959 5.37375 13.0489L11.3737 8.22092C11.7437 7.92192 12.2747 7.92592 12.6407 8.23192L18.6407 13.2319C19.0647 13.5849 19.1217 14.2159 18.7688 14.6399C18.5708 14.8769 18.2867 14.9999 17.9998 14.9999Z" fill="white"/>
</mask>
<g mask="url(#mask0_11506_95076)">
</g>
</g>
</svg>
