<svg width="24" height="24" viewBox="0 0 24 24" fill="none" xmlns="http://www.w3.org/2000/svg">
<g id="icon/general/24x24/fill/arrow-circle-up-fill">
<path id="&#240;&#159;&#142;&#168; Icon &#208;&#161;olor" fill-rule="evenodd" clip-rule="evenodd" d="M22 11.9998C22 17.5138 17.515 21.9998 12 21.9998C6.486 21.9998 2 17.5138 2 11.9998C2 6.48576 6.486 1.99976 12 1.99976C17.515 1.99976 22 6.48576 22 11.9998ZM11.31 7.27676L8.31 10.1388C7.911 10.5198 7.895 11.1528 8.277 11.5528C8.659 11.9528 9.291 11.9668 9.691 11.5858L11 10.3368V15.9998C11 16.5528 11.448 16.9998 12 16.9998C12.553 16.9998 13 16.5528 13 15.9998V10.4138L14.293 11.7068C14.684 12.0978 15.317 12.0978 15.707 11.7068C16.098 11.3168 16.098 10.6838 15.707 10.2928L12.708 7.29376C12.616 7.20076 12.505 7.12776 12.383 7.07676C12.261 7.02676 12.131 6.99976 12 6.99976C11.872 6.99976 11.744 7.02676 11.623 7.07576C11.5809 7.0933 11.5447 7.1197 11.5082 7.14633C11.4927 7.15765 11.4771 7.16901 11.461 7.17976C11.4434 7.1914 11.425 7.20155 11.4066 7.21171C11.3728 7.23032 11.3391 7.24893 11.31 7.27676Z" fill="#383B46"/>
<mask id="mask0_11506_95721" style="mask-type:luminance" maskUnits="userSpaceOnUse" x="2" y="1" width="20" height="21">
<path id="&#240;&#159;&#142;&#168; Icon &#208;&#161;olor_2" fill-rule="evenodd" clip-rule="evenodd" d="M22 11.9998C22 17.5138 17.515 21.9998 12 21.9998C6.486 21.9998 2 17.5138 2 11.9998C2 6.48576 6.486 1.99976 12 1.99976C17.515 1.99976 22 6.48576 22 11.9998ZM11.31 7.27676L8.31 10.1388C7.911 10.5198 7.895 11.1528 8.277 11.5528C8.659 11.9528 9.291 11.9668 9.691 11.5858L11 10.3368V15.9998C11 16.5528 11.448 16.9998 12 16.9998C12.553 16.9998 13 16.5528 13 15.9998V10.4138L14.293 11.7068C14.684 12.0978 15.317 12.0978 15.707 11.7068C16.098 11.3168 16.098 10.6838 15.707 10.2928L12.708 7.29376C12.616 7.20076 12.505 7.12776 12.383 7.07676C12.261 7.02676 12.131 6.99976 12 6.99976C11.872 6.99976 11.744 7.02676 11.623 7.07576C11.5809 7.0933 11.5447 7.1197 11.5082 7.14633C11.4927 7.15765 11.4771 7.16901 11.461 7.17976C11.4434 7.1914 11.425 7.20155 11.4066 7.21171C11.3728 7.23032 11.3391 7.24893 11.31 7.27676Z" fill="white"/>
</mask>
<g mask="url(#mask0_11506_95721)">
</g>
</g>
</svg>
