<svg width="24" height="24" viewBox="0 0 24 24" fill="none" xmlns="http://www.w3.org/2000/svg">
<g id="icon/general/24x24/outline/arrow-down">
<path id="&#240;&#159;&#142;&#168; Icon &#208;&#161;olor" fill-rule="evenodd" clip-rule="evenodd" d="M10.6731 16.358C11.0091 16.767 11.4931 17 11.9991 17C12.5051 17 12.9891 16.767 13.3251 16.358L17.5391 11.259C18.0421 10.649 18.1431 9.782 17.7971 9.049C17.4921 8.402 16.8851 8 16.2121 8H7.78611C7.11311 8 6.50611 8.402 6.20111 9.049C5.85611 9.782 5.95611 10.649 6.46011 11.26L10.6731 16.358ZM12.0011 14.822L8.09111 10H15.9861L12.0011 14.822Z" fill="#383B46"/>
<mask id="mask0_11506_95124" style="mask-type:luminance" maskUnits="userSpaceOnUse" x="5" y="8" width="13" height="9">
<path id="&#240;&#159;&#142;&#168; Icon &#208;&#161;olor_2" fill-rule="evenodd" clip-rule="evenodd" d="M10.6731 16.358C11.0091 16.767 11.4931 17 11.9991 17C12.5051 17 12.9891 16.767 13.3251 16.358L17.5391 11.259C18.0421 10.649 18.1431 9.782 17.7971 9.049C17.4921 8.402 16.8851 8 16.2121 8H7.78611C7.11311 8 6.50611 8.402 6.20111 9.049C5.85611 9.782 5.95611 10.649 6.46011 11.26L10.6731 16.358ZM12.0011 14.822L8.09111 10H15.9861L12.0011 14.822Z" fill="white"/>
</mask>
<g mask="url(#mask0_11506_95124)">
</g>
</g>
</svg>
