<svg width="24" height="24" viewBox="0 0 24 24" fill="none" xmlns="http://www.w3.org/2000/svg">
<g id="icon/general/24x24/fill/arrow-circle-left-fill">
<path id="&#240;&#159;&#142;&#168; Icon &#208;&#161;olor" fill-rule="evenodd" clip-rule="evenodd" d="M12 2.00049C17.514 2.00049 22 6.48549 22 12.0005C22 17.5145 17.514 22.0005 12 22.0005C6.486 22.0005 2 17.5145 2 12.0005C2 6.48549 6.486 2.00049 12 2.00049ZM7.277 12.6905L10.139 15.6905C10.52 16.0895 11.153 16.1055 11.553 15.7235C11.953 15.3415 11.967 14.7095 11.586 14.3095L10.337 13.0005H16C16.553 13.0005 17 12.5525 17 12.0005C17 11.4475 16.553 11.0005 16 11.0005H10.414L11.707 9.70749C12.098 9.31649 12.098 8.68349 11.707 8.29349C11.317 7.90249 10.684 7.90249 10.293 8.29349L7.294 11.2925C7.201 11.3845 7.128 11.4955 7.077 11.6175C7.027 11.7395 7 11.8695 7 12.0005C7 12.1285 7.027 12.2565 7.076 12.3775C7.09354 12.4196 7.11994 12.4558 7.14657 12.4923C7.15789 12.5078 7.16926 12.5234 7.18 12.5395C7.19165 12.5571 7.2018 12.5755 7.21195 12.5939C7.23056 12.6276 7.24918 12.6614 7.277 12.6905Z" fill="#383B46"/>
<mask id="mask0_11506_95625" style="mask-type:luminance" maskUnits="userSpaceOnUse" x="2" y="2" width="20" height="21">
<path id="&#240;&#159;&#142;&#168; Icon &#208;&#161;olor_2" fill-rule="evenodd" clip-rule="evenodd" d="M12 2.00049C17.514 2.00049 22 6.48549 22 12.0005C22 17.5145 17.514 22.0005 12 22.0005C6.486 22.0005 2 17.5145 2 12.0005C2 6.48549 6.486 2.00049 12 2.00049ZM7.277 12.6905L10.139 15.6905C10.52 16.0895 11.153 16.1055 11.553 15.7235C11.953 15.3415 11.967 14.7095 11.586 14.3095L10.337 13.0005H16C16.553 13.0005 17 12.5525 17 12.0005C17 11.4475 16.553 11.0005 16 11.0005H10.414L11.707 9.70749C12.098 9.31649 12.098 8.68349 11.707 8.29349C11.317 7.90249 10.684 7.90249 10.293 8.29349L7.294 11.2925C7.201 11.3845 7.128 11.4955 7.077 11.6175C7.027 11.7395 7 11.8695 7 12.0005C7 12.1285 7.027 12.2565 7.076 12.3775C7.09354 12.4196 7.11994 12.4558 7.14657 12.4923C7.15789 12.5078 7.16926 12.5234 7.18 12.5395C7.19165 12.5571 7.2018 12.5755 7.21195 12.5939C7.23056 12.6276 7.24918 12.6614 7.277 12.6905Z" fill="white"/>
</mask>
<g mask="url(#mask0_11506_95625)">
</g>
</g>
</svg>
