<svg width="24" height="24" viewBox="0 0 24 24" fill="none" xmlns="http://www.w3.org/2000/svg">
<g id="icon/general/24x24/fill/arrow-circle-right-fill">
<path id="&#240;&#159;&#142;&#168; Icon &#208;&#161;olor" fill-rule="evenodd" clip-rule="evenodd" d="M12 21.9995C6.486 21.9995 2 17.5145 2 11.9995C2 6.48551 6.486 1.99951 12 1.99951C17.514 1.99951 22 6.48551 22 11.9995C22 17.5145 17.514 21.9995 12 21.9995ZM16.723 11.3095L13.861 8.30951C13.48 7.91051 12.847 7.89451 12.447 8.27651C12.047 8.65851 12.033 9.29051 12.414 9.69051L13.663 10.9995H8C7.447 10.9995 7 11.4475 7 11.9995C7 12.5525 7.447 12.9995 8 12.9995H13.586L12.293 14.2925C11.902 14.6835 11.902 15.3165 12.293 15.7065C12.683 16.0975 13.316 16.0975 13.707 15.7065L16.706 12.7075C16.799 12.6155 16.872 12.5045 16.923 12.3825C16.973 12.2605 17 12.1305 17 11.9995C17 11.8715 16.973 11.7435 16.924 11.6225C16.9065 11.5804 16.8801 11.5442 16.8534 11.5077C16.8421 11.4922 16.8307 11.4766 16.82 11.4605C16.8084 11.4429 16.7982 11.4245 16.788 11.4061C16.7694 11.3724 16.7508 11.3386 16.723 11.3095Z" fill="#383B46"/>
<mask id="mask0_11506_95561" style="mask-type:luminance" maskUnits="userSpaceOnUse" x="2" y="1" width="20" height="21">
<path id="&#240;&#159;&#142;&#168; Icon &#208;&#161;olor_2" fill-rule="evenodd" clip-rule="evenodd" d="M12 21.9995C6.486 21.9995 2 17.5145 2 11.9995C2 6.48551 6.486 1.99951 12 1.99951C17.514 1.99951 22 6.48551 22 11.9995C22 17.5145 17.514 21.9995 12 21.9995ZM16.723 11.3095L13.861 8.30951C13.48 7.91051 12.847 7.89451 12.447 8.27651C12.047 8.65851 12.033 9.29051 12.414 9.69051L13.663 10.9995H8C7.447 10.9995 7 11.4475 7 11.9995C7 12.5525 7.447 12.9995 8 12.9995H13.586L12.293 14.2925C11.902 14.6835 11.902 15.3165 12.293 15.7065C12.683 16.0975 13.316 16.0975 13.707 15.7065L16.706 12.7075C16.799 12.6155 16.872 12.5045 16.923 12.3825C16.973 12.2605 17 12.1305 17 11.9995C17 11.8715 16.973 11.7435 16.924 11.6225C16.9065 11.5804 16.8801 11.5442 16.8534 11.5077C16.8421 11.4922 16.8307 11.4766 16.82 11.4605C16.8084 11.4429 16.7982 11.4245 16.788 11.4061C16.7694 11.3724 16.7508 11.3386 16.723 11.3095Z" fill="white"/>
</mask>
<g mask="url(#mask0_11506_95561)">
</g>
</g>
</svg>
