<svg width="24" height="24" viewBox="0 0 24 24" fill="none" xmlns="http://www.w3.org/2000/svg">
<g id="icon/general/24x24/outline/arrow-right">
<path id="&#240;&#159;&#142;&#168; Icon &#208;&#161;olor" fill-rule="evenodd" clip-rule="evenodd" d="M9.55 17.7987C9.839 17.9347 10.149 18.0007 10.456 18.0007C10.927 18.0007 11.391 17.8437 11.759 17.5387L16.858 13.3267C17.267 12.9907 17.5 12.5057 17.5 11.9997C17.5 11.4937 17.267 11.0097 16.858 10.6737L11.759 6.45966C11.15 5.95666 10.282 5.85666 9.55 6.20166C8.902 6.50666 8.5 7.11466 8.5 7.78666V16.2127C8.5 16.8857 8.902 17.4937 9.55 17.7987ZM10.5 15.9087V8.01466L15.321 11.9977L10.5 15.9087Z" fill="#383B46"/>
<mask id="mask0_11506_94910" style="mask-type:luminance" maskUnits="userSpaceOnUse" x="8" y="5" width="10" height="14">
<path id="&#240;&#159;&#142;&#168; Icon &#208;&#161;olor_2" fill-rule="evenodd" clip-rule="evenodd" d="M9.55 17.7987C9.839 17.9347 10.149 18.0007 10.456 18.0007C10.927 18.0007 11.391 17.8437 11.759 17.5387L16.858 13.3267C17.267 12.9907 17.5 12.5057 17.5 11.9997C17.5 11.4937 17.267 11.0097 16.858 10.6737L11.759 6.45966C11.15 5.95666 10.282 5.85666 9.55 6.20166C8.902 6.50666 8.5 7.11466 8.5 7.78666V16.2127C8.5 16.8857 8.902 17.4937 9.55 17.7987ZM10.5 15.9087V8.01466L15.321 11.9977L10.5 15.9087Z" fill="white"/>
</mask>
<g mask="url(#mask0_11506_94910)">
</g>
</g>
</svg>
