<svg width="24" height="24" viewBox="0 0 24 24" fill="none" xmlns="http://www.w3.org/2000/svg">
<g id="icon/general/24x24/fill/arrow-right-fill">
<path id="&#240;&#159;&#142;&#168; Icon &#208;&#161;olor" d="M10.956 18.0028C10.649 18.0028 10.339 17.9368 10.05 17.8008C9.402 17.4948 9 16.8878 9 16.2148V7.78878C9 7.11578 9.402 6.50878 10.05 6.20278C10.782 5.85778 11.65 5.95878 12.259 6.46178L17.358 10.6758C17.767 11.0118 18 11.4958 18 12.0018C18 12.5078 17.767 12.9918 17.358 13.3278L12.259 17.5408C11.891 17.8458 11.427 18.0028 10.956 18.0028Z" fill="#383B46"/>
<mask id="mask0_11506_95355" style="mask-type:luminance" maskUnits="userSpaceOnUse" x="9" y="6" width="9" height="13">
<path id="&#240;&#159;&#142;&#168; Icon &#208;&#161;olor_2" d="M10.956 18.0028C10.649 18.0028 10.339 17.9368 10.05 17.8008C9.402 17.4948 9 16.8878 9 16.2148V7.78878C9 7.11578 9.402 6.50878 10.05 6.20278C10.782 5.85778 11.65 5.95878 12.259 6.46178L17.358 10.6758C17.767 11.0118 18 11.4958 18 12.0018C18 12.5078 17.767 12.9918 17.358 13.3278L12.259 17.5408C11.891 17.8458 11.427 18.0028 10.956 18.0028Z" fill="white"/>
</mask>
<g mask="url(#mask0_11506_95355)">
</g>
</g>
</svg>
