<svg width="24" height="24" viewBox="0 0 24 24" fill="none" xmlns="http://www.w3.org/2000/svg">
<g id="icon/general/24x24/outline/arrow-up">
<path id="&#240;&#159;&#142;&#168; Icon &#208;&#161;olor" fill-rule="evenodd" clip-rule="evenodd" d="M7.78617 16H16.2122C16.8852 16 17.4922 15.598 17.7972 14.951C18.1432 14.218 18.0422 13.351 17.5382 12.74L13.3252 7.64205C12.6542 6.82505 11.3452 6.82505 10.6732 7.64205L6.45917 12.741C5.95617 13.351 5.85617 14.218 6.20117 14.951C6.50617 15.598 7.11417 16 7.78617 16ZM15.9082 14H8.01317L11.9972 9.17805L15.9082 14Z" fill="#383B46"/>
<mask id="mask0_11506_95018" style="mask-type:luminance" maskUnits="userSpaceOnUse" x="5" y="7" width="13" height="9">
<path id="&#240;&#159;&#142;&#168; Icon &#208;&#161;olor_2" fill-rule="evenodd" clip-rule="evenodd" d="M7.78617 16H16.2122C16.8852 16 17.4922 15.598 17.7972 14.951C18.1432 14.218 18.0422 13.351 17.5382 12.74L13.3252 7.64205C12.6542 6.82505 11.3452 6.82505 10.6732 7.64205L6.45917 12.741C5.95617 13.351 5.85617 14.218 6.20117 14.951C6.50617 15.598 7.11417 16 7.78617 16ZM15.9082 14H8.01317L11.9972 9.17805L15.9082 14Z" fill="white"/>
</mask>
<g mask="url(#mask0_11506_95018)">
</g>
</g>
</svg>
