<svg width="24" height="24" viewBox="0 0 24 24" fill="none" xmlns="http://www.w3.org/2000/svg">
<g id="icon/general/24x24/fill/arrow-down-fill">
<path id="&#240;&#159;&#142;&#168; Icon &#208;&#161;olor" d="M11.9995 17C11.4935 17 11.0095 16.767 10.6735 16.358L6.46054 11.26C5.95654 10.649 5.85554 9.782 6.20154 9.049C6.50654 8.402 7.11354 8 7.78654 8H16.2125C16.8855 8 17.4925 8.402 17.7975 9.049C18.1435 9.782 18.0425 10.649 17.5395 11.259L13.3255 16.358C12.9895 16.767 12.5055 17 11.9995 17Z" fill="#383B46"/>
<mask id="mask0_11506_95352" style="mask-type:luminance" maskUnits="userSpaceOnUse" x="5" y="8" width="14" height="9">
<path id="&#240;&#159;&#142;&#168; Icon &#208;&#161;olor_2" d="M11.9995 17C11.4935 17 11.0095 16.767 10.6735 16.358L6.46054 11.26C5.95654 10.649 5.85554 9.782 6.20154 9.049C6.50654 8.402 7.11354 8 7.78654 8H16.2125C16.8855 8 17.4925 8.402 17.7975 9.049C18.1435 9.782 18.0425 10.649 17.5395 11.259L13.3255 16.358C12.9895 16.767 12.5055 17 11.9995 17Z" fill="white"/>
</mask>
<g mask="url(#mask0_11506_95352)">
</g>
</g>
</svg>
