<svg width="24" height="24" viewBox="0 0 24 24" fill="none" xmlns="http://www.w3.org/2000/svg">
<g id="icon/general/24x24/outline/arrrow-left">
<path id="&#240;&#159;&#142;&#168; Icon &#208;&#161;olor" fill-rule="evenodd" clip-rule="evenodd" d="M12.241 17.54C12.609 17.844 13.073 18.001 13.544 18.001C13.851 18.001 14.161 17.935 14.45 17.799C15.097 17.493 15.5 16.886 15.5 16.213V7.78701C15.5 7.11401 15.097 6.50701 14.45 6.20101C13.716 5.85601 12.849 5.95701 12.241 6.46101L7.141 10.674C6.734 11.01 6.5 11.494 6.5 12C6.5 12.506 6.734 12.99 7.141 13.326L12.241 17.54ZM13.5 15.985L8.678 12.002L13.5 8.09201V15.985Z" fill="#383B46"/>
<mask id="mask0_11506_94811" style="mask-type:luminance" maskUnits="userSpaceOnUse" x="6" y="5" width="10" height="14">
<path id="&#240;&#159;&#142;&#168; Icon &#208;&#161;olor_2" fill-rule="evenodd" clip-rule="evenodd" d="M12.241 17.54C12.609 17.844 13.073 18.001 13.544 18.001C13.851 18.001 14.161 17.935 14.45 17.799C15.097 17.493 15.5 16.886 15.5 16.213V7.78701C15.5 7.11401 15.097 6.50701 14.45 6.20101C13.716 5.85601 12.849 5.95701 12.241 6.46101L7.141 10.674C6.734 11.01 6.5 11.494 6.5 12C6.5 12.506 6.734 12.99 7.141 13.326L12.241 17.54ZM13.5 15.985L8.678 12.002L13.5 8.09201V15.985Z" fill="white"/>
</mask>
<g mask="url(#mask0_11506_94811)">
</g>
</g>
</svg>
