<svg width="24" height="24" viewBox="0 0 24 24" fill="none" xmlns="http://www.w3.org/2000/svg">
<path d="M12.16 2C6.56 2 2 6.57 2 12.19C2 17.81 6.58 22.38 12.2 22.38C13.35 22.38 14.47 22.19 15.53 21.82C15.96 21.67 16.25 21.53 16.25 21.53C16.45 21.44 16.6 21.28 16.67 21.08C16.74 20.88 16.73 20.66 16.63 20.47L16.56 20.34C16.37 19.96 15.89 19.79 15.49 19.95L15.45 19.97C15.41 19.99 15.27 20.05 15.02 20.14C14.11 20.46 13.16 20.63 12.19 20.63C7.54 20.63 3.76 16.85 3.76 12.2C3.76 7.55 7.54 3.77 12.19 3.77C16.84 3.77 20.62 7.55 20.62 12.19C20.6 13.33 20.32 14.39 19.82 15.18C19.39 15.88 18.84 16.27 18.31 16.27C17.39 16.25 16.77 14.76 16.77 12.55V8.39C16.77 8.23 16.72 8.1 16.63 8C16.48 7.85 16.28 7.85 16.05 7.85H16H15.78C15.6 7.85 15.43 7.85 15.3 7.98C15.18 8.1 15.16 8.26 15.16 8.39V8.78C14.29 8.1 13.5 7.6 12.35 7.58H12.28C9.77 7.58 7.68 9.89 7.63 12.72C7.58 15.6 9.6 17.98 12.13 18.02H12.2C13.59 18.02 14.88 17.33 15.76 16.11C16.33 17.36 17.17 18 18.27 18.02H18.32C19.12 18.02 19.89 17.68 20.55 17.03C21.65 15.95 22.3 14.16 22.3 12.24V12.18C22.3 6.57 17.75 2 12.16 2ZM12.21 9.24C13.74 9.24 14.98 10.86 14.98 12.84C14.98 14.83 13.74 16.44 12.21 16.44C10.68 16.44 9.44 14.82 9.44 12.84C9.44 10.86 10.68 9.24 12.21 9.24Z" fill="black"/>
</svg>
