<svg width="24" height="24" viewBox="0 0 24 24" fill="none" xmlns="http://www.w3.org/2000/svg">
<g id="icon/general/24x24/fill/award-fill">
<path id="&#240;&#159;&#142;&#168; Icon &#208;&#161;olor" fill-rule="evenodd" clip-rule="evenodd" d="M16.6603 11.772L18.9693 20.751C19.0683 21.138 18.9283 21.547 18.6123 21.791C18.4333 21.93 18.2173 22 18.0003 22C17.8343 22 17.6673 21.959 17.5163 21.875L11.8363 18.733L6.50632 21.862C6.15832 22.064 5.72132 22.042 5.39832 21.799C5.07532 21.556 4.93132 21.143 5.03132 20.751L7.34032 11.772C6.50432 10.74 6.00032 9.429 6.00032 8C6.00032 4.691 8.69132 2 12.0003 2C15.3093 2 18.0003 4.691 18.0003 8C18.0003 9.429 17.4963 10.74 16.6603 11.772ZM16.0003 8C16.0003 5.794 14.2063 4 12.0003 4C9.79432 4 8.00032 5.794 8.00032 8C8.00032 10.206 9.79432 12 12.0003 12C14.2063 12 16.0003 10.206 16.0003 8Z" fill="#383B46"/>
<mask id="mask0_11506_95387" style="mask-type:luminance" maskUnits="userSpaceOnUse" x="5" y="2" width="14" height="20">
<path id="&#240;&#159;&#142;&#168; Icon &#208;&#161;olor_2" fill-rule="evenodd" clip-rule="evenodd" d="M16.6603 11.772L18.9693 20.751C19.0683 21.138 18.9283 21.547 18.6123 21.791C18.4333 21.93 18.2173 22 18.0003 22C17.8343 22 17.6673 21.959 17.5163 21.875L11.8363 18.733L6.50632 21.862C6.15832 22.064 5.72132 22.042 5.39832 21.799C5.07532 21.556 4.93132 21.143 5.03132 20.751L7.34032 11.772C6.50432 10.74 6.00032 9.429 6.00032 8C6.00032 4.691 8.69132 2 12.0003 2C15.3093 2 18.0003 4.691 18.0003 8C18.0003 9.429 17.4963 10.74 16.6603 11.772ZM16.0003 8C16.0003 5.794 14.2063 4 12.0003 4C9.79432 4 8.00032 5.794 8.00032 8C8.00032 10.206 9.79432 12 12.0003 12C14.2063 12 16.0003 10.206 16.0003 8Z" fill="white"/>
</mask>
<g mask="url(#mask0_11506_95387)">
</g>
</g>
</svg>
