<svg width="24" height="24" viewBox="0 0 24 24" fill="none" xmlns="http://www.w3.org/2000/svg">
<g id="icon/general/24x24/fill/backspace-fill">
<path id="&#240;&#159;&#142;&#168; Icon &#208;&#161;olor" fill-rule="evenodd" clip-rule="evenodd" d="M10.3696 4H20.1406C21.1656 4 21.9996 4.815 21.9996 5.818V18.182C21.9996 19.185 21.1656 20 20.1406 20H10.3696C9.62158 20 8.90458 19.723 8.35158 19.219L2.32658 13.74C1.93558 13.384 1.88958 12.785 2.22158 12.373L8.24558 4.894C8.27758 4.854 8.31258 4.815 8.35158 4.781C8.90458 4.277 9.62158 4 10.3696 4ZM16.7066 14.707C17.0976 14.316 17.0976 13.684 16.7066 13.293L15.4136 12L16.7066 10.707C17.0976 10.316 17.0976 9.684 16.7066 9.293C16.3156 8.902 15.6836 8.902 15.2926 9.293L13.9996 10.586L12.7066 9.293C12.3156 8.902 11.6836 8.902 11.2926 9.293C10.9016 9.684 10.9016 10.316 11.2926 10.707L12.5856 12L11.2926 13.293C10.9016 13.684 10.9016 14.316 11.2926 14.707C11.4876 14.902 11.7436 15 11.9996 15C12.2556 15 12.5116 14.902 12.7066 14.707L13.9996 13.414L15.2926 14.707C15.4876 14.902 15.7436 15 15.9996 15C16.2556 15 16.5116 14.902 16.7066 14.707Z" fill="#383B46"/>
<mask id="mask0_11506_96202" style="mask-type:luminance" maskUnits="userSpaceOnUse" x="2" y="4" width="20" height="16">
<path id="&#240;&#159;&#142;&#168; Icon &#208;&#161;olor_2" fill-rule="evenodd" clip-rule="evenodd" d="M10.3696 4H20.1406C21.1656 4 21.9996 4.815 21.9996 5.818V18.182C21.9996 19.185 21.1656 20 20.1406 20H10.3696C9.62158 20 8.90458 19.723 8.35158 19.219L2.32658 13.74C1.93558 13.384 1.88958 12.785 2.22158 12.373L8.24558 4.894C8.27758 4.854 8.31258 4.815 8.35158 4.781C8.90458 4.277 9.62158 4 10.3696 4ZM16.7066 14.707C17.0976 14.316 17.0976 13.684 16.7066 13.293L15.4136 12L16.7066 10.707C17.0976 10.316 17.0976 9.684 16.7066 9.293C16.3156 8.902 15.6836 8.902 15.2926 9.293L13.9996 10.586L12.7066 9.293C12.3156 8.902 11.6836 8.902 11.2926 9.293C10.9016 9.684 10.9016 10.316 11.2926 10.707L12.5856 12L11.2926 13.293C10.9016 13.684 10.9016 14.316 11.2926 14.707C11.4876 14.902 11.7436 15 11.9996 15C12.2556 15 12.5116 14.902 12.7066 14.707L13.9996 13.414L15.2926 14.707C15.4876 14.902 15.7436 15 15.9996 15C16.2556 15 16.5116 14.902 16.7066 14.707Z" fill="white"/>
</mask>
<g mask="url(#mask0_11506_96202)">
</g>
</g>
</svg>
