<svg width="24" height="24" viewBox="0 0 24 24" fill="none" xmlns="http://www.w3.org/2000/svg">
<g id="icon/general/24x24/fill/battery-fill">
<path id="&#240;&#159;&#142;&#168; Icon &#208;&#161;olor" fill-rule="evenodd" clip-rule="evenodd" d="M4.166 6H15.833C17.028 6 18 7.089 18 8.429V15.571C18 16.911 17.028 18 15.833 18H4.166C2.971 18 2 16.911 2 15.571V8.429C2 7.089 2.971 6 4.166 6ZM19.9995 10C19.9995 9.448 20.4475 9 20.9995 9C21.5515 9 21.9995 9.448 21.9995 10V14C21.9995 14.552 21.5515 15 20.9995 15C20.4475 15 19.9995 14.552 19.9995 14V10Z" fill="#383B46"/>
<mask id="mask0_11506_95825" style="mask-type:luminance" maskUnits="userSpaceOnUse" x="2" y="6" width="20" height="12">
<path id="&#240;&#159;&#142;&#168; Icon &#208;&#161;olor_2" fill-rule="evenodd" clip-rule="evenodd" d="M4.166 6H15.833C17.028 6 18 7.089 18 8.429V15.571C18 16.911 17.028 18 15.833 18H4.166C2.971 18 2 16.911 2 15.571V8.429C2 7.089 2.971 6 4.166 6ZM19.9995 10C19.9995 9.448 20.4475 9 20.9995 9C21.5515 9 21.9995 9.448 21.9995 10V14C21.9995 14.552 21.5515 15 20.9995 15C20.4475 15 19.9995 14.552 19.9995 14V10Z" fill="white"/>
</mask>
<g mask="url(#mask0_11506_95825)">
</g>
</g>
</svg>
