<svg width="24" height="24" viewBox="0 0 24 24" fill="none" xmlns="http://www.w3.org/2000/svg">
<g id="icon/general/24x24/fill/behance-fill">
<path id="&#240;&#159;&#142;&#168; Icon &#208;&#161;olor" fill-rule="evenodd" clip-rule="evenodd" d="M2 11.9995C2 6.47751 6.477 1.99951 12 1.99951C17.523 1.99951 22 6.47751 22 11.9995C22 17.5225 17.523 21.9995 12 21.9995C6.477 21.9995 2 17.5225 2 11.9995ZM9.698 15.2025H6.975V8.70251H9.703C10.873 8.70251 11.64 9.30851 11.64 10.3035C11.64 11.0935 11.165 11.5705 10.518 11.7275V11.7835C11.304 11.8605 11.975 12.3945 11.975 13.3695C11.975 14.5325 11.026 15.2025 9.698 15.2025ZM16.25 9.70251H13.25V9.20251H16.25V9.70251ZM9.4054 9.66931C10.0104 9.66931 10.3644 9.99431 10.3644 10.5223C10.3644 11.0883 9.9814 11.4083 9.1134 11.4083H8.2604V9.66931H9.4054ZM14.7647 11.1883C14.1387 11.1883 13.7267 11.6663 13.7267 12.2843V12.2933H15.7877V12.2843C15.7877 11.6613 15.3857 11.1883 14.7647 11.1883ZM9.4869 12.3035H8.2599V14.2375H9.2189C10.2399 14.2375 10.6569 13.9125 10.6569 13.2935C10.6569 12.6795 10.2439 12.3035 9.4869 12.3035ZM17.025 13.0535H13.727V13.1855C13.727 13.9175 14.168 14.3815 14.818 14.3815C15.327 14.3815 15.686 14.1455 15.793 13.7535H16.977C16.856 14.5275 16.186 15.2965 14.808 15.2965C13.397 15.2965 12.475 14.4685 12.475 12.9905V12.5485C12.475 11.1335 13.401 10.2965 14.755 10.2965C16.157 10.2965 17.025 11.1925 17.025 12.5795V13.0535Z" fill="#383B46"/>
<mask id="mask0_11506_96392" style="mask-type:luminance" maskUnits="userSpaceOnUse" x="2" y="1" width="20" height="21">
<path id="&#240;&#159;&#142;&#168; Icon &#208;&#161;olor_2" fill-rule="evenodd" clip-rule="evenodd" d="M2 11.9995C2 6.47751 6.477 1.99951 12 1.99951C17.523 1.99951 22 6.47751 22 11.9995C22 17.5225 17.523 21.9995 12 21.9995C6.477 21.9995 2 17.5225 2 11.9995ZM9.698 15.2025H6.975V8.70251H9.703C10.873 8.70251 11.64 9.30851 11.64 10.3035C11.64 11.0935 11.165 11.5705 10.518 11.7275V11.7835C11.304 11.8605 11.975 12.3945 11.975 13.3695C11.975 14.5325 11.026 15.2025 9.698 15.2025ZM16.25 9.70251H13.25V9.20251H16.25V9.70251ZM9.4054 9.66931C10.0104 9.66931 10.3644 9.99431 10.3644 10.5223C10.3644 11.0883 9.9814 11.4083 9.1134 11.4083H8.2604V9.66931H9.4054ZM14.7647 11.1883C14.1387 11.1883 13.7267 11.6663 13.7267 12.2843V12.2933H15.7877V12.2843C15.7877 11.6613 15.3857 11.1883 14.7647 11.1883ZM9.4869 12.3035H8.2599V14.2375H9.2189C10.2399 14.2375 10.6569 13.9125 10.6569 13.2935C10.6569 12.6795 10.2439 12.3035 9.4869 12.3035ZM17.025 13.0535H13.727V13.1855C13.727 13.9175 14.168 14.3815 14.818 14.3815C15.327 14.3815 15.686 14.1455 15.793 13.7535H16.977C16.856 14.5275 16.186 15.2965 14.808 15.2965C13.397 15.2965 12.475 14.4685 12.475 12.9905V12.5485C12.475 11.1335 13.401 10.2965 14.755 10.2965C16.157 10.2965 17.025 11.1925 17.025 12.5795V13.0535Z" fill="white"/>
</mask>
<g mask="url(#mask0_11506_96392)">
</g>
</g>
</svg>
