<svg width="24" height="24" viewBox="0 0 24 24" fill="none" xmlns="http://www.w3.org/2000/svg">
<path fill-rule="evenodd" clip-rule="evenodd" d="M18.4 17.8C19.7567 17.8 20.9 16.7243 20.9 15.3445C20.9 14.201 20.115 13.2665 19.074 12.9798L17.6978 8.96578C17.6369 6.81308 16.3227 5.00075 14.4783 4.12891C14.3147 2.90955 13.2476 2 12 2C10.7525 2 9.68533 2.90958 9.52174 4.12891C7.67739 5.00075 6.36318 6.81307 6.30226 8.96578L4.92604 12.9798C3.88507 13.2665 3.10001 14.201 3.10001 15.3444C3.10001 16.7244 4.24336 17.8 5.6 17.8H8.10124C8.1004 17.8332 8.09998 17.8666 8.09998 17.9C8.09998 20.0539 9.84607 21.8 12 21.8C14.1539 21.8 15.9 20.0539 15.9 17.9C15.9 17.8666 15.8996 17.8332 15.8987 17.8H18.4ZM14.0976 17.8L9.90232 17.8C9.90077 17.8331 9.89998 17.8665 9.89998 17.9C9.89998 19.0598 10.8402 20 12 20C13.1598 20 14.1 19.0598 14.1 17.9C14.1 17.8665 14.0992 17.8331 14.0976 17.8ZM19.1 15.3445C19.1 15.6828 18.8107 16 18.4 16L5.6 16C5.18931 16 4.90001 15.6828 4.90001 15.3444C4.90001 15.0061 5.18931 14.6889 5.60005 14.6889C5.98461 14.6889 6.32669 14.4446 6.45141 14.0808L8.0514 9.41411C8.08361 9.32017 8.10005 9.22154 8.10005 9.12222C8.10005 7.50831 9.16612 6.11989 10.694 5.59196C11.0567 5.46662 11.3 5.12507 11.3 4.74131V4.45555C11.3 4.11722 11.5894 3.8 12 3.8C12.4107 3.8 12.7 4.1172 12.7 4.45555V4.74131C12.7 5.12507 12.9434 5.46662 13.3061 5.59196C14.834 6.11989 15.9 7.50831 15.9 9.12222C15.9 9.22154 15.9165 9.32017 15.9487 9.41412L17.5487 14.0808C17.6734 14.4446 18.0155 14.6889 18.4 14.6889C18.8107 14.6889 19.1 15.0061 19.1 15.3445Z" fill="black"/>
</svg>
