<svg width="24" height="24" viewBox="0 0 24 24" fill="none" xmlns="http://www.w3.org/2000/svg">
<g id="icon/general/24x24/fill/bell-fill">
<path id="&#240;&#159;&#142;&#168; Icon &#208;&#161;olor" fill-rule="evenodd" clip-rule="evenodd" d="M18.7203 13.4043L20.5213 15.2073C20.9893 15.6773 21.1283 16.3773 20.8733 16.9903C20.6193 17.6043 20.0263 18.0003 19.3623 18.0003H16.0003V18.3413C16.0003 20.3593 14.2063 22.0003 12.0003 22.0003C9.79434 22.0003 8.00034 20.3593 8.00034 18.3413V18.0003H4.63734C3.97334 18.0003 3.38034 17.6033 3.12534 16.9903C2.87134 16.3773 3.01034 15.6773 3.47934 15.2083L5.27934 13.4043L5.28034 8.72726C5.28034 6.79326 6.11934 4.94826 7.58334 3.66626C9.03834 2.39026 10.9783 1.80426 12.8993 2.05926C16.2183 2.49926 18.7203 5.45526 18.7203 8.93626V13.4043ZM12.0003 20.0003C13.0843 20.0003 14.0003 19.2403 14.0003 18.3413V18.0003H10.0003V18.3413C10.0003 19.2403 10.9163 20.0003 12.0003 20.0003Z" fill="#383B46"/>
<mask id="mask0_11506_95364" style="mask-type:luminance" maskUnits="userSpaceOnUse" x="3" y="2" width="18" height="21">
<path id="&#240;&#159;&#142;&#168; Icon &#208;&#161;olor_2" fill-rule="evenodd" clip-rule="evenodd" d="M18.7203 13.4043L20.5213 15.2073C20.9893 15.6773 21.1283 16.3773 20.8733 16.9903C20.6193 17.6043 20.0263 18.0003 19.3623 18.0003H16.0003V18.3413C16.0003 20.3593 14.2063 22.0003 12.0003 22.0003C9.79434 22.0003 8.00034 20.3593 8.00034 18.3413V18.0003H4.63734C3.97334 18.0003 3.38034 17.6033 3.12534 16.9903C2.87134 16.3773 3.01034 15.6773 3.47934 15.2083L5.27934 13.4043L5.28034 8.72726C5.28034 6.79326 6.11934 4.94826 7.58334 3.66626C9.03834 2.39026 10.9783 1.80426 12.8993 2.05926C16.2183 2.49926 18.7203 5.45526 18.7203 8.93626V13.4043ZM12.0003 20.0003C13.0843 20.0003 14.0003 19.2403 14.0003 18.3413V18.0003H10.0003V18.3413C10.0003 19.2403 10.9163 20.0003 12.0003 20.0003Z" fill="white"/>
</mask>
<g mask="url(#mask0_11506_95364)">
</g>
</g>
</svg>
