<svg width="24" height="24" viewBox="0 0 24 24" fill="none" xmlns="http://www.w3.org/2000/svg">
<path fill-rule="evenodd" clip-rule="evenodd" d="M5.27997 17C4.35212 17 3.59998 16.3036 3.59998 15.4445C3.59998 14.5853 4.35212 13.8889 5.28003 13.8889L6.96002 9.22223C6.96002 7.19332 8.36685 5.48406 10.32 4.84131V4.55555C10.32 3.69643 11.0722 3 12 3C12.9279 3 13.68 3.69641 13.68 4.55555V4.84131C15.6332 5.48406 17.04 7.19332 17.04 9.22223L18.72 13.8889C19.6478 13.8889 20.4 14.5853 20.4 15.4445C20.4 16.3036 19.6479 17 18.72 17L5.27997 17ZM11.9999 22C10.1361 22 8.56998 20.7252 8.12593 19H15.8739C15.4299 20.7252 13.8638 22 11.9999 22Z" fill="black"/>
</svg>
