<svg width="24" height="24" viewBox="0 0 24 24" fill="none" xmlns="http://www.w3.org/2000/svg">
<path fill-rule="evenodd" clip-rule="evenodd" d="M21.7071 3.70711C22.0976 3.31658 22.0976 2.68342 21.7071 2.29289C21.3166 1.90237 20.6834 1.90237 20.2929 2.29289L2.29289 20.2929C1.90237 20.6834 1.90237 21.3166 2.29289 21.7071C2.68342 22.0976 3.31658 22.0976 3.70711 21.7071L7.51421 17.9H8.10121C8.10037 17.9332 8.09995 17.9666 8.09995 18C8.09995 20.1539 9.84604 21.9 12 21.9C14.1539 21.9 15.9 20.1539 15.9 18C15.9 17.9666 15.8995 17.9332 15.8987 17.9H18.4C19.7567 17.9 20.9 16.8244 20.9 15.4445C20.9 14.301 20.1149 13.3665 19.074 13.0798L17.6978 9.06578C17.6862 8.6574 17.6296 8.26127 17.5327 7.88148L21.7071 3.70711ZM15.9369 9.47732L9.31421 16.1L18.4 16.1C18.8107 16.1 19.1 15.7828 19.1 15.4445C19.1 15.1061 18.8107 14.7889 18.4 14.7889C18.0154 14.7889 17.6734 14.5446 17.5486 14.1808L15.9486 9.51412C15.9445 9.50193 15.9405 9.48966 15.9369 9.47732ZM14.4783 4.22891C14.7183 4.34239 14.9494 4.47179 15.1699 4.61581L13.8565 5.92921C13.681 5.83749 13.4972 5.758 13.3061 5.69196C12.9433 5.56663 12.7 5.22508 12.7 4.84131V4.55556C12.7 4.21721 12.4107 3.90001 12 3.90001C11.5893 3.90001 11.3 4.21723 11.3 4.55556V4.84131C11.3 5.22508 11.0567 5.56663 10.6939 5.69196C9.16609 6.21989 8.10002 7.60832 8.10002 9.22223C8.10002 9.32155 8.08358 9.42017 8.05137 9.51412L6.89299 12.8927L3.32328 16.4625C3.18017 16.154 3.09998 15.8099 3.09998 15.4445C3.09998 14.301 3.88504 13.3665 4.926 13.0798L6.30223 9.06578C6.36314 6.91308 7.67736 5.10075 9.52171 4.22891C9.6853 3.00958 10.7525 2.10001 12 2.10001C13.2475 2.10001 14.3147 3.00956 14.4783 4.22891ZM14.0976 17.9L9.90229 17.9C9.90074 17.9331 9.89995 17.9665 9.89995 18C9.89995 19.1598 10.8402 20.1 12 20.1C13.1597 20.1 14.1 19.1598 14.1 18C14.1 17.9665 14.0992 17.9331 14.0976 17.9Z" fill="black"/>
</svg>
