<svg width="24" height="24" viewBox="0 0 24 24" fill="none" xmlns="http://www.w3.org/2000/svg">
<path fill-rule="evenodd" clip-rule="evenodd" d="M14.6902 5.29561C14.3752 5.11164 14.0367 4.95869 13.68 4.84131V4.55555C13.68 3.69641 12.9279 3 12 3C11.0722 3 10.32 3.69643 10.32 4.55555V4.84131C8.36685 5.48406 6.96002 7.19332 6.96002 9.22223L5.28003 13.8889C4.35212 13.8889 3.59998 14.5853 3.59998 15.4445C3.59998 15.7122 3.67302 15.9641 3.80167 16.1841L14.6902 5.29561ZM5.81421 17L18.72 17C19.6479 17 20.4 16.3036 20.4 15.4445C20.4 14.5853 19.6478 13.8889 18.72 13.8889L17.04 9.22223C17.04 8.2602 16.7237 7.37004 16.1828 6.63137L5.81421 17ZM8.12593 19C8.56998 20.7252 10.1361 22 11.9999 22C13.8638 22 15.4299 20.7252 15.8739 19H8.12593Z" fill="black"/>
<path d="M21 3L3 21" stroke="black" stroke-width="2" stroke-linecap="round"/>
</svg>
