<svg width="24" height="24" viewBox="0 0 24 24" fill="none" xmlns="http://www.w3.org/2000/svg">
<path fill-rule="evenodd" clip-rule="evenodd" d="M12 2.1C6.53239 2.1 2.10001 6.53238 2.10001 12C2.10001 17.4676 6.53239 21.9 12 21.9C17.4676 21.9 21.9 17.4676 21.9 12C21.9 6.53238 17.4676 2.1 12 2.1ZM6.94394 5.67141C8.32967 4.56287 10.0874 3.9 12 3.9C16.4735 3.9 20.1 7.52649 20.1 12C20.1 13.9151 19.4354 15.675 18.3242 17.0616L6.94394 5.67141ZM5.67118 6.94423C4.56278 8.32991 3.90001 10.0876 3.90001 12C3.90001 16.4735 7.5265 20.1 12 20.1C13.9099 20.1 15.6655 19.439 17.0503 18.3332L5.67118 6.94423Z" fill="black"/>
</svg>
