<svg width="24" height="24" viewBox="0 0 24 24" fill="none" xmlns="http://www.w3.org/2000/svg">
<g id="icon/general/24x24/outline/bluetooth">
<path id="&#240;&#159;&#142;&#168; Icon &#208;&#161;olor" fill-rule="evenodd" clip-rule="evenodd" d="M17.6442 8.21642L13.6292 12.0064L17.6162 15.8514C17.8632 16.0884 17.9892 16.4204 17.9612 16.7614C17.9342 17.1034 17.7542 17.4124 17.4692 17.6084L12.8272 20.7944C12.6262 20.9314 12.3952 21.0004 12.1632 21.0004C11.9752 21.0004 11.7872 20.9554 11.6132 20.8644C11.2352 20.6644 11.0002 20.2774 11.0002 19.8534V13.5594L7.7842 17.6204C7.5862 17.8704 7.2942 17.9994 7.0002 17.9994C6.7822 17.9994 6.5632 17.9294 6.3792 17.7844C5.9462 17.4404 5.8732 16.8124 6.2162 16.3794L9.7212 11.9524L6.2472 7.62542C5.9012 7.19542 5.9702 6.56542 6.4012 6.22042C6.8322 5.87442 7.4602 5.94242 7.8072 6.37442L11.0002 10.3514V4.14542C11.0002 3.72042 11.2372 3.33242 11.6182 3.13342C12.0082 2.93042 12.4742 2.95842 12.8332 3.21042L17.5072 6.45442C17.7922 6.65142 17.9702 6.96142 17.9972 7.30442C18.0232 7.64642 17.8952 7.97842 17.6442 8.21642ZM13.0002 5.76042L15.4972 7.49342L13.0002 9.85042V5.76042ZM13.0002 18.2494V14.1784L15.4672 16.5574L13.0002 18.2494Z" fill="#383B46"/>
<mask id="mask0_11506_93840" style="mask-type:luminance" maskUnits="userSpaceOnUse" x="6" y="2" width="12" height="20">
<path id="&#240;&#159;&#142;&#168; Icon &#208;&#161;olor_2" fill-rule="evenodd" clip-rule="evenodd" d="M17.6442 8.21642L13.6292 12.0064L17.6162 15.8514C17.8632 16.0884 17.9892 16.4204 17.9612 16.7614C17.9342 17.1034 17.7542 17.4124 17.4692 17.6084L12.8272 20.7944C12.6262 20.9314 12.3952 21.0004 12.1632 21.0004C11.9752 21.0004 11.7872 20.9554 11.6132 20.8644C11.2352 20.6644 11.0002 20.2774 11.0002 19.8534V13.5594L7.7842 17.6204C7.5862 17.8704 7.2942 17.9994 7.0002 17.9994C6.7822 17.9994 6.5632 17.9294 6.3792 17.7844C5.9462 17.4404 5.8732 16.8124 6.2162 16.3794L9.7212 11.9524L6.2472 7.62542C5.9012 7.19542 5.9702 6.56542 6.4012 6.22042C6.8322 5.87442 7.4602 5.94242 7.8072 6.37442L11.0002 10.3514V4.14542C11.0002 3.72042 11.2372 3.33242 11.6182 3.13342C12.0082 2.93042 12.4742 2.95842 12.8332 3.21042L17.5072 6.45442C17.7922 6.65142 17.9702 6.96142 17.9972 7.30442C18.0232 7.64642 17.8952 7.97842 17.6442 8.21642ZM13.0002 5.76042L15.4972 7.49342L13.0002 9.85042V5.76042ZM13.0002 18.2494V14.1784L15.4672 16.5574L13.0002 18.2494Z" fill="white"/>
</mask>
<g mask="url(#mask0_11506_93840)">
</g>
</g>
</svg>
