<svg width="24" height="24" viewBox="0 0 24 24" fill="none" xmlns="http://www.w3.org/2000/svg">
<g id="icon/general/24x24/outline/book-open">
<path id="&#240;&#159;&#142;&#168; Icon &#208;&#161;olor" fill-rule="evenodd" clip-rule="evenodd" d="M19.78 4.02423C20.077 3.95723 20.387 4.02923 20.625 4.21823C20.862 4.40923 21 4.69623 21 5.00023V17.2022C21 17.6702 20.676 18.0752 20.22 18.1772L12.22 19.9752C12.146 19.9922 12.073 20.0002 12 20.0002C11.927 20.0002 11.854 19.9922 11.78 19.9752L3.78 18.1772C3.324 18.0752 3 17.6702 3 17.2022V5.00023C3 4.69623 3.138 4.40923 3.375 4.21823C3.613 4.02923 3.922 3.95623 4.22 4.02423L12 5.77223L19.78 4.02423ZM5 6.25023L11 7.59723V17.7502L5 16.4022V6.25023ZM19 16.4022L13 17.7502V7.59723L19 6.25023V16.4022Z" fill="#383B46"/>
<mask id="mask0_11506_94433" style="mask-type:luminance" maskUnits="userSpaceOnUse" x="3" y="3" width="18" height="18">
<path id="&#240;&#159;&#142;&#168; Icon &#208;&#161;olor_2" fill-rule="evenodd" clip-rule="evenodd" d="M19.78 4.02423C20.077 3.95723 20.387 4.02923 20.625 4.21823C20.862 4.40923 21 4.69623 21 5.00023V17.2022C21 17.6702 20.676 18.0752 20.22 18.1772L12.22 19.9752C12.146 19.9922 12.073 20.0002 12 20.0002C11.927 20.0002 11.854 19.9922 11.78 19.9752L3.78 18.1772C3.324 18.0752 3 17.6702 3 17.2022V5.00023C3 4.69623 3.138 4.40923 3.375 4.21823C3.613 4.02923 3.922 3.95623 4.22 4.02423L12 5.77223L19.78 4.02423ZM5 6.25023L11 7.59723V17.7502L5 16.4022V6.25023ZM19 16.4022L13 17.7502V7.59723L19 6.25023V16.4022Z" fill="white"/>
</mask>
<g mask="url(#mask0_11506_94433)">
</g>
</g>
</svg>
