<svg width="24" height="24" viewBox="0 0 24 24" fill="none" xmlns="http://www.w3.org/2000/svg">
<g id="icon/general/24x24/outline/bookmark">
<path id="&#240;&#159;&#142;&#168; Icon &#208;&#161;olor" fill-rule="evenodd" clip-rule="evenodd" d="M5.507 20.87C5.66 20.957 5.83 21 6 21C6.178 21 6.356 20.952 6.514 20.858L11.836 17.663L17.508 20.871C17.818 21.047 18.196 21.044 18.504 20.864C18.811 20.685 19 20.356 19 20V5.334C19 4.047 18.013 3 16.8 3H7.2C5.987 3 5 4.047 5 5.334V20C5 20.36 5.194 20.693 5.507 20.87ZM12.313 15.635C12.16 15.549 11.99 15.506 11.821 15.506C11.643 15.506 11.465 15.554 11.306 15.649L7 18.234V5.334C7 5.133 7.12 5 7.2 5H16.8C16.879 5 17 5.133 17 5.334V18.286L12.313 15.635Z" fill="#383B46"/>
<mask id="mask0_11506_94979" style="mask-type:luminance" maskUnits="userSpaceOnUse" x="5" y="3" width="14" height="19">
<path id="&#240;&#159;&#142;&#168; Icon &#208;&#161;olor_2" fill-rule="evenodd" clip-rule="evenodd" d="M5.507 20.87C5.66 20.957 5.83 21 6 21C6.178 21 6.356 20.952 6.514 20.858L11.836 17.663L17.508 20.871C17.818 21.047 18.196 21.044 18.504 20.864C18.811 20.685 19 20.356 19 20V5.334C19 4.047 18.013 3 16.8 3H7.2C5.987 3 5 4.047 5 5.334V20C5 20.36 5.194 20.693 5.507 20.87ZM12.313 15.635C12.16 15.549 11.99 15.506 11.821 15.506C11.643 15.506 11.465 15.554 11.306 15.649L7 18.234V5.334C7 5.133 7.12 5 7.2 5H16.8C16.879 5 17 5.133 17 5.334V18.286L12.313 15.635Z" fill="white"/>
</mask>
<g mask="url(#mask0_11506_94979)">
</g>
</g>
</svg>
