<svg width="24" height="24" viewBox="0 0 24 24" fill="none" xmlns="http://www.w3.org/2000/svg">
<g id="icon/general/24x24/fill/book-open-fill">
<path id="&#240;&#159;&#142;&#168; Icon &#208;&#161;olor" fill-rule="evenodd" clip-rule="evenodd" d="M19.9386 4.11076C20.3196 4.01276 20.7106 4.09776 21.0176 4.33576C21.3246 4.57476 21.4996 4.93476 21.4996 5.32176V17.0078C21.4996 17.5788 21.1146 18.0768 20.5616 18.2188L12.9996 20.1598V5.89376L19.9386 4.11076ZM4.058 4.11046L11 5.89346V20.1605L3.438 18.2185C2.886 18.0775 2.5 17.5795 2.5 17.0075V5.32246C2.5 4.93446 2.676 4.57546 2.982 4.33546C3.288 4.09846 3.681 4.01546 4.058 4.11046Z" fill="#383B46"/>
<mask id="mask0_11506_96154" style="mask-type:luminance" maskUnits="userSpaceOnUse" x="2" y="4" width="20" height="17">
<path id="&#240;&#159;&#142;&#168; Icon &#208;&#161;olor_2" fill-rule="evenodd" clip-rule="evenodd" d="M19.9386 4.11076C20.3196 4.01276 20.7106 4.09776 21.0176 4.33576C21.3246 4.57476 21.4996 4.93476 21.4996 5.32176V17.0078C21.4996 17.5788 21.1146 18.0768 20.5616 18.2188L12.9996 20.1598V5.89376L19.9386 4.11076ZM4.058 4.11046L11 5.89346V20.1605L3.438 18.2185C2.886 18.0775 2.5 17.5795 2.5 17.0075V5.32246C2.5 4.93446 2.676 4.57546 2.982 4.33546C3.288 4.09846 3.681 4.01546 4.058 4.11046Z" fill="white"/>
</mask>
<g mask="url(#mask0_11506_96154)">
</g>
</g>
</svg>
