<svg width="24" height="24" viewBox="0 0 24 24" fill="none" xmlns="http://www.w3.org/2000/svg">
<g id="icon/general/24x24/outline/brush">
<path id="&#240;&#159;&#142;&#168; Icon &#208;&#161;olor" fill-rule="evenodd" clip-rule="evenodd" d="M19.1812 4.82349C19.7182 5.35949 20.0102 6.07149 20.0002 6.82749C20.0102 7.55649 19.7182 8.26849 19.1802 8.80649L12.5712 15.4135C12.5721 15.4481 12.5759 15.4816 12.5797 15.515C12.5842 15.5549 12.5887 15.5946 12.5882 15.6355C12.5472 17.9685 10.6172 19.8995 8.28517 19.9405L5.01917 19.9995H5.00017C4.73617 19.9995 4.48117 19.8945 4.29317 19.7065C4.10217 19.5155 3.99517 19.2535 4.00017 18.9825L4.05717 15.7165C4.09617 13.3855 6.02717 11.4545 8.36117 11.4125C8.40272 11.413 8.44335 11.4182 8.48408 11.4234C8.51687 11.4275 8.54972 11.4317 8.58317 11.4335L15.1962 4.82349C16.2562 3.75949 18.1192 3.76249 19.1812 4.82349ZM17.7662 7.39249L11.8992 13.2575C11.7482 13.0315 11.5752 12.8175 11.3782 12.6215C11.1812 12.4245 10.9672 12.2525 10.7412 12.1045L16.6102 6.23749C16.9162 5.93049 17.4582 5.92949 17.7672 6.23849C17.9202 6.39149 18.0032 6.59149 18.0002 6.82749C18.0032 7.03849 17.9192 7.23849 17.7662 7.39249ZM8.24617 17.9405L6.01817 17.9815L6.05717 15.7505C6.07817 14.4845 7.12717 13.4345 8.39617 13.4125C8.40317 13.4125 8.40967 13.4122 8.41617 13.412C8.42267 13.4117 8.42917 13.4115 8.43617 13.4115C9.02017 13.4115 9.56117 13.6315 9.96417 14.0355C10.3772 14.4475 10.5982 15.0035 10.5882 15.6015C10.5672 16.8695 9.51617 17.9185 8.24617 17.9405Z" fill="#383B46"/>
<mask id="mask0_11506_94844" style="mask-type:luminance" maskUnits="userSpaceOnUse" x="4" y="4" width="16" height="16">
<path id="&#240;&#159;&#142;&#168; Icon &#208;&#161;olor_2" fill-rule="evenodd" clip-rule="evenodd" d="M19.1812 4.82349C19.7182 5.35949 20.0102 6.07149 20.0002 6.82749C20.0102 7.55649 19.7182 8.26849 19.1802 8.80649L12.5712 15.4135C12.5721 15.4481 12.5759 15.4816 12.5797 15.515C12.5842 15.5549 12.5887 15.5946 12.5882 15.6355C12.5472 17.9685 10.6172 19.8995 8.28517 19.9405L5.01917 19.9995H5.00017C4.73617 19.9995 4.48117 19.8945 4.29317 19.7065C4.10217 19.5155 3.99517 19.2535 4.00017 18.9825L4.05717 15.7165C4.09617 13.3855 6.02717 11.4545 8.36117 11.4125C8.40272 11.413 8.44335 11.4182 8.48408 11.4234C8.51687 11.4275 8.54972 11.4317 8.58317 11.4335L15.1962 4.82349C16.2562 3.75949 18.1192 3.76249 19.1812 4.82349ZM17.7662 7.39249L11.8992 13.2575C11.7482 13.0315 11.5752 12.8175 11.3782 12.6215C11.1812 12.4245 10.9672 12.2525 10.7412 12.1045L16.6102 6.23749C16.9162 5.93049 17.4582 5.92949 17.7672 6.23849C17.9202 6.39149 18.0032 6.59149 18.0002 6.82749C18.0032 7.03849 17.9192 7.23849 17.7662 7.39249ZM8.24617 17.9405L6.01817 17.9815L6.05717 15.7505C6.07817 14.4845 7.12717 13.4345 8.39617 13.4125C8.40317 13.4125 8.40967 13.4122 8.41617 13.412C8.42267 13.4117 8.42917 13.4115 8.43617 13.4115C9.02017 13.4115 9.56117 13.6315 9.96417 14.0355C10.3772 14.4475 10.5982 15.0035 10.5882 15.6015C10.5672 16.8695 9.51617 17.9185 8.24617 17.9405Z" fill="white"/>
</mask>
<g mask="url(#mask0_11506_94844)">
</g>
</g>
</svg>
