<svg width="24" height="24" viewBox="0 0 24 24" fill="none" xmlns="http://www.w3.org/2000/svg">
<path d="M20.8637 11.7782C20.8672 13.1412 20.5487 14.4859 19.9342 15.7025C19.2055 17.1605 18.0854 18.3868 16.6991 19.244C15.3129 20.1013 13.7154 20.5557 12.0855 20.5563C10.7224 20.5599 9.37781 20.2414 8.16114 19.6269L3.14999 21L4.23679 15.7025C3.62225 14.4859 3.30378 13.1412 3.30734 11.7782C3.30797 10.1483 3.76237 8.55077 4.61964 7.16454C5.47691 5.77832 6.7032 4.65814 8.16114 3.92948C9.37781 3.31494 10.7224 2.99648 12.0855 3.00003H12.6019C14.7544 3.11878 16.7875 4.02734 18.3119 5.55175C19.8363 7.07615 20.7449 9.10927 20.8637 11.2618V11.7782Z" stroke="black" stroke-width="1.8" stroke-linecap="round" stroke-linejoin="round"/>
</svg>
