<svg width="24" height="24" viewBox="0 0 24 24" fill="none" xmlns="http://www.w3.org/2000/svg">
<g id="icon/general/24x24/outline/camera">
<path id="&#240;&#159;&#142;&#168; Icon &#208;&#161;olor" fill-rule="evenodd" clip-rule="evenodd" d="M19 7H16V5.5C16 4.122 14.879 3 13.5 3H10.5C9.121 3 8 4.122 8 5.5V7H5C3.346 7 2 8.346 2 10V18C2 19.654 3.346 21 5 21H19C20.654 21 22 19.654 22 18V10C22 8.346 20.654 7 19 7ZM10.5 5C10.225 5 10 5.224 10 5.5V7H14V5.5C14 5.224 13.775 5 13.5 5H10.5ZM20 18C20 18.551 19.552 19 19 19H5C4.448 19 4 18.551 4 18V10C4 9.449 4.448 9 5 9H19C19.552 9 20 9.449 20 10V18ZM8.5 14C8.5 12.07 10.07 10.5 12 10.5C13.93 10.5 15.5 12.07 15.5 14C15.5 15.93 13.93 17.5 12 17.5C10.07 17.5 8.5 15.93 8.5 14ZM10.5 14C10.5 14.827 11.173 15.5 12 15.5C12.827 15.5 13.5 14.827 13.5 14C13.5 13.173 12.827 12.5 12 12.5C11.173 12.5 10.5 13.173 10.5 14ZM5.5 10C5.22386 10 5 10.2239 5 10.5C5 10.7761 5.22386 11 5.5 11H7.5C7.77614 11 8 10.7761 8 10.5C8 10.2239 7.77614 10 7.5 10H5.5Z" fill="#383B46"/>
<mask id="mask0_11506_93604" style="mask-type:luminance" maskUnits="userSpaceOnUse" x="2" y="3" width="20" height="18">
<path id="&#240;&#159;&#142;&#168; Icon &#208;&#161;olor_2" fill-rule="evenodd" clip-rule="evenodd" d="M16 7H19C20.654 7 22 8.346 22 10V18C22 19.654 20.654 21 19 21H5C3.346 21 2 19.654 2 18V10C2 8.346 3.346 7 5 7H8V5.5C8 4.122 9.121 3 10.5 3H13.5C14.879 3 16 4.122 16 5.5V7ZM10 5.5C10 5.224 10.225 5 10.5 5H13.5C13.775 5 14 5.224 14 5.5V7H10V5.5ZM19 19C19.552 19 20 18.551 20 18V10C20 9.449 19.552 9 19 9H5C4.448 9 4 9.449 4 10V18C4 18.551 4.448 19 5 19H19ZM12 10.5C10.07 10.5 8.5 12.07 8.5 14C8.5 15.93 10.07 17.5 12 17.5C13.93 17.5 15.5 15.93 15.5 14C15.5 12.07 13.93 10.5 12 10.5ZM12 15.5C11.173 15.5 10.5 14.827 10.5 14C10.5 13.173 11.173 12.5 12 12.5C12.827 12.5 13.5 13.173 13.5 14C13.5 14.827 12.827 15.5 12 15.5Z" fill="white"/>
</mask>
<g mask="url(#mask0_11506_93604)">
</g>
</g>
</svg>
