<svg width="24" height="24" viewBox="0 0 24 24" fill="none" xmlns="http://www.w3.org/2000/svg">
<path fill-rule="evenodd" clip-rule="evenodd" d="M2 8.66666C2 7.5621 2.89543 6.66667 4 6.66667H6.54545L8.06591 4.43666C8.25219 4.16346 8.56147 4 8.89214 4L15.1079 4C15.4385 4 15.7478 4.16346 15.9341 4.43666L17.4545 6.66667H20C21.1046 6.66667 22 7.5621 22 8.66667V18C22 19.1046 21.1046 20 20 20H4C2.89543 20 2 19.1046 2 18L2 8.66666Z" stroke="black" stroke-width="1.8" stroke-linejoin="round"/>
<path fill-rule="evenodd" clip-rule="evenodd" d="M12 16C13.6569 16 15 14.6569 15 13C15 11.3431 13.6569 10 12 10C10.3431 10 9 11.3431 9 13C9 14.6569 10.3431 16 12 16Z" stroke="black" stroke-width="1.8"/>
</svg>
