<svg width="24" height="24" viewBox="0 0 24 24" fill="none" xmlns="http://www.w3.org/2000/svg">
<g id="icon/general/24x24/fill/car-fill">
<path id="&#240;&#159;&#142;&#168; Icon &#208;&#161;olor" fill-rule="evenodd" clip-rule="evenodd" d="M16.9785 7.519L21.6035 11.219C21.8405 11.409 21.9785 11.696 21.9785 12V16C21.9785 16.553 21.5315 17 20.9785 17H20.7935C20.9065 17.314 20.9785 17.647 20.9785 18C20.9785 19.654 19.6325 21 17.9785 21C16.3245 21 14.9785 19.654 14.9785 18C14.9785 17.647 15.0505 17.314 15.1635 17H11.9785H8.79352C8.90652 17.314 8.97852 17.647 8.97852 18C8.97852 19.654 7.63252 21 5.97852 21C4.32452 21 2.97852 19.654 2.97852 18C2.97852 17.604 3.05952 17.228 3.19952 16.882C2.49152 16.609 1.97852 15.873 1.97852 15V5C1.97852 3.897 2.79152 3 3.79052 3H15.1655C16.1655 3 16.9785 3.897 16.9785 5V7.519ZM19.9785 12.48V15H16.9785V10.081L19.9785 12.48ZM5.97852 19C6.53052 19 6.97852 18.552 6.97852 18C6.97852 17.448 6.53052 17 5.97852 17C5.42652 17 4.97852 17.448 4.97852 18C4.97852 18.552 5.42652 19 5.97852 19ZM17.9785 19C18.5305 19 18.9785 18.552 18.9785 18C18.9785 17.448 18.5305 17 17.9785 17C17.4265 17 16.9785 17.448 16.9785 18C16.9785 18.552 17.4265 19 17.9785 19Z" fill="#383B46"/>
<mask id="mask0_11506_95778" style="mask-type:luminance" maskUnits="userSpaceOnUse" x="1" y="3" width="21" height="18">
<path id="&#240;&#159;&#142;&#168; Icon &#208;&#161;olor_2" fill-rule="evenodd" clip-rule="evenodd" d="M16.9785 7.519L21.6035 11.219C21.8405 11.409 21.9785 11.696 21.9785 12V16C21.9785 16.553 21.5315 17 20.9785 17H20.7935C20.9065 17.314 20.9785 17.647 20.9785 18C20.9785 19.654 19.6325 21 17.9785 21C16.3245 21 14.9785 19.654 14.9785 18C14.9785 17.647 15.0505 17.314 15.1635 17H11.9785H8.79352C8.90652 17.314 8.97852 17.647 8.97852 18C8.97852 19.654 7.63252 21 5.97852 21C4.32452 21 2.97852 19.654 2.97852 18C2.97852 17.604 3.05952 17.228 3.19952 16.882C2.49152 16.609 1.97852 15.873 1.97852 15V5C1.97852 3.897 2.79152 3 3.79052 3H15.1655C16.1655 3 16.9785 3.897 16.9785 5V7.519ZM19.9785 12.48V15H16.9785V10.081L19.9785 12.48ZM5.97852 19C6.53052 19 6.97852 18.552 6.97852 18C6.97852 17.448 6.53052 17 5.97852 17C5.42652 17 4.97852 17.448 4.97852 18C4.97852 18.552 5.42652 19 5.97852 19ZM17.9785 19C18.5305 19 18.9785 18.552 18.9785 18C18.9785 17.448 18.5305 17 17.9785 17C17.4265 17 16.9785 17.448 16.9785 18C16.9785 18.552 17.4265 19 17.9785 19Z" fill="white"/>
</mask>
<g mask="url(#mask0_11506_95778)">
</g>
</g>
</svg>
