<svg width="24" height="24" viewBox="0 0 24 24" fill="none" xmlns="http://www.w3.org/2000/svg">
<g id="icon/general/24x24/fill/checkmark-square-fill">
<path id="&#240;&#159;&#142;&#168; Icon &#208;&#161;olor" fill-rule="evenodd" clip-rule="evenodd" d="M6 3.00049H18C19.654 3.00049 21 4.34549 21 6.00049V18.0005C21 19.6545 19.654 21.0005 18 21.0005H6C4.345 21.0005 3 19.6545 3 18.0005V6.00049C3 4.34549 4.345 3.00049 6 3.00049ZM11.727 15.6055L16.295 9.60549C16.63 9.16649 16.545 8.53949 16.106 8.20449C15.666 7.86949 15.038 7.95549 14.704 8.39449L10.92 13.3635L9.287 11.2775C8.946 10.8415 8.318 10.7655 7.883 11.1065C7.448 11.4465 7.372 12.0755 7.712 12.5095L10.144 15.6165C10.334 15.8585 10.624 16.0005 10.931 16.0005H10.938C11.248 15.9985 11.539 15.8525 11.727 15.6055Z" fill="#383B46"/>
<mask id="mask0_11506_96075" style="mask-type:luminance" maskUnits="userSpaceOnUse" x="3" y="3" width="18" height="19">
<path id="&#240;&#159;&#142;&#168; Icon &#208;&#161;olor_2" fill-rule="evenodd" clip-rule="evenodd" d="M6 3.00049H18C19.654 3.00049 21 4.34549 21 6.00049V18.0005C21 19.6545 19.654 21.0005 18 21.0005H6C4.345 21.0005 3 19.6545 3 18.0005V6.00049C3 4.34549 4.345 3.00049 6 3.00049ZM11.727 15.6055L16.295 9.60549C16.63 9.16649 16.545 8.53949 16.106 8.20449C15.666 7.86949 15.038 7.95549 14.704 8.39449L10.92 13.3635L9.287 11.2775C8.946 10.8415 8.318 10.7655 7.883 11.1065C7.448 11.4465 7.372 12.0755 7.712 12.5095L10.144 15.6165C10.334 15.8585 10.624 16.0005 10.931 16.0005H10.938C11.248 15.9985 11.539 15.8525 11.727 15.6055Z" fill="white"/>
</mask>
<g mask="url(#mask0_11506_96075)">
</g>
</g>
</svg>
