<svg width="24" height="24" viewBox="0 0 24 24" fill="none" xmlns="http://www.w3.org/2000/svg">
<path fill-rule="evenodd" clip-rule="evenodd" d="M12 22C17.5228 22 22 17.5228 22 12C22 6.47715 17.5228 2 12 2C6.47715 2 2 6.47715 2 12C2 17.5228 6.47715 22 12 22ZM17.0303 9.53033C17.3232 9.23744 17.3232 8.76256 17.0303 8.46967C16.7374 8.17678 16.2626 8.17678 15.9697 8.46967L10.7881 13.6512L8.80196 11.4922C8.52153 11.1874 8.04706 11.1676 7.74222 11.448C7.43738 11.7285 7.4176 12.2029 7.69804 12.5078L10.2136 15.2422C10.3519 15.3926 10.5456 15.48 10.7499 15.4843C10.9542 15.4885 11.1514 15.4093 11.2959 15.2648L17.0303 9.53033Z" fill="black"/>
</svg>
