<svg width="24" height="24" viewBox="0 0 24 24" fill="none" xmlns="http://www.w3.org/2000/svg">
<g id="icon/general/24x24/outline/chevron-left">
<path id="&#240;&#159;&#142;&#168; Icon &#208;&#161;olor" d="M13.362 17C13.1 17 12.839 16.898 12.643 16.695L8.78004 12.695C8.40204 12.302 8.40704 11.679 8.79304 11.293L12.793 7.29301C13.183 6.90201 13.816 6.90201 14.207 7.29301C14.597 7.68401 14.597 8.31601 14.207 8.70701L10.902 12.012L14.081 15.305C14.465 15.703 14.454 16.336 14.057 16.719C13.862 16.907 13.612 17 13.362 17Z" fill="#383B46"/>
<mask id="mask0_11506_93817" style="mask-type:luminance" maskUnits="userSpaceOnUse" x="8" y="6" width="7" height="11">
<path id="&#240;&#159;&#142;&#168; Icon &#208;&#161;olor_2" d="M13.362 17C13.1 17 12.839 16.898 12.643 16.695L8.78004 12.695C8.40204 12.302 8.40704 11.679 8.79304 11.293L12.793 7.29301C13.183 6.90201 13.816 6.90201 14.207 7.29301C14.597 7.68401 14.597 8.31601 14.207 8.70701L10.902 12.012L14.081 15.305C14.465 15.703 14.454 16.336 14.057 16.719C13.862 16.907 13.612 17 13.362 17Z" fill="white"/>
</mask>
<g mask="url(#mask0_11506_93817)">
</g>
</g>
</svg>
