<svg width="24" height="24" viewBox="0 0 24 24" fill="none" xmlns="http://www.w3.org/2000/svg">
<path fill-rule="evenodd" clip-rule="evenodd" d="M4.00001 4.10003C2.39838 4.10003 1.10001 5.3984 1.10001 7.00003V17C1.10001 18.6017 2.39838 19.9 4.00001 19.9H16C17.6016 19.9 18.9 18.6017 18.9 17V15.0409L20.0173 15.5211C21.3813 16.1072 22.9 15.1069 22.9 13.6223V10.2887C22.9 8.80409 21.3813 7.80376 20.0173 8.38992L18.9 8.8701V7.00003C18.9 5.3984 17.6016 4.10003 16 4.10003H4.00001ZM18.9 10.8293V13.0817L20.7281 13.8673C20.904 13.9429 21.1 13.8139 21.1 13.6223V10.2887C21.1 10.0971 20.904 9.96804 20.728 10.0437L18.9 10.8293ZM17.1 10.2365V7.00003C17.1 6.39252 16.6075 5.90003 16 5.90003H4.00001C3.39249 5.90003 2.90001 6.39252 2.90001 7.00003V17C2.90001 17.6075 3.39249 18.1 4.00001 18.1H16C16.6075 18.1 17.1 17.6075 17.1 17V13.6745V10.2365Z" fill="black"/>
</svg>
