<svg width="24" height="24" viewBox="0 0 24 24" fill="none" xmlns="http://www.w3.org/2000/svg">
<path fill-rule="evenodd" clip-rule="evenodd" d="M12 22C17.5228 22 22 17.5228 22 12C22 6.47715 17.5228 2 12 2C6.47715 2 2 6.47715 2 12C2 17.5228 6.47715 22 12 22ZM8.36361 8.36361C8.01214 8.71508 8.01214 9.28493 8.36361 9.6364L10.7272 12L8.36361 14.3636C8.01214 14.7151 8.01214 15.2849 8.36361 15.6364C8.71508 15.9879 9.28493 15.9879 9.6364 15.6364L12 13.2728L14.3636 15.6364C14.7151 15.9879 15.2849 15.9879 15.6364 15.6364C15.9879 15.2849 15.9879 14.7151 15.6364 14.3636L13.2728 12L15.6364 9.6364C15.9879 9.28493 15.9879 8.71508 15.6364 8.36361C15.2849 8.01214 14.7151 8.01214 14.3636 8.36361L12 10.7272L9.6364 8.36361C9.28493 8.01214 8.71508 8.01214 8.36361 8.36361Z" fill="black"/>
</svg>
