<svg width="24" height="24" viewBox="0 0 24 24" fill="none" xmlns="http://www.w3.org/2000/svg">
<circle cx="12" cy="12" r="10" stroke="black" stroke-width="1.8"/>
<path fill-rule="evenodd" clip-rule="evenodd" d="M8.36361 9.6364C8.01214 9.28493 8.01214 8.71508 8.36361 8.36361C8.71508 8.01214 9.28493 8.01214 9.6364 8.36361L12 10.7272L14.3636 8.36361C14.7151 8.01214 15.2849 8.01214 15.6364 8.36361C15.9879 8.71508 15.9879 9.28493 15.6364 9.6364L13.2728 12L15.6364 14.3636C15.9879 14.7151 15.9879 15.2849 15.6364 15.6364C15.2849 15.9879 14.7151 15.9879 14.3636 15.6364L12 13.2728L9.6364 15.6364C9.28493 15.9879 8.71508 15.9879 8.36361 15.6364C8.01214 15.2849 8.01214 14.7151 8.36361 14.3636L10.7272 12L8.36361 9.6364Z" fill="black"/>
</svg>
