<svg width="24" height="24" viewBox="0 0 24 24" fill="none" xmlns="http://www.w3.org/2000/svg">
<g id="icon/general/24x24/outline/code">
<path id="&#240;&#159;&#142;&#168; Icon &#208;&#161;olor" fill-rule="evenodd" clip-rule="evenodd" d="M16.9517 5.37294L21.7797 11.3729C22.0787 11.7439 22.0737 12.2739 21.7687 12.6409L16.7687 18.6409C16.5707 18.8779 16.2867 18.9999 15.9997 18.9999C15.7737 18.9999 15.5477 18.9239 15.3597 18.7689C14.9357 18.4149 14.8787 17.7839 15.2317 17.3589L19.7087 11.9889L15.3927 6.62694C15.0477 6.19594 15.1147 5.56694 15.5457 5.22094C15.9757 4.87294 16.6047 4.94294 16.9517 5.37294ZM7.23204 5.35934C7.58504 4.93534 8.21404 4.87834 8.64104 5.23134C9.06504 5.58534 9.12204 6.21534 8.76904 6.64034L4.29204 12.0103L8.60804 17.3733C8.95304 17.8033 8.88604 18.4323 8.45504 18.7793C8.27104 18.9273 8.04904 19.0003 7.82904 19.0003C7.53704 19.0003 7.24704 18.8723 7.04904 18.6273L2.22104 12.6273C1.92204 12.2553 1.92704 11.7253 2.23204 11.3593L7.23204 5.35934Z" fill="#383B46"/>
<mask id="mask0_11506_94676" style="mask-type:luminance" maskUnits="userSpaceOnUse" x="2" y="4" width="20" height="16">
<path id="&#240;&#159;&#142;&#168; Icon &#208;&#161;olor_2" fill-rule="evenodd" clip-rule="evenodd" d="M16.9517 5.37294L21.7797 11.3729C22.0787 11.7439 22.0737 12.2739 21.7687 12.6409L16.7687 18.6409C16.5707 18.8779 16.2867 18.9999 15.9997 18.9999C15.7737 18.9999 15.5477 18.9239 15.3597 18.7689C14.9357 18.4149 14.8787 17.7839 15.2317 17.3589L19.7087 11.9889L15.3927 6.62694C15.0477 6.19594 15.1147 5.56694 15.5457 5.22094C15.9757 4.87294 16.6047 4.94294 16.9517 5.37294ZM7.23204 5.35934C7.58504 4.93534 8.21404 4.87834 8.64104 5.23134C9.06504 5.58534 9.12204 6.21534 8.76904 6.64034L4.29204 12.0103L8.60804 17.3733C8.95304 17.8033 8.88604 18.4323 8.45504 18.7793C8.27104 18.9273 8.04904 19.0003 7.82904 19.0003C7.53704 19.0003 7.24704 18.8723 7.04904 18.6273L2.22104 12.6273C1.92204 12.2553 1.92704 11.7253 2.23204 11.3593L7.23204 5.35934Z" fill="white"/>
</mask>
<g mask="url(#mask0_11506_94676)">
</g>
</g>
</svg>
