<svg width="24" height="24" viewBox="0 0 24 24" fill="none" xmlns="http://www.w3.org/2000/svg">
<g id="icon/general/24x24/outline/code-download">
<path id="&#240;&#159;&#142;&#168; Icon &#208;&#161;olor" fill-rule="evenodd" clip-rule="evenodd" d="M21.7795 11.3729L16.9515 5.37294C16.6035 4.94294 15.9745 4.87294 15.5455 5.22094C15.1145 5.56694 15.0475 6.19594 15.3925 6.62694L19.7085 11.9889L15.2315 17.3589C14.8785 17.7839 14.9355 18.4149 15.3595 18.7689C15.5475 18.9239 15.7735 18.9999 15.9995 18.9999C16.2865 18.9999 16.5705 18.8779 16.7685 18.6409L21.7685 12.6409C22.0735 12.2739 22.0785 11.7439 21.7795 11.3729ZM4.29216 12.0106L8.76916 6.64064C9.12216 6.21564 9.06416 5.58464 8.64116 5.23164C8.21516 4.87864 7.58616 4.93564 7.23116 5.35964L2.23116 11.3596C1.92716 11.7256 1.92216 12.2556 2.22116 12.6266L7.04916 18.6266C7.24716 18.8716 7.53616 18.9996 7.82916 18.9996C8.04916 18.9996 8.27116 18.9276 8.45516 18.7796C8.88616 18.4326 8.95316 17.8036 8.60716 17.3726L4.29216 12.0106ZM14.3059 11.3841C14.7019 11.0001 15.3369 11.0131 15.7199 11.4091C16.1029 11.8061 16.0919 12.4391 15.6949 12.8231L12.6949 15.7201C12.5009 15.9061 12.2499 16.0001 11.9999 16.0001C11.7439 16.0001 11.4889 15.9021 11.2929 15.7071L8.29286 12.7071C7.90286 12.3161 7.90286 11.6831 8.29286 11.2931C8.68386 10.9021 9.31686 10.9021 9.70686 11.2931L10.9999 12.5851V8.00014C10.9999 7.44714 11.4479 7.00014 11.9999 7.00014C12.5529 7.00014 12.9999 7.44714 12.9999 8.00014V12.6441L14.3059 11.3841Z" fill="#383B46"/>
<mask id="mask0_11506_94835" style="mask-type:luminance" maskUnits="userSpaceOnUse" x="2" y="4" width="20" height="15">
<path id="&#240;&#159;&#142;&#168; Icon &#208;&#161;olor_2" fill-rule="evenodd" clip-rule="evenodd" d="M21.7795 11.3729L16.9515 5.37294C16.6035 4.94294 15.9745 4.87294 15.5455 5.22094C15.1145 5.56694 15.0475 6.19594 15.3925 6.62694L19.7085 11.9889L15.2315 17.3589C14.8785 17.7839 14.9355 18.4149 15.3595 18.7689C15.5475 18.9239 15.7735 18.9999 15.9995 18.9999C16.2865 18.9999 16.5705 18.8779 16.7685 18.6409L21.7685 12.6409C22.0735 12.2739 22.0785 11.7439 21.7795 11.3729ZM4.29216 12.0106L8.76916 6.64064C9.12216 6.21564 9.06416 5.58464 8.64116 5.23164C8.21516 4.87864 7.58616 4.93564 7.23116 5.35964L2.23116 11.3596C1.92716 11.7256 1.92216 12.2556 2.22116 12.6266L7.04916 18.6266C7.24716 18.8716 7.53616 18.9996 7.82916 18.9996C8.04916 18.9996 8.27116 18.9276 8.45516 18.7796C8.88616 18.4326 8.95316 17.8036 8.60716 17.3726L4.29216 12.0106ZM14.3059 11.3841C14.7019 11.0001 15.3369 11.0131 15.7199 11.4091C16.1029 11.8061 16.0919 12.4391 15.6949 12.8231L12.6949 15.7201C12.5009 15.9061 12.2499 16.0001 11.9999 16.0001C11.7439 16.0001 11.4889 15.9021 11.2929 15.7071L8.29286 12.7071C7.90286 12.3161 7.90286 11.6831 8.29286 11.2931C8.68386 10.9021 9.31686 10.9021 9.70686 11.2931L10.9999 12.5851V8.00014C10.9999 7.44714 11.4479 7.00014 11.9999 7.00014C12.5529 7.00014 12.9999 7.44714 12.9999 8.00014V12.6441L14.3059 11.3841Z" fill="white"/>
</mask>
<g mask="url(#mask0_11506_94835)">
</g>
</g>
</svg>
