<svg width="24" height="24" viewBox="0 0 24 24" fill="none" xmlns="http://www.w3.org/2000/svg">
<path d="M11.1033 3.81699C11.4701 3.07374 12.5299 3.07374 12.8967 3.81699L15.0001 8.07896C15.1458 8.37411 15.4274 8.57868 15.7531 8.62601L20.4565 9.30945C21.2767 9.42863 21.6042 10.4366 21.0107 11.0151L17.6073 14.3326C17.3716 14.5624 17.264 14.8934 17.3197 15.2178L18.1231 19.9021C18.2632 20.719 17.4058 21.342 16.6722 20.9563L12.4653 18.7446C12.174 18.5915 11.826 18.5915 11.5347 18.7446L7.32784 20.9563C6.59421 21.342 5.73677 20.719 5.87689 19.9021L6.68032 15.2178C6.73596 14.8934 6.62841 14.5624 6.39272 14.3326L2.98933 11.0151C2.39581 10.4366 2.72332 9.42863 3.54354 9.30945L8.24691 8.62601C8.57262 8.57868 8.85419 8.37411 8.99985 8.07896L11.1033 3.81699Z" stroke="black" stroke-width="1.8" stroke-linejoin="round"/>
</svg>
