<svg width="24" height="24" viewBox="0 0 24 24" fill="none" xmlns="http://www.w3.org/2000/svg">
<g id="icon/general/24x24/outline/collapse">
<path id="&#240;&#159;&#142;&#168; Icon &#208;&#161;olor" fill-rule="evenodd" clip-rule="evenodd" d="M16.4152 8.99901L19.0002 9.00001C19.5522 9.00001 20.0002 9.44801 20.0002 10.001C19.9992 10.553 19.5512 11 19.0002 11H18.9992L14.0243 10.997C13.4742 10.997 13.0272 10.552 13.0243 10.002L13.0002 5.00501C12.9972 4.45301 13.4422 4.00301 13.9952 4.00001H14.0002C14.5503 4.00001 14.9972 4.44401 15.0002 4.99501L15.0122 7.57301L18.2922 4.29301C18.6832 3.90201 19.3162 3.90201 19.7072 4.29301C20.0972 4.68401 20.0972 5.31601 19.7072 5.70701L16.4152 8.99901ZM5.00425 13.0004L10.0012 13.0254C10.5512 13.0284 10.9963 13.4744 10.9963 14.0244L11.0002 18.9994C11.0002 19.5514 10.5522 20.0004 10.0002 20.0004C9.44725 20.0004 9.00025 19.5524 9.00025 19.0014L8.99825 16.4164L5.70725 19.7074C5.51125 19.9024 5.25525 20.0004 5.00025 20.0004C4.74425 20.0004 4.48825 19.9024 4.29325 19.7074C3.90225 19.3164 3.90225 18.6834 4.29325 18.2934L7.57225 15.0134L4.99525 15.0004C4.44225 14.9974 3.99725 14.5464 4.00025 13.9954C4.00225 13.4444 4.45025 13.0004 5.00025 13.0004H5.00425Z" fill="#383B46"/>
<mask id="mask0_11506_94804" style="mask-type:luminance" maskUnits="userSpaceOnUse" x="4" y="3" width="16" height="18">
<path id="&#240;&#159;&#142;&#168; Icon &#208;&#161;olor_2" fill-rule="evenodd" clip-rule="evenodd" d="M16.4152 8.99901L19.0002 9.00001C19.5522 9.00001 20.0002 9.44801 20.0002 10.001C19.9992 10.553 19.5512 11 19.0002 11H18.9992L14.0243 10.997C13.4742 10.997 13.0272 10.552 13.0243 10.002L13.0002 5.00501C12.9972 4.45301 13.4422 4.00301 13.9952 4.00001H14.0002C14.5503 4.00001 14.9972 4.44401 15.0002 4.99501L15.0122 7.57301L18.2922 4.29301C18.6832 3.90201 19.3162 3.90201 19.7072 4.29301C20.0972 4.68401 20.0972 5.31601 19.7072 5.70701L16.4152 8.99901ZM5.00425 13.0004L10.0012 13.0254C10.5512 13.0284 10.9963 13.4744 10.9963 14.0244L11.0002 18.9994C11.0002 19.5514 10.5522 20.0004 10.0002 20.0004C9.44725 20.0004 9.00025 19.5524 9.00025 19.0014L8.99825 16.4164L5.70725 19.7074C5.51125 19.9024 5.25525 20.0004 5.00025 20.0004C4.74425 20.0004 4.48825 19.9024 4.29325 19.7074C3.90225 19.3164 3.90225 18.6834 4.29325 18.2934L7.57225 15.0134L4.99525 15.0004C4.44225 14.9974 3.99725 14.5464 4.00025 13.9954C4.00225 13.4444 4.45025 13.0004 5.00025 13.0004H5.00425Z" fill="white"/>
</mask>
<g mask="url(#mask0_11506_94804)">
</g>
</g>
</svg>
