<svg width="24" height="24" viewBox="0 0 24 24" fill="none" xmlns="http://www.w3.org/2000/svg">
<g id="icon/general/24x24/outline/color-palette">
<path id="&#240;&#159;&#142;&#168; Icon &#208;&#161;olor" fill-rule="evenodd" clip-rule="evenodd" d="M11.9054 2.00003C14.8144 1.99303 17.6164 3.10103 19.5394 5.08503C21.2134 6.81203 22.0844 9.02903 21.9924 11.329C21.8714 14.403 19.0724 17.001 15.8804 17.001H14.2304C13.9544 17.001 13.7304 17.226 13.7304 17.501C13.7304 17.616 13.7764 17.735 13.8584 17.826C14.4174 18.458 14.6244 19.292 14.4254 20.114C14.1564 21.213 13.0984 22 11.8984 22H11.8604C9.00641 21.961 6.29741 20.698 4.42941 18.534C2.56241 16.372 1.70941 13.491 2.09141 10.631C2.74041 5.75203 6.96041 2.04203 11.9044 2.00003H11.9054ZM15.8804 15.001H14.2304C12.8514 15.001 11.7304 16.122 11.7304 17.501C11.7304 18.107 11.9544 18.694 12.3614 19.154C12.4854 19.294 12.5264 19.459 12.4824 19.642C12.4334 19.847 12.1974 19.98 11.8884 20C9.60541 19.969 7.43841 18.958 5.94241 17.227C4.42741 15.472 3.76341 13.223 4.07341 10.895C4.58441 7.06203 8.03141 4.03303 11.9224 4.00003H11.9974C14.3544 4.00003 16.5754 4.90003 18.1044 6.47803C19.3924 7.80703 20.0644 9.50203 19.9944 11.25C19.9154 13.248 17.9924 15.001 15.8804 15.001ZM10.4995 6.50003C10.4995 5.67203 11.1715 5.00003 11.9995 5.00003C12.8275 5.00003 13.4995 5.67203 13.4995 6.50003C13.4995 7.32803 12.8275 8.00003 11.9995 8.00003C11.1715 8.00003 10.4995 7.32803 10.4995 6.50003ZM14.7005 9.25023C14.2865 8.53323 14.5325 7.61523 15.2495 7.20123C15.9675 6.78723 16.8845 7.03323 17.2985 7.75023C17.7125 8.46823 17.4665 9.38523 16.7495 9.79923C16.0315 10.2132 15.1145 9.96823 14.7005 9.25023ZM8.74951 7.20123C8.03251 6.78723 7.11451 7.03323 6.70051 7.75023C6.28651 8.46823 6.53251 9.38523 7.24951 9.79923C7.96751 10.2132 8.88451 9.96823 9.29851 9.25023C9.71251 8.53323 9.46751 7.61523 8.74951 7.20123ZM5.75661 13.3388C5.29261 12.6528 5.47361 11.7198 6.16061 11.2568C6.84761 10.7928 7.77961 10.9748 8.24261 11.6608C8.70661 12.3478 8.52461 13.2798 7.83861 13.7428C7.15161 14.2068 6.21961 14.0258 5.75661 13.3388Z" fill="#383B46"/>
<mask id="mask0_11506_94940" style="mask-type:luminance" maskUnits="userSpaceOnUse" x="2" y="2" width="20" height="20">
<path id="&#240;&#159;&#142;&#168; Icon &#208;&#161;olor_2" fill-rule="evenodd" clip-rule="evenodd" d="M11.9054 2.00003C14.8144 1.99303 17.6164 3.10103 19.5394 5.08503C21.2134 6.81203 22.0844 9.02903 21.9924 11.329C21.8714 14.403 19.0724 17.001 15.8804 17.001H14.2304C13.9544 17.001 13.7304 17.226 13.7304 17.501C13.7304 17.616 13.7764 17.735 13.8584 17.826C14.4174 18.458 14.6244 19.292 14.4254 20.114C14.1564 21.213 13.0984 22 11.8984 22H11.8604C9.00641 21.961 6.29741 20.698 4.42941 18.534C2.56241 16.372 1.70941 13.491 2.09141 10.631C2.74041 5.75203 6.96041 2.04203 11.9044 2.00003H11.9054ZM15.8804 15.001H14.2304C12.8514 15.001 11.7304 16.122 11.7304 17.501C11.7304 18.107 11.9544 18.694 12.3614 19.154C12.4854 19.294 12.5264 19.459 12.4824 19.642C12.4334 19.847 12.1974 19.98 11.8884 20C9.60541 19.969 7.43841 18.958 5.94241 17.227C4.42741 15.472 3.76341 13.223 4.07341 10.895C4.58441 7.06203 8.03141 4.03303 11.9224 4.00003H11.9974C14.3544 4.00003 16.5754 4.90003 18.1044 6.47803C19.3924 7.80703 20.0644 9.50203 19.9944 11.25C19.9154 13.248 17.9924 15.001 15.8804 15.001ZM10.4995 6.50003C10.4995 5.67203 11.1715 5.00003 11.9995 5.00003C12.8275 5.00003 13.4995 5.67203 13.4995 6.50003C13.4995 7.32803 12.8275 8.00003 11.9995 8.00003C11.1715 8.00003 10.4995 7.32803 10.4995 6.50003ZM14.7005 9.25023C14.2865 8.53323 14.5325 7.61523 15.2495 7.20123C15.9675 6.78723 16.8845 7.03323 17.2985 7.75023C17.7125 8.46823 17.4665 9.38523 16.7495 9.79923C16.0315 10.2132 15.1145 9.96823 14.7005 9.25023ZM8.74951 7.20123C8.03251 6.78723 7.11451 7.03323 6.70051 7.75023C6.28651 8.46823 6.53251 9.38523 7.24951 9.79923C7.96751 10.2132 8.88451 9.96823 9.29851 9.25023C9.71251 8.53323 9.46751 7.61523 8.74951 7.20123ZM5.75661 13.3388C5.29261 12.6528 5.47361 11.7198 6.16061 11.2568C6.84761 10.7928 7.77961 10.9748 8.24261 11.6608C8.70661 12.3478 8.52461 13.2798 7.83861 13.7428C7.15161 14.2068 6.21961 14.0258 5.75661 13.3388Z" fill="white"/>
</mask>
<g mask="url(#mask0_11506_94940)">
</g>
</g>
</svg>
