<svg width="24" height="24" viewBox="0 0 24 24" fill="none" xmlns="http://www.w3.org/2000/svg">
<g id="icon/general/24x24/fill/compass-fill">
<path id="&#240;&#159;&#142;&#168; Icon &#208;&#161;olor" fill-rule="evenodd" clip-rule="evenodd" d="M2 12C2 6.486 6.486 2 12 2C17.514 2 22 6.486 22 12C22 17.514 17.514 22 12 22C6.486 22 2 17.514 2 12ZM15.925 9.42L14.179 13.678C14.077 13.928 13.879 14.125 13.629 14.227L9.416 15.928C9.293 15.977 9.166 16 9.042 16C8.771 16 8.517 15.883 8.329 15.69C8.3209 15.6824 8.3126 15.6753 8.30436 15.6683L8.30435 15.6683L8.30434 15.6683C8.29429 15.6598 8.28434 15.6513 8.275 15.642C8.26989 15.6358 8.26575 15.6289 8.26166 15.6221C8.25855 15.6169 8.25546 15.6118 8.252 15.607C8.014 15.331 7.926 14.941 8.074 14.58L9.82 10.322C9.922 10.072 10.121 9.875 10.371 9.774L14.584 8.072C14.978 7.916 15.409 8.028 15.683 8.318C15.974 8.594 16.086 9.026 15.925 9.42ZM10.7966 13.213L12.4886 12.529L13.2026 10.787L11.5106 11.471L10.7966 13.213Z" fill="#383B46"/>
<mask id="mask0_11506_95616" style="mask-type:luminance" maskUnits="userSpaceOnUse" x="2" y="2" width="20" height="20">
<path id="&#240;&#159;&#142;&#168; Icon &#208;&#161;olor_2" fill-rule="evenodd" clip-rule="evenodd" d="M2 12C2 6.486 6.486 2 12 2C17.514 2 22 6.486 22 12C22 17.514 17.514 22 12 22C6.486 22 2 17.514 2 12ZM15.925 9.42L14.179 13.678C14.077 13.928 13.879 14.125 13.629 14.227L9.416 15.928C9.293 15.977 9.166 16 9.042 16C8.771 16 8.517 15.883 8.329 15.69C8.3209 15.6824 8.3126 15.6753 8.30436 15.6683L8.30435 15.6683L8.30434 15.6683C8.29429 15.6598 8.28434 15.6513 8.275 15.642C8.26989 15.6358 8.26575 15.6289 8.26166 15.6221C8.25855 15.6169 8.25546 15.6118 8.252 15.607C8.014 15.331 7.926 14.941 8.074 14.58L9.82 10.322C9.922 10.072 10.121 9.875 10.371 9.774L14.584 8.072C14.978 7.916 15.409 8.028 15.683 8.318C15.974 8.594 16.086 9.026 15.925 9.42ZM10.7966 13.213L12.4886 12.529L13.2026 10.787L11.5106 11.471L10.7966 13.213Z" fill="white"/>
</mask>
<g mask="url(#mask0_11506_95616)">
</g>
</g>
</svg>
