<svg width="24" height="24" viewBox="0 0 24 24" fill="none" xmlns="http://www.w3.org/2000/svg">
<g id="icon/general/24x24/outline/corner-right-up">
<path id="&#240;&#159;&#142;&#168; Icon &#208;&#161;olor" d="M18.625 8.21924L13.625 4.21924C13.26 3.92724 12.741 3.92724 12.376 4.21924L7.376 8.21924C6.944 8.56424 6.875 9.19324 7.22 9.62424C7.564 10.0552 8.194 10.1252 8.625 9.78124L12 7.08024V16.0002C12 16.5512 11.552 17.0002 11 17.0002H6C5.448 17.0002 5 17.4482 5 18.0002C5 18.5522 5.448 19.0002 6 19.0002H11C12.655 19.0002 14 17.6542 14 16.0002V7.08024L17.376 9.78124C17.56 9.92824 17.781 10.0002 18 10.0002C18.293 10.0002 18.584 9.87124 18.781 9.62424C19.126 9.19324 19.057 8.56424 18.625 8.21924Z" fill="#383B46"/>
<mask id="mask0_11506_94880" style="mask-type:luminance" maskUnits="userSpaceOnUse" x="5" y="4" width="14" height="16">
<path id="&#240;&#159;&#142;&#168; Icon &#208;&#161;olor_2" d="M18.625 8.21924L13.625 4.21924C13.26 3.92724 12.741 3.92724 12.376 4.21924L7.376 8.21924C6.944 8.56424 6.875 9.19324 7.22 9.62424C7.564 10.0552 8.194 10.1252 8.625 9.78124L12 7.08024V16.0002C12 16.5512 11.552 17.0002 11 17.0002H6C5.448 17.0002 5 17.4482 5 18.0002C5 18.5522 5.448 19.0002 6 19.0002H11C12.655 19.0002 14 17.6542 14 16.0002V7.08024L17.376 9.78124C17.56 9.92824 17.781 10.0002 18 10.0002C18.293 10.0002 18.584 9.87124 18.781 9.62424C19.126 9.19324 19.057 8.56424 18.625 8.21924Z" fill="white"/>
</mask>
<g mask="url(#mask0_11506_94880)">
</g>
</g>
</svg>
