<svg width="24" height="24" viewBox="0 0 24 24" fill="none" xmlns="http://www.w3.org/2000/svg">
<g id="icon/general/24x24/outline/crop">
<path id="&#240;&#159;&#142;&#168; Icon &#208;&#161;olor" fill-rule="evenodd" clip-rule="evenodd" d="M18 16H21C21.553 16 22 16.447 22 17C22 17.553 21.553 18 21 18H18V21C18 21.553 17.553 22 17 22C16.448 22 16 21.553 16 21V18H8.556C7.147 18 6 16.854 6 15.444V8H3C2.448 8 2 7.553 2 7C2 6.447 2.448 6 3 6H6V3C6 2.447 6.448 2 7 2C7.553 2 8 2.447 8 3V6H15.445C16.854 6 18 7.146 18 8.556V16ZM8 15.444C8 15.751 8.25 16 8.556 16H16V8.556C16 8.249 15.751 8 15.445 8H8V15.444Z" fill="#383B46"/>
<mask id="mask0_11506_93543" style="mask-type:luminance" maskUnits="userSpaceOnUse" x="2" y="2" width="20" height="20">
<path id="&#240;&#159;&#142;&#168; Icon &#208;&#161;olor_2" fill-rule="evenodd" clip-rule="evenodd" d="M18 16H21C21.553 16 22 16.447 22 17C22 17.553 21.553 18 21 18H18V21C18 21.553 17.553 22 17 22C16.448 22 16 21.553 16 21V18H8.556C7.147 18 6 16.854 6 15.444V8H3C2.448 8 2 7.553 2 7C2 6.447 2.448 6 3 6H6V3C6 2.447 6.448 2 7 2C7.553 2 8 2.447 8 3V6H15.445C16.854 6 18 7.146 18 8.556V16ZM8 15.444C8 15.751 8.25 16 8.556 16H16V8.556C16 8.249 15.751 8 15.445 8H8V15.444Z" fill="white"/>
</mask>
<g mask="url(#mask0_11506_93543)">
</g>
</g>
</svg>
