<svg width="24" height="24" viewBox="0 0 24 24" fill="none" xmlns="http://www.w3.org/2000/svg">
<g id="icon/general/24x24/outline/cube">
<path id="&#240;&#159;&#142;&#168; Icon &#208;&#161;olor" fill-rule="evenodd" clip-rule="evenodd" d="M20.6537 7.24766C20.6542 7.25145 20.6547 7.25522 20.6561 7.25879C20.8681 7.62179 20.9991 8.02879 21.0001 8.45679V15.5398C20.9991 16.4878 20.4221 17.3658 19.5301 17.7778L13.1331 20.7498C12.7721 20.9178 12.3841 21.0018 11.9961 21.0018C11.6071 21.0018 11.2191 20.9178 10.8571 20.7488L4.45808 17.7768C3.56408 17.3588 2.99208 16.4748 3.00008 15.5248V8.45779C3.00008 8.02979 3.13108 7.62279 3.34208 7.26079C3.34408 7.25629 3.34483 7.25179 3.34558 7.24729C3.34633 7.24279 3.34708 7.23829 3.34908 7.23379C3.35111 7.22974 3.35416 7.22621 3.35732 7.22253C3.36041 7.21895 3.36361 7.21524 3.36608 7.21079C3.40346 7.14963 3.44734 7.09351 3.49157 7.03693C3.49941 7.02691 3.50726 7.01687 3.51508 7.00679C3.52654 6.99394 3.53728 6.98049 3.54796 6.96711C3.56804 6.94195 3.58793 6.91703 3.61208 6.89679C3.84708 6.62079 4.12508 6.37879 4.46908 6.21979L10.8661 3.24779C11.5871 2.91579 12.4121 2.91479 13.1311 3.24679C13.1311 3.24779 13.1321 3.24779 13.1331 3.24779L19.5331 6.22079C19.8771 6.37979 20.1541 6.62279 20.3891 6.89879C20.4108 6.9173 20.4288 6.93947 20.4471 6.96193C20.4574 6.97466 20.4679 6.98749 20.4791 6.99979C20.4917 7.01651 20.5046 7.03306 20.5174 7.0496C20.5583 7.10231 20.5991 7.15494 20.6341 7.21279C20.6362 7.2162 20.6389 7.21907 20.6415 7.22186C20.645 7.2256 20.6484 7.2292 20.6501 7.23379C20.6523 7.23822 20.653 7.24296 20.6537 7.24766ZM11.7071 5.06379C11.7981 5.02079 11.8991 4.99979 12.0001 4.99979C12.1001 4.99979 12.2011 5.02079 12.2921 5.06379L17.6211 7.53779L12.0001 10.1498L6.37808 7.53779L11.7071 5.06379ZM5.00008 15.5318C4.99808 15.7138 5.11408 15.8758 5.30308 15.9638L11.0001 18.6088V11.8908L5.00008 9.10379V15.5318ZM13.0001 18.6068L18.6901 15.9628C18.8821 15.8748 19.0001 15.7128 19.0001 15.5388V9.10379L13.0001 11.8908V18.6068Z" fill="#383B46"/>
<mask id="mask0_11506_93399" style="mask-type:luminance" maskUnits="userSpaceOnUse" x="3" y="2" width="18" height="20">
<path id="&#240;&#159;&#142;&#168; Icon &#208;&#161;olor_2" fill-rule="evenodd" clip-rule="evenodd" d="M20.6537 7.24766C20.6542 7.25145 20.6547 7.25522 20.6561 7.25879C20.8681 7.62179 20.9991 8.02879 21.0001 8.45679V15.5398C20.9991 16.4878 20.4221 17.3658 19.5301 17.7778L13.1331 20.7498C12.7721 20.9178 12.3841 21.0018 11.9961 21.0018C11.6071 21.0018 11.2191 20.9178 10.8571 20.7488L4.45808 17.7768C3.56408 17.3588 2.99208 16.4748 3.00008 15.5248V8.45779C3.00008 8.02979 3.13108 7.62279 3.34208 7.26079C3.34408 7.25629 3.34483 7.25179 3.34558 7.24729C3.34633 7.24279 3.34708 7.23829 3.34908 7.23379C3.35111 7.22974 3.35416 7.22621 3.35732 7.22253C3.36041 7.21895 3.36361 7.21524 3.36608 7.21079C3.40346 7.14963 3.44734 7.09351 3.49157 7.03693C3.49941 7.02691 3.50726 7.01687 3.51508 7.00679C3.52654 6.99394 3.53728 6.98049 3.54796 6.96711C3.56804 6.94195 3.58793 6.91703 3.61208 6.89679C3.84708 6.62079 4.12508 6.37879 4.46908 6.21979L10.8661 3.24779C11.5871 2.91579 12.4121 2.91479 13.1311 3.24679C13.1311 3.24779 13.1321 3.24779 13.1331 3.24779L19.5331 6.22079C19.8771 6.37979 20.1541 6.62279 20.3891 6.89879C20.4108 6.9173 20.4288 6.93947 20.4471 6.96193C20.4574 6.97466 20.4679 6.98749 20.4791 6.99979C20.4917 7.01651 20.5046 7.03306 20.5174 7.0496C20.5583 7.10231 20.5991 7.15494 20.6341 7.21279C20.6362 7.2162 20.6389 7.21907 20.6415 7.22186C20.645 7.2256 20.6484 7.2292 20.6501 7.23379C20.6523 7.23822 20.653 7.24296 20.6537 7.24766ZM11.7071 5.06379C11.7981 5.02079 11.8991 4.99979 12.0001 4.99979C12.1001 4.99979 12.2011 5.02079 12.2921 5.06379L17.6211 7.53779L12.0001 10.1498L6.37808 7.53779L11.7071 5.06379ZM5.00008 15.5318C4.99808 15.7138 5.11408 15.8758 5.30308 15.9638L11.0001 18.6088V11.8908L5.00008 9.10379V15.5318ZM13.0001 18.6068L18.6901 15.9628C18.8821 15.8748 19.0001 15.7128 19.0001 15.5388V9.10379L13.0001 11.8908V18.6068Z" fill="white"/>
</mask>
<g mask="url(#mask0_11506_93399)">
</g>
</g>
</svg>
