<svg width="24" height="24" viewBox="0 0 24 24" fill="none" xmlns="http://www.w3.org/2000/svg">
<path d="M3 6.79999H21" stroke="black" stroke-width="2" stroke-linecap="round"/>
<path fill-rule="evenodd" clip-rule="evenodd" d="M4.1 6.10001H19.9V19C19.9 20.6016 18.6016 21.9 17 21.9H7C5.39837 21.9 4.1 20.6016 4.1 19V6.10001ZM9.50001 11C10.0523 11 10.5 11.4477 10.5 12V16C10.5 16.5523 10.0523 17 9.50001 17C8.94772 17 8.50001 16.5523 8.50001 16V12C8.50001 11.4477 8.94772 11 9.50001 11ZM14.5 11C15.0523 11 15.5 11.4477 15.5 12V16C15.5 16.5523 15.0523 17 14.5 17C13.9477 17 13.5 16.5523 13.5 16V12C13.5 11.4477 13.9477 11 14.5 11Z" fill="black"/>
<path d="M7 6V5C7 3.89543 7.89543 3 9 3H15C16.1046 3 17 3.89543 17 5V6" stroke="black" stroke-width="2" stroke-linecap="round"/>
</svg>
