<svg width="24" height="24" viewBox="0 0 24 24" fill="none" xmlns="http://www.w3.org/2000/svg">
<g id="icon/general/24x24/outline/diagonal-arrow-right-down">
<path id="&#240;&#159;&#142;&#168; Icon &#208;&#161;olor" d="M17.0002 8.00001C16.4473 8.00001 16.0002 8.44801 16.0002 9.00001V14.586L7.70725 6.29301C7.31625 5.90201 6.68425 5.90201 6.29325 6.29301C5.90225 6.68401 5.90225 7.31601 6.29325 7.70701L14.5863 16H9.00025C8.44725 16 8.00025 16.448 8.00025 17C8.00025 17.552 8.44725 18 9.00025 18H17.0002C17.5532 18 18.0002 17.552 18.0002 17V9.00001C18.0002 8.44801 17.5532 8.00001 17.0002 8.00001Z" fill="#383B46"/>
<mask id="mask0_11506_94590" style="mask-type:luminance" maskUnits="userSpaceOnUse" x="6" y="5" width="12" height="13">
<path id="&#240;&#159;&#142;&#168; Icon &#208;&#161;olor_2" d="M17.0002 8.00001C16.4473 8.00001 16.0002 8.44801 16.0002 9.00001V14.586L7.70725 6.29301C7.31625 5.90201 6.68425 5.90201 6.29325 6.29301C5.90225 6.68401 5.90225 7.31601 6.29325 7.70701L14.5863 16H9.00025C8.44725 16 8.00025 16.448 8.00025 17C8.00025 17.552 8.44725 18 9.00025 18H17.0002C17.5532 18 18.0002 17.552 18.0002 17V9.00001C18.0002 8.44801 17.5532 8.00001 17.0002 8.00001Z" fill="white"/>
</mask>
<g mask="url(#mask0_11506_94590)">
</g>
</g>
</svg>
