<svg width="24" height="24" viewBox="0 0 24 24" fill="none" xmlns="http://www.w3.org/2000/svg">
<g id="icon/general/24x24/outline/diagonal-arrow-left-down">
<path id="&#240;&#159;&#142;&#168; Icon &#208;&#161;olor" d="M17.707 6.29301C17.316 5.90201 16.684 5.90201 16.293 6.29301L8 14.586V9.00001C8 8.44801 7.553 8.00001 7 8.00001C6.447 8.00001 6 8.44801 6 9.00001V17C6 17.552 6.447 18 7 18H15C15.553 18 16 17.552 16 17C16 16.448 15.553 16 15 16H9.414L17.707 7.70701C18.098 7.31601 18.098 6.68401 17.707 6.29301Z" fill="#383B46"/>
<mask id="mask0_11506_94736" style="mask-type:luminance" maskUnits="userSpaceOnUse" x="6" y="5" width="12" height="13">
<path id="&#240;&#159;&#142;&#168; Icon &#208;&#161;olor_2" d="M17.707 6.29301C17.316 5.90201 16.684 5.90201 16.293 6.29301L8 14.586V9.00001C8 8.44801 7.553 8.00001 7 8.00001C6.447 8.00001 6 8.44801 6 9.00001V17C6 17.552 6.447 18 7 18H15C15.553 18 16 17.552 16 17C16 16.448 15.553 16 15 16H9.414L17.707 7.70701C18.098 7.31601 18.098 6.68401 17.707 6.29301Z" fill="white"/>
</mask>
<g mask="url(#mask0_11506_94736)">
</g>
</g>
</svg>
