<svg width="24" height="24" viewBox="0 0 24 24" fill="none" xmlns="http://www.w3.org/2000/svg">
<g id="icon/general/24x24/fill/droplet-off-fill">
<path id="&#240;&#159;&#142;&#168; Icon &#208;&#161;olor" fill-rule="evenodd" clip-rule="evenodd" d="M18.9691 16.1405C20.0021 13.4315 19.4681 10.2345 17.342 8.03254L12.7831 3.30554C12.597 3.11354 12.3411 3.00254 12.0721 2.99954C11.8031 2.99754 11.545 3.10454 11.3551 3.29454L8.74405 5.91554L18.9691 16.1405ZM5.98805 8.81634C3.81205 11.7773 4.01405 16.0013 6.63505 18.7153C8.04005 20.1713 9.91805 20.9823 11.925 21.0003H11.927C13.6311 21.0133 15.2481 20.4483 16.5731 19.4013L5.98805 8.81634ZM4.70725 3.29294L20.7073 19.2929C21.0983 19.6839 21.0983 20.3159 20.7073 20.7069C20.5123 20.9019 20.2563 20.9999 20.0002 20.9999C19.7442 20.9999 19.4882 20.9019 19.2932 20.7069L3.29325 4.70694C2.90225 4.31594 2.90225 3.68394 3.29325 3.29294C3.68425 2.90194 4.31625 2.90194 4.70725 3.29294Z" fill="#383B46"/>
<mask id="mask0_11506_96094" style="mask-type:luminance" maskUnits="userSpaceOnUse" x="3" y="2" width="18" height="20">
<path id="&#240;&#159;&#142;&#168; Icon &#208;&#161;olor_2" fill-rule="evenodd" clip-rule="evenodd" d="M18.9691 16.1405C20.0021 13.4315 19.4681 10.2345 17.342 8.03254L12.7831 3.30554C12.597 3.11354 12.3411 3.00254 12.0721 2.99954C11.8031 2.99754 11.545 3.10454 11.3551 3.29454L8.74405 5.91554L18.9691 16.1405ZM5.98805 8.81634C3.81205 11.7773 4.01405 16.0013 6.63505 18.7153C8.04005 20.1713 9.91805 20.9823 11.925 21.0003H11.927C13.6311 21.0133 15.2481 20.4483 16.5731 19.4013L5.98805 8.81634ZM4.70725 3.29294L20.7073 19.2929C21.0983 19.6839 21.0983 20.3159 20.7073 20.7069C20.5123 20.9019 20.2563 20.9999 20.0002 20.9999C19.7442 20.9999 19.4882 20.9019 19.2932 20.7069L3.29325 4.70694C2.90225 4.31594 2.90225 3.68394 3.29325 3.29294C3.68425 2.90194 4.31625 2.90194 4.70725 3.29294Z" fill="white"/>
</mask>
<g mask="url(#mask0_11506_96094)">
</g>
</g>
</svg>
