<svg width="24" height="24" viewBox="0 0 24 24" fill="none" xmlns="http://www.w3.org/2000/svg">
<g id="icon/general/24x24/fill/droplet-fill">
<path id="&#240;&#159;&#142;&#168; Icon &#208;&#161;olor" d="M12.1001 20.4006C10.2484 20.384 8.51485 19.6363 7.21701 18.2923C4.55024 15.5304 4.58624 11.071 7.29732 8.3498L11.5749 4.05749C11.7493 3.88118 11.9875 3.78334 12.2358 3.78518C12.4841 3.78795 12.7204 3.88949 12.893 4.06764L17.1013 8.43011C19.7681 11.1929 19.7321 15.6532 17.0201 18.3716C15.701 19.6944 13.9555 20.4153 12.1019 20.4006H12.1001Z" fill="#383B46"/>
<mask id="mask0_11506_96021" style="mask-type:luminance" maskUnits="userSpaceOnUse" x="5" y="3" width="15" height="18">
<path id="&#240;&#159;&#142;&#168; Icon &#208;&#161;olor_2" d="M12.1001 20.4006C10.2484 20.384 8.51485 19.6363 7.21701 18.2923C4.55024 15.5304 4.58624 11.071 7.29732 8.3498L11.5749 4.05749C11.7493 3.88118 11.9875 3.78334 12.2358 3.78518C12.4841 3.78795 12.7204 3.88949 12.893 4.06764L17.1013 8.43011C19.7681 11.1929 19.7321 15.6532 17.0201 18.3716C15.701 19.6944 13.9555 20.4153 12.1019 20.4006H12.1001Z" fill="white"/>
</mask>
<g mask="url(#mask0_11506_96021)">
</g>
</g>
</svg>
