<svg width="24" height="24" viewBox="0 0 24 24" fill="none" xmlns="http://www.w3.org/2000/svg">
<g id="icon/general/24x24/outline/droplet-off">
<path id="&#240;&#159;&#142;&#168; Icon &#208;&#161;olor" fill-rule="evenodd" clip-rule="evenodd" d="M11.9969 5.42876L15.8808 9.38776C17.2529 10.7848 17.7449 12.7398 17.3719 14.5428L18.9799 16.1518C20.0268 13.4188 19.4708 10.1908 17.3088 7.98776L12.7099 3.29976C12.5218 3.10876 12.2649 2.99976 11.9969 2.99976H11.9958C11.7269 2.99976 11.4699 3.10876 11.2818 3.30076L8.73185 5.90376L10.1459 7.31876L11.9969 5.42876ZM12.0027 19.0001H12.0006C10.5356 19.0001 9.15665 18.4181 8.11865 17.3601C6.22765 15.4341 5.99665 12.4451 7.42565 10.2541L5.99365 8.82206C3.80765 11.8041 4.03465 16.0551 6.69165 18.7611C8.10865 20.2051 9.99365 21.0001 12.0006 21.0001H12.0027C13.6826 20.9991 15.2727 20.4361 16.5787 19.4061L15.1476 17.9761C14.2306 18.6351 13.1456 18.9991 12.0027 19.0001ZM4.70725 3.29306L20.7073 19.2931C21.0983 19.6841 21.0983 20.3161 20.7073 20.7071C20.5123 20.9021 20.2563 21.0001 20.0002 21.0001C19.7442 21.0001 19.4882 20.9021 19.2932 20.7071L3.29325 4.70706C2.90225 4.31606 2.90225 3.68406 3.29325 3.29306C3.68425 2.90206 4.31625 2.90206 4.70725 3.29306Z" fill="#383B46"/>
<mask id="mask0_11506_94333" style="mask-type:luminance" maskUnits="userSpaceOnUse" x="3" y="2" width="18" height="19">
<path id="&#240;&#159;&#142;&#168; Icon &#208;&#161;olor_2" fill-rule="evenodd" clip-rule="evenodd" d="M11.9969 5.42876L15.8808 9.38776C17.2529 10.7848 17.7449 12.7398 17.3719 14.5428L18.9799 16.1518C20.0268 13.4188 19.4708 10.1908 17.3088 7.98776L12.7099 3.29976C12.5218 3.10876 12.2649 2.99976 11.9969 2.99976H11.9958C11.7269 2.99976 11.4699 3.10876 11.2818 3.30076L8.73185 5.90376L10.1459 7.31876L11.9969 5.42876ZM12.0027 19.0001H12.0006C10.5356 19.0001 9.15665 18.4181 8.11865 17.3601C6.22765 15.4341 5.99665 12.4451 7.42565 10.2541L5.99365 8.82206C3.80765 11.8041 4.03465 16.0551 6.69165 18.7611C8.10865 20.2051 9.99365 21.0001 12.0006 21.0001H12.0027C13.6826 20.9991 15.2727 20.4361 16.5787 19.4061L15.1476 17.9761C14.2306 18.6351 13.1456 18.9991 12.0027 19.0001ZM4.70725 3.29306L20.7073 19.2931C21.0983 19.6841 21.0983 20.3161 20.7073 20.7071C20.5123 20.9021 20.2563 21.0001 20.0002 21.0001C19.7442 21.0001 19.4882 20.9021 19.2932 20.7071L3.29325 4.70706C2.90225 4.31606 2.90225 3.68406 3.29325 3.29306C3.68425 2.90206 4.31625 2.90206 4.70725 3.29306Z" fill="white"/>
</mask>
<g mask="url(#mask0_11506_94333)">
</g>
</g>
</svg>
