<svg width="24" height="24" viewBox="0 0 24 24" fill="none" xmlns="http://www.w3.org/2000/svg">
<path d="M10 4H6C4.89543 4 4 4.89543 4 6V18C4 19.1046 4.89543 20 6 20H18C19.1046 20 20 19.1046 20 18V14" stroke="black" stroke-width="1.8" stroke-linecap="round"/>
<path d="M9 11.8713V14.625C9 14.8321 9.16789 15 9.375 15H12.1287C12.5265 15 12.908 14.842 13.1893 14.5607L21.0643 6.68566C21.6501 6.09987 21.6501 5.15013 21.0643 4.56434L19.4357 2.93566C18.8499 2.34987 17.9001 2.34987 17.3143 2.93566L9.43934 10.8107C9.15804 11.092 9 11.4735 9 11.8713Z" stroke="black" stroke-width="1.8" stroke-linecap="round"/>
<path d="M15 5.25L18.75 9" stroke="black" stroke-width="1.8" stroke-linecap="round"/>
</svg>
