<svg width="24" height="24" viewBox="0 0 24 24" fill="none" xmlns="http://www.w3.org/2000/svg">
<g id="icon/general/24x24/fill/edit-fill">
<path id="&#240;&#159;&#142;&#168; Icon &#208;&#161;olor" fill-rule="evenodd" clip-rule="evenodd" d="M19.4029 7.33667L19.4039 7.33767C20.1689 8.10367 20.1999 9.32167 19.4719 10.0517L10.4749 19.0487C10.1499 19.3737 9.7189 19.5747 9.2609 19.6167L5.0909 19.9957C5.0609 19.9987 5.0309 19.9997 4.9999 19.9997C4.7369 19.9997 4.4819 19.8957 4.2929 19.7067C4.0829 19.4967 3.9779 19.2047 4.0039 18.9097L4.3829 14.7397C4.4249 14.2827 4.6269 13.8507 4.9529 13.5257L13.9489 4.52967C14.6509 3.82467 15.9239 3.85967 16.6649 4.59867L19.4029 7.33667ZM13.3239 7.98367L16.0189 10.6787L17.9659 8.72867L15.2719 6.03467L13.3239 7.98367Z" fill="#383B46"/>
<mask id="mask0_11506_95412" style="mask-type:luminance" maskUnits="userSpaceOnUse" x="4" y="4" width="16" height="16">
<path id="&#240;&#159;&#142;&#168; Icon &#208;&#161;olor_2" fill-rule="evenodd" clip-rule="evenodd" d="M19.4029 7.33667L19.4039 7.33767C20.1689 8.10367 20.1999 9.32167 19.4719 10.0517L10.4749 19.0487C10.1499 19.3737 9.7189 19.5747 9.2609 19.6167L5.0909 19.9957C5.0609 19.9987 5.0309 19.9997 4.9999 19.9997C4.7369 19.9997 4.4819 19.8957 4.2929 19.7067C4.0829 19.4967 3.9779 19.2047 4.0039 18.9097L4.3829 14.7397C4.4249 14.2827 4.6269 13.8507 4.9529 13.5257L13.9489 4.52967C14.6509 3.82467 15.9239 3.85967 16.6649 4.59867L19.4029 7.33667ZM13.3239 7.98367L16.0189 10.6787L17.9659 8.72867L15.2719 6.03467L13.3239 7.98367Z" fill="white"/>
</mask>
<g mask="url(#mask0_11506_95412)">
</g>
</g>
</svg>
