<svg width="24" height="24" viewBox="0 0 24 24" fill="none" xmlns="http://www.w3.org/2000/svg">
<g id="icon/general/24x24/fill/edit-2-fill">
<path id="&#240;&#159;&#142;&#168; Icon &#208;&#161;olor" fill-rule="evenodd" clip-rule="evenodd" d="M5.00087 17.9997C5.03087 17.9997 5.06087 17.9987 5.09087 17.9957L9.26087 17.6177C9.71887 17.5757 10.1499 17.3737 10.4749 17.0487L19.4719 8.05167C20.1999 7.32167 20.1689 6.10367 19.4039 5.33767L19.4029 5.33667L16.6649 2.59867C15.9239 1.85967 14.6509 1.82467 13.9489 2.52967L4.95287 11.5257C4.62687 11.8507 4.42487 12.2827 4.38287 12.7397L4.00387 16.9097C3.97787 17.2047 4.08387 17.4967 4.29287 17.7067C4.48187 17.8957 4.73687 17.9997 5.00087 17.9997ZM15.2719 4.03467L17.9659 6.72867L16.0189 8.67867L13.3239 5.98367L15.2719 4.03467ZM5.00037 20H19.0004C19.5504 20 20.0004 20.45 20.0004 21C20.0004 21.55 19.5504 22 19.0004 22H5.00037C4.45037 22 4.00037 21.55 4.00037 21C4.00037 20.45 4.45037 20 5.00037 20Z" fill="#383B46"/>
<mask id="mask0_11506_95931" style="mask-type:luminance" maskUnits="userSpaceOnUse" x="4" y="2" width="16" height="20">
<path id="&#240;&#159;&#142;&#168; Icon &#208;&#161;olor_2" fill-rule="evenodd" clip-rule="evenodd" d="M5.00087 17.9997C5.03087 17.9997 5.06087 17.9987 5.09087 17.9957L9.26087 17.6177C9.71887 17.5757 10.1499 17.3737 10.4749 17.0487L19.4719 8.05167C20.1999 7.32167 20.1689 6.10367 19.4039 5.33767L19.4029 5.33667L16.6649 2.59867C15.9239 1.85967 14.6509 1.82467 13.9489 2.52967L4.95287 11.5257C4.62687 11.8507 4.42487 12.2827 4.38287 12.7397L4.00387 16.9097C3.97787 17.2047 4.08387 17.4967 4.29287 17.7067C4.48187 17.8957 4.73687 17.9997 5.00087 17.9997ZM15.2719 4.03467L17.9659 6.72867L16.0189 8.67867L13.3239 5.98367L15.2719 4.03467ZM5.00037 20H19.0004C19.5504 20 20.0004 20.45 20.0004 21C20.0004 21.55 19.5504 22 19.0004 22H5.00037C4.45037 22 4.00037 21.55 4.00037 21C4.00037 20.45 4.45037 20 5.00037 20Z" fill="white"/>
</mask>
<g mask="url(#mask0_11506_95931)">
</g>
</g>
</svg>
