<svg width="24" height="24" viewBox="0 0 24 24" fill="none" xmlns="http://www.w3.org/2000/svg">
<g id="icon/general/24x24/fill/email-fill">
<path id="&#240;&#159;&#142;&#168; Icon &#208;&#161;olor" fill-rule="evenodd" clip-rule="evenodd" d="M5.00586 4H19.0059C20.6599 4 22.0059 5.346 22.0059 7V17C22.0059 18.654 20.6599 20 19.0059 20H5.00586C3.35186 20 2.00586 18.654 2.00586 17V7C2.00586 5.346 3.35186 4 5.00586 4ZM12.5009 10.468L19.0059 6H5.00586L11.5109 10.468C11.8179 10.643 12.1939 10.643 12.5009 10.468Z" fill="#383B46"/>
<mask id="mask0_11506_96135" style="mask-type:luminance" maskUnits="userSpaceOnUse" x="2" y="4" width="21" height="16">
<path id="&#240;&#159;&#142;&#168; Icon &#208;&#161;olor_2" fill-rule="evenodd" clip-rule="evenodd" d="M5.00586 4H19.0059C20.6599 4 22.0059 5.346 22.0059 7V17C22.0059 18.654 20.6599 20 19.0059 20H5.00586C3.35186 20 2.00586 18.654 2.00586 17V7C2.00586 5.346 3.35186 4 5.00586 4ZM12.5009 10.468L19.0059 6H5.00586L11.5109 10.468C11.8179 10.643 12.1939 10.643 12.5009 10.468Z" fill="white"/>
</mask>
<g mask="url(#mask0_11506_96135)">
</g>
</g>
</svg>
