<svg width="24" height="24" viewBox="0 0 24 24" fill="none" xmlns="http://www.w3.org/2000/svg">
<g id="icon/general/24x24/outline/eye-off">
<path id="&#240;&#159;&#142;&#168; Icon &#208;&#161;olor" fill-rule="evenodd" clip-rule="evenodd" d="M3.29275 3.2925C3.68375 2.9025 4.31675 2.9025 4.70675 3.2925L20.7067 19.2925C21.0977 19.6835 21.0977 20.3165 20.7067 20.7065C20.5117 20.9025 20.2558 20.9995 19.9998 20.9995C19.7437 20.9995 19.4888 20.9025 19.2927 20.7065L13.6628 15.0765C13.1548 15.3525 12.5898 15.4995 11.9998 15.4995C10.0708 15.4995 8.49975 13.9295 8.49975 11.9995C8.49975 11.4105 8.64675 10.8455 8.92375 10.3375L3.29275 4.7065C2.90275 4.3165 2.90275 3.6835 3.29275 3.2925ZM18.9548 16.1265C20.4767 14.7385 21.4527 13.2205 21.8678 12.4975C22.0438 12.1895 22.0438 11.8105 21.8678 11.5025C21.2297 10.3905 17.7048 4.8165 11.7297 5.0035C10.5448 5.0335 9.47375 5.2895 8.50175 5.6735L10.0817 7.2535C10.6178 7.1115 11.1807 7.0175 11.7808 7.0025C16.0717 6.8935 18.8948 10.5855 19.8267 12.0045C19.3708 12.7185 18.6038 13.7645 17.5437 14.7155L18.9548 16.1265ZM15.4978 18.3265L13.9178 16.7465C13.3828 16.8885 12.8198 16.9825 12.2198 16.9975C7.91475 17.0975 5.10475 13.4145 4.17275 11.9955C4.62975 11.2815 5.39575 10.2355 6.45575 9.2845L5.04475 7.8725C3.52275 9.2615 2.54675 10.7795 2.13275 11.5025C1.95575 11.8105 1.95575 12.1895 2.13275 12.4975C2.76175 13.5945 6.16175 18.9995 12.0247 18.9995C12.1067 18.9995 12.1888 18.9985 12.2708 18.9965C13.4548 18.9665 14.5268 18.7105 15.4978 18.3265ZM11.9998 13.4995C11.1728 13.4995 10.4998 12.8275 10.4998 11.9995C10.4998 11.9866 10.5027 11.9742 10.5057 11.9616C10.5085 11.9499 10.5113 11.9381 10.5118 11.9255L12.0747 13.4885C12.0624 13.489 12.0507 13.4915 12.0391 13.494L12.0391 13.494L12.039 13.494C12.0262 13.4967 12.0134 13.4995 11.9998 13.4995Z" fill="#383B46"/>
</g>
</svg>
