<svg width="24" height="24" viewBox="0 0 24 24" fill="none" xmlns="http://www.w3.org/2000/svg">
<g id="icon/general/24x24/fill/eye-fill">
<path id="&#240;&#159;&#142;&#168; Icon &#208;&#161;olor" fill-rule="evenodd" clip-rule="evenodd" d="M11.729 5.00289C17.706 4.81589 21.229 10.3899 21.868 11.5019C22.044 11.8109 22.044 12.1889 21.868 12.4979C21.014 13.9859 17.798 18.8559 12.271 18.9969C12.188 18.9989 12.106 18.9999 12.025 18.9999C6.162 18.9999 2.762 13.5949 2.132 12.4979C1.956 12.1889 1.956 11.8109 2.132 11.5019C2.986 10.0139 6.202 5.14389 11.729 5.00289ZM12 15.4999C10.07 15.4999 8.5 13.9299 8.5 11.9999C8.5 10.0699 10.07 8.49989 12 8.49989C13.93 8.49989 15.5 10.0699 15.5 11.9999C15.5 13.9299 13.93 15.4999 12 15.4999ZM12 10.4999C11.173 10.4999 10.5 11.1729 10.5 11.9999C10.5 12.8269 11.173 13.4999 12 13.4999C12.827 13.4999 13.5 12.8269 13.5 11.9999C13.5 11.1729 12.827 10.4999 12 10.4999Z" fill="#383B46"/>
<mask id="mask0_11506_95378" style="mask-type:luminance" maskUnits="userSpaceOnUse" x="2" y="4" width="20" height="15">
<path id="&#240;&#159;&#142;&#168; Icon &#208;&#161;olor_2" fill-rule="evenodd" clip-rule="evenodd" d="M11.729 5.00289C17.706 4.81589 21.229 10.3899 21.868 11.5019C22.044 11.8109 22.044 12.1889 21.868 12.4979C21.014 13.9859 17.798 18.8559 12.271 18.9969C12.188 18.9989 12.106 18.9999 12.025 18.9999C6.162 18.9999 2.762 13.5949 2.132 12.4979C1.956 12.1889 1.956 11.8109 2.132 11.5019C2.986 10.0139 6.202 5.14389 11.729 5.00289ZM12 15.4999C10.07 15.4999 8.5 13.9299 8.5 11.9999C8.5 10.0699 10.07 8.49989 12 8.49989C13.93 8.49989 15.5 10.0699 15.5 11.9999C15.5 13.9299 13.93 15.4999 12 15.4999ZM12 10.4999C11.173 10.4999 10.5 11.1729 10.5 11.9999C10.5 12.8269 11.173 13.4999 12 13.4999C12.827 13.4999 13.5 12.8269 13.5 11.9999C13.5 11.1729 12.827 10.4999 12 10.4999Z" fill="white"/>
</mask>
<g mask="url(#mask0_11506_95378)">
</g>
</g>
</svg>
