<svg width="24" height="24" viewBox="0 0 24 24" fill="none" xmlns="http://www.w3.org/2000/svg">
<path fill-rule="evenodd" clip-rule="evenodd" d="M12 15C13.6569 15 15 13.6569 15 12C15 10.3431 13.6569 9 12 9C10.3431 9 9 10.3431 9 12C9 13.6569 10.3431 15 12 15Z" stroke="black" stroke-width="1.8"/>
<path d="M21.9603 11.7836C20.3576 7.82654 16.4415 5.15943 12 5C7.55848 5.15943 3.64241 7.82654 2.03972 11.7836C1.98676 11.9235 1.98676 12.0766 2.03972 12.2164C3.64241 16.1735 7.55848 18.8406 12 19C16.4415 18.8406 20.3576 16.1735 21.9603 12.2164C22.0132 12.0766 22.0132 11.9235 21.9603 11.7836Z" stroke="black" stroke-width="1.8"/>
</svg>
