<svg width="24" height="24" viewBox="0 0 24 24" fill="none" xmlns="http://www.w3.org/2000/svg">
<path fill-rule="evenodd" clip-rule="evenodd" d="M12 14C13.1046 14 14 13.1046 14 12C14 10.8954 13.1046 10 12 10C10.8954 10 10 10.8954 10 12C10 13.1046 10.8954 14 12 14ZM12 4C16.8857 4.1822 21.1934 7.23033 22.9563 11.7527C23.0146 11.9125 23.0146 12.0875 22.9563 12.2473C21.1934 16.7697 16.8857 19.8178 12 20C7.11432 19.8178 2.80665 16.7697 1.04369 12.2473C0.985437 12.0875 0.985437 11.9125 1.04369 11.7527C2.80665 7.23033 7.11432 4.1822 12 4ZM8 12C8 14.2091 9.79086 16 12 16C14.2077 15.9966 15.9966 14.2077 16 12C16 9.79085 14.2091 7.99999 12 7.99999C9.79086 7.99999 8 9.79085 8 12Z" fill="black"/>
</svg>
