<svg width="24" height="24" viewBox="0 0 24 24" fill="none" xmlns="http://www.w3.org/2000/svg">
<path fill-rule="evenodd" clip-rule="evenodd" d="M15.3816 4.60421C14.3055 4.25137 13.1693 4.04361 12 4C7.11432 4.1822 2.80665 7.23033 1.04369 11.7527C0.985437 11.9125 0.985437 12.0875 1.04369 12.2473C1.64705 13.795 2.54846 15.1701 3.6691 16.3167L8.00002 11.9858C8.00768 9.78791 9.78792 8.00767 11.9858 8.00002L15.3816 4.60421ZM10.1228 12.6915L12.6915 10.1228C13.4553 10.4042 14 11.1385 14 12C14 13.1046 13.1046 14 12 14C11.1385 14 10.4042 13.4553 10.1228 12.6915ZM8.64118 14.173C9.354 15.2726 10.5921 16 12 16C14.2077 15.9966 15.9966 14.2077 16 12C16 10.592 15.2726 9.354 14.173 8.64118L17.3619 5.4523C19.8726 6.79923 21.8846 9.00358 22.9563 11.7527C23.0146 11.9125 23.0146 12.0875 22.9563 12.2473C21.1934 16.7697 16.8857 19.8178 12 20C9.48533 19.9062 7.12378 19.0532 5.18352 17.6307L8.64118 14.173Z" fill="black"/>
<path d="M21 3L3 21" stroke="black" stroke-width="2" stroke-linecap="round"/>
</svg>
