<svg width="24" height="24" viewBox="0 0 24 24" fill="none" xmlns="http://www.w3.org/2000/svg">
<path fill-rule="evenodd" clip-rule="evenodd" d="M15.3223 4.6635C14.2735 4.33466 13.168 4.14135 12.0323 4.10059L12 4.09943L11.9677 4.10059C7.19036 4.27207 2.94837 7.1427 1.20555 11.4458L1.2017 11.4553L1.19807 11.4649C1.06732 11.8101 1.06732 12.1899 1.19807 12.5352L1.2017 12.5447L1.20555 12.5542C1.78142 13.9761 2.63016 15.2415 3.68091 16.3049L4.95412 15.0317C4.09854 14.1637 3.40457 13.1406 2.92409 12C4.41338 8.46463 7.95398 6.05793 12 5.90063C12.6314 5.92518 13.2505 6.00451 13.8514 6.13436L15.3223 4.6635ZM11.8841 8.10169C9.8223 8.16187 8.16187 9.8223 8.1017 11.8841L11.8841 8.10169ZM8.71354 14.1007C9.40665 15.1828 10.6196 15.9 12 15.9C14.1539 15.9 15.9 14.1539 15.9 12C15.9 10.6196 15.1828 9.40665 14.1007 8.71354L12.769 10.0453C13.5484 10.3521 14.1 11.1116 14.1 12C14.1 13.1598 13.1598 14.1 12 14.1C11.1116 14.1 10.3521 13.5484 10.0453 12.769L8.71354 14.1007ZM6.49998 16.3143C8.0777 17.3788 9.97558 18.0207 12 18.0994C16.046 17.9421 19.5866 15.5354 21.0759 12C20.1053 9.69589 18.2634 7.87118 15.9781 6.83613L17.324 5.49025C19.772 6.76458 21.7404 8.84318 22.7945 11.4458L22.7983 11.4553L22.8019 11.4649C22.9327 11.8101 22.9327 12.1899 22.8019 12.5352L22.7983 12.5447L22.7945 12.5542C21.0516 16.8573 16.8097 19.7279 12.0323 19.8994L12 19.9006L11.9677 19.8994C9.47551 19.81 7.129 18.986 5.20698 17.6073L6.49998 16.3143Z" fill="black"/>
<path d="M21 3L3 21" stroke="black" stroke-width="2" stroke-linecap="round"/>
</svg>
