<svg width="24" height="24" viewBox="0 0 24 24" fill="none" xmlns="http://www.w3.org/2000/svg">
<path d="M9.75 19H10.65C10.65 18.5029 10.2471 18.1 9.75 18.1V19ZM13.75 19V18.1C13.2529 18.1 12.85 18.5029 12.85 19H13.75ZM3.9 6C3.9 5.39249 4.39249 4.9 5 4.9V3.1C3.39837 3.1 2.1 4.39837 2.1 6H3.9ZM3.9 17V6H2.1V17H3.9ZM5 18.1C4.39249 18.1 3.9 17.6075 3.9 17H2.1C2.1 18.6016 3.39837 19.9 5 19.9V18.1ZM9.75 18.1H5V19.9H9.75V18.1ZM11.75 20.1C11.1425 20.1 10.65 19.6075 10.65 19H8.85C8.85 20.6016 10.1484 21.9 11.75 21.9V20.1ZM12.85 19C12.85 19.6075 12.3575 20.1 11.75 20.1V21.9C13.3516 21.9 14.65 20.6016 14.65 19H12.85ZM19 18.1H13.75V19.9H19V18.1ZM20.1 17C20.1 17.6075 19.6075 18.1 19 18.1V19.9C20.6016 19.9 21.9 18.6016 21.9 17H20.1ZM20.1 6V17H21.9V6H20.1ZM19 4.9C19.6075 4.9 20.1 5.39249 20.1 6H21.9C21.9 4.39837 20.6016 3.1 19 3.1V4.9ZM5 4.9H19V3.1H5V4.9Z" fill="black"/>
<line x1="7.9" y1="9.1" x2="16.1" y2="9.1" stroke="black" stroke-width="1.8" stroke-linecap="round"/>
<line x1="7.9" y1="13.1" x2="16.1" y2="13.1" stroke="black" stroke-width="1.8" stroke-linecap="round"/>
</svg>
