<svg width="24" height="24" viewBox="0 0 24 24" fill="none" xmlns="http://www.w3.org/2000/svg">
<g id="icon/general/24x24/outline/file">
<path id="&#240;&#159;&#142;&#168; Icon &#208;&#161;olor" fill-rule="evenodd" clip-rule="evenodd" d="M14.296 2.328L19.74 8.328C19.907 8.512 20 8.751 20 9V19.5C20 20.878 18.853 22 17.444 22H6.555C5.146 22 4 20.878 4 19.5V4.5C4 3.122 5.146 2 6.555 2H13.555C13.838 2 14.107 2.119 14.296 2.328ZM17.444 20H6.555C6.249 20 6 19.776 6 19.5V4.5C6 4.224 6.249 4 6.555 4H11V8.15C11 9.722 12.217 11 13.714 11H18V19.5C18 19.776 17.75 20 17.444 20ZM17.649 9H13.714C13.32 9 13 8.619 13 8.15V4H13.112L17.649 9Z" fill="#383B46"/>
<mask id="mask0_11506_95274" style="mask-type:luminance" maskUnits="userSpaceOnUse" x="4" y="2" width="16" height="20">
<path id="&#240;&#159;&#142;&#168; Icon &#208;&#161;olor_2" fill-rule="evenodd" clip-rule="evenodd" d="M14.296 2.328L19.74 8.328C19.907 8.512 20 8.751 20 9V19.5C20 20.878 18.853 22 17.444 22H6.555C5.146 22 4 20.878 4 19.5V4.5C4 3.122 5.146 2 6.555 2H13.555C13.838 2 14.107 2.119 14.296 2.328ZM17.444 20H6.555C6.249 20 6 19.776 6 19.5V4.5C6 4.224 6.249 4 6.555 4H11V8.15C11 9.722 12.217 11 13.714 11H18V19.5C18 19.776 17.75 20 17.444 20ZM17.649 9H13.714C13.32 9 13 8.619 13 8.15V4H13.112L17.649 9Z" fill="white"/>
</mask>
<g mask="url(#mask0_11506_95274)">
</g>
</g>
</svg>
