<svg width="24" height="24" viewBox="0 0 24 24" fill="none" xmlns="http://www.w3.org/2000/svg">
<g id="icon/general/24x24/outline/file-text">
<path id="&#240;&#159;&#142;&#168; Icon &#208;&#161;olor" fill-rule="evenodd" clip-rule="evenodd" d="M14.296 2.328L19.74 8.328C19.907 8.512 20 8.751 20 9V19.5C20 20.878 18.853 22 17.444 22H6.555C5.146 22 4 20.878 4 19.5V4.5C4 3.122 5.146 2 6.555 2H13.555C13.838 2 14.106 2.119 14.296 2.328ZM6.555 20H17.444C17.751 20 18 19.776 18 19.5V10H14.714C13.217 10 12 8.722 12 7.15V4H6.555C6.249 4 6 4.224 6 4.5V19.5C6 19.776 6.249 20 6.555 20ZM8.9997 14H11.9997C12.5517 14 12.9997 13.552 12.9997 13C12.9997 12.448 12.5517 12 11.9997 12H8.9997C8.4477 12 7.9997 12.448 7.9997 13C7.9997 13.552 8.4477 14 8.9997 14ZM8.9997 16C8.4477 16 7.9997 16.448 7.9997 17C7.9997 17.552 8.4477 18 8.9997 18H14.9997C15.5527 18 15.9997 17.552 15.9997 17C15.9997 16.448 15.5527 16 14.9997 16H8.9997ZM14 4.978L16.742 8H14.714C14.32 8 14 7.619 14 7.15V4.978Z" fill="#383B46"/>
<mask id="mask0_11506_93986" style="mask-type:luminance" maskUnits="userSpaceOnUse" x="4" y="2" width="16" height="20">
<path id="&#240;&#159;&#142;&#168; Icon &#208;&#161;olor_2" fill-rule="evenodd" clip-rule="evenodd" d="M14.296 2.328L19.74 8.328C19.907 8.512 20 8.751 20 9V19.5C20 20.878 18.853 22 17.444 22H6.555C5.146 22 4 20.878 4 19.5V4.5C4 3.122 5.146 2 6.555 2H13.555C13.838 2 14.106 2.119 14.296 2.328ZM6.555 20H17.444C17.751 20 18 19.776 18 19.5V10H14.714C13.217 10 12 8.722 12 7.15V4H6.555C6.249 4 6 4.224 6 4.5V19.5C6 19.776 6.249 20 6.555 20ZM8.9997 14H11.9997C12.5517 14 12.9997 13.552 12.9997 13C12.9997 12.448 12.5517 12 11.9997 12H8.9997C8.4477 12 7.9997 12.448 7.9997 13C7.9997 13.552 8.4477 14 8.9997 14ZM8.9997 16C8.4477 16 7.9997 16.448 7.9997 17C7.9997 17.552 8.4477 18 8.9997 18H14.9997C15.5527 18 15.9997 17.552 15.9997 17C15.9997 16.448 15.5527 16 14.9997 16H8.9997ZM14 4.978L16.742 8H14.714C14.32 8 14 7.619 14 7.15V4.978Z" fill="white"/>
</mask>
<g mask="url(#mask0_11506_93986)">
</g>
</g>
</svg>
