<svg width="24" height="24" viewBox="0 0 24 24" fill="none" xmlns="http://www.w3.org/2000/svg">
<g id="icon/general/24x24/outline/film">
<path id="Fill 1" fill-rule="evenodd" clip-rule="evenodd" d="M5.744 3H18.256C19.769 3 21 4.232 21 5.744V18.256C21 19.769 19.769 21 18.256 21H5.744C4.231 21 3 19.769 3 18.256V5.744C3 4.232 4.231 3 5.744 3ZM5.744 5H7V7H5V5.744C5 5.334 5.334 5 5.744 5ZM5 17V18.256C5 18.666 5.334 19 5.744 19H7V17H5ZM18.256 19C18.666 19 19 18.666 19 18.256V17H17V19H18.256ZM19 7V5.744C19 5.334 18.666 5 18.256 5H17V7H19ZM17 15H19V13H17V15ZM19 11H17V9H19V11ZM9 19H15V5H9V19ZM7 15H5V13H7V15ZM5 11H7V9H5V11Z" fill="#383B46"/>
</g>
</svg>
