<svg width="24" height="24" viewBox="0 0 24 24" fill="none" xmlns="http://www.w3.org/2000/svg">
<g id="icon/general/24x24/fill/fire-fill">
<path id="&#240;&#159;&#142;&#168; Icon &#208;&#161;olor" fill-rule="evenodd" clip-rule="evenodd" d="M12.2128 3.29564L16.8058 7.98664C19.7268 10.9516 19.7318 15.7856 16.8148 18.7576C15.3958 20.2046 13.5088 21.0006 11.4998 21.0006H11.4918C9.48475 20.9986 7.60175 20.2026 6.18875 18.7566C3.27375 15.7856 3.26975 10.9516 6.18075 7.98464L7.16475 6.99164C7.41775 6.73664 7.78775 6.63764 8.13675 6.72964C8.48375 6.82364 8.75375 7.09664 8.84375 7.44464C9.07475 8.33564 9.34875 8.77164 9.49975 8.93764C9.85475 8.56364 10.4978 7.05164 10.4978 4.49464C10.4978 4.34664 10.4978 4.20864 10.4888 4.06864C10.4698 3.77364 10.5838 3.48464 10.7978 3.28064C11.1938 2.90464 11.8308 2.90464 12.2128 3.29564ZM11.4708 19.0006C12.4088 19.0066 13.2918 18.6606 13.9588 18.0236C15.3308 16.7136 15.3488 14.5666 13.9998 13.2366L11.8708 11.1356C11.7838 11.0496 11.6638 11.0016 11.5388 11.0006C11.4128 10.9996 11.2928 11.0456 11.2038 11.1306L9.04075 13.1986C7.66875 14.5076 7.65075 16.6556 8.99975 17.9846C9.65575 18.6316 10.5328 18.9926 11.4698 19.0006H11.4708Z" fill="#383B46"/>
<mask id="mask0_11506_96385" style="mask-type:luminance" maskUnits="userSpaceOnUse" x="4" y="3" width="15" height="19">
<path id="&#240;&#159;&#142;&#168; Icon &#208;&#161;olor_2" fill-rule="evenodd" clip-rule="evenodd" d="M12.2128 3.29564L16.8058 7.98664C19.7268 10.9516 19.7318 15.7856 16.8148 18.7576C15.3958 20.2046 13.5088 21.0006 11.4998 21.0006H11.4918C9.48475 20.9986 7.60175 20.2026 6.18875 18.7566C3.27375 15.7856 3.26975 10.9516 6.18075 7.98464L7.16475 6.99164C7.41775 6.73664 7.78775 6.63764 8.13675 6.72964C8.48375 6.82364 8.75375 7.09664 8.84375 7.44464C9.07475 8.33564 9.34875 8.77164 9.49975 8.93764C9.85475 8.56364 10.4978 7.05164 10.4978 4.49464C10.4978 4.34664 10.4978 4.20864 10.4888 4.06864C10.4698 3.77364 10.5838 3.48464 10.7978 3.28064C11.1938 2.90464 11.8308 2.90464 12.2128 3.29564ZM11.4708 19.0006C12.4088 19.0066 13.2918 18.6606 13.9588 18.0236C15.3308 16.7136 15.3488 14.5666 13.9998 13.2366L11.8708 11.1356C11.7838 11.0496 11.6638 11.0016 11.5388 11.0006C11.4128 10.9996 11.2928 11.0456 11.2038 11.1306L9.04075 13.1986C7.66875 14.5076 7.65075 16.6556 8.99975 17.9846C9.65575 18.6316 10.5328 18.9926 11.4698 19.0006H11.4708Z" fill="white"/>
</mask>
<g mask="url(#mask0_11506_96385)">
</g>
</g>
</svg>
