<svg width="24" height="24" viewBox="0 0 24 24" fill="none" xmlns="http://www.w3.org/2000/svg">
<g id="icon/general/24x24/outline/fire">
<path id="&#240;&#159;&#142;&#168; Icon &#208;&#161;olor" fill-rule="evenodd" clip-rule="evenodd" d="M11.4949 21.0015H11.5019C13.5099 21.0015 15.3959 20.2065 16.8149 18.7605C19.7299 15.7895 19.7249 10.9565 16.8049 7.99247L12.2149 3.30347C11.8339 2.91147 11.1979 2.91147 10.8009 3.28847C10.5869 3.49247 10.4739 3.78147 10.4929 4.07647C10.5009 4.21547 10.5009 4.35447 10.5009 4.50147C10.5009 7.05847 9.85894 8.56947 9.50394 8.94347C9.35294 8.77747 9.07894 8.34047 8.84894 7.45147C8.75894 7.10347 8.48894 6.83047 8.14194 6.73647C7.79294 6.64547 7.42394 6.74347 7.16994 6.99747L6.18694 7.99147C3.27794 10.9565 3.28194 15.7895 6.19594 18.7595C7.60694 20.2045 9.48894 20.9995 11.4949 21.0015ZM7.62494 17.3605C5.50694 15.2015 5.46394 11.7155 7.49594 9.51647C8.16494 10.7755 8.99294 11.0015 9.50094 11.0015C11.1589 11.0015 12.0899 8.82347 12.3919 6.34147L15.3779 9.39247C17.5389 11.5875 17.5429 15.1625 15.3869 17.3605C14.3479 18.4185 12.9689 19.0015 11.5019 19.0015H11.4969C10.0329 19.0005 8.65894 18.4175 7.62494 17.3605Z" fill="#383B46"/>
<mask id="mask0_11506_95186" style="mask-type:luminance" maskUnits="userSpaceOnUse" x="4" y="3" width="15" height="19">
<path id="&#240;&#159;&#142;&#168; Icon &#208;&#161;olor_2" fill-rule="evenodd" clip-rule="evenodd" d="M11.4949 21.0015H11.5019C13.5099 21.0015 15.3959 20.2065 16.8149 18.7605C19.7299 15.7895 19.7249 10.9565 16.8049 7.99247L12.2149 3.30347C11.8339 2.91147 11.1979 2.91147 10.8009 3.28847C10.5869 3.49247 10.4739 3.78147 10.4929 4.07647C10.5009 4.21547 10.5009 4.35447 10.5009 4.50147C10.5009 7.05847 9.85894 8.56947 9.50394 8.94347C9.35294 8.77747 9.07894 8.34047 8.84894 7.45147C8.75894 7.10347 8.48894 6.83047 8.14194 6.73647C7.79294 6.64547 7.42394 6.74347 7.16994 6.99747L6.18694 7.99147C3.27794 10.9565 3.28194 15.7895 6.19594 18.7595C7.60694 20.2045 9.48894 20.9995 11.4949 21.0015ZM7.62494 17.3605C5.50694 15.2015 5.46394 11.7155 7.49594 9.51647C8.16494 10.7755 8.99294 11.0015 9.50094 11.0015C11.1589 11.0015 12.0899 8.82347 12.3919 6.34147L15.3779 9.39247C17.5389 11.5875 17.5429 15.1625 15.3869 17.3605C14.3479 18.4185 12.9689 19.0015 11.5019 19.0015H11.4969C10.0329 19.0005 8.65894 18.4175 7.62494 17.3605Z" fill="white"/>
</mask>
<g mask="url(#mask0_11506_95186)">
</g>
</g>
</svg>
