<svg width="24" height="24" viewBox="0 0 24 24" fill="none" xmlns="http://www.w3.org/2000/svg">
<g id="icon/general/24x24/outline/flag">
<path id="&#240;&#159;&#142;&#168; Icon &#208;&#161;olor" fill-rule="evenodd" clip-rule="evenodd" d="M17.669 4.427C18.208 4.251 18.806 4.346 19.268 4.68C19.727 5.013 20 5.546 20 6.106V14.749C20 15.402 19.633 15.998 19.041 16.305C18.423 16.622 17.309 17 15.5 17C13.9999 17 12.7984 16.5295 11.637 16.0748L11.635 16.074L11.6327 16.0731C10.5996 15.6684 9.62317 15.286 8.5 15.286C7.173 15.286 6.395 15.526 6 15.702V20C6 20.553 5.553 21 5 21C4.447 21 4 20.553 4 20V15.143V12V4.857C4 4.589 4.108 4.331 4.3 4.144C4.495 3.952 5.613 3 8.5 3C10.0001 3 11.2016 3.47046 12.363 3.92522L12.365 3.926L12.3673 3.9269C13.4004 4.33157 14.3768 4.714 15.5 4.714C16.343 4.714 17.093 4.614 17.669 4.427ZM15.5 15C16.825 15 17.604 14.763 18 14.586V6.414C17.276 6.613 16.438 6.714 15.5 6.714C13.9999 6.714 12.7984 6.24354 11.637 5.78878L11.635 5.788L11.6327 5.7871C10.5996 5.38243 9.62317 5 8.5 5C7.177 5 6.396 5.239 6 5.416V12V13.584C6.624 13.413 7.443 13.286 8.5 13.286C10.0001 13.286 11.2016 13.7565 12.363 14.2112L12.365 14.212L12.3673 14.2129C13.4004 14.6176 14.3768 15 15.5 15Z" fill="#383B46"/>
<mask id="mask0_11506_95034" style="mask-type:luminance" maskUnits="userSpaceOnUse" x="4" y="3" width="16" height="18">
<path id="&#240;&#159;&#142;&#168; Icon &#208;&#161;olor_2" fill-rule="evenodd" clip-rule="evenodd" d="M17.669 4.427C18.208 4.251 18.806 4.346 19.268 4.68C19.727 5.013 20 5.546 20 6.106V14.749C20 15.402 19.633 15.998 19.041 16.305C18.423 16.622 17.309 17 15.5 17C13.9999 17 12.7984 16.5295 11.637 16.0748L11.635 16.074L11.6327 16.0731C10.5996 15.6684 9.62317 15.286 8.5 15.286C7.173 15.286 6.395 15.526 6 15.702V20C6 20.553 5.553 21 5 21C4.447 21 4 20.553 4 20V15.143V12V4.857C4 4.589 4.108 4.331 4.3 4.144C4.495 3.952 5.613 3 8.5 3C10.0001 3 11.2016 3.47046 12.363 3.92522L12.365 3.926L12.3673 3.9269C13.4004 4.33157 14.3768 4.714 15.5 4.714C16.343 4.714 17.093 4.614 17.669 4.427ZM15.5 15C16.825 15 17.604 14.763 18 14.586V6.414C17.276 6.613 16.438 6.714 15.5 6.714C13.9999 6.714 12.7984 6.24354 11.637 5.78878L11.635 5.788L11.6327 5.7871C10.5996 5.38243 9.62317 5 8.5 5C7.177 5 6.396 5.239 6 5.416V12V13.584C6.624 13.413 7.443 13.286 8.5 13.286C10.0001 13.286 11.2016 13.7565 12.363 14.2112L12.365 14.212L12.3673 14.2129C13.4004 14.6176 14.3768 15 15.5 15Z" fill="white"/>
</mask>
<g mask="url(#mask0_11506_95034)">
</g>
</g>
</svg>
