<svg width="24" height="24" viewBox="0 0 24 24" fill="none" xmlns="http://www.w3.org/2000/svg">
<g id="icon/general/24x24/fill/flag-fill">
<path id="&#240;&#159;&#142;&#168; Icon &#208;&#161;olor" d="M19.268 4.67976C18.806 4.34576 18.208 4.25076 17.669 4.42676C17.093 4.61476 16.343 4.71376 15.5 4.71376C14.376 4.71376 13.4 4.33076 12.366 3.92576C11.204 3.47076 10.001 2.99976 8.5 2.99976C5.614 2.99976 4.496 3.95176 4.3 4.14376C4.109 4.33076 4 4.58876 4 4.85776V11.9998V15.1428V19.9998C4 20.5528 4.448 20.9998 5 20.9998C5.553 20.9998 6 20.5528 6 19.9998V15.7018C6.395 15.5268 7.173 15.2858 8.5 15.2858C9.624 15.2858 10.601 15.6688 11.635 16.0748C12.797 16.5298 13.999 16.9998 15.5 16.9998C17.309 16.9998 18.423 16.6218 19.041 16.3048C19.633 15.9978 20 15.4028 20 14.7488V6.10576C20 5.54576 19.727 5.01276 19.268 4.67976Z" fill="#383B46"/>
<mask id="mask0_11506_96443" style="mask-type:luminance" maskUnits="userSpaceOnUse" x="4" y="2" width="16" height="19">
<path id="&#240;&#159;&#142;&#168; Icon &#208;&#161;olor_2" d="M19.268 4.67976C18.806 4.34576 18.208 4.25076 17.669 4.42676C17.093 4.61476 16.343 4.71376 15.5 4.71376C14.376 4.71376 13.4 4.33076 12.366 3.92576C11.204 3.47076 10.001 2.99976 8.5 2.99976C5.614 2.99976 4.496 3.95176 4.3 4.14376C4.109 4.33076 4 4.58876 4 4.85776V11.9998V15.1428V19.9998C4 20.5528 4.448 20.9998 5 20.9998C5.553 20.9998 6 20.5528 6 19.9998V15.7018C6.395 15.5268 7.173 15.2858 8.5 15.2858C9.624 15.2858 10.601 15.6688 11.635 16.0748C12.797 16.5298 13.999 16.9998 15.5 16.9998C17.309 16.9998 18.423 16.6218 19.041 16.3048C19.633 15.9978 20 15.4028 20 14.7488V6.10576C20 5.54576 19.727 5.01276 19.268 4.67976Z" fill="white"/>
</mask>
<g mask="url(#mask0_11506_96443)">
</g>
</g>
</svg>
