<svg width="24" height="24" viewBox="0 0 24 24" fill="none" xmlns="http://www.w3.org/2000/svg">
<g id="icon/general/24x24/fill/flash-off-fill">
<path id="&#240;&#159;&#142;&#168; Icon &#208;&#161;olor" fill-rule="evenodd" clip-rule="evenodd" d="M17.3284 14.5002L19.8314 10.7562C20.0364 10.4492 20.0564 10.0552 19.8824 9.72918C19.7084 9.40318 19.3694 9.20018 19.0004 9.20018H13.1144L13.8834 2.10718C13.9324 1.65018 13.6634 1.21818 13.2304 1.06118C12.7973 0.902182 12.3133 1.06118 12.0574 1.44418L8.93835 6.11018L17.3284 14.5002ZM6.67215 9.50018L4.16915 13.2442C3.96415 13.5512 3.94415 13.9452 4.11815 14.2712C4.29215 14.5972 4.63115 14.8002 5.00015 14.8002H10.8861L10.1171 21.8932C10.0682 22.3502 10.3372 22.7822 10.7702 22.9392C10.8822 22.9802 10.9971 23.0002 11.1111 23.0002C11.4381 23.0002 11.7531 22.8402 11.9431 22.5562L15.0621 17.8902L6.67215 9.50018ZM4.70725 3.29308L20.7073 19.2931C21.0983 19.6841 21.0983 20.3161 20.7073 20.7071C20.5123 20.9021 20.2563 21.0001 20.0002 21.0001C19.7442 21.0001 19.4882 20.9021 19.2932 20.7071L3.29325 4.70708C2.90225 4.31608 2.90225 3.68408 3.29325 3.29308C3.68425 2.90208 4.31625 2.90208 4.70725 3.29308Z" fill="#383B46"/>
<mask id="mask0_11506_95972" style="mask-type:luminance" maskUnits="userSpaceOnUse" x="3" y="1" width="18" height="23">
<path id="&#240;&#159;&#142;&#168; Icon &#208;&#161;olor_2" fill-rule="evenodd" clip-rule="evenodd" d="M17.3284 14.5002L19.8314 10.7562C20.0364 10.4492 20.0564 10.0552 19.8824 9.72918C19.7084 9.40318 19.3694 9.20018 19.0004 9.20018H13.1144L13.8834 2.10718C13.9324 1.65018 13.6634 1.21818 13.2304 1.06118C12.7973 0.902182 12.3133 1.06118 12.0574 1.44418L8.93835 6.11018L17.3284 14.5002ZM6.67215 9.50018L4.16915 13.2442C3.96415 13.5512 3.94415 13.9452 4.11815 14.2712C4.29215 14.5972 4.63115 14.8002 5.00015 14.8002H10.8861L10.1171 21.8932C10.0682 22.3502 10.3372 22.7822 10.7702 22.9392C10.8822 22.9802 10.9971 23.0002 11.1111 23.0002C11.4381 23.0002 11.7531 22.8402 11.9431 22.5562L15.0621 17.8902L6.67215 9.50018ZM4.70725 3.29308L20.7073 19.2931C21.0983 19.6841 21.0983 20.3161 20.7073 20.7071C20.5123 20.9021 20.2563 21.0001 20.0002 21.0001C19.7442 21.0001 19.4882 20.9021 19.2932 20.7071L3.29325 4.70708C2.90225 4.31608 2.90225 3.68408 3.29325 3.29308C3.68425 2.90208 4.31625 2.90208 4.70725 3.29308Z" fill="white"/>
</mask>
<g mask="url(#mask0_11506_95972)">
</g>
</g>
</svg>
