<svg width="24" height="24" viewBox="0 0 24 24" fill="none" xmlns="http://www.w3.org/2000/svg">
<g id="icon/general/24x24/outline/flash-off">
<path id="&#240;&#159;&#142;&#168; Icon &#208;&#161;olor" fill-rule="evenodd" clip-rule="evenodd" d="M11.1933 8.36449L11.4553 5.94349L10.3804 7.55149L8.93835 6.11049L12.0583 1.44449C12.3133 1.06049 12.7984 0.902493 13.2304 1.06049C13.6634 1.21749 13.9334 1.65049 13.8834 2.10749L13.1144 9.20049H19.0004C19.3694 9.20049 19.7084 9.40349 19.8824 9.72849C20.0564 10.0545 20.0364 10.4495 19.8314 10.7555L17.3284 14.5005L15.8874 13.0585L17.1294 11.2005H14.0284L11.1933 8.36449ZM20.7073 19.2931L4.70725 3.29309C4.31625 2.90209 3.68425 2.90209 3.29325 3.29309C2.90225 3.68409 2.90225 4.31609 3.29325 4.70709L19.2932 20.7071C19.4882 20.9021 19.7442 21.0001 20.0002 21.0001C20.2563 21.0001 20.5123 20.9021 20.7073 20.7071C21.0983 20.3161 21.0983 19.6841 20.7073 19.2931ZM12.5452 18.0567L12.8071 15.6357L9.97215 12.7997H6.87115L8.11315 10.9417L6.67215 9.49969L4.16915 13.2447C3.96415 13.5507 3.94415 13.9457 4.11815 14.2717C4.29215 14.5967 4.63115 14.7997 5.00015 14.7997H10.8861L10.1171 21.8927C10.0671 22.3497 10.3372 22.7827 10.7702 22.9397C10.8822 22.9807 10.9971 22.9997 11.1111 22.9997C11.4381 22.9997 11.7531 22.8397 11.9422 22.5557L15.0621 17.8897L13.6201 16.4487L12.5452 18.0567Z" fill="#383B46"/>
<mask id="mask0_11506_94161" style="mask-type:luminance" maskUnits="userSpaceOnUse" x="3" y="0" width="18" height="23">
<path id="&#240;&#159;&#142;&#168; Icon &#208;&#161;olor_2" fill-rule="evenodd" clip-rule="evenodd" d="M11.1933 8.36449L11.4553 5.94349L10.3804 7.55149L8.93835 6.11049L12.0583 1.44449C12.3133 1.06049 12.7984 0.902493 13.2304 1.06049C13.6634 1.21749 13.9334 1.65049 13.8834 2.10749L13.1144 9.20049H19.0004C19.3694 9.20049 19.7084 9.40349 19.8824 9.72849C20.0564 10.0545 20.0364 10.4495 19.8314 10.7555L17.3284 14.5005L15.8874 13.0585L17.1294 11.2005H14.0284L11.1933 8.36449ZM20.7073 19.2931L4.70725 3.29309C4.31625 2.90209 3.68425 2.90209 3.29325 3.29309C2.90225 3.68409 2.90225 4.31609 3.29325 4.70709L19.2932 20.7071C19.4882 20.9021 19.7442 21.0001 20.0002 21.0001C20.2563 21.0001 20.5123 20.9021 20.7073 20.7071C21.0983 20.3161 21.0983 19.6841 20.7073 19.2931ZM12.5452 18.0567L12.8071 15.6357L9.97215 12.7997H6.87115L8.11315 10.9417L6.67215 9.49969L4.16915 13.2447C3.96415 13.5507 3.94415 13.9457 4.11815 14.2717C4.29215 14.5967 4.63115 14.7997 5.00015 14.7997H10.8861L10.1171 21.8927C10.0671 22.3497 10.3372 22.7827 10.7702 22.9397C10.8822 22.9807 10.9971 22.9997 11.1111 22.9997C11.4381 22.9997 11.7531 22.8397 11.9422 22.5557L15.0621 17.8897L13.6201 16.4487L12.5452 18.0567Z" fill="white"/>
</mask>
<g mask="url(#mask0_11506_94161)">
</g>
</g>
</svg>
