<svg width="24" height="24" viewBox="0 0 24 24" fill="none" xmlns="http://www.w3.org/2000/svg">
<g id="icon/general/24x24/outline/flash">
<path id="&#240;&#159;&#142;&#168; Icon &#208;&#161;olor" fill-rule="evenodd" clip-rule="evenodd" d="M10.7689 22.9397C10.8819 22.9807 10.9969 22.9997 11.1109 22.9997C11.4369 22.9997 11.7529 22.8397 11.9419 22.5557L19.8309 10.7557C20.0359 10.4487 20.0559 10.0547 19.8819 9.72874C19.7079 9.40374 19.3689 9.19974 18.9999 9.19974H13.1139L13.8829 2.10774C13.9329 1.65074 13.6629 1.21774 13.2299 1.06074C12.7969 0.902737 12.3129 1.06074 12.0579 1.44474L4.16887 13.2437C3.96387 13.5507 3.94387 13.9457 4.11787 14.2717C4.29187 14.5967 4.63087 14.7997 4.99987 14.7997H10.8859L10.1169 21.8927C10.0669 22.3497 10.3369 22.7817 10.7689 22.9397ZM11.9999 12.7997H6.87087L11.4549 5.94374L11.0059 10.0927C10.9749 10.3747 11.0659 10.6567 11.2559 10.8677C11.4449 11.0787 11.7159 11.1997 11.9999 11.1997H17.1289L12.5449 18.0567L12.9939 13.9067C13.0239 13.6247 12.9329 13.3427 12.7439 13.1317C12.5549 12.9207 12.2839 12.7997 11.9999 12.7997Z" fill="#383B46"/>
<mask id="mask0_11506_93358" style="mask-type:luminance" maskUnits="userSpaceOnUse" x="4" y="1" width="16" height="22">
<path id="&#240;&#159;&#142;&#168; Icon &#208;&#161;olor_2" fill-rule="evenodd" clip-rule="evenodd" d="M10.7689 22.9397C10.8819 22.9807 10.9969 22.9997 11.1109 22.9997C11.4369 22.9997 11.7529 22.8397 11.9419 22.5557L19.8309 10.7557C20.0359 10.4487 20.0559 10.0547 19.8819 9.72874C19.7079 9.40374 19.3689 9.19974 18.9999 9.19974H13.1139L13.8829 2.10774C13.9329 1.65074 13.6629 1.21774 13.2299 1.06074C12.7969 0.902737 12.3129 1.06074 12.0579 1.44474L4.16887 13.2437C3.96387 13.5507 3.94387 13.9457 4.11787 14.2717C4.29187 14.5967 4.63087 14.7997 4.99987 14.7997H10.8859L10.1169 21.8927C10.0669 22.3497 10.3369 22.7817 10.7689 22.9397ZM11.9999 12.7997H6.87087L11.4549 5.94374L11.0059 10.0927C10.9749 10.3747 11.0659 10.6567 11.2559 10.8677C11.4449 11.0787 11.7159 11.1997 11.9999 11.1997H17.1289L12.5449 18.0567L12.9939 13.9067C13.0239 13.6247 12.9329 13.3427 12.7439 13.1317C12.5549 12.9207 12.2839 12.7997 11.9999 12.7997Z" fill="white"/>
</mask>
<g mask="url(#mask0_11506_93358)">
</g>
</g>
</svg>
