<svg width="24" height="24" viewBox="0 0 24 24" fill="none" xmlns="http://www.w3.org/2000/svg">
<g id="icon/general/24x24/outline/flip">
<path id="&#240;&#159;&#142;&#168; Icon &#208;&#161;olor" fill-rule="evenodd" clip-rule="evenodd" d="M14.2933 7.20701C13.9023 6.81601 13.9023 6.18401 14.2933 5.79301L17.2933 2.79301C17.6842 2.40201 18.3162 2.40201 18.7072 2.79301L21.7072 5.79301C21.9023 5.98801 22.0002 6.24401 22.0002 6.50001C22.0002 6.75601 21.9023 7.01201 21.7072 7.20701C21.3162 7.59801 20.6842 7.59801 20.2933 7.20701L19.0002 5.91401V17.91C19.0002 19.89 17.4172 21.5 15.4712 21.5H13.0002C12.4473 21.5 12.0002 21.053 12.0002 20.5C12.0002 19.947 12.4473 19.5 13.0002 19.5H15.4712C16.3142 19.5 17.0002 18.787 17.0002 17.91V5.91401L15.7072 7.20701C15.3162 7.59801 14.6842 7.59801 14.2933 7.20701ZM5.00025 18.0858V6.08981C5.00025 4.11081 6.58325 2.49981 8.52925 2.49981H11.0002C11.5532 2.49981 12.0002 2.94681 12.0002 3.49981C12.0002 4.05281 11.5532 4.49981 11.0002 4.49981H8.52925C7.68725 4.49981 7.00025 5.21281 7.00025 6.08981V18.0858L8.29325 16.7928C8.68425 16.4028 9.31625 16.4028 9.70725 16.7928C9.90225 16.9878 10.0002 17.2438 10.0002 17.4998C10.0002 17.7558 9.90225 18.0118 9.70725 18.2068L6.70725 21.2068C6.31625 21.5978 5.68425 21.5978 5.29325 21.2068L2.29325 18.2068C1.90225 17.8168 1.90225 17.1838 2.29325 16.7928C2.68425 16.4028 3.31625 16.4028 3.70725 16.7928L5.00025 18.0858Z" fill="#383B46"/>
<mask id="mask0_11506_95163" style="mask-type:luminance" maskUnits="userSpaceOnUse" x="2" y="2" width="20" height="20">
<path id="&#240;&#159;&#142;&#168; Icon &#208;&#161;olor_2" fill-rule="evenodd" clip-rule="evenodd" d="M14.2933 7.20701C13.9023 6.81601 13.9023 6.18401 14.2933 5.79301L17.2933 2.79301C17.6842 2.40201 18.3162 2.40201 18.7072 2.79301L21.7072 5.79301C21.9023 5.98801 22.0002 6.24401 22.0002 6.50001C22.0002 6.75601 21.9023 7.01201 21.7072 7.20701C21.3162 7.59801 20.6842 7.59801 20.2933 7.20701L19.0002 5.91401V17.91C19.0002 19.89 17.4172 21.5 15.4712 21.5H13.0002C12.4473 21.5 12.0002 21.053 12.0002 20.5C12.0002 19.947 12.4473 19.5 13.0002 19.5H15.4712C16.3142 19.5 17.0002 18.787 17.0002 17.91V5.91401L15.7072 7.20701C15.3162 7.59801 14.6842 7.59801 14.2933 7.20701ZM5.00025 18.0858V6.08981C5.00025 4.11081 6.58325 2.49981 8.52925 2.49981H11.0002C11.5532 2.49981 12.0002 2.94681 12.0002 3.49981C12.0002 4.05281 11.5532 4.49981 11.0002 4.49981H8.52925C7.68725 4.49981 7.00025 5.21281 7.00025 6.08981V18.0858L8.29325 16.7928C8.68425 16.4028 9.31625 16.4028 9.70725 16.7928C9.90225 16.9878 10.0002 17.2438 10.0002 17.4998C10.0002 17.7558 9.90225 18.0118 9.70725 18.2068L6.70725 21.2068C6.31625 21.5978 5.68425 21.5978 5.29325 21.2068L2.29325 18.2068C1.90225 17.8168 1.90225 17.1838 2.29325 16.7928C2.68425 16.4028 3.31625 16.4028 3.70725 16.7928L5.00025 18.0858Z" fill="white"/>
</mask>
<g mask="url(#mask0_11506_95163)">
</g>
</g>
</svg>
