<svg width="24" height="24" viewBox="0 0 24 24" fill="none" xmlns="http://www.w3.org/2000/svg">
<g id="icon/general/24x24/fill/folder-add-fill">
<path id="&#240;&#159;&#142;&#168; Icon &#208;&#161;olor" fill-rule="evenodd" clip-rule="evenodd" d="M12.474 7.046H19.5C20.878 7.046 22 8.137 22 9.478V18.068C22 19.409 20.878 20.5 19.5 20.5H4.5C3.122 20.5 2 19.409 2 18.068V5.932C2 4.591 3.122 3.5 4.5 3.5H9.101C9.4 3.5 9.685 3.635 9.875 3.867L12.474 7.046ZM13 15H14C14.55 15 15 14.55 15 14C15 13.45 14.55 13 14 13H13V12C13 11.45 12.55 11 12 11C11.45 11 11 11.45 11 12V13H10C9.45 13 9 13.45 9 14C9 14.55 9.45 15 10 15H11V16C11 16.55 11.45 17 12 17C12.55 17 13 16.55 13 16V15Z" fill="#383B46"/>
<mask id="mask0_11506_96235" style="mask-type:luminance" maskUnits="userSpaceOnUse" x="2" y="3" width="20" height="18">
<path id="&#240;&#159;&#142;&#168; Icon &#208;&#161;olor_2" fill-rule="evenodd" clip-rule="evenodd" d="M12.474 7.046H19.5C20.878 7.046 22 8.137 22 9.478V18.068C22 19.409 20.878 20.5 19.5 20.5H4.5C3.122 20.5 2 19.409 2 18.068V5.932C2 4.591 3.122 3.5 4.5 3.5H9.101C9.4 3.5 9.685 3.635 9.875 3.867L12.474 7.046ZM13 15H14C14.55 15 15 14.55 15 14C15 13.45 14.55 13 14 13H13V12C13 11.45 12.55 11 12 11C11.45 11 11 11.45 11 12V13H10C9.45 13 9 13.45 9 14C9 14.55 9.45 15 10 15H11V16C11 16.55 11.45 17 12 17C12.55 17 13 16.55 13 16V15Z" fill="white"/>
</mask>
<g mask="url(#mask0_11506_96235)">
</g>
</g>
</svg>
