<svg width="24" height="24" viewBox="0 0 24 24" fill="none" xmlns="http://www.w3.org/2000/svg">
<g id="icon/general/24x24/fill/funnel-fill">
<path id="&#240;&#159;&#142;&#168; Icon &#208;&#161;olor" d="M13.9034 22C13.6894 22 13.4774 21.932 13.3004 21.797L9.27438 18.752C9.02438 18.563 8.87738 18.268 8.87738 17.955V14.681L4.11138 5.459C3.95138 5.149 3.96438 4.778 4.14638 4.48C4.32738 4.182 4.65138 4 5.00038 4H19.0004C19.3524 4 19.6784 4.185 19.8594 4.488C20.0394 4.79 20.0474 5.166 19.8804 5.475L14.9034 14.69V21C14.9034 21.379 14.6884 21.726 14.3484 21.896C14.2074 21.965 14.0554 22 13.9034 22Z" fill="#383B46"/>
<mask id="mask0_11506_96321" style="mask-type:luminance" maskUnits="userSpaceOnUse" x="4" y="4" width="16" height="18">
<path id="&#240;&#159;&#142;&#168; Icon &#208;&#161;olor_2" d="M13.9034 22C13.6894 22 13.4774 21.932 13.3004 21.797L9.27438 18.752C9.02438 18.563 8.87738 18.268 8.87738 17.955V14.681L4.11138 5.459C3.95138 5.149 3.96438 4.778 4.14638 4.48C4.32738 4.182 4.65138 4 5.00038 4H19.0004C19.3524 4 19.6784 4.185 19.8594 4.488C20.0394 4.79 20.0474 5.166 19.8804 5.475L14.9034 14.69V21C14.9034 21.379 14.6884 21.726 14.3484 21.896C14.2074 21.965 14.0554 22 13.9034 22Z" fill="white"/>
</mask>
<g mask="url(#mask0_11506_96321)">
</g>
</g>
</svg>
