<svg width="24" height="24" viewBox="0 0 24 24" fill="none" xmlns="http://www.w3.org/2000/svg">
<path fill-rule="evenodd" clip-rule="evenodd" d="M3.1 6C3.1 4.39837 4.39837 3.1 6 3.1H18C19.6016 3.1 20.9 4.39837 20.9 6V18C20.9 19.6016 19.6016 20.9 18 20.9H6C4.39837 20.9 3.1 19.6016 3.1 18V6ZM6 4.9C5.39249 4.9 4.9 5.39249 4.9 6V8.4H8.39999V4.9H6ZM10.2 4.9V8.4H13.8V4.9H10.2ZM8.39999 10.2H4.9V13.8H8.39999L8.39999 10.2ZM10.2 13.8L10.2 10.2H13.8L13.8 13.8H10.2ZM8.39999 15.6H4.9V18C4.9 18.6075 5.39249 19.1 6 19.1H8.39999V15.6ZM10.2 19.1V15.6H13.8V19.1H10.2ZM15.6 10.2L15.6 13.8H19.1V10.2H15.6ZM15.6 15.6V19.1H18C18.6075 19.1 19.1 18.6075 19.1 18V15.6H15.6ZM15.6 4.9V8.4H19.1V6C19.1 5.39249 18.6075 4.9 18 4.9H15.6Z" fill="black"/>
</svg>
