<svg width="24" height="24" viewBox="0 0 24 24" fill="none" xmlns="http://www.w3.org/2000/svg">
<g id="icon/general/24x24/fill/gift-fill">
<path id="&#240;&#159;&#142;&#168; Icon &#208;&#161;olor" fill-rule="evenodd" clip-rule="evenodd" d="M18.258 7.091H20.1C20.597 7.091 21 7.677 21 8.401V12.327C21 13.05 20.597 13.637 20.1 13.637H19.364H12.819V7.091H11.182V13.637H4.637H3.901C3.404 13.637 3 13.05 3 12.327V8.401C3 7.677 3.404 7.091 3.901 7.091H5.743C5.564 6.718 5.454 6.305 5.454 5.863C5.454 4.285 6.74 3 8.319 3C10.2 3 11.339 4.32 12 5.569C12.661 4.32 13.801 3 15.682 3C17.261 3 18.546 4.285 18.546 5.863C18.546 6.305 18.437 6.718 18.258 7.091ZM12.8188 21.0002H18.4438C18.9518 21.0002 19.3638 20.5932 19.3638 20.0912V15.2722H12.8188V21.0002ZM4.6371 15.2727V20.0907C4.6371 20.5927 5.0491 21.0007 5.5571 21.0007H11.1821V15.2727H4.6371ZM15.682 7.091H13.101C13.487 6.075 14.281 4.637 15.682 4.637C16.359 4.637 16.91 5.187 16.91 5.863C16.91 6.54 16.359 7.091 15.682 7.091ZM7.091 5.863C7.091 6.54 7.642 7.091 8.319 7.091H10.9C10.514 6.075 9.72 4.637 8.319 4.637C7.642 4.637 7.091 5.187 7.091 5.863Z" fill="#383B46"/>
<mask id="mask0_11506_96209" style="mask-type:luminance" maskUnits="userSpaceOnUse" x="3" y="3" width="18" height="19">
<path id="&#240;&#159;&#142;&#168; Icon &#208;&#161;olor_2" fill-rule="evenodd" clip-rule="evenodd" d="M18.258 7.091H20.1C20.597 7.091 21 7.677 21 8.401V12.327C21 13.05 20.597 13.637 20.1 13.637H19.364H12.819V7.091H11.182V13.637H4.637H3.901C3.404 13.637 3 13.05 3 12.327V8.401C3 7.677 3.404 7.091 3.901 7.091H5.743C5.564 6.718 5.454 6.305 5.454 5.863C5.454 4.285 6.74 3 8.319 3C10.2 3 11.339 4.32 12 5.569C12.661 4.32 13.801 3 15.682 3C17.261 3 18.546 4.285 18.546 5.863C18.546 6.305 18.437 6.718 18.258 7.091ZM12.8188 21.0002H18.4438C18.9518 21.0002 19.3638 20.5932 19.3638 20.0912V15.2722H12.8188V21.0002ZM4.6371 15.2727V20.0907C4.6371 20.5927 5.0491 21.0007 5.5571 21.0007H11.1821V15.2727H4.6371ZM15.682 7.091H13.101C13.487 6.075 14.281 4.637 15.682 4.637C16.359 4.637 16.91 5.187 16.91 5.863C16.91 6.54 16.359 7.091 15.682 7.091ZM7.091 5.863C7.091 6.54 7.642 7.091 8.319 7.091H10.9C10.514 6.075 9.72 4.637 8.319 4.637C7.642 4.637 7.091 5.187 7.091 5.863Z" fill="white"/>
</mask>
<g mask="url(#mask0_11506_96209)">
</g>
</g>
</svg>
