<svg width="24" height="24" viewBox="0 0 24 24" fill="none" xmlns="http://www.w3.org/2000/svg">
<g id="icon/general/24x24/fill/globe-2-fill">
<path id="&#240;&#159;&#142;&#168; Icon &#208;&#161;olor" fill-rule="evenodd" clip-rule="evenodd" d="M2 12.0005C2 6.48649 6.486 2.00049 12 2.00049C17.514 2.00049 22 6.48649 22 12.0005C22 17.5135 17.514 22.0005 12 22.0005C6.486 22.0005 2 17.5135 2 12.0005ZM12 4.00049C12.616 4.00049 13.211 4.07649 13.787 4.20849C13.618 4.58049 13.357 4.91949 13.013 5.18849C12.8094 5.34912 12.5823 5.48446 12.3552 5.61975L12.307 5.64849C11.656 6.03649 10.919 6.47649 10.457 7.32249C9.841 8.45249 9.841 9.60649 9.841 10.6245C9.841 11.9795 9.797 12.7805 8.893 13.4875C7.524 14.5605 5.429 13.9615 4.133 13.4165C4.051 12.9555 4 12.4835 4 12.0005C4 7.58949 7.589 4.00049 12 4.00049ZM16.889 18.3185C16.717 17.8855 16.473 17.5075 16.259 17.1845L16.2413 17.158C16.139 17.0045 16.0347 16.8482 15.943 16.6875C15.554 16.0115 15.688 15.7375 16.319 14.6805L16.421 14.5075C16.9304 13.6492 16.9598 12.8256 16.9858 12.0993L16.986 12.0925C16.998 11.7345 17.01 11.3975 17.079 11.0805C17.24 10.3485 18.787 10.1535 19.746 10.0385C19.907 10.6675 20 11.3225 20 12.0005C20 14.5695 18.778 16.8535 16.889 18.3185Z" fill="#383B46"/>
<mask id="mask0_11506_95545" style="mask-type:luminance" maskUnits="userSpaceOnUse" x="2" y="2" width="20" height="21">
<path id="&#240;&#159;&#142;&#168; Icon &#208;&#161;olor_2" fill-rule="evenodd" clip-rule="evenodd" d="M2 12.0005C2 6.48649 6.486 2.00049 12 2.00049C17.514 2.00049 22 6.48649 22 12.0005C22 17.5135 17.514 22.0005 12 22.0005C6.486 22.0005 2 17.5135 2 12.0005ZM12 4.00049C12.616 4.00049 13.211 4.07649 13.787 4.20849C13.618 4.58049 13.357 4.91949 13.013 5.18849C12.8094 5.34912 12.5823 5.48446 12.3552 5.61975L12.307 5.64849C11.656 6.03649 10.919 6.47649 10.457 7.32249C9.841 8.45249 9.841 9.60649 9.841 10.6245C9.841 11.9795 9.797 12.7805 8.893 13.4875C7.524 14.5605 5.429 13.9615 4.133 13.4165C4.051 12.9555 4 12.4835 4 12.0005C4 7.58949 7.589 4.00049 12 4.00049ZM16.889 18.3185C16.717 17.8855 16.473 17.5075 16.259 17.1845L16.2413 17.158C16.139 17.0045 16.0347 16.8482 15.943 16.6875C15.554 16.0115 15.688 15.7375 16.319 14.6805L16.421 14.5075C16.9304 13.6492 16.9598 12.8256 16.9858 12.0993L16.986 12.0925C16.998 11.7345 17.01 11.3975 17.079 11.0805C17.24 10.3485 18.787 10.1535 19.746 10.0385C19.907 10.6675 20 11.3225 20 12.0005C20 14.5695 18.778 16.8535 16.889 18.3185Z" fill="white"/>
</mask>
<g mask="url(#mask0_11506_95545)">
</g>
</g>
</svg>
