<svg width="24" height="24" viewBox="0 0 24 24" fill="none" xmlns="http://www.w3.org/2000/svg">
<g id="icon/general/24x24/outline/globe-2">
<path id="&#240;&#159;&#142;&#168; Icon &#208;&#161;olor" fill-rule="evenodd" clip-rule="evenodd" d="M2 12.0005C2 6.48649 6.486 2.00049 12 2.00049C17.514 2.00049 22 6.48649 22 12.0005C22 17.5135 17.514 22.0005 12 22.0005C6.486 22.0005 2 17.5135 2 12.0005ZM12 4.00049C12.616 4.00049 13.211 4.07649 13.787 4.20849C13.618 4.58049 13.357 4.91949 13.013 5.18849C12.8094 5.34912 12.5823 5.48446 12.3552 5.61975L12.307 5.64849C11.656 6.03649 10.919 6.47649 10.457 7.32249C9.841 8.45249 9.841 9.60649 9.841 10.6245C9.841 11.9795 9.797 12.7805 8.893 13.4875C7.524 14.5605 5.429 13.9615 4.133 13.4165C4.051 12.9555 4 12.4835 4 12.0005C4 7.58949 7.589 4.00049 12 4.00049ZM6.988 16.0735C6.287 16.0735 5.598 15.9615 4.962 15.7995C6.317 18.2985 8.963 20.0005 12 20.0005C13.101 20.0005 14.151 19.7765 15.106 19.3725C15.105 19.0925 14.936 18.8075 14.592 18.2915L14.5664 18.2526C14.4438 18.0664 14.3203 17.879 14.209 17.6845C13.222 15.9675 13.954 14.7395 14.601 13.6565L14.701 13.4885C14.9504 13.0676 14.9669 12.6079 14.9878 12.027L14.988 12.0225C15.001 11.6115 15.018 11.1465 15.126 10.6525C15.535 8.78549 17.562 8.31749 18.99 8.11949C18.224 6.74449 17.064 5.62149 15.664 4.89649C15.368 5.61249 14.89 6.25949 14.247 6.76249C13.955 6.99217 13.6508 7.17449 13.3563 7.35093L13.332 7.36549L13.3266 7.36873C12.8359 7.66235 12.4123 7.91583 12.213 8.28049C11.841 8.96349 11.841 9.73249 11.841 10.6245C11.841 12.0045 11.841 13.7205 10.125 15.0625C9.171 15.8095 8.068 16.0735 6.988 16.0735ZM16.259 17.1845C16.473 17.5075 16.717 17.8855 16.889 18.3185C18.778 16.8535 20 14.5695 20 12.0005C20 11.3225 19.907 10.6675 19.746 10.0385C18.787 10.1535 17.24 10.3485 17.079 11.0805C17.01 11.3975 16.998 11.7345 16.986 12.0925L16.9858 12.0993C16.9598 12.8256 16.9304 13.6492 16.421 14.5075L16.319 14.6805C15.688 15.7375 15.554 16.0115 15.943 16.6875C16.0347 16.8482 16.139 17.0045 16.2413 17.158L16.259 17.1845Z" fill="#383B46"/>
<mask id="mask0_11506_93550" style="mask-type:luminance" maskUnits="userSpaceOnUse" x="2" y="2" width="20" height="21">
<path id="&#240;&#159;&#142;&#168; Icon &#208;&#161;olor_2" fill-rule="evenodd" clip-rule="evenodd" d="M2 12.0005C2 6.48649 6.486 2.00049 12 2.00049C17.514 2.00049 22 6.48649 22 12.0005C22 17.5135 17.514 22.0005 12 22.0005C6.486 22.0005 2 17.5135 2 12.0005ZM12 4.00049C12.616 4.00049 13.211 4.07649 13.787 4.20849C13.618 4.58049 13.357 4.91949 13.013 5.18849C12.8094 5.34912 12.5823 5.48446 12.3552 5.61975L12.307 5.64849C11.656 6.03649 10.919 6.47649 10.457 7.32249C9.841 8.45249 9.841 9.60649 9.841 10.6245C9.841 11.9795 9.797 12.7805 8.893 13.4875C7.524 14.5605 5.429 13.9615 4.133 13.4165C4.051 12.9555 4 12.4835 4 12.0005C4 7.58949 7.589 4.00049 12 4.00049ZM6.988 16.0735C6.287 16.0735 5.598 15.9615 4.962 15.7995C6.317 18.2985 8.963 20.0005 12 20.0005C13.101 20.0005 14.151 19.7765 15.106 19.3725C15.105 19.0925 14.936 18.8075 14.592 18.2915L14.5664 18.2526C14.4438 18.0664 14.3203 17.879 14.209 17.6845C13.222 15.9675 13.954 14.7395 14.601 13.6565L14.701 13.4885C14.9504 13.0676 14.9669 12.6079 14.9878 12.027L14.988 12.0225C15.001 11.6115 15.018 11.1465 15.126 10.6525C15.535 8.78549 17.562 8.31749 18.99 8.11949C18.224 6.74449 17.064 5.62149 15.664 4.89649C15.368 5.61249 14.89 6.25949 14.247 6.76249C13.955 6.99217 13.6508 7.17449 13.3563 7.35093L13.332 7.36549L13.3266 7.36873C12.8359 7.66235 12.4123 7.91583 12.213 8.28049C11.841 8.96349 11.841 9.73249 11.841 10.6245C11.841 12.0045 11.841 13.7205 10.125 15.0625C9.171 15.8095 8.068 16.0735 6.988 16.0735ZM16.259 17.1845C16.473 17.5075 16.717 17.8855 16.889 18.3185C18.778 16.8535 20 14.5695 20 12.0005C20 11.3225 19.907 10.6675 19.746 10.0385C18.787 10.1535 17.24 10.3485 17.079 11.0805C17.01 11.3975 16.998 11.7345 16.986 12.0925L16.9858 12.0993C16.9598 12.8256 16.9304 13.6492 16.421 14.5075L16.319 14.6805C15.688 15.7375 15.554 16.0115 15.943 16.6875C16.0347 16.8482 16.139 17.0045 16.2413 17.158L16.259 17.1845Z" fill="white"/>
</mask>
<g mask="url(#mask0_11506_93550)">
</g>
</g>
</svg>
