<svg width="24" height="24" viewBox="0 0 24 24" fill="none" xmlns="http://www.w3.org/2000/svg">
<path fill-rule="evenodd" clip-rule="evenodd" d="M12 2C6.47715 2 2 6.47715 2 12C2 17.5228 6.47715 22 12 22C17.5228 22 22 17.5228 22 12C21.9937 6.47976 17.5202 2.0063 12 2ZM3.44286 12.2814L4.39857 12.6L5.57143 14.3593V15.2757C5.57147 15.4651 5.64675 15.6468 5.78071 15.7807L7.71428 17.7143V19.4121C5.15553 17.9314 3.54098 15.2361 3.44286 12.2814ZM12 20.5714C11.3821 20.5702 10.7661 20.5019 10.1629 20.3679L10.5714 19.1429L11.8607 15.92C11.9479 15.7016 11.922 15.4542 11.7914 15.2586L10.7836 13.7464C10.6511 13.5478 10.4281 13.4285 10.1893 13.4286H6.66786L5.77643 12.0907L7.29571 10.5714H8.42857V12H9.85714V10.0471L12.62 5.21143L11.38 4.50286L10.7693 5.57143H8.81071L8.03571 4.40786C10.1412 3.29679 12.617 3.12283 14.8571 3.92857V6.28572C14.8571 6.6802 15.1769 7 15.5714 7H16.6179C16.8566 7.00004 17.0796 6.88076 17.2121 6.68214L17.8386 5.74214C18.6544 6.50305 19.3143 7.41549 19.7814 8.42857H16.8714C16.5311 8.42878 16.2381 8.6691 16.1714 9.00286L15.655 12.1957C15.6048 12.5042 15.7611 12.8096 16.0407 12.9493L18.4286 14.1429L18.9179 17.04C17.3097 19.2561 14.7381 20.5689 12 20.5714Z" fill="black"/>
</svg>
