<svg width="24" height="24" viewBox="0 0 24 24" fill="none" xmlns="http://www.w3.org/2000/svg">
<path fill-rule="evenodd" clip-rule="evenodd" d="M10.7486 2.6883C11.2338 2.79613 11.5398 3.27689 11.4319 3.76211L10.651 7.27652H15.2604L16.1281 3.37163C16.2359 2.88641 16.7167 2.58048 17.2019 2.6883C17.6871 2.79613 17.9931 3.27689 17.8852 3.76211L17.1043 7.27652H19.7724C20.2695 7.27652 20.6724 7.67946 20.6724 8.17652C20.6724 8.67357 20.2695 9.07652 19.7724 9.07652H16.7043L15.4654 14.6516H18.8507C19.3477 14.6516 19.7507 15.0545 19.7507 15.5516C19.7507 16.0487 19.3477 16.4516 18.8507 16.4516H15.0654L14.1976 20.3566C14.0897 20.8418 13.609 21.1478 13.1238 21.0399C12.6385 20.9321 12.3326 20.4513 12.4404 19.9661L13.2214 16.4516H8.61205L7.74427 20.3566C7.63645 20.8418 7.15569 21.1478 6.67047 21.0399C6.18525 20.9321 5.87931 20.4513 5.98714 19.9661L6.76814 16.4516H4.10001C3.60296 16.4516 3.20001 16.0487 3.20001 15.5516C3.20001 15.0545 3.60296 14.6516 4.10001 14.6516H7.16814L8.40705 9.07652H5.02177C4.52471 9.07652 4.12177 8.67357 4.12177 8.17652C4.12177 7.67946 4.52471 7.27652 5.02177 7.27652H8.80705L9.6748 3.37163C9.78263 2.88641 10.2634 2.58048 10.7486 2.6883ZM13.6214 14.6516L14.8603 9.07652H10.251L9.01205 14.6516H13.6214Z" fill="black"/>
</svg>
