<svg width="24" height="24" viewBox="0 0 24 24" fill="none" xmlns="http://www.w3.org/2000/svg">
<g id="icon/general/24x24/outline/hash">
<path id="&#240;&#159;&#142;&#168; Icon &#208;&#161;olor" fill-rule="evenodd" clip-rule="evenodd" d="M15.698 13.9999H20C20.55 13.9999 21 14.4499 21 14.9999C21 15.5499 20.55 15.9999 20 15.9999H15.334L14.576 20.1619C14.477 20.7109 13.931 21.0809 13.365 20.9839C12.798 20.8879 12.416 20.3589 12.515 19.8109L13.209 15.9999H9.334L8.576 20.1619C8.477 20.7109 7.931 21.0809 7.365 20.9839C6.798 20.8879 6.416 20.3589 6.515 19.8109L7.209 15.9999H4C3.45 15.9999 3 15.5499 3 14.9999C3 14.4499 3.45 13.9999 4 13.9999H7.573L8.302 9.99994H4C3.45 9.99994 3 9.54994 3 8.99994C3 8.44994 3.45 7.99994 4 7.99994H8.665L9.423 3.83794C9.523 3.28894 10.068 2.91894 10.635 3.01594C11.202 3.11194 11.584 3.64094 11.484 4.18894L10.79 7.99994H14.665L15.423 3.83794C15.523 3.28894 16.068 2.91894 16.635 3.01594C17.202 3.11194 17.584 3.64094 17.484 4.18894L16.79 7.99994H20C20.55 7.99994 21 8.44994 21 8.99994C21 9.54994 20.55 9.99994 20 9.99994H16.427L15.698 13.9999ZM10.427 9.99994L9.698 13.9999H13.573L14.302 9.99994H10.427Z" fill="#383B46"/>
<mask id="mask0_11506_94989" style="mask-type:luminance" maskUnits="userSpaceOnUse" x="3" y="3" width="18" height="18">
<path id="&#240;&#159;&#142;&#168; Icon &#208;&#161;olor_2" fill-rule="evenodd" clip-rule="evenodd" d="M15.698 13.9999H20C20.55 13.9999 21 14.4499 21 14.9999C21 15.5499 20.55 15.9999 20 15.9999H15.334L14.576 20.1619C14.477 20.7109 13.931 21.0809 13.365 20.9839C12.798 20.8879 12.416 20.3589 12.515 19.8109L13.209 15.9999H9.334L8.576 20.1619C8.477 20.7109 7.931 21.0809 7.365 20.9839C6.798 20.8879 6.416 20.3589 6.515 19.8109L7.209 15.9999H4C3.45 15.9999 3 15.5499 3 14.9999C3 14.4499 3.45 13.9999 4 13.9999H7.573L8.302 9.99994H4C3.45 9.99994 3 9.54994 3 8.99994C3 8.44994 3.45 7.99994 4 7.99994H8.665L9.423 3.83794C9.523 3.28894 10.068 2.91894 10.635 3.01594C11.202 3.11194 11.584 3.64094 11.484 4.18894L10.79 7.99994H14.665L15.423 3.83794C15.523 3.28894 16.068 2.91894 16.635 3.01594C17.202 3.11194 17.584 3.64094 17.484 4.18894L16.79 7.99994H20C20.55 7.99994 21 8.44994 21 8.99994C21 9.54994 20.55 9.99994 20 9.99994H16.427L15.698 13.9999ZM10.427 9.99994L9.698 13.9999H13.573L14.302 9.99994H10.427Z" fill="white"/>
</mask>
<g mask="url(#mask0_11506_94989)">
</g>
</g>
</svg>
