<svg width="24" height="24" viewBox="0 0 24 24" fill="none" xmlns="http://www.w3.org/2000/svg">
<g id="icon/general/24x24/outline/headphones">
<path id="&#240;&#159;&#142;&#168; Icon &#208;&#161;olor" fill-rule="evenodd" clip-rule="evenodd" d="M2 12.366C2 6.65 6.486 2 12 2C17.514 2 22 6.65 22 12.366V17C22 19.206 20.206 21 18 21C15.794 21 14 19.206 14 17C14 14.794 15.794 13 18 13C18.732 13 19.409 13.212 20 13.557V12.366C20 7.753 16.411 4 12 4C7.589 4 4 7.753 4 12.366V13.557C4.591 13.212 5.268 13 6 13C8.206 13 10 14.794 10 17C10 19.206 8.206 21 6 21C3.794 21 2 19.206 2 17V12.366ZM6 15C7.103 15 8 15.897 8 17C8 18.103 7.103 19 6 19C4.897 19 4 18.103 4 17C4 15.897 4.897 15 6 15ZM18 19C16.897 19 16 18.103 16 17C16 15.897 16.897 15 18 15C19.103 15 20 15.897 20 17C20 18.103 19.103 19 18 19Z" fill="#383B46"/>
<mask id="mask0_11506_95097" style="mask-type:luminance" maskUnits="userSpaceOnUse" x="2" y="2" width="20" height="19">
<path id="&#240;&#159;&#142;&#168; Icon &#208;&#161;olor_2" fill-rule="evenodd" clip-rule="evenodd" d="M2 12.366C2 6.65 6.486 2 12 2C17.514 2 22 6.65 22 12.366V17C22 19.206 20.206 21 18 21C15.794 21 14 19.206 14 17C14 14.794 15.794 13 18 13C18.732 13 19.409 13.212 20 13.557V12.366C20 7.753 16.411 4 12 4C7.589 4 4 7.753 4 12.366V13.557C4.591 13.212 5.268 13 6 13C8.206 13 10 14.794 10 17C10 19.206 8.206 21 6 21C3.794 21 2 19.206 2 17V12.366ZM6 15C7.103 15 8 15.897 8 17C8 18.103 7.103 19 6 19C4.897 19 4 18.103 4 17C4 15.897 4.897 15 6 15ZM18 19C16.897 19 16 18.103 16 17C16 15.897 16.897 15 18 15C19.103 15 20 15.897 20 17C20 18.103 19.103 19 18 19Z" fill="white"/>
</mask>
<g mask="url(#mask0_11506_95097)">
</g>
</g>
</svg>
