<svg width="24" height="24" viewBox="0 0 24 24" fill="none" xmlns="http://www.w3.org/2000/svg">
<g id="icon/general/24x24/outline/heart">
<path id="&#240;&#159;&#142;&#168; Icon &#208;&#161;olor" fill-rule="evenodd" clip-rule="evenodd" d="M11.293 20.706C11.48 20.895 11.735 21 12 21C12.266 21 12.52 20.895 12.708 20.707L20.476 12.926C22.512 10.886 22.512 7.567 20.475 5.527C19.492 4.543 18.179 4 16.781 4C15.381 4 14.069 4.543 13.085 5.528L12 6.614L10.915 5.527C9.93205 4.543 8.61905 4 7.22005 4C5.82105 4 4.50905 4.543 3.52505 5.527C1.48905 7.567 1.48905 10.886 3.52505 12.926L11.293 20.706ZM4.94005 6.941C5.54605 6.334 6.35605 6 7.22005 6C8.08505 6 8.89405 6.334 9.50005 6.94L11.292 8.736C11.668 9.113 12.332 9.113 12.708 8.736L14.5 6.941C15.712 5.728 17.848 5.726 19.06 6.941C20.319 8.201 20.319 10.252 19.06 11.514L12 18.585L4.94105 11.514C3.68205 10.252 3.68205 8.201 4.94005 6.941Z" fill="#383B46"/>
<mask id="mask0_11506_95283" style="mask-type:luminance" maskUnits="userSpaceOnUse" x="1" y="4" width="22" height="17">
<path id="&#240;&#159;&#142;&#168; Icon &#208;&#161;olor_2" fill-rule="evenodd" clip-rule="evenodd" d="M11.293 20.706C11.48 20.895 11.735 21 12 21C12.266 21 12.52 20.895 12.708 20.707L20.476 12.926C22.512 10.886 22.512 7.567 20.475 5.527C19.492 4.543 18.179 4 16.781 4C15.381 4 14.069 4.543 13.085 5.528L12 6.614L10.915 5.527C9.93205 4.543 8.61905 4 7.22005 4C5.82105 4 4.50905 4.543 3.52505 5.527C1.48905 7.567 1.48905 10.886 3.52505 12.926L11.293 20.706ZM4.94005 6.941C5.54605 6.334 6.35605 6 7.22005 6C8.08505 6 8.89405 6.334 9.50005 6.94L11.292 8.736C11.668 9.113 12.332 9.113 12.708 8.736L14.5 6.941C15.712 5.728 17.848 5.726 19.06 6.941C20.319 8.201 20.319 10.252 19.06 11.514L12 18.585L4.94105 11.514C3.68205 10.252 3.68205 8.201 4.94005 6.941Z" fill="white"/>
</mask>
<g mask="url(#mask0_11506_95283)">
</g>
</g>
</svg>
