<svg width="24" height="24" viewBox="0 0 24 24" fill="none" xmlns="http://www.w3.org/2000/svg">
<path d="M20.3365 4.53492C19.3704 3.55944 18.0257 3 16.6472 3C16.2977 3 15.9515 3.03608 15.6184 3.10732C13.7275 3.5113 12.5596 4.88303 11.9999 5.73251C11.4403 4.88303 10.2723 3.5113 8.38148 3.10732C8.04829 3.03608 7.70217 3 7.35266 3C5.97398 3 4.62924 3.55944 3.66317 4.53483C2.86183 5.34398 1.92362 6.83543 2.00494 9.34582C2.16316 14.2388 8.54135 19.565 11.8006 20.9531C11.8604 20.9832 11.9279 21 11.9988 21H12.0011C12.0017 21 12.0024 21 12.0028 21C12.0779 21 12.1485 20.9813 12.21 20.9486C15.4727 19.5534 21.837 14.2334 21.9951 9.3459C22.0762 6.83551 21.1379 5.34406 20.3365 4.53492Z" stroke="black" stroke-width="1.8" stroke-linecap="round" stroke-linejoin="round"/>
</svg>
