<svg width="24" height="24" viewBox="0 0 24 24" fill="none" xmlns="http://www.w3.org/2000/svg">
<g id="icon/general/24x24/fill/home-fill">
<path id="&#240;&#159;&#142;&#168; Icon &#208;&#161;olor" fill-rule="evenodd" clip-rule="evenodd" d="M12.715 2.30071L20.424 10.1847C20.79 10.5607 21 11.0847 21 11.6237V19.9997C21 21.1027 20.153 21.9997 19.112 21.9997H16V12.9997C16 12.4477 15.553 11.9997 15 11.9997H9C8.447 11.9997 8 12.4477 8 12.9997V21.9997H4.889C3.848 21.9997 3 21.1027 3 19.9997V11.6237C3 11.0847 3.21 10.5607 3.575 10.1857L11.285 2.30071C11.662 1.91571 12.338 1.91571 12.715 2.30071ZM14.0002 21.0001H10.0002V14.0001H14.0002V21.0001Z" fill="#383B46"/>
<mask id="mask0_11506_95755" style="mask-type:luminance" maskUnits="userSpaceOnUse" x="3" y="2" width="18" height="20">
<path id="&#240;&#159;&#142;&#168; Icon &#208;&#161;olor_2" fill-rule="evenodd" clip-rule="evenodd" d="M12.715 2.30071L20.424 10.1847C20.79 10.5607 21 11.0847 21 11.6237V19.9997C21 21.1027 20.153 21.9997 19.112 21.9997H16V12.9997C16 12.4477 15.553 11.9997 15 11.9997H9C8.447 11.9997 8 12.4477 8 12.9997V21.9997H4.889C3.848 21.9997 3 21.1027 3 19.9997V11.6237C3 11.0847 3.21 10.5607 3.575 10.1857L11.285 2.30071C11.662 1.91571 12.338 1.91571 12.715 2.30071ZM14.0002 21.0001H10.0002V14.0001H14.0002V21.0001Z" fill="white"/>
</mask>
<g mask="url(#mask0_11506_95755)">
</g>
</g>
</svg>
