<svg width="24" height="24" viewBox="0 0 24 24" fill="none" xmlns="http://www.w3.org/2000/svg">
<path fill-rule="evenodd" clip-rule="evenodd" d="M12 22C17.5228 22 22 17.5228 22 12C22 6.47715 17.5228 2 12 2C6.47715 2 2 6.47715 2 12C2 17.5228 6.47715 22 12 22ZM12.25 9C12.8023 9 13.25 8.55228 13.25 8C13.25 7.44772 12.8023 7 12.25 7C11.6977 7 11.25 7.44772 11.25 8C11.25 8.55228 11.6977 9 12.25 9ZM14 15.5H13V11.75C13 11.34 12.66 11 12.25 11H11C10.72 11 10.5 11.22 10.5 11.5V12C10.5 12.28 10.72 12.5 11 12.5H11.5V15.5H10.5C10.22 15.5 10 15.72 10 16V16.5C10 16.78 10.22 17 10.5 17H14C14.28 17 14.5 16.78 14.5 16.5V16C14.5 15.72 14.28 15.5 14 15.5Z" fill="black"/>
</svg>
