<svg width="24" height="24" viewBox="0 0 24 24" fill="none" xmlns="http://www.w3.org/2000/svg">
<circle cx="12" cy="12" r="10" stroke="black" stroke-width="1.8"/>
<path fill-rule="evenodd" clip-rule="evenodd" d="M11.25 7.75C11.25 7.33579 11.5858 7 12 7C12.4142 7 12.75 7.33579 12.75 7.75C12.75 8.16421 12.4142 8.5 12 8.5C11.5858 8.5 11.25 8.16421 11.25 7.75ZM12.5 15.25C12.5 15.3881 12.6119 15.5 12.75 15.5H13.75C13.8881 15.5 14 15.6119 14 15.75V16.25C14 16.3881 13.8881 16.5 13.75 16.5H10.25C10.1119 16.5 10 16.3881 10 16.25V15.75C10 15.6119 10.1119 15.5 10.25 15.5H11.25C11.3881 15.5 11.5 15.3881 11.5 15.25V12.25C11.5 12.1119 11.3881 12 11.25 12H10.75C10.6119 12 10.5 11.8881 10.5 11.75V11.25C10.5 11.1119 10.6119 11 10.75 11H12C12.2761 11 12.5 11.2239 12.5 11.5V15.25Z" fill="black"/>
<path d="M12 6.75C11.4477 6.75 11 7.19772 11 7.75H11.5C11.5 7.47386 11.7239 7.25 12 7.25V6.75ZM13 7.75C13 7.19772 12.5523 6.75 12 6.75V7.25C12.2761 7.25 12.5 7.47386 12.5 7.75H13ZM12 8.75C12.5523 8.75 13 8.30228 13 7.75H12.5C12.5 8.02614 12.2761 8.25 12 8.25V8.75ZM11 7.75C11 8.30228 11.4477 8.75 12 8.75V8.25C11.7239 8.25 11.5 8.02614 11.5 7.75H11ZM12.75 15.25H12.25C12.25 15.5261 12.4739 15.75 12.75 15.75V15.25ZM13.75 15.25H12.75V15.75H13.75V15.25ZM14.25 15.75C14.25 15.4739 14.0261 15.25 13.75 15.25V15.75H14.25ZM14.25 16.25V15.75H13.75V16.25H14.25ZM13.75 16.75C14.0261 16.75 14.25 16.5261 14.25 16.25H13.75V16.75ZM10.25 16.75H13.75V16.25H10.25V16.75ZM9.75 16.25C9.75 16.5261 9.97386 16.75 10.25 16.75V16.25H9.75ZM9.75 15.75V16.25H10.25V15.75H9.75ZM10.25 15.25C9.97386 15.25 9.75 15.4739 9.75 15.75H10.25H10.25V15.25ZM11.25 15.25H10.25V15.75H11.25V15.25ZM11.25 15.25V15.75C11.5261 15.75 11.75 15.5261 11.75 15.25H11.25ZM11.25 12.25V15.25H11.75V12.25H11.25ZM11.25 12.25H11.75C11.75 11.9739 11.5261 11.75 11.25 11.75V12.25ZM10.75 12.25H11.25V11.75H10.75V12.25ZM10.25 11.75C10.25 12.0261 10.4739 12.25 10.75 12.25V11.75H10.25ZM10.25 11.25V11.75H10.75V11.25H10.25ZM10.75 10.75C10.4739 10.75 10.25 10.9739 10.25 11.25H10.75V10.75ZM12 10.75H10.75V11.25H12V10.75ZM12.75 11.5C12.75 11.0858 12.4142 10.75 12 10.75V11.25C12.1381 11.25 12.25 11.3619 12.25 11.5H12.75ZM12.75 15.25V11.5H12.25V15.25H12.75Z" fill="black"/>
</svg>
