<svg width="24" height="24" viewBox="0 0 24 24" fill="none" xmlns="http://www.w3.org/2000/svg">
<path d="M21.8588 15.0947L20.4618 15.7285C19.2819 16.2574 18.2658 16.5804 17.3153 16.7258C17.2498 16.7783 17.1637 16.7863 17.0859 16.7581C16.6803 16.8106 16.2829 16.8307 15.8896 16.8186C15.6765 16.8106 15.4635 16.7904 15.2505 16.7661V16.8994C15.3939 17.0245 15.5495 17.1416 15.7093 17.2506L16.9589 18.1187C17.0654 18.1954 17.09 18.3407 17.0162 18.4457L15.1275 21.0781L14.5417 21.9017C14.4638 22.0067 14.3164 22.0309 14.2098 21.9582L12.9562 21.0821C11.8991 20.3392 11.1084 19.6327 10.5021 18.8979C10.4283 18.8696 10.3792 18.801 10.3628 18.7243C10.1129 18.4013 9.89574 18.0702 9.71137 17.727C9.61305 17.5413 9.52291 17.3516 9.43688 17.1537L9.31806 17.2224C9.28119 17.4081 9.25661 17.5978 9.23613 17.7916L9.09683 19.2935C9.08454 19.4227 8.96982 19.5156 8.83872 19.5075L5.58164 19.2088L4.5656 19.1199C4.43449 19.1078 4.34026 18.9907 4.35255 18.8615L4.49185 17.3516C4.61886 16.0798 4.84009 15.0502 5.18424 14.1661C5.17195 14.0894 5.20472 14.0126 5.26618 13.9602C5.42596 13.5847 5.60622 13.2375 5.81517 12.9064C5.92988 12.7287 6.04869 12.5551 6.1798 12.3856L6.06099 12.321C5.88072 12.3815 5.70045 12.4542 5.52019 12.535L4.13132 13.1648C4.01251 13.2173 3.86911 13.1688 3.81585 13.0517L2.44747 10.1246L2.02139 9.21218C1.96813 9.0951 2.01729 8.95379 2.1361 8.9013L3.53316 8.26743C4.71309 7.73853 5.72913 7.41554 6.67963 7.2702C6.74518 7.21771 6.83121 7.20963 6.90906 7.2379C7.31465 7.18541 7.71206 7.16522 8.10537 7.17733C8.31841 7.18541 8.53145 7.2056 8.74449 7.22982V7.09659C8.6011 6.97143 8.44541 6.85434 8.28563 6.74533L7.03606 5.8773C6.92954 5.80058 6.90496 5.65524 6.9787 5.55027L8.8674 2.91789L9.45736 2.0983C9.5352 1.99332 9.68269 1.9691 9.78921 2.04177L11.0429 2.91789C12.0999 3.66077 12.8906 4.36731 13.497 5.10212C13.5707 5.13038 13.6199 5.19901 13.6363 5.27572C13.8862 5.59871 14.1033 5.92978 14.2877 6.27296C14.386 6.45868 14.4761 6.64844 14.5622 6.84627L14.681 6.77763C14.7179 6.59191 14.7424 6.40216 14.7629 6.20836L14.9022 4.70645C14.9145 4.57726 15.0292 4.4844 15.1603 4.49247L18.4174 4.7872L19.4334 4.88006C19.5646 4.89217 19.6588 5.00522 19.6506 5.13442L19.5113 6.6444C19.3843 7.91618 19.163 8.94571 18.8189 9.8299C18.8312 9.90661 18.7984 9.98332 18.737 10.0358C18.5772 10.4113 18.3969 10.7585 18.188 11.0896C18.0733 11.2672 17.9544 11.4408 17.8233 11.6104L17.9422 11.675C18.1224 11.6144 18.3027 11.5418 18.483 11.461L19.8718 10.8312C19.9906 10.7787 20.134 10.8271 20.1873 10.9442L21.5557 13.8713L21.9818 14.7838C22.0309 14.9009 21.9777 15.0422 21.8588 15.0947ZM12.0016 6.06705C12.78 9.99543 9.73595 11.1784 6.06508 11.998C10.117 11.1784 11.1371 14.38 12.0016 17.9289C11.2231 14.0005 14.2672 12.8176 17.9381 11.998C13.8862 12.8176 12.866 9.61592 12.0016 6.06705Z" fill="black"/>
</svg>
