<svg width="24" height="24" viewBox="0 0 24 24" fill="none" xmlns="http://www.w3.org/2000/svg">
<path fill-rule="evenodd" clip-rule="evenodd" d="M3.8 4L3.8 16C3.8 16.1105 3.88954 16.2 4 16.2H4.5V18H4C2.89543 18 2 17.1046 2 16V4C2 2.89543 2.89543 2 4 2H10C11.1046 2 12 2.89543 12 4L12 10.5H10.2L10.2 4C10.2 3.88954 10.1105 3.8 10 3.8L4 3.8C3.88954 3.8 3.8 3.88954 3.8 4ZM8 13.8H20C20.1105 13.8 20.2 13.8895 20.2 14V20C20.2 20.1105 20.1105 20.2 20 20.2H8C7.88954 20.2 7.8 20.1105 7.8 20V14C7.8 13.8895 7.88954 13.8 8 13.8ZM6 14C6 12.8954 6.89543 12 8 12H20C21.1046 12 22 12.8954 22 14V20C22 21.1046 21.1046 22 20 22H8C6.89543 22 6 21.1046 6 20V14Z" fill="black"/>
<path d="M18.75 9.75C18.75 7.26472 16.7353 5.25 14.25 5.25" stroke="black" stroke-width="1.8" stroke-linecap="round"/>
</svg>
