<svg width="24" height="24" viewBox="0 0 24 24" fill="none" xmlns="http://www.w3.org/2000/svg">
<g id="icon/general/24x24/outline/layers">
<path id="&#240;&#159;&#142;&#168; Icon &#208;&#161;olor" fill-rule="evenodd" clip-rule="evenodd" d="M20.3908 10.487C20.7398 10.636 20.9748 10.969 20.9978 11.348C21.0198 11.727 20.8268 12.086 20.4978 12.274L18.2398 13.57L20.3918 14.487C20.7398 14.636 20.9748 14.97 20.9978 15.348C21.0198 15.727 20.8268 16.086 20.4978 16.274L12.4978 20.867C12.3428 20.956 12.1718 21 11.9998 21C11.8278 21 11.6558 20.956 11.5018 20.867L3.50184 16.274C3.17284 16.086 2.97884 15.727 3.00184 15.348C3.02384 14.969 3.25884 14.636 3.60784 14.487L5.75984 13.571L3.50184 12.274C3.17284 12.086 2.97884 11.727 3.00184 11.348C3.02384 10.969 3.25884 10.636 3.60784 10.487L5.75984 9.57101L3.50184 8.27401C3.17284 8.08601 2.97884 7.72701 3.00184 7.34801C3.02384 6.97001 3.25884 6.63601 3.60784 6.48701L11.6078 3.08001C11.8578 2.97301 12.1408 2.97301 12.3908 3.08001L20.3908 6.48701C20.7398 6.63601 20.9748 6.97001 20.9978 7.34801C21.0198 7.72701 20.8268 8.08601 20.4978 8.27401L18.2388 9.57101L20.3908 10.487ZM11.9998 5.08701L17.7598 7.54001L11.9998 10.847L6.23984 7.54001L11.9998 5.08701ZM11.9998 13C11.8278 13 11.6558 12.956 11.5018 12.867L7.93384 10.818L6.23984 11.54L11.9998 14.847L17.7598 11.54L16.0658 10.818L12.4978 12.867C12.3428 12.956 12.1718 13 11.9998 13ZM11.9998 18.847L17.7598 15.54L16.0658 14.818L12.4978 16.867C12.3428 16.956 12.1718 17 11.9998 17C11.8278 17 11.6558 16.956 11.5018 16.867L7.93384 14.819L6.23984 15.54L11.9998 18.847Z" fill="#383B46"/>
<mask id="mask0_11506_94508" style="mask-type:luminance" maskUnits="userSpaceOnUse" x="3" y="2" width="18" height="19">
<path id="&#240;&#159;&#142;&#168; Icon &#208;&#161;olor_2" fill-rule="evenodd" clip-rule="evenodd" d="M20.3908 10.487C20.7398 10.636 20.9748 10.969 20.9978 11.348C21.0198 11.727 20.8268 12.086 20.4978 12.274L18.2398 13.57L20.3918 14.487C20.7398 14.636 20.9748 14.97 20.9978 15.348C21.0198 15.727 20.8268 16.086 20.4978 16.274L12.4978 20.867C12.3428 20.956 12.1718 21 11.9998 21C11.8278 21 11.6558 20.956 11.5018 20.867L3.50184 16.274C3.17284 16.086 2.97884 15.727 3.00184 15.348C3.02384 14.969 3.25884 14.636 3.60784 14.487L5.75984 13.571L3.50184 12.274C3.17284 12.086 2.97884 11.727 3.00184 11.348C3.02384 10.969 3.25884 10.636 3.60784 10.487L5.75984 9.57101L3.50184 8.27401C3.17284 8.08601 2.97884 7.72701 3.00184 7.34801C3.02384 6.97001 3.25884 6.63601 3.60784 6.48701L11.6078 3.08001C11.8578 2.97301 12.1408 2.97301 12.3908 3.08001L20.3908 6.48701C20.7398 6.63601 20.9748 6.97001 20.9978 7.34801C21.0198 7.72701 20.8268 8.08601 20.4978 8.27401L18.2388 9.57101L20.3908 10.487ZM11.9998 5.08701L17.7598 7.54001L11.9998 10.847L6.23984 7.54001L11.9998 5.08701ZM11.9998 13C11.8278 13 11.6558 12.956 11.5018 12.867L7.93384 10.818L6.23984 11.54L11.9998 14.847L17.7598 11.54L16.0658 10.818L12.4978 12.867C12.3428 12.956 12.1718 13 11.9998 13ZM11.9998 18.847L17.7598 15.54L16.0658 14.818L12.4978 16.867C12.3428 16.956 12.1718 17 11.9998 17C11.8278 17 11.6558 16.956 11.5018 16.867L7.93384 14.819L6.23984 15.54L11.9998 18.847Z" fill="white"/>
</mask>
<g mask="url(#mask0_11506_94508)">
</g>
</g>
</svg>
