<svg width="24" height="24" viewBox="0 0 24 24" fill="none" xmlns="http://www.w3.org/2000/svg">
<path d="M13.2 2.4C11.3521 2.4 9.8172 6.21317 8.67421 8.47583C8.50938 8.80211 8.17266 9 7.80711 9H5.4C4.07452 9 3 10.0745 3 11.4V18C3 19.3255 4.07452 20.4 5.4 20.4H16.5616C18.1322 20.4 19.5215 19.3818 19.9945 17.8841L21.8139 12.1227C22.3024 10.5759 21.1478 9 19.5256 9H15.9718C15.2395 9 14.7571 8.23573 14.9884 7.54084C16.0988 4.20428 14.9587 2.4 13.2 2.4Z" stroke="black" stroke-width="1.8"/>
<line x1="8.1" y1="8.4" x2="8.1" y2="20.4" stroke="black" stroke-width="1.8"/>
</svg>
