<svg width="24" height="24" viewBox="0 0 24 24" fill="none" xmlns="http://www.w3.org/2000/svg">
<path fill-rule="evenodd" clip-rule="evenodd" d="M20.0943 4.04714C17.8591 1.81197 14.2352 1.81197 12 4.04714L10.6509 5.3962L12 6.74525L13.349 5.39619C14.8391 3.90607 17.2551 3.90607 18.7452 5.39619C20.2353 6.88631 20.2353 9.30226 18.7452 10.7924L16.7216 12.816C15.2315 14.3061 12.8156 14.3061 11.3255 12.816L9.97641 14.165C12.2116 16.4002 15.8355 16.4002 18.0707 14.165L20.0943 12.1414C22.3294 9.90625 22.3294 6.28232 20.0943 4.04714Z" fill="black"/>
<path fill-rule="evenodd" clip-rule="evenodd" d="M14.0236 10.1179C11.7884 7.88268 8.16444 7.88268 5.92927 10.1179L3.9057 12.1414C1.67052 14.3766 1.67052 18.0005 3.9057 20.2357C6.14087 22.4709 9.76481 22.4709 12 20.2357L13.349 18.8867L12 17.5376L10.6509 18.8867C9.16082 20.3768 6.74486 20.3768 5.25474 18.8867C3.76463 17.3965 3.76463 14.9806 5.25474 13.4905L7.27832 11.4669C8.76843 9.97678 11.1844 9.97678 12.6745 11.4669L14.0236 10.1179Z" fill="black"/>
</svg>
