<svg width="24" height="24" viewBox="0 0 24 24" fill="none" xmlns="http://www.w3.org/2000/svg">
<path fill-rule="evenodd" clip-rule="evenodd" d="M4 5C3.44772 5 3 5.44772 3 6C3 6.55228 3.44772 7 4 7H4.01C4.56228 7 5.01 6.55228 5.01 6C5.01 5.44772 4.56228 5 4.01 5H4ZM8.00999 5C7.45771 5 7.00999 5.44772 7.00999 6C7.00999 6.55228 7.45771 7 8.00999 7H20.01C20.5623 7 21.01 6.55228 21.01 6C21.01 5.44772 20.5623 5 20.01 5H8.00999ZM8.00999 11C7.45771 11 7.00999 11.4477 7.00999 12C7.00999 12.5523 7.45771 13 8.00999 13H20.01C20.5623 13 21.01 12.5523 21.01 12C21.01 11.4477 20.5623 11 20.01 11H8.00999ZM7.00999 18C7.00999 17.4477 7.45771 17 8.00999 17H20.01C20.5623 17 21.01 17.4477 21.01 18C21.01 18.5523 20.5623 19 20.01 19H8.00999C7.45771 19 7.00999 18.5523 7.00999 18ZM3 12C3 11.4477 3.44772 11 4 11H4.01C4.56228 11 5.01 11.4477 5.01 12C5.01 12.5523 4.56228 13 4.01 13H4C3.44772 13 3 12.5523 3 12ZM4 17C3.44772 17 3 17.4477 3 18C3 18.5523 3.44772 19 4 19H4.01C4.56228 19 5.01 18.5523 5.01 18C5.01 17.4477 4.56228 17 4.01 17H4Z" fill="black"/>
</svg>
