<svg width="24" height="24" viewBox="0 0 24 24" fill="none" xmlns="http://www.w3.org/2000/svg">
<path fill-rule="evenodd" clip-rule="evenodd" d="M2.18492 6.30051C2.12944 6.52453 2.1 6.75883 2.1 7.00001V17C2.1 18.6016 3.39837 19.9 5 19.9H19C20.6016 19.9 21.9 18.6016 21.9 17V7.00001C21.9 6.75883 21.8706 6.52453 21.8151 6.30051L12.5622 13.7028C12.2335 13.9657 11.7665 13.9657 11.4378 13.7028L2.18492 6.30051ZM20.8505 4.76705C20.3484 4.35046 19.7034 4.10001 19 4.10001H5C4.29657 4.10001 3.65164 4.35046 3.1495 4.76705L12 11.8474L20.8505 4.76705Z" fill="black"/>
</svg>
