<svg width="24" height="24" viewBox="0 0 24 24" fill="none" xmlns="http://www.w3.org/2000/svg">
<g id="icon/general/24x24/outline/menu-arrow">
<path id="&#240;&#159;&#142;&#168; Icon &#208;&#161;olor" fill-rule="evenodd" clip-rule="evenodd" d="M3.9475 5H20.0515C20.5725 5 20.9995 5.427 20.9995 5.948V6.052C20.9995 6.573 20.5725 7 20.0515 7H3.9475C3.4265 7 2.9995 6.573 2.9995 6.052V5.948C2.9995 5.427 3.4265 5 3.9475 5ZM20.0515 11H5.9135L7.2065 9.707C7.5975 9.316 7.5975 8.684 7.2065 8.293C6.8165 7.902 6.1835 7.902 5.7925 8.293L2.7925 11.293C2.4025 11.684 2.4025 12.316 2.7925 12.707L5.7925 15.707C5.9885 15.902 6.2435 16 6.4995 16C6.7555 16 7.0115 15.902 7.2065 15.707C7.5975 15.316 7.5975 14.684 7.2065 14.293L5.9135 13H20.0515C20.5725 13 20.9995 12.573 20.9995 12.052V11.948C20.9995 11.427 20.5725 11 20.0515 11ZM20.0515 17H3.9475C3.4265 17 2.9995 17.427 2.9995 17.948V18.052C2.9995 18.573 3.4265 19 3.9475 19H20.0515C20.5725 19 20.9995 18.573 20.9995 18.052V17.948C20.9995 17.427 20.5725 17 20.0515 17Z" fill="#383B46"/>
<mask id="mask0_11506_95154" style="mask-type:luminance" maskUnits="userSpaceOnUse" x="2" y="5" width="19" height="14">
<path id="&#240;&#159;&#142;&#168; Icon &#208;&#161;olor_2" fill-rule="evenodd" clip-rule="evenodd" d="M3.9475 5H20.0515C20.5725 5 20.9995 5.427 20.9995 5.948V6.052C20.9995 6.573 20.5725 7 20.0515 7H3.9475C3.4265 7 2.9995 6.573 2.9995 6.052V5.948C2.9995 5.427 3.4265 5 3.9475 5ZM20.0515 11H5.9135L7.2065 9.707C7.5975 9.316 7.5975 8.684 7.2065 8.293C6.8165 7.902 6.1835 7.902 5.7925 8.293L2.7925 11.293C2.4025 11.684 2.4025 12.316 2.7925 12.707L5.7925 15.707C5.9885 15.902 6.2435 16 6.4995 16C6.7555 16 7.0115 15.902 7.2065 15.707C7.5975 15.316 7.5975 14.684 7.2065 14.293L5.9135 13H20.0515C20.5725 13 20.9995 12.573 20.9995 12.052V11.948C20.9995 11.427 20.5725 11 20.0515 11ZM20.0515 17H3.9475C3.4265 17 2.9995 17.427 2.9995 17.948V18.052C2.9995 18.573 3.4265 19 3.9475 19H20.0515C20.5725 19 20.9995 18.573 20.9995 18.052V17.948C20.9995 17.427 20.5725 17 20.0515 17Z" fill="white"/>
</mask>
<g mask="url(#mask0_11506_95154)">
</g>
</g>
</svg>
