<svg width="24" height="24" viewBox="0 0 24 24" fill="none" xmlns="http://www.w3.org/2000/svg">
<g id="icon/general/24x24/fill/message-square-fill">
<path id="&#240;&#159;&#142;&#168; Icon &#208;&#161;olor" fill-rule="evenodd" clip-rule="evenodd" d="M5 3H19C20.654 3 22 4.346 22 6V16C22 17.654 20.654 19 19 19H8.554C8.373 19 8.195 19.049 8.039 19.143L3.515 21.857C3.356 21.953 3.178 22 3 22C2.83 22 2.66 21.957 2.507 21.87C2.194 21.693 2 21.36 2 21V6C2 4.346 3.346 3 5 3ZM8 12C7.448 12 7 11.552 7 11C7 10.448 7.448 10 8 10C8.552 10 9 10.448 9 11C9 11.552 8.552 12 8 12ZM11 11C11 11.552 11.448 12 12 12C12.552 12 13 11.552 13 11C13 10.448 12.552 10 12 10C11.448 10 11 10.448 11 11ZM15 11C15 11.552 15.448 12 16 12C16.552 12 17 11.552 17 11C17 10.448 16.552 10 16 10C15.448 10 15 10.448 15 11Z" fill="#383B46"/>
<mask id="mask0_11506_95814" style="mask-type:luminance" maskUnits="userSpaceOnUse" x="2" y="3" width="20" height="19">
<path id="&#240;&#159;&#142;&#168; Icon &#208;&#161;olor_2" fill-rule="evenodd" clip-rule="evenodd" d="M5 3H19C20.654 3 22 4.346 22 6V16C22 17.654 20.654 19 19 19H8.554C8.373 19 8.195 19.049 8.039 19.143L3.515 21.857C3.356 21.953 3.178 22 3 22C2.83 22 2.66 21.957 2.507 21.87C2.194 21.693 2 21.36 2 21V6C2 4.346 3.346 3 5 3ZM8 12C7.448 12 7 11.552 7 11C7 10.448 7.448 10 8 10C8.552 10 9 10.448 9 11C9 11.552 8.552 12 8 12ZM11 11C11 11.552 11.448 12 12 12C12.552 12 13 11.552 13 11C13 10.448 12.552 10 12 10C11.448 10 11 10.448 11 11ZM15 11C15 11.552 15.448 12 16 12C16.552 12 17 11.552 17 11C17 10.448 16.552 10 16 10C15.448 10 15 10.448 15 11Z" fill="white"/>
</mask>
<g mask="url(#mask0_11506_95814)">
</g>
</g>
</svg>
