<svg width="24" height="24" viewBox="0 0 24 24" fill="none" xmlns="http://www.w3.org/2000/svg">
<g id="icon/general/24x24/fill/mic-off-fill">
<path id="&#240;&#159;&#142;&#168; Icon &#208;&#161;olor" fill-rule="evenodd" clip-rule="evenodd" d="M15.5793 12.751C15.8404 12.22 16.0003 11.631 16.0003 11V6C16.0003 3.794 14.2064 2 12.0003 2C10.0524 2 8.43035 3.401 8.07635 5.248L15.5793 12.751ZM19.0002 11C19.0002 10.448 18.5533 10 18.0002 10C17.4473 10 17.0002 10.448 17.0002 11C17.0002 11.909 16.7382 12.75 16.3123 13.484L17.7753 14.947C18.5472 13.823 19.0002 12.464 19.0002 11ZM12.0856 14.9918C12.0577 14.9959 12.0296 15 12.0002 15C9.79425 15 8.00025 13.206 8.00025 11V10.828L12.1562 14.984C12.1325 14.9849 12.1091 14.9883 12.0856 14.9918ZM20.7073 19.293L4.70725 3.293C4.31625 2.902 3.68425 2.902 3.29325 3.293C2.90225 3.684 2.90225 4.316 3.29325 4.707L19.2932 20.707C19.4882 20.902 19.7442 21 20.0002 21C20.2563 21 20.5123 20.902 20.7073 20.707C21.0983 20.316 21.0983 19.684 20.7073 19.293ZM13.0002 20H15.0002C15.5503 20 16.0002 20.45 16.0002 21C16.0002 21.55 15.5503 22 15.0002 22H9.00025C8.45025 22 8.00025 21.55 8.00025 21C8.00025 20.45 8.45025 20 9.00025 20H11.0002V17.92C7.61325 17.432 5.00025 14.52 5.00025 11C5.00025 10.448 5.44725 10 6.00025 10C6.55325 10 7.00025 10.448 7.00025 11C7.00025 13.757 9.24325 16 12.0002 16C12.3623 16 12.7143 15.957 13.0553 15.883L14.6482 17.476C14.1272 17.69 13.5732 17.836 13.0002 17.919V20Z" fill="#383B46"/>
<mask id="mask0_11506_96418" style="mask-type:luminance" maskUnits="userSpaceOnUse" x="3" y="2" width="18" height="20">
<path id="&#240;&#159;&#142;&#168; Icon &#208;&#161;olor_2" fill-rule="evenodd" clip-rule="evenodd" d="M15.5793 12.751C15.8404 12.22 16.0003 11.631 16.0003 11V6C16.0003 3.794 14.2064 2 12.0003 2C10.0524 2 8.43035 3.401 8.07635 5.248L15.5793 12.751ZM19.0002 11C19.0002 10.448 18.5533 10 18.0002 10C17.4473 10 17.0002 10.448 17.0002 11C17.0002 11.909 16.7382 12.75 16.3123 13.484L17.7753 14.947C18.5472 13.823 19.0002 12.464 19.0002 11ZM12.0856 14.9918C12.0577 14.9959 12.0296 15 12.0002 15C9.79425 15 8.00025 13.206 8.00025 11V10.828L12.1562 14.984C12.1325 14.9849 12.1091 14.9883 12.0856 14.9918ZM20.7073 19.293L4.70725 3.293C4.31625 2.902 3.68425 2.902 3.29325 3.293C2.90225 3.684 2.90225 4.316 3.29325 4.707L19.2932 20.707C19.4882 20.902 19.7442 21 20.0002 21C20.2563 21 20.5123 20.902 20.7073 20.707C21.0983 20.316 21.0983 19.684 20.7073 19.293ZM13.0002 20H15.0002C15.5503 20 16.0002 20.45 16.0002 21C16.0002 21.55 15.5503 22 15.0002 22H9.00025C8.45025 22 8.00025 21.55 8.00025 21C8.00025 20.45 8.45025 20 9.00025 20H11.0002V17.92C7.61325 17.432 5.00025 14.52 5.00025 11C5.00025 10.448 5.44725 10 6.00025 10C6.55325 10 7.00025 10.448 7.00025 11C7.00025 13.757 9.24325 16 12.0002 16C12.3623 16 12.7143 15.957 13.0553 15.883L14.6482 17.476C14.1272 17.69 13.5732 17.836 13.0002 17.919V20Z" fill="white"/>
</mask>
<g mask="url(#mask0_11506_96418)">
</g>
</g>
</svg>
