<svg width="24" height="24" viewBox="0 0 24 24" fill="none" xmlns="http://www.w3.org/2000/svg">
<g id="icon/general/24x24/fill/minimize-fill">
<path id="&#240;&#159;&#142;&#168; Icon &#208;&#161;olor" fill-rule="evenodd" clip-rule="evenodd" d="M17.312 15.897L20.707 19.293C21.098 19.684 21.098 20.316 20.707 20.707C20.512 20.902 20.256 21 20 21C19.744 21 19.488 20.902 19.293 20.707L15.897 17.312C14.543 18.365 12.846 19 11 19C6.589 19 3 15.411 3 11C3 6.589 6.589 3 11 3C15.411 3 19 6.589 19 11C19 12.846 18.365 14.543 17.312 15.897ZM8 11C8 11.55 8.45 12 9 12H13C13.55 12 14 11.55 14 11C14 10.45 13.55 10 13 10H9C8.45 10 8 10.45 8 11Z" fill="#383B46"/>
<mask id="mask0_11506_95891" style="mask-type:luminance" maskUnits="userSpaceOnUse" x="3" y="3" width="18" height="18">
<path id="&#240;&#159;&#142;&#168; Icon &#208;&#161;olor_2" fill-rule="evenodd" clip-rule="evenodd" d="M17.312 15.897L20.707 19.293C21.098 19.684 21.098 20.316 20.707 20.707C20.512 20.902 20.256 21 20 21C19.744 21 19.488 20.902 19.293 20.707L15.897 17.312C14.543 18.365 12.846 19 11 19C6.589 19 3 15.411 3 11C3 6.589 6.589 3 11 3C15.411 3 19 6.589 19 11C19 12.846 18.365 14.543 17.312 15.897ZM8 11C8 11.55 8.45 12 9 12H13C13.55 12 14 11.55 14 11C14 10.45 13.55 10 13 10H9C8.45 10 8 10.45 8 11Z" fill="white"/>
</mask>
<g mask="url(#mask0_11506_95891)">
</g>
</g>
</svg>
