<svg width="24" height="24" viewBox="0 0 24 24" fill="none" xmlns="http://www.w3.org/2000/svg">
<g id="icon/general/24x24/outline/monitor">
<path id="&#240;&#159;&#142;&#168; Icon &#208;&#161;olor" fill-rule="evenodd" clip-rule="evenodd" d="M5 3H19C20.654 3 22 4.346 22 6V14C22 15.654 20.654 17 19 17H13V19H17C17.55 19 18 19.45 18 20C18 20.55 17.55 21 17 21H7C6.45 21 6 20.55 6 20C6 19.45 6.45 19 7 19H11V17H5C3.346 17 2 15.654 2 14V6C2 4.346 3.346 3 5 3ZM19 15C19.552 15 20 14.551 20 14V6C20 5.449 19.552 5 19 5H5C4.448 5 4 5.449 4 6V14C4 14.551 4.448 15 5 15H11.913H12.087H19Z" fill="#383B46"/>
<mask id="mask0_11506_95060" style="mask-type:luminance" maskUnits="userSpaceOnUse" x="2" y="3" width="20" height="18">
<path id="&#240;&#159;&#142;&#168; Icon &#208;&#161;olor_2" fill-rule="evenodd" clip-rule="evenodd" d="M5 3H19C20.654 3 22 4.346 22 6V14C22 15.654 20.654 17 19 17H13V19H17C17.55 19 18 19.45 18 20C18 20.55 17.55 21 17 21H7C6.45 21 6 20.55 6 20C6 19.45 6.45 19 7 19H11V17H5C3.346 17 2 15.654 2 14V6C2 4.346 3.346 3 5 3ZM19 15C19.552 15 20 14.551 20 14V6C20 5.449 19.552 5 19 5H5C4.448 5 4 5.449 4 6V14C4 14.551 4.448 15 5 15H11.913H12.087H19Z" fill="white"/>
</mask>
<g mask="url(#mask0_11506_95060)">
</g>
</g>
</svg>
