<svg width="24" height="24" viewBox="0 0 24 24" fill="none" xmlns="http://www.w3.org/2000/svg">
<g id="icon/general/24x24/fill/moon-fill">
<path id="&#240;&#159;&#142;&#168; Icon &#208;&#161;olor" d="M12.2963 22.0001C12.2643 22.0001 12.2333 22.0001 12.2003 21.9991C9.40628 21.9751 6.79828 20.8541 4.85628 18.8461C1.17928 15.0411 1.06428 8.74407 4.59928 4.80907C5.70028 3.58207 7.04428 2.65907 8.59228 2.06607C8.95728 1.92407 9.37228 2.01207 9.65128 2.28807C9.93128 2.56307 10.0243 2.97607 9.88928 3.34407C8.77128 6.39907 9.53228 9.85507 11.8303 12.1481C14.1273 14.4411 17.5933 15.2021 20.6583 14.0861C21.0263 13.9501 21.4393 14.0461 21.7133 14.3241C21.9883 14.6041 22.0743 15.0191 21.9343 15.3841C21.4103 16.7471 20.6243 17.9571 19.5983 18.9801C17.6453 20.9301 15.0543 22.0001 12.2963 22.0001Z" fill="#383B46"/>
<mask id="mask0_11506_95441" style="mask-type:luminance" maskUnits="userSpaceOnUse" x="2" y="1" width="20" height="21">
<path id="&#240;&#159;&#142;&#168; Icon &#208;&#161;olor_2" d="M12.2963 22.0001C12.2643 22.0001 12.2333 22.0001 12.2003 21.9991C9.40628 21.9751 6.79828 20.8541 4.85628 18.8461C1.17928 15.0411 1.06428 8.74407 4.59928 4.80907C5.70028 3.58207 7.04428 2.65907 8.59228 2.06607C8.95728 1.92407 9.37228 2.01207 9.65128 2.28807C9.93128 2.56307 10.0243 2.97607 9.88928 3.34407C8.77128 6.39907 9.53228 9.85507 11.8303 12.1481C14.1273 14.4411 17.5933 15.2021 20.6583 14.0861C21.0263 13.9501 21.4393 14.0461 21.7133 14.3241C21.9883 14.6041 22.0743 15.0191 21.9343 15.3841C21.4103 16.7471 20.6243 17.9571 19.5983 18.9801C17.6453 20.9301 15.0543 22.0001 12.2963 22.0001Z" fill="white"/>
</mask>
<g mask="url(#mask0_11506_95441)">
</g>
</g>
</svg>
