<svg width="24" height="24" viewBox="0 0 24 24" fill="none" xmlns="http://www.w3.org/2000/svg">
<path fill-rule="evenodd" clip-rule="evenodd" d="M21.5817 2.31328C21.7836 2.48428 21.9 2.73544 21.9 3V16C21.9 18.1539 20.1539 19.9 18 19.9C15.8461 19.9 14.1 18.1539 14.1 16C14.1 13.8461 15.8461 12.1 18 12.1C18.7732 12.1 19.4938 12.325 20.1 12.7131V4.06241L9.9 5.76241V18C9.9 20.1539 8.15391 21.9 6 21.9C3.84609 21.9 2.1 20.1539 2.1 18C2.1 15.8461 3.84609 14.1 6 14.1C6.77318 14.1 7.49382 14.325 8.1 14.7131V5C8.1 4.56004 8.41807 4.18457 8.85204 4.11224L20.852 2.11224C21.113 2.06875 21.3799 2.14228 21.5817 2.31328ZM20.1 16C20.1 14.8402 19.1598 13.9 18 13.9C16.8402 13.9 15.9 14.8402 15.9 16C15.9 17.1598 16.8402 18.1 18 18.1C19.1598 18.1 20.1 17.1598 20.1 16ZM6 15.9C7.1598 15.9 8.1 16.8402 8.1 18C8.1 19.1598 7.1598 20.1 6 20.1C4.8402 20.1 3.9 19.1598 3.9 18C3.9 16.8402 4.8402 15.9 6 15.9Z" fill="black"/>
</svg>
