<svg width="24" height="24" viewBox="0 0 24 24" fill="none" xmlns="http://www.w3.org/2000/svg">
<g id="icon/general/24x24/outline/music">
<path id="&#240;&#159;&#142;&#168; Icon &#208;&#161;olor" fill-rule="evenodd" clip-rule="evenodd" d="M18.946 4.00021V14.9922C18.973 15.1642 18.999 15.3352 18.999 15.5142C18.999 17.4402 17.433 19.0062 15.507 19.0062C13.581 19.0062 12.015 17.4402 12.015 15.5142C12.015 13.5882 13.581 12.0222 15.507 12.0222C16.022 12.0222 16.506 12.1402 16.946 12.3402V5.24621L9.97497 6.79621V16.9852L9.97767 17.0031C10.0028 17.1691 10.028 17.3354 10.028 17.5072C10.028 19.4332 8.46097 21.0002 6.53497 21.0002C4.60997 21.0002 3.04297 19.4332 3.04297 17.5072C3.04297 15.5822 4.60997 14.0152 6.53497 14.0152C7.04997 14.0152 7.53397 14.1342 7.97497 14.3342V5.99321C7.97497 5.52521 8.29997 5.11921 8.75797 5.01721L17.73 3.02421C18.024 2.95821 18.335 3.03021 18.572 3.21921C18.809 3.40921 18.946 3.69621 18.946 4.00021ZM15.507 17.0062C14.684 17.0062 14.015 16.3372 14.015 15.5142C14.015 14.6912 14.684 14.0222 15.507 14.0222C16.228 14.0222 16.829 14.5342 16.969 15.2132V15.2142C16.988 15.3112 16.999 15.4112 16.999 15.5142C16.999 16.3372 16.33 17.0062 15.507 17.0062ZM6.53497 19.0002C5.71197 19.0002 5.04297 18.3302 5.04297 17.5072C5.04297 16.6852 5.71197 16.0152 6.53497 16.0152C7.25497 16.0152 7.85697 16.5272 7.99697 17.2062V17.2092C8.01697 17.3052 8.02797 17.4052 8.02797 17.5072C8.02797 18.3302 7.35897 19.0002 6.53497 19.0002Z" fill="#383B46"/>
<mask id="mask0_11506_94122" style="mask-type:luminance" maskUnits="userSpaceOnUse" x="3" y="3" width="16" height="19">
<path id="&#240;&#159;&#142;&#168; Icon &#208;&#161;olor_2" fill-rule="evenodd" clip-rule="evenodd" d="M18.946 4.00021V14.9922C18.973 15.1642 18.999 15.3352 18.999 15.5142C18.999 17.4402 17.433 19.0062 15.507 19.0062C13.581 19.0062 12.015 17.4402 12.015 15.5142C12.015 13.5882 13.581 12.0222 15.507 12.0222C16.022 12.0222 16.506 12.1402 16.946 12.3402V5.24621L9.97497 6.79621V16.9852L9.97767 17.0031C10.0028 17.1691 10.028 17.3354 10.028 17.5072C10.028 19.4332 8.46097 21.0002 6.53497 21.0002C4.60997 21.0002 3.04297 19.4332 3.04297 17.5072C3.04297 15.5822 4.60997 14.0152 6.53497 14.0152C7.04997 14.0152 7.53397 14.1342 7.97497 14.3342V5.99321C7.97497 5.52521 8.29997 5.11921 8.75797 5.01721L17.73 3.02421C18.024 2.95821 18.335 3.03021 18.572 3.21921C18.809 3.40921 18.946 3.69621 18.946 4.00021ZM15.507 17.0062C14.684 17.0062 14.015 16.3372 14.015 15.5142C14.015 14.6912 14.684 14.0222 15.507 14.0222C16.228 14.0222 16.829 14.5342 16.969 15.2132V15.2142C16.988 15.3112 16.999 15.4112 16.999 15.5142C16.999 16.3372 16.33 17.0062 15.507 17.0062ZM6.53497 19.0002C5.71197 19.0002 5.04297 18.3302 5.04297 17.5072C5.04297 16.6852 5.71197 16.0152 6.53497 16.0152C7.25497 16.0152 7.85697 16.5272 7.99697 17.2062V17.2092C8.01697 17.3052 8.02797 17.4052 8.02797 17.5072C8.02797 18.3302 7.35897 19.0002 6.53497 19.0002Z" fill="white"/>
</mask>
<g mask="url(#mask0_11506_94122)">
</g>
</g>
</svg>
