<svg width="24" height="24" viewBox="0 0 24 24" fill="none" xmlns="http://www.w3.org/2000/svg">
<g id="icon/general/24x24/fill/music-fill">
<path id="&#240;&#159;&#142;&#168; Icon &#208;&#161;olor" d="M18.9479 14.9922V4.0002C18.9479 3.6972 18.8099 3.4092 18.5739 3.2202C18.3369 3.0302 18.0249 2.9582 17.7309 3.0242L8.75992 5.0172C8.30192 5.1192 7.97592 5.5252 7.97592 5.9932V14.3342C7.53592 14.1342 7.05192 14.0152 6.53692 14.0152C4.61092 14.0152 3.04492 15.5822 3.04492 17.5082C3.04492 19.4332 4.61092 21.0002 6.53692 21.0002C8.46292 21.0002 10.0289 19.4332 10.0289 17.5082C10.0289 17.3292 10.0029 17.1582 9.97592 16.9862V6.7962L16.9479 5.2462V12.3412C16.5079 12.1402 16.0229 12.0222 15.5089 12.0222C13.5829 12.0222 12.0159 13.5882 12.0159 15.5142C12.0159 17.4402 13.5829 19.0062 15.5089 19.0062C17.4339 19.0062 19.0009 17.4402 19.0009 15.5142C19.0009 15.3352 18.9739 15.1642 18.9479 14.9922Z" fill="#383B46"/>
<mask id="mask0_11506_95942" style="mask-type:luminance" maskUnits="userSpaceOnUse" x="3" y="3" width="16" height="19">
<path id="&#240;&#159;&#142;&#168; Icon &#208;&#161;olor_2" d="M18.9479 14.9922V4.0002C18.9479 3.6972 18.8099 3.4092 18.5739 3.2202C18.3369 3.0302 18.0249 2.9582 17.7309 3.0242L8.75992 5.0172C8.30192 5.1192 7.97592 5.5252 7.97592 5.9932V14.3342C7.53592 14.1342 7.05192 14.0152 6.53692 14.0152C4.61092 14.0152 3.04492 15.5822 3.04492 17.5082C3.04492 19.4332 4.61092 21.0002 6.53692 21.0002C8.46292 21.0002 10.0289 19.4332 10.0289 17.5082C10.0289 17.3292 10.0029 17.1582 9.97592 16.9862V6.7962L16.9479 5.2462V12.3412C16.5079 12.1402 16.0229 12.0222 15.5089 12.0222C13.5829 12.0222 12.0159 13.5882 12.0159 15.5142C12.0159 17.4402 13.5829 19.0062 15.5089 19.0062C17.4339 19.0062 19.0009 17.4402 19.0009 15.5142C19.0009 15.3352 18.9739 15.1642 18.9479 14.9922Z" fill="white"/>
</mask>
<g mask="url(#mask0_11506_95942)">
</g>
</g>
</svg>
