<svg width="24" height="24" viewBox="0 0 24 24" fill="none" xmlns="http://www.w3.org/2000/svg">
<g id="icon/general/24x24/outline/navigation-2">
<path id="&#240;&#159;&#142;&#168; Icon &#208;&#161;olor" fill-rule="evenodd" clip-rule="evenodd" d="M14.6059 20.9975C14.6259 20.9985 14.6459 20.9995 14.6669 20.9995C15.0949 20.9995 15.4779 20.7265 15.6149 20.3165L20.9489 4.31649C21.0679 3.95649 20.9749 3.56049 20.7069 3.29249C20.4389 3.02449 20.0429 2.92949 19.6829 3.05149L3.68292 8.38449C3.25392 8.52749 2.97392 8.94149 3.00192 9.39349C3.02892 9.84549 3.35692 10.2225 3.80092 10.3125L12.0169 11.9825L13.6859 20.1995C13.7769 20.6425 14.1539 20.9705 14.6059 20.9975ZM13.0639 10.1555L7.86592 9.09849L18.4189 5.58049L14.9009 16.1335L13.8449 10.9355C13.7649 10.5415 13.4579 10.2345 13.0639 10.1555Z" fill="#383B46"/>
<mask id="mask0_11506_94299" style="mask-type:luminance" maskUnits="userSpaceOnUse" x="3" y="2" width="18" height="19">
<path id="&#240;&#159;&#142;&#168; Icon &#208;&#161;olor_2" fill-rule="evenodd" clip-rule="evenodd" d="M14.6059 20.9975C14.6259 20.9985 14.6459 20.9995 14.6669 20.9995C15.0949 20.9995 15.4779 20.7265 15.6149 20.3165L20.9489 4.31649C21.0679 3.95649 20.9749 3.56049 20.7069 3.29249C20.4389 3.02449 20.0429 2.92949 19.6829 3.05149L3.68292 8.38449C3.25392 8.52749 2.97392 8.94149 3.00192 9.39349C3.02892 9.84549 3.35692 10.2225 3.80092 10.3125L12.0169 11.9825L13.6859 20.1995C13.7769 20.6425 14.1539 20.9705 14.6059 20.9975ZM13.0639 10.1555L7.86592 9.09849L18.4189 5.58049L14.9009 16.1335L13.8449 10.9355C13.7649 10.5415 13.4579 10.2345 13.0639 10.1555Z" fill="white"/>
</mask>
<g mask="url(#mask0_11506_94299)">
</g>
</g>
</svg>
