<svg width="24" height="24" viewBox="0 0 24 24" fill="none" xmlns="http://www.w3.org/2000/svg">
<g id="icon/general/24x24/outline/navigation">
<path id="&#240;&#159;&#142;&#168; Icon &#208;&#161;olor" fill-rule="evenodd" clip-rule="evenodd" d="M19.4482 20.8342C19.6162 20.9452 19.8082 21.0002 20.0002 21.0002C20.2382 21.0002 20.4752 20.9152 20.6632 20.7492C21.0022 20.4482 21.0972 19.9582 20.8952 19.5532L12.8952 3.55318C12.5562 2.87518 11.4442 2.87518 11.1052 3.55318L3.10523 19.5532C2.90323 19.9582 2.99823 20.4482 3.33723 20.7492C3.67623 21.0492 4.17423 21.0832 4.55223 20.8342L12.0002 15.9012L19.4482 20.8342ZM12.5522 13.8682C12.3852 13.7582 12.1922 13.7022 12.0002 13.7022C11.8082 13.7022 11.6152 13.7582 11.4482 13.8682L6.56823 17.0992L12.0002 6.23618L17.4322 17.0992L12.5522 13.8682Z" fill="#383B46"/>
<mask id="mask0_11506_94406" style="mask-type:luminance" maskUnits="userSpaceOnUse" x="3" y="3" width="18" height="19">
<path id="&#240;&#159;&#142;&#168; Icon &#208;&#161;olor_2" fill-rule="evenodd" clip-rule="evenodd" d="M19.4482 20.8342C19.6162 20.9452 19.8082 21.0002 20.0002 21.0002C20.2382 21.0002 20.4752 20.9152 20.6632 20.7492C21.0022 20.4482 21.0972 19.9582 20.8952 19.5532L12.8952 3.55318C12.5562 2.87518 11.4442 2.87518 11.1052 3.55318L3.10523 19.5532C2.90323 19.9582 2.99823 20.4482 3.33723 20.7492C3.67623 21.0492 4.17423 21.0832 4.55223 20.8342L12.0002 15.9012L19.4482 20.8342ZM12.5522 13.8682C12.3852 13.7582 12.1922 13.7022 12.0002 13.7022C11.8082 13.7022 11.6152 13.7582 11.4482 13.8682L6.56823 17.0992L12.0002 6.23618L17.4322 17.0992L12.5522 13.8682Z" fill="white"/>
</mask>
<g mask="url(#mask0_11506_94406)">
</g>
</g>
</svg>
