<svg width="24" height="24" viewBox="0 0 24 24" fill="none" xmlns="http://www.w3.org/2000/svg">
<g id="icon/general/24x24/outline/percent">
<path id="&#240;&#159;&#142;&#168; Icon &#208;&#161;olor" fill-rule="evenodd" clip-rule="evenodd" d="M19.74 4.26076C19.393 3.91276 18.83 3.91276 18.483 4.26076L4.261 18.4828C4.087 18.6568 4 18.8838 4 19.1118C4 19.3388 4.087 19.5668 4.261 19.7398C4.608 20.0868 5.17 20.0868 5.518 19.7398L19.74 5.51776C20.087 5.16976 20.087 4.60776 19.74 4.26076ZM16.0003 19.0001C15.1733 19.0001 14.5003 18.3271 14.5003 17.5001C14.5003 16.6731 15.1733 16.0001 16.0003 16.0001C16.8273 16.0001 17.5003 16.6731 17.5003 17.5001C17.5003 18.3271 16.8273 19.0001 16.0003 19.0001ZM12.5003 17.5001C12.5003 15.5701 14.0703 14.0001 16.0003 14.0001C17.9303 14.0001 19.5003 15.5701 19.5003 17.5001C19.5003 19.4301 17.9303 21.0001 16.0003 21.0001C14.0703 21.0001 12.5003 19.4301 12.5003 17.5001ZM8.0003 6.00006C8.8273 6.00006 9.5003 6.67306 9.5003 7.50006C9.5003 8.32706 8.8273 9.00006 8.0003 9.00006C7.1733 9.00006 6.5003 8.32706 6.5003 7.50006C6.5003 6.67306 7.1733 6.00006 8.0003 6.00006ZM11.5003 7.50006C11.5003 9.43006 9.9303 11.0001 8.0003 11.0001C6.0703 11.0001 4.5003 9.43006 4.5003 7.50006C4.5003 5.57006 6.0703 4.00006 8.0003 4.00006C9.9303 4.00006 11.5003 5.57006 11.5003 7.50006Z" fill="#383B46"/>
<mask id="mask0_11506_94533" style="mask-type:luminance" maskUnits="userSpaceOnUse" x="4" y="3" width="16" height="18">
<path id="&#240;&#159;&#142;&#168; Icon &#208;&#161;olor_2" fill-rule="evenodd" clip-rule="evenodd" d="M19.74 4.26076C19.393 3.91276 18.83 3.91276 18.483 4.26076L4.261 18.4828C4.087 18.6568 4 18.8838 4 19.1118C4 19.3388 4.087 19.5668 4.261 19.7398C4.608 20.0868 5.17 20.0868 5.518 19.7398L19.74 5.51776C20.087 5.16976 20.087 4.60776 19.74 4.26076ZM16.0003 19.0001C15.1733 19.0001 14.5003 18.3271 14.5003 17.5001C14.5003 16.6731 15.1733 16.0001 16.0003 16.0001C16.8273 16.0001 17.5003 16.6731 17.5003 17.5001C17.5003 18.3271 16.8273 19.0001 16.0003 19.0001ZM12.5003 17.5001C12.5003 15.5701 14.0703 14.0001 16.0003 14.0001C17.9303 14.0001 19.5003 15.5701 19.5003 17.5001C19.5003 19.4301 17.9303 21.0001 16.0003 21.0001C14.0703 21.0001 12.5003 19.4301 12.5003 17.5001ZM8.0003 6.00006C8.8273 6.00006 9.5003 6.67306 9.5003 7.50006C9.5003 8.32706 8.8273 9.00006 8.0003 9.00006C7.1733 9.00006 6.5003 8.32706 6.5003 7.50006C6.5003 6.67306 7.1733 6.00006 8.0003 6.00006ZM11.5003 7.50006C11.5003 9.43006 9.9303 11.0001 8.0003 11.0001C6.0703 11.0001 4.5003 9.43006 4.5003 7.50006C4.5003 5.57006 6.0703 4.00006 8.0003 4.00006C9.9303 4.00006 11.5003 5.57006 11.5003 7.50006Z" fill="white"/>
</mask>
<g mask="url(#mask0_11506_94533)">
</g>
</g>
</svg>
