<svg width="24" height="24" viewBox="0 0 24 24" fill="none" xmlns="http://www.w3.org/2000/svg">
<g id="icon/general/24x24/fill/phone-off-fill">
<path id="&#240;&#159;&#142;&#168; Icon &#208;&#161;olor" fill-rule="evenodd" clip-rule="evenodd" d="M9.273 12.0548C8.971 11.6088 8.701 11.1388 8.474 10.6448C9.713 9.99476 9.717 9.99176 9.854 9.84976C10.087 9.60676 10.182 9.26176 10.107 8.93376L8.738 2.96976C8.661 2.63376 8.417 2.36176 8.091 2.24876C7.854 2.16576 7.608 2.10476 7.365 2.06576C7.116 2.02276 6.86 1.99976 6.599 1.99976C4.063 1.99976 2 4.06376 2 6.59976C2 10.1658 3.229 13.4438 5.271 16.0568L9.273 12.0548ZM21.9351 16.6388C21.8951 16.3888 21.8321 16.1438 21.7501 15.9088C21.6381 15.5828 21.3661 15.3388 21.0301 15.2618L15.0661 13.8928C14.7371 13.8198 14.3931 13.9118 14.1501 14.1458L14.1495 14.1463C14.0071 14.2828 14.0032 14.2865 13.3541 15.5278C12.8601 15.3028 12.3891 15.0328 11.9421 14.7288L7.9431 18.7288C10.5561 20.7708 13.8331 21.9998 17.4001 21.9998C19.9361 21.9998 21.9991 19.9368 21.9991 17.4008C21.9991 17.1418 21.9771 16.8868 21.9351 16.6388ZM18.4819 4.26076C18.8299 3.91276 19.3919 3.91276 19.7389 4.26076C20.0869 4.60776 20.0869 5.16976 19.7389 5.51776L5.5169 19.7398C5.1699 20.0868 4.6069 20.0868 4.2599 19.7398C4.0869 19.5668 3.9999 19.3388 3.9999 19.1118C3.9999 18.8838 4.0869 18.6568 4.2599 18.4828L18.4819 4.26076Z" fill="#383B46"/>
<mask id="mask0_11506_96434" style="mask-type:luminance" maskUnits="userSpaceOnUse" x="2" y="1" width="20" height="21">
<path id="&#240;&#159;&#142;&#168; Icon &#208;&#161;olor_2" fill-rule="evenodd" clip-rule="evenodd" d="M9.273 12.0548C8.971 11.6088 8.701 11.1388 8.474 10.6448C9.713 9.99476 9.717 9.99176 9.854 9.84976C10.087 9.60676 10.182 9.26176 10.107 8.93376L8.738 2.96976C8.661 2.63376 8.417 2.36176 8.091 2.24876C7.854 2.16576 7.608 2.10476 7.365 2.06576C7.116 2.02276 6.86 1.99976 6.599 1.99976C4.063 1.99976 2 4.06376 2 6.59976C2 10.1658 3.229 13.4438 5.271 16.0568L9.273 12.0548ZM21.9351 16.6388C21.8951 16.3888 21.8321 16.1438 21.7501 15.9088C21.6381 15.5828 21.3661 15.3388 21.0301 15.2618L15.0661 13.8928C14.7371 13.8198 14.3931 13.9118 14.1501 14.1458L14.1495 14.1463C14.0071 14.2828 14.0032 14.2865 13.3541 15.5278C12.8601 15.3028 12.3891 15.0328 11.9421 14.7288L7.9431 18.7288C10.5561 20.7708 13.8331 21.9998 17.4001 21.9998C19.9361 21.9998 21.9991 19.9368 21.9991 17.4008C21.9991 17.1418 21.9771 16.8868 21.9351 16.6388ZM18.4819 4.26076C18.8299 3.91276 19.3919 3.91276 19.7389 4.26076C20.0869 4.60776 20.0869 5.16976 19.7389 5.51776L5.5169 19.7398C5.1699 20.0868 4.6069 20.0868 4.2599 19.7398C4.0869 19.5668 3.9999 19.3388 3.9999 19.1118C3.9999 18.8838 4.0869 18.6568 4.2599 18.4828L18.4819 4.26076Z" fill="white"/>
</mask>
<g mask="url(#mask0_11506_96434)">
</g>
</g>
</svg>
