<svg width="24" height="24" viewBox="0 0 24 24" fill="none" xmlns="http://www.w3.org/2000/svg">
<g id="icon/general/24x24/outline/phone-call">
<path id="&#240;&#159;&#142;&#168; Icon &#208;&#161;olor" fill-rule="evenodd" clip-rule="evenodd" d="M22 17.4005C22 17.1415 21.978 16.8865 21.936 16.6385C21.896 16.3885 21.833 16.1435 21.751 15.9085C21.639 15.5835 21.366 15.3385 21.03 15.2615L15.066 13.8925C14.737 13.8195 14.394 13.9125 14.15 14.1455C14.008 14.2825 14.005 14.2865 13.354 15.5275C11.224 14.5565 9.479 12.8185 8.475 10.6435C9.715 9.99549 9.718 9.99249 9.854 9.84949C10.088 9.60649 10.183 9.26149 10.107 8.93349L8.738 2.96949C8.661 2.63349 8.417 2.36149 8.091 2.24849C7.854 2.16649 7.609 2.10449 7.366 2.06549C7.117 2.02249 6.86 2.00049 6.6 2.00049C4.063 2.00049 2 4.06349 2 6.59949C2 15.0915 8.909 22.0005 17.4 22.0005C19.937 22.0005 22 19.9365 22 17.4005ZM19.979 17.0725C19.993 17.1795 20 17.2895 20 17.4005C20 18.8345 18.834 20.0005 17.4 20.0005C10.011 20.0005 4 13.9885 4 6.59949C4 5.16649 5.167 4.00049 6.6 4.00049C6.709 4.00049 6.817 4.00649 6.928 4.02149L7.988 8.64149C7.815 8.73249 7.626 8.83149 7.451 8.92249C6.589 9.37349 5.909 9.72949 6.266 10.5135C7.441 13.8605 10.14 16.5595 13.446 17.7195C14.2883 18.057 14.6151 17.432 15.067 16.5679L15.073 16.5565C15.167 16.3795 15.267 16.1875 15.358 16.0115L19.979 17.0725ZM13 4.00049C16.859 4.00049 20 7.14049 20 11.0005C20 11.5525 20.447 12.0005 21 12.0005C21.553 12.0005 22 11.5525 22 11.0005C22 6.03749 17.963 2.00049 13 2.00049C12.448 2.00049 12 2.44749 12 3.00049C12 3.55249 12.448 4.00049 13 4.00049ZM13 6.00049C12.448 6.00049 12 6.44749 12 7.00049C12 7.55249 12.448 8.00049 13 8.00049C14.654 8.00049 16 9.34549 16 11.0005C16 11.5525 16.447 12.0005 17 12.0005C17.553 12.0005 18 11.5525 18 11.0005C18 8.24349 15.757 6.00049 13 6.00049Z" fill="#383B46"/>
</g>
</svg>
