<svg width="24" height="24" viewBox="0 0 24 24" fill="none" xmlns="http://www.w3.org/2000/svg">
<g id="icon/general/24x24/fill/phone-missed-fill">
<path id="&#240;&#159;&#142;&#168; Icon &#208;&#161;olor" fill-rule="evenodd" clip-rule="evenodd" d="M21.751 15.9088C21.833 16.1438 21.896 16.3888 21.936 16.6388C21.978 16.8868 22 17.1418 22 17.4008C22 19.9368 19.937 21.9998 17.401 21.9998C8.909 21.9998 2 15.0918 2 6.59976C2 4.06376 4.064 1.99976 6.6 1.99976C6.861 1.99976 7.117 2.02276 7.366 2.06576C7.609 2.10476 7.855 2.16576 8.092 2.24876C8.417 2.36176 8.662 2.63376 8.739 2.96976L10.108 8.93376C10.183 9.26176 10.088 9.60676 9.855 9.84976C9.71819 9.99256 9.71401 9.99475 8.48012 10.6421L8.475 10.6448C9.466 12.8068 11.215 14.5528 13.355 15.5278C14.0041 14.2865 14.008 14.2828 14.1504 14.1463L14.151 14.1458C14.394 13.9118 14.738 13.8198 15.067 13.8928L21.031 15.2618C21.367 15.3388 21.639 15.5828 21.751 15.9088ZM17.2683 8.69826C16.8643 9.10026 16.2053 9.10026 15.8023 8.69826C15.4003 8.29526 15.4003 7.63626 15.8023 7.23226L16.5353 6.50026L15.8023 5.76726C15.4003 5.36426 15.4003 4.70526 15.8023 4.30226C16.2053 3.89926 16.8643 3.89926 17.2683 4.30226L18.0003 5.03526L18.7333 4.30226C19.1363 3.89926 19.7953 3.89926 20.1983 4.30226C20.6013 4.70526 20.6013 5.36426 20.1983 5.76726L19.4653 6.50026L20.1983 7.23226C20.6013 7.63626 20.6013 8.29526 20.1983 8.69826C19.7953 9.10026 19.1363 9.10026 18.7333 8.69826L18.0003 7.96526L17.2683 8.69826Z" fill="#383B46"/>
<mask id="mask0_11506_96335" style="mask-type:luminance" maskUnits="userSpaceOnUse" x="2" y="1" width="20" height="21">
<path id="&#240;&#159;&#142;&#168; Icon &#208;&#161;olor_2" fill-rule="evenodd" clip-rule="evenodd" d="M21.751 15.9088C21.833 16.1438 21.896 16.3888 21.936 16.6388C21.978 16.8868 22 17.1418 22 17.4008C22 19.9368 19.937 21.9998 17.401 21.9998C8.909 21.9998 2 15.0918 2 6.59976C2 4.06376 4.064 1.99976 6.6 1.99976C6.861 1.99976 7.117 2.02276 7.366 2.06576C7.609 2.10476 7.855 2.16576 8.092 2.24876C8.417 2.36176 8.662 2.63376 8.739 2.96976L10.108 8.93376C10.183 9.26176 10.088 9.60676 9.855 9.84976C9.71819 9.99256 9.71401 9.99475 8.48012 10.6421L8.475 10.6448C9.466 12.8068 11.215 14.5528 13.355 15.5278C14.0041 14.2865 14.008 14.2828 14.1504 14.1463L14.151 14.1458C14.394 13.9118 14.738 13.8198 15.067 13.8928L21.031 15.2618C21.367 15.3388 21.639 15.5828 21.751 15.9088ZM17.2683 8.69826C16.8643 9.10026 16.2053 9.10026 15.8023 8.69826C15.4003 8.29526 15.4003 7.63626 15.8023 7.23226L16.5353 6.50026L15.8023 5.76726C15.4003 5.36426 15.4003 4.70526 15.8023 4.30226C16.2053 3.89926 16.8643 3.89926 17.2683 4.30226L18.0003 5.03526L18.7333 4.30226C19.1363 3.89926 19.7953 3.89926 20.1983 4.30226C20.6013 4.70526 20.6013 5.36426 20.1983 5.76726L19.4653 6.50026L20.1983 7.23226C20.6013 7.63626 20.6013 8.29526 20.1983 8.69826C19.7953 9.10026 19.1363 9.10026 18.7333 8.69826L18.0003 7.96526L17.2683 8.69826Z" fill="white"/>
</mask>
<g mask="url(#mask0_11506_96335)">
</g>
</g>
</svg>
