<svg width="24" height="24" viewBox="0 0 24 24" fill="none" xmlns="http://www.w3.org/2000/svg">
<g id="icon/general/24x24/outline/pie-chart">
<path id="&#240;&#159;&#142;&#168; Icon &#208;&#161;olor" fill-rule="evenodd" clip-rule="evenodd" d="M11.9997 3C11.9997 2.447 12.4477 2 12.9997 2C17.9617 2 21.9997 6.037 21.9997 11C21.9997 11.553 21.5517 12 20.9997 12H12.9997C12.4477 12 11.9997 11.553 11.9997 11V3ZM20.821 14.0576C20.298 13.8716 19.728 14.1446 19.545 14.6666C18.417 17.8566 15.384 19.9996 12 19.9996C7.589 19.9996 4 16.4116 4 11.9996C4 8.6156 6.143 5.5826 9.333 4.4546C9.854 4.2716 10.127 3.7006 9.943 3.1796C9.759 2.6596 9.188 2.3856 8.667 2.5706C4.679 3.9796 2 7.7686 2 11.9996C2 17.5136 6.486 21.9996 12 21.9996C16.231 21.9996 20.02 19.3216 21.43 15.3326C21.614 14.8126 21.342 14.2416 20.821 14.0576ZM13.9997 10V4.071C17.0607 4.511 19.4887 6.938 19.9287 10H13.9997Z" fill="#383B46"/>
<mask id="mask0_11506_93799" style="mask-type:luminance" maskUnits="userSpaceOnUse" x="2" y="2" width="20" height="20">
<path id="&#240;&#159;&#142;&#168; Icon &#208;&#161;olor_2" fill-rule="evenodd" clip-rule="evenodd" d="M11.9997 3C11.9997 2.447 12.4477 2 12.9997 2C17.9617 2 21.9997 6.037 21.9997 11C21.9997 11.553 21.5517 12 20.9997 12H12.9997C12.4477 12 11.9997 11.553 11.9997 11V3ZM20.821 14.0576C20.298 13.8716 19.728 14.1446 19.545 14.6666C18.417 17.8566 15.384 19.9996 12 19.9996C7.589 19.9996 4 16.4116 4 11.9996C4 8.6156 6.143 5.5826 9.333 4.4546C9.854 4.2716 10.127 3.7006 9.943 3.1796C9.759 2.6596 9.188 2.3856 8.667 2.5706C4.679 3.9796 2 7.7686 2 11.9996C2 17.5136 6.486 21.9996 12 21.9996C16.231 21.9996 20.02 19.3216 21.43 15.3326C21.614 14.8126 21.342 14.2416 20.821 14.0576ZM13.9997 10V4.071C17.0607 4.511 19.4887 6.938 19.9287 10H13.9997Z" fill="white"/>
</mask>
<g mask="url(#mask0_11506_93799)">
</g>
</g>
</svg>
