<svg width="24" height="24" viewBox="0 0 24 24" fill="none" xmlns="http://www.w3.org/2000/svg">
<g id="icon/general/24x24/fill/pie-chart-fill">
<path id="&#240;&#159;&#142;&#168; Icon &#208;&#161;olor" fill-rule="evenodd" clip-rule="evenodd" d="M14.5009 10.3325H21.1669C21.6269 10.3325 22.0009 9.96051 22.0009 9.49951C22.0009 5.36451 18.6359 1.99951 14.5009 1.99951C14.0409 1.99951 13.6669 2.37251 13.6669 2.83251V9.49951C13.6669 9.96051 14.0409 10.3325 14.5009 10.3325ZM15.3339 3.72651C17.8849 4.09251 19.9079 6.11551 20.2739 8.66651H15.3339V3.72651ZM12.9349 11.9775H21.0839C21.6259 11.9775 22.0499 12.4495 21.9959 12.9885C21.4519 18.4145 16.5799 22.5665 10.8819 21.9365C6.29694 21.4305 2.56994 17.7035 2.06294 13.1185C1.43494 7.42051 5.58494 2.54751 11.0119 2.00451C11.5519 1.95051 12.0229 2.37351 12.0229 2.91551V11.0665C12.0229 11.5695 12.4309 11.9775 12.9349 11.9775Z" fill="#383B46"/>
<mask id="mask0_11506_95696" style="mask-type:luminance" maskUnits="userSpaceOnUse" x="2" y="1" width="20" height="21">
<path id="&#240;&#159;&#142;&#168; Icon &#208;&#161;olor_2" fill-rule="evenodd" clip-rule="evenodd" d="M14.5009 10.3325H21.1669C21.6269 10.3325 22.0009 9.96051 22.0009 9.49951C22.0009 5.36451 18.6359 1.99951 14.5009 1.99951C14.0409 1.99951 13.6669 2.37251 13.6669 2.83251V9.49951C13.6669 9.96051 14.0409 10.3325 14.5009 10.3325ZM15.3339 3.72651C17.8849 4.09251 19.9079 6.11551 20.2739 8.66651H15.3339V3.72651ZM12.9349 11.9775H21.0839C21.6259 11.9775 22.0499 12.4495 21.9959 12.9885C21.4519 18.4145 16.5799 22.5665 10.8819 21.9365C6.29694 21.4305 2.56994 17.7035 2.06294 13.1185C1.43494 7.42051 5.58494 2.54751 11.0119 2.00451C11.5519 1.95051 12.0229 2.37351 12.0229 2.91551V11.0665C12.0229 11.5695 12.4309 11.9775 12.9349 11.9775Z" fill="white"/>
</mask>
<g mask="url(#mask0_11506_95696)">
</g>
</g>
</svg>
