<svg width="24" height="24" viewBox="0 0 24 24" fill="none" xmlns="http://www.w3.org/2000/svg">
<path fill-rule="evenodd" clip-rule="evenodd" d="M4.40899 4.39364C4.75361 4.08732 5.24147 3.90001 5.76921 3.90001H18.2307C18.7585 3.90001 19.2463 4.08732 19.591 4.39364C19.9321 4.6969 20.1 5.0839 20.1 5.46154V10.5C20.1 10.9971 20.5029 11.4 21 11.4C21.497 11.4 21.9 10.9971 21.9 10.5V5.46154C21.9 4.53351 21.4843 3.6683 20.7868 3.04831C20.0928 2.43138 19.1719 2.10001 18.2307 2.10001H5.76921C4.82805 2.10001 3.90718 2.43138 3.21314 3.04831C2.51564 3.6683 2.09998 4.53351 2.09998 5.46154V16.5385C2.09998 17.4665 2.51564 18.3317 3.21314 18.9517C3.90718 19.5686 4.82805 19.9 5.76921 19.9H7.99998C8.49703 19.9 8.89998 19.4971 8.89998 19C8.89998 18.503 8.49703 18.1 7.99998 18.1H5.76921C5.24147 18.1 4.75361 17.9127 4.40899 17.6064C4.06783 17.3031 3.89998 16.9161 3.89998 16.5385V5.46154C3.89998 5.0839 4.06783 4.6969 4.40899 4.39364ZM10.1 8.82721V8.00001C10.1 7.50295 10.5029 7.10001 11 7.10001C11.497 7.10001 11.9 7.50295 11.9 8.00001V11C11.9 11.4971 11.497 11.9 11 11.9H7.99998C7.50292 11.9 7.09998 11.4971 7.09998 11C7.09998 10.5029 7.50292 10.1 7.99998 10.1H8.82719L6.36358 7.6364C6.01211 7.28493 6.01211 6.71508 6.36358 6.36361C6.71505 6.01214 7.2849 6.01214 7.63637 6.36361L10.1 8.82721ZM20 14.8H13C12.8895 14.8 12.8 14.8895 12.8 15V20C12.8 20.1105 12.8895 20.2 13 20.2H20C20.1104 20.2 20.2 20.1105 20.2 20V15C20.2 14.8895 20.1104 14.8 20 14.8ZM13 13C11.8954 13 11 13.8954 11 15V20C11 21.1046 11.8954 22 13 22H20C21.1045 22 22 21.1046 22 20V15C22 13.8954 21.1045 13 20 13H13Z" fill="black"/>
</svg>
