<svg width="24" height="24" viewBox="0 0 24 24" fill="none" xmlns="http://www.w3.org/2000/svg">
<g id="icon/general/24x24/fill/play-circle-fill">
<path id="&#240;&#159;&#142;&#168; Icon &#208;&#161;olor" fill-rule="evenodd" clip-rule="evenodd" d="M2 11.9998C2 6.48676 6.486 1.99976 12 1.99976C17.514 1.99976 22 6.48676 22 11.9998C22 17.5138 17.514 21.9998 12 21.9998C6.486 21.9998 2 17.5138 2 11.9998ZM15.98 13.1788L12.338 16.5488C12.019 16.8448 11.604 16.9998 11.181 16.9998C10.948 16.9998 10.711 16.9518 10.488 16.8548C9.878 16.5888 9.5 16.0198 9.5 15.3698V8.62976C9.5 7.98076 9.878 7.41076 10.488 7.14576C11.114 6.87076 11.841 6.99076 12.339 7.45176L15.98 10.8218C16.311 11.1268 16.5 11.5568 16.5 11.9998C16.5 12.4438 16.311 12.8728 15.98 13.1788ZM11.5 14.5997L14.309 11.9997L11.5 9.40066V14.5997Z" fill="#383B46"/>
<mask id="mask0_11506_96002" style="mask-type:luminance" maskUnits="userSpaceOnUse" x="2" y="1" width="20" height="21">
<path id="&#240;&#159;&#142;&#168; Icon &#208;&#161;olor_2" fill-rule="evenodd" clip-rule="evenodd" d="M2 11.9998C2 6.48676 6.486 1.99976 12 1.99976C17.514 1.99976 22 6.48676 22 11.9998C22 17.5138 17.514 21.9998 12 21.9998C6.486 21.9998 2 17.5138 2 11.9998ZM15.98 13.1788L12.338 16.5488C12.019 16.8448 11.604 16.9998 11.181 16.9998C10.948 16.9998 10.711 16.9518 10.488 16.8548C9.878 16.5888 9.5 16.0198 9.5 15.3698V8.62976C9.5 7.98076 9.878 7.41076 10.488 7.14576C11.114 6.87076 11.841 6.99076 12.339 7.45176L15.98 10.8218C16.311 11.1268 16.5 11.5568 16.5 11.9998C16.5 12.4438 16.311 12.8728 15.98 13.1788ZM11.5 14.5997L14.309 11.9997L11.5 9.40066V14.5997Z" fill="white"/>
</mask>
<g mask="url(#mask0_11506_96002)">
</g>
</g>
</svg>
