<svg width="24" height="24" viewBox="0 0 24 24" fill="none" xmlns="http://www.w3.org/2000/svg">
<g id="icon/general/24x24/fill/pricetag-fill">
<path id="&#240;&#159;&#142;&#168; Icon &#208;&#161;olor" fill-rule="evenodd" clip-rule="evenodd" d="M15.0512 5.16448L21.4682 11.5815C21.8112 11.9245 22.0002 12.3805 22.0002 12.8665C22.0002 13.3525 21.8112 13.8095 21.4682 14.1515L14.1522 21.4675C13.7972 21.8215 13.3322 21.9985 12.8672 21.9985C12.4022 21.9985 11.9372 21.8215 11.5822 21.4685L5.16517 15.0505C5.00017 14.8865 4.89917 14.6685 4.87617 14.4365L4.00417 5.09248C3.97717 4.79648 4.08217 4.50348 4.29317 4.29248C4.50417 4.08148 4.79617 3.97448 5.09317 4.00448L14.4372 4.87648C14.6692 4.89748 14.8862 4.99948 15.0512 5.16448ZM9.44017 11.5605C10.0262 12.1465 10.9752 12.1465 11.5612 11.5605C12.1472 10.9745 12.1472 10.0245 11.5612 9.43948C10.9752 8.85348 10.0262 8.85348 9.44017 9.43948C8.85417 10.0245 8.85417 10.9745 9.44017 11.5605Z" fill="#383B46"/>
<mask id="mask0_11506_96047" style="mask-type:luminance" maskUnits="userSpaceOnUse" x="4" y="3" width="18" height="19">
<path id="&#240;&#159;&#142;&#168; Icon &#208;&#161;olor_2" fill-rule="evenodd" clip-rule="evenodd" d="M15.0512 5.16448L21.4682 11.5815C21.8112 11.9245 22.0002 12.3805 22.0002 12.8665C22.0002 13.3525 21.8112 13.8095 21.4682 14.1515L14.1522 21.4675C13.7972 21.8215 13.3322 21.9985 12.8672 21.9985C12.4022 21.9985 11.9372 21.8215 11.5822 21.4685L5.16517 15.0505C5.00017 14.8865 4.89917 14.6685 4.87617 14.4365L4.00417 5.09248C3.97717 4.79648 4.08217 4.50348 4.29317 4.29248C4.50417 4.08148 4.79617 3.97448 5.09317 4.00448L14.4372 4.87648C14.6692 4.89748 14.8862 4.99948 15.0512 5.16448ZM9.44017 11.5605C10.0262 12.1465 10.9752 12.1465 11.5612 11.5605C12.1472 10.9745 12.1472 10.0245 11.5612 9.43948C10.9752 8.85348 10.0262 8.85348 9.44017 9.43948C8.85417 10.0245 8.85417 10.9745 9.44017 11.5605Z" fill="white"/>
</mask>
<g mask="url(#mask0_11506_96047)">
</g>
</g>
</svg>
