<svg width="24" height="24" viewBox="0 0 24 24" fill="none" xmlns="http://www.w3.org/2000/svg">
<g id="icon/general/24x24/outline/pricetag">
<path id="&#240;&#159;&#142;&#168; Icon &#208;&#161;olor" fill-rule="evenodd" clip-rule="evenodd" d="M10.5822 20.4685C10.9372 20.8215 11.4012 20.9985 11.8662 20.9985C12.3322 20.9985 12.7972 20.8215 13.1512 20.4675L20.4682 13.1515C20.8112 12.8085 21.0002 12.3525 21.0002 11.8665C21.0002 11.3805 20.8112 10.9245 20.4682 10.5815L14.0512 4.16448C13.8862 3.99948 13.6692 3.89748 13.4372 3.87648L4.09317 3.00448C3.79617 2.97448 3.50417 3.08148 3.29317 3.29248C3.08217 3.50348 2.97717 3.79648 3.00417 4.09248L3.87617 13.4365C3.89817 13.6685 4.00017 13.8865 4.16517 14.0505L10.5822 20.4685ZM5.83417 12.8915L11.8662 18.9245L18.9242 11.8665L12.8922 5.83348L5.10717 5.10748L5.83417 12.8915ZM10.5607 8.43938C11.1467 9.02438 11.1467 9.97538 10.5607 10.5604C9.97467 11.1464 9.02567 11.1464 8.43967 10.5604C7.85367 9.97538 7.85367 9.02438 8.43967 8.43938C9.02567 7.85338 9.97467 7.85338 10.5607 8.43938Z" fill="#383B46"/>
<mask id="mask0_11506_94261" style="mask-type:luminance" maskUnits="userSpaceOnUse" x="3" y="2" width="18" height="19">
<path id="&#240;&#159;&#142;&#168; Icon &#208;&#161;olor_2" fill-rule="evenodd" clip-rule="evenodd" d="M10.5822 20.4685C10.9372 20.8215 11.4012 20.9985 11.8662 20.9985C12.3322 20.9985 12.7972 20.8215 13.1512 20.4675L20.4682 13.1515C20.8112 12.8085 21.0002 12.3525 21.0002 11.8665C21.0002 11.3805 20.8112 10.9245 20.4682 10.5815L14.0512 4.16448C13.8862 3.99948 13.6692 3.89748 13.4372 3.87648L4.09317 3.00448C3.79617 2.97448 3.50417 3.08148 3.29317 3.29248C3.08217 3.50348 2.97717 3.79648 3.00417 4.09248L3.87617 13.4365C3.89817 13.6685 4.00017 13.8865 4.16517 14.0505L10.5822 20.4685ZM5.83417 12.8915L11.8662 18.9245L18.9242 11.8665L12.8922 5.83348L5.10717 5.10748L5.83417 12.8915ZM10.5607 8.43938C11.1467 9.02438 11.1467 9.97538 10.5607 10.5604C9.97467 11.1464 9.02567 11.1464 8.43967 10.5604C7.85367 9.97538 7.85367 9.02438 8.43967 8.43938C9.02567 7.85338 9.97467 7.85338 10.5607 8.43938Z" fill="white"/>
</mask>
<g mask="url(#mask0_11506_94261)">
</g>
</g>
</svg>
