<svg width="24" height="24" viewBox="0 0 24 24" fill="none" xmlns="http://www.w3.org/2000/svg">
<path fill-rule="evenodd" clip-rule="evenodd" d="M12 22C17.5228 22 22 17.5228 22 12C22 6.47715 17.5228 2 12 2C6.47715 2 2 6.47715 2 12C2 17.5228 6.47715 22 12 22ZM12.68 7H11.82C11.07 7 10.35 7.3 9.82 7.82C9.3 8.35 9 9.07 9 9.82C9 10.12 9.24 10.36 9.54 10.36H10.11C10.41 10.36 10.65 10.12 10.65 9.82C10.65 9.17 11.18 8.64 11.83 8.64H12.69C13.34 8.64 13.87 9.17 13.87 9.82C13.86 10.47 13.33 11 12.68 11H12.11C11.65 11 11.29 11.37 11.29 11.82V13.53C11.29 13.83 11.53 14.07 11.83 14.07H12.4C12.7 14.07 12.94 13.83 12.94 13.53V12.68C12.94 12.67 12.94 12.66 12.95 12.65C12.96 12.64 12.98 12.63 13 12.63C14.4 12.47 15.5 11.27 15.5 9.82C15.5 8.26 14.24 7 12.68 7ZM12.11 16C11.5 16 11 16.5 11 17.11C11 17.72 11.5 18.22 12.11 18.22C12.72 18.22 13.22 17.72 13.22 17.11C13.22 16.5 12.72 16 12.11 16Z" fill="black"/>
</svg>
