<svg width="24" height="24" viewBox="0 0 24 24" fill="none" xmlns="http://www.w3.org/2000/svg">
<circle cx="12" cy="12" r="10" stroke="black" stroke-width="1.8"/>
<path fill-rule="evenodd" clip-rule="evenodd" d="M11.7589 7.51786H12.6161C14.0362 7.51786 15.1875 8.66913 15.1875 10.0893C15.1875 11.413 14.1872 12.5031 12.9013 12.6451C12.7445 12.6624 12.6161 12.7886 12.6161 12.9464V13.8036C12.6161 13.9614 12.4882 14.0893 12.3304 14.0893H11.7589C11.6011 14.0893 11.4732 13.9614 11.4732 13.8036V12.0893C11.4732 11.7737 11.7291 11.5179 12.0446 11.5179H12.6161C13.4051 11.5179 14.0446 10.8783 14.0446 10.0893C14.0446 9.30031 13.4051 8.66072 12.6161 8.66072H11.7589C10.97 8.66072 10.3304 9.30031 10.3304 10.0893C10.3304 10.2471 10.2024 10.375 10.0446 10.375H9.47322C9.31542 10.375 9.18751 10.2471 9.18751 10.0893C9.18598 9.40683 9.45641 8.7519 9.93898 8.26933C10.4215 7.78677 11.0765 7.51634 11.7589 7.51786ZM12.9018 16.8571C12.9018 17.3305 12.518 17.7143 12.0446 17.7143C11.5713 17.7143 11.1875 17.3305 11.1875 16.8571C11.1875 16.3838 11.5713 16 12.0446 16C12.518 16 12.9018 16.3838 12.9018 16.8571Z" fill="black"/>
<path d="M11.7589 7.51786L11.7584 7.76786H11.7589V7.51786ZM12.9013 12.6451L12.8739 12.3966H12.8739L12.9013 12.6451ZM9.18751 10.0893H9.43751L9.43751 10.0887L9.18751 10.0893ZM9.93898 8.26933L9.7622 8.09256L9.7622 8.09256L9.93898 8.26933ZM12.6161 7.26786H11.7589V7.76786H12.6161V7.26786ZM15.4375 10.0893C15.4375 8.53105 14.1743 7.26786 12.6161 7.26786V7.76786C13.8982 7.76786 14.9375 8.8072 14.9375 10.0893H15.4375ZM12.9288 12.8936C14.34 12.7378 15.4375 11.5419 15.4375 10.0893H14.9375C14.9375 11.2842 14.0345 12.2685 12.8739 12.3966L12.9288 12.8936ZM12.8661 12.9464C12.8661 12.9378 12.8691 12.9277 12.8796 12.9169C12.8909 12.9052 12.9084 12.8958 12.9288 12.8936L12.8739 12.3966C12.6078 12.4259 12.3661 12.6444 12.3661 12.9464H12.8661ZM12.8661 13.8036V12.9464H12.3661V13.8036H12.8661ZM12.3304 14.3393C12.6262 14.3393 12.8661 14.0994 12.8661 13.8036H12.3661C12.3661 13.8233 12.3501 13.8393 12.3304 13.8393V14.3393ZM11.7589 14.3393H12.3304V13.8393H11.7589V14.3393ZM11.2232 13.8036C11.2232 14.0994 11.4631 14.3393 11.7589 14.3393V13.8393C11.7392 13.8393 11.7232 13.8233 11.7232 13.8036H11.2232ZM11.2232 12.0893V13.8036H11.7232V12.0893H11.2232ZM12.0446 11.2679C11.591 11.2679 11.2232 11.6356 11.2232 12.0893H11.7232C11.7232 11.9118 11.8671 11.7679 12.0446 11.7679V11.2679ZM12.6161 11.2679H12.0446V11.7679H12.6161V11.2679ZM13.7946 10.0893C13.7946 10.7402 13.267 11.2679 12.6161 11.2679V11.7679C13.5431 11.7679 14.2946 11.0163 14.2946 10.0893H13.7946ZM12.6161 8.91072C13.267 8.91072 13.7946 9.43838 13.7946 10.0893H14.2946C14.2946 9.16224 13.5431 8.41072 12.6161 8.41072V8.91072ZM11.7589 8.91072H12.6161V8.41072H11.7589V8.91072ZM10.5804 10.0893C10.5804 9.43838 11.108 8.91072 11.7589 8.91072V8.41072C10.8319 8.41072 10.0804 9.16224 10.0804 10.0893H10.5804ZM10.0446 10.625C10.3405 10.625 10.5804 10.3852 10.5804 10.0893H10.0804C10.0804 10.109 10.0644 10.125 10.0446 10.125V10.625ZM9.47322 10.625H10.0446V10.125H9.47322V10.625ZM8.93751 10.0893C8.93751 10.3852 9.17735 10.625 9.47322 10.625V10.125C9.4535 10.125 9.43751 10.109 9.43751 10.0893H8.93751ZM9.7622 8.09256C9.23262 8.62214 8.93584 9.3409 8.93751 10.0898L9.43751 10.0887C9.43613 9.47277 9.68021 8.88165 10.1158 8.44611L9.7622 8.09256ZM11.7595 7.26786C11.0105 7.26619 10.2918 7.56297 9.7622 8.09256L10.1158 8.44611C10.5513 8.01056 11.1424 7.76649 11.7584 7.76786L11.7595 7.26786ZM12.0446 17.9643C12.6561 17.9643 13.1518 17.4686 13.1518 16.8571H12.6518C12.6518 17.1925 12.38 17.4643 12.0446 17.4643V17.9643ZM10.9375 16.8571C10.9375 17.4686 11.4332 17.9643 12.0446 17.9643V17.4643C11.7093 17.4643 11.4375 17.1925 11.4375 16.8571H10.9375ZM12.0446 15.75C11.4332 15.75 10.9375 16.2457 10.9375 16.8571H11.4375C11.4375 16.5218 11.7093 16.25 12.0446 16.25V15.75ZM13.1518 16.8571C13.1518 16.2457 12.6561 15.75 12.0446 15.75V16.25C12.38 16.25 12.6518 16.5218 12.6518 16.8571H13.1518Z" fill="black"/>
</svg>
