<svg width="24" height="24" viewBox="0 0 24 24" fill="none" xmlns="http://www.w3.org/2000/svg">
<path d="M12 15C13.6569 15 15 13.6569 15 12C15 10.3431 13.6569 9 12 9C10.3431 9 9 10.3431 9 12C9 13.6569 10.3431 15 12 15Z" stroke="black" stroke-width="1.8" stroke-linecap="round" stroke-linejoin="round"/>
<path d="M7.5 6C5.97153 7.43683 5 9.59146 5 12C5 14.4085 5.97153 16.5632 7.5 18M16.5 6C18.0285 7.43683 19 9.59146 19 12C19 14.4085 18.0285 16.5632 16.5 18" stroke="black" stroke-width="1.8" stroke-linecap="round" stroke-linejoin="round"/>
<path d="M4.5 4C2.34655 5.99632 1 8.84182 1 12C1 15.1582 2.34655 18.0037 4.5 20M19.5 4C21.6534 5.99632 23 8.84182 23 12C23 15.1582 21.6534 18.0037 19.5 20" stroke="black" stroke-width="1.8" stroke-linecap="round" stroke-linejoin="round"/>
</svg>
