<svg width="24" height="24" viewBox="0 0 24 24" fill="none" xmlns="http://www.w3.org/2000/svg">
<g id="icon/general/24x24/outline/radio-button-on">
<path id="&#240;&#159;&#142;&#168; Icon &#208;&#161;olor" fill-rule="evenodd" clip-rule="evenodd" d="M2 12C2 6.486 6.486 2 12 2C17.514 2 22 6.486 22 12C22 17.514 17.514 22 12 22C6.486 22 2 17.514 2 12ZM12 20C7.589 20 4 16.411 4 12C4 7.589 7.589 4 12 4C16.411 4 20 7.589 20 12C20 16.411 16.411 20 12 20ZM7 12C7 9.243 9.243 7 12 7C14.757 7 17 9.243 17 12C17 14.757 14.757 17 12 17C9.243 17 7 14.757 7 12ZM9 12C9 13.654 10.346 15 12 15C13.654 15 15 13.654 15 12C15 10.346 13.654 9 12 9C10.346 9 9 10.346 9 12Z" fill="#383B46"/>
<mask id="mask0_11506_94322" style="mask-type:luminance" maskUnits="userSpaceOnUse" x="2" y="2" width="20" height="20">
<path id="&#240;&#159;&#142;&#168; Icon &#208;&#161;olor_2" fill-rule="evenodd" clip-rule="evenodd" d="M2 12C2 6.486 6.486 2 12 2C17.514 2 22 6.486 22 12C22 17.514 17.514 22 12 22C6.486 22 2 17.514 2 12ZM12 20C7.589 20 4 16.411 4 12C4 7.589 7.589 4 12 4C16.411 4 20 7.589 20 12C20 16.411 16.411 20 12 20ZM7 12C7 9.243 9.243 7 12 7C14.757 7 17 9.243 17 12C17 14.757 14.757 17 12 17C9.243 17 7 14.757 7 12ZM9 12C9 13.654 10.346 15 12 15C13.654 15 15 13.654 15 12C15 10.346 13.654 9 12 9C10.346 9 9 10.346 9 12Z" fill="white"/>
</mask>
<g mask="url(#mask0_11506_94322)">
</g>
</g>
</svg>
