<svg width="24" height="24" viewBox="0 0 24 24" fill="none" xmlns="http://www.w3.org/2000/svg">
<g id="icon/general/24x24/outline/recording">
<path id="&#240;&#159;&#142;&#168; Icon &#208;&#161;olor" fill-rule="evenodd" clip-rule="evenodd" d="M14 12C14 9.794 15.794 8 18 8C20.206 8 22 9.794 22 12C22 14.206 20.206 16 18 16H6C3.794 16 2 14.206 2 12C2 9.794 3.794 8 6 8C8.206 8 10 9.794 10 12C10 12.731 9.788 13.409 9.443 14H14.557C14.212 13.409 14 12.731 14 12ZM4 12C4 10.897 4.897 10 6 10C7.103 10 8 10.897 8 12C8 13.103 7.103 14 6 14C4.897 14 4 13.103 4 12ZM18 14C16.897 14 16 13.103 16 12C16 10.897 16.897 10 18 10C19.103 10 20 10.897 20 12C20 13.103 19.103 14 18 14Z" fill="#383B46"/>
<mask id="mask0_11506_94086" style="mask-type:luminance" maskUnits="userSpaceOnUse" x="2" y="8" width="20" height="8">
<path id="&#240;&#159;&#142;&#168; Icon &#208;&#161;olor_2" fill-rule="evenodd" clip-rule="evenodd" d="M14 12C14 9.794 15.794 8 18 8C20.206 8 22 9.794 22 12C22 14.206 20.206 16 18 16H6C3.794 16 2 14.206 2 12C2 9.794 3.794 8 6 8C8.206 8 10 9.794 10 12C10 12.731 9.788 13.409 9.443 14H14.557C14.212 13.409 14 12.731 14 12ZM4 12C4 10.897 4.897 10 6 10C7.103 10 8 10.897 8 12C8 13.103 7.103 14 6 14C4.897 14 4 13.103 4 12ZM18 14C16.897 14 16 13.103 16 12C16 10.897 16.897 10 18 10C19.103 10 20 10.897 20 12C20 13.103 19.103 14 18 14Z" fill="white"/>
</mask>
<g mask="url(#mask0_11506_94086)">
</g>
</g>
</svg>
