<svg width="24" height="24" viewBox="0 0 24 24" fill="none" xmlns="http://www.w3.org/2000/svg">
<g id="icon/general/24x24/outline/rewind-right">
<path id="&#240;&#159;&#142;&#168; Icon &#208;&#161;olor" fill-rule="evenodd" clip-rule="evenodd" d="M15.759 6.46027L20.858 10.6743C21.266 11.0103 21.5 11.4943 21.5 12.0003C21.5 12.5063 21.266 12.9903 20.859 13.3263L15.759 17.5393C15.391 17.8443 14.927 18.0013 14.456 18.0013C14.149 18.0013 13.839 17.9343 13.55 17.7993C12.902 17.4933 12.5 16.8863 12.5 16.2133V13.6233L7.759 17.5393C7.391 17.8443 6.927 18.0013 6.456 18.0013C6.149 18.0013 5.839 17.9343 5.55 17.7993C4.902 17.4933 4.5 16.8863 4.5 16.2133V7.78727C4.5 7.11427 4.902 6.50727 5.55 6.20127C6.281 5.85627 7.15 5.95827 7.759 6.46027L12.5 10.3783V7.78727C12.5 7.11427 12.902 6.50727 13.55 6.20127C14.282 5.85627 15.15 5.95827 15.759 6.46027ZM6.5 15.9083V8.01427L11.322 11.9983L6.5 15.9083ZM14.5 15.9083V8.01427L19.322 11.9983L14.5 15.9083Z" fill="#383B46"/>
<mask id="mask0_11506_93521" style="mask-type:luminance" maskUnits="userSpaceOnUse" x="4" y="5" width="18" height="14">
<path id="&#240;&#159;&#142;&#168; Icon &#208;&#161;olor_2" fill-rule="evenodd" clip-rule="evenodd" d="M15.759 6.46027L20.858 10.6743C21.266 11.0103 21.5 11.4943 21.5 12.0003C21.5 12.5063 21.266 12.9903 20.859 13.3263L15.759 17.5393C15.391 17.8443 14.927 18.0013 14.456 18.0013C14.149 18.0013 13.839 17.9343 13.55 17.7993C12.902 17.4933 12.5 16.8863 12.5 16.2133V13.6233L7.759 17.5393C7.391 17.8443 6.927 18.0013 6.456 18.0013C6.149 18.0013 5.839 17.9343 5.55 17.7993C4.902 17.4933 4.5 16.8863 4.5 16.2133V7.78727C4.5 7.11427 4.902 6.50727 5.55 6.20127C6.281 5.85627 7.15 5.95827 7.759 6.46027L12.5 10.3783V7.78727C12.5 7.11427 12.902 6.50727 13.55 6.20127C14.282 5.85627 15.15 5.95827 15.759 6.46027ZM6.5 15.9083V8.01427L11.322 11.9983L6.5 15.9083ZM14.5 15.9083V8.01427L19.322 11.9983L14.5 15.9083Z" fill="white"/>
</mask>
<g mask="url(#mask0_11506_93521)">
</g>
</g>
</svg>
