<svg width="24" height="24" viewBox="0 0 24 24" fill="none" xmlns="http://www.w3.org/2000/svg">
<g id="icon/general/24x24/fill/rewind-left-fill">
<path id="&#240;&#159;&#142;&#168; Icon &#208;&#161;olor" d="M18.45 6.20097C17.716 5.85597 16.849 5.95797 16.241 6.46097L11.5 10.377V7.78697C11.5 7.11397 11.097 6.50697 10.45 6.20097C9.716 5.85597 8.849 5.95797 8.241 6.46097L3.141 10.674C2.734 11.01 2.5 11.494 2.5 12C2.5 12.506 2.734 12.99 3.141 13.326L8.241 17.54C8.609 17.844 9.073 18.001 9.544 18.001C9.851 18.001 10.161 17.934 10.45 17.799C11.097 17.493 11.5 16.886 11.5 16.213V13.622L16.241 17.54C16.609 17.844 17.073 18.001 17.544 18.001C17.851 18.001 18.161 17.934 18.45 17.799C19.097 17.493 19.5 16.886 19.5 16.213V7.78697C19.5 7.11397 19.097 6.50697 18.45 6.20097Z" fill="#383B46"/>
<mask id="mask0_11506_95444" style="mask-type:luminance" maskUnits="userSpaceOnUse" x="2" y="5" width="18" height="14">
<path id="&#240;&#159;&#142;&#168; Icon &#208;&#161;olor_2" d="M18.45 6.20097C17.716 5.85597 16.849 5.95797 16.241 6.46097L11.5 10.377V7.78697C11.5 7.11397 11.097 6.50697 10.45 6.20097C9.716 5.85597 8.849 5.95797 8.241 6.46097L3.141 10.674C2.734 11.01 2.5 11.494 2.5 12C2.5 12.506 2.734 12.99 3.141 13.326L8.241 17.54C8.609 17.844 9.073 18.001 9.544 18.001C9.851 18.001 10.161 17.934 10.45 17.799C11.097 17.493 11.5 16.886 11.5 16.213V13.622L16.241 17.54C16.609 17.844 17.073 18.001 17.544 18.001C17.851 18.001 18.161 17.934 18.45 17.799C19.097 17.493 19.5 16.886 19.5 16.213V7.78697C19.5 7.11397 19.097 6.50697 18.45 6.20097Z" fill="white"/>
</mask>
<g mask="url(#mask0_11506_95444)">
</g>
</g>
</svg>
