<svg width="24" height="24" viewBox="0 0 24 24" fill="none" xmlns="http://www.w3.org/2000/svg">
<circle cx="12" cy="12" r="10" stroke="black" stroke-width="1.8"/>
<path fill-rule="evenodd" clip-rule="evenodd" d="M9 12C9 12.1009 9.00498 12.2007 9.01471 12.299L7 17L11.701 14.9853C11.7993 14.995 11.8991 15 12 15C13.6569 15 15 13.6569 15 12C15 11.8991 14.995 11.7993 14.9853 11.701L17 7L12.299 9.01471C12.2007 9.00498 12.1009 9 12 9C10.3431 9 9 10.3431 9 12ZM12 14C13.1046 14 14 13.1046 14 12C14 10.8954 13.1046 10 12 10C10.8954 10 10 10.8954 10 12C10 13.1046 10.8954 14 12 14Z" fill="black"/>
</svg>
