<svg width="24" height="24" viewBox="0 0 24 24" fill="none" xmlns="http://www.w3.org/2000/svg">
<path d="M9 8H15" stroke="black" stroke-width="1.8" stroke-linecap="round"/>
<path d="M9 12H12" stroke="black" stroke-width="1.8" stroke-linecap="round"/>
<path d="M10.8571 20.8571H6C4.89543 20.8571 4 19.9617 4 18.8571V4.85715C4 3.75258 4.89543 2.85715 6 2.85715H18C19.1046 2.85715 20 3.75258 20 4.85715V10.7321" stroke="black" stroke-width="1.8" stroke-linecap="round"/>
<path fill-rule="evenodd" clip-rule="evenodd" d="M21.6364 16.6364C21.9879 16.2849 21.9879 15.7151 21.6364 15.3636C21.2849 15.0121 20.7151 15.0121 20.3636 15.3636L16 19.7272L14.6364 18.3636C14.2849 18.0121 13.7151 18.0121 13.3636 18.3636C13.0121 18.7151 13.0121 19.2849 13.3636 19.6364L15.3636 21.6364C15.5613 21.8341 15.8281 21.9206 16.0863 21.8959C16.1972 21.8852 16.3066 21.8541 16.4082 21.8023C16.4905 21.7605 16.5676 21.7052 16.6364 21.6364L21.6364 16.6364Z" fill="black"/>
</svg>
