<svg width="24" height="24" viewBox="0 0 24 24" fill="none" xmlns="http://www.w3.org/2000/svg">
<g id="icon/general/24x24/outline/settings-2">
<path id="&#240;&#159;&#142;&#168; Icon &#208;&#161;olor" fill-rule="evenodd" clip-rule="evenodd" d="M11.051 22H12.943C13.871 22 14.626 21.245 14.626 20.317V19.233C14.626 19.086 14.743 18.986 14.889 18.925C14.999 18.879 15.155 18.867 15.26 18.972L16.025 19.741C16.342 20.06 16.765 20.235 17.214 20.235H17.216C17.665 20.235 18.086 20.061 18.404 19.743L19.744 18.403C20.398 17.749 20.398 16.683 19.744 16.026L18.973 15.256C18.869 15.152 18.881 14.997 18.927 14.886L18.9312 14.8758L18.9344 14.8682C18.9375 14.8607 18.9405 14.8535 18.941 14.853C18.986 14.743 19.087 14.625 19.234 14.625H20.324C21.249 14.625 22 13.874 22 12.949V11.057C22 10.129 21.246 9.375 20.318 9.375H19.234C19.086 9.375 18.986 9.258 18.926 9.111C18.879 9 18.868 8.846 18.973 8.741L19.742 7.975C20.061 7.658 20.236 7.235 20.236 6.787C20.237 6.337 20.063 5.915 19.745 5.598L18.404 4.257C17.749 3.601 16.683 3.603 16.027 4.257L15.257 5.028C15.152 5.133 14.998 5.12 14.853 5.06C14.743 5.015 14.626 4.914 14.626 4.767V3.676C14.626 2.752 13.874 2 12.95 2H11.058C10.13 2 9.375 2.755 9.375 3.683V4.767C9.375 4.914 9.258 5.014 9.112 5.075C9.001 5.122 8.846 5.134 8.741 5.028L7.976 4.259C7.659 3.94 7.236 3.765 6.787 3.765H6.785C6.336 3.765 5.915 3.939 5.597 4.257L4.257 5.597C3.603 6.251 3.603 7.317 4.257 7.974L5.028 8.744C5.132 8.848 5.12 9.003 5.06 9.147C5.015 9.257 4.914 9.375 4.767 9.375H3.677C2.752 9.375 2 10.126 2 11.051V12.943C2 13.871 2.755 14.625 3.683 14.625H4.767C4.915 14.625 5.015 14.742 5.075 14.889C5.122 15 5.133 15.154 5.028 15.259L4.26 16.024C3.941 16.342 3.766 16.764 3.765 17.213C3.765 17.663 3.939 18.085 4.257 18.403L5.597 19.743C6.252 20.399 7.318 20.397 7.974 19.743L8.744 18.972C8.85 18.869 9.004 18.881 9.148 18.94C9.258 18.985 9.375 19.086 9.375 19.233V20.324C9.375 21.248 10.127 22 11.051 22ZM12.626 20H11.375V19.233C11.375 18.298 10.799 17.458 9.886 17.081C8.995 16.709 7.992 16.896 7.33 17.558L6.785 18.103L5.898 17.216L6.439 16.677C7.105 16.014 7.294 15.009 6.909 14.089C6.543 13.2 5.702 12.625 4.767 12.625H4V11.375H4.767C5.702 11.375 6.543 10.799 6.919 9.886C7.292 8.995 7.104 7.991 6.442 7.329L5.897 6.785L6.785 5.897L7.324 6.438C7.987 7.105 8.992 7.294 9.911 6.909C10.8 6.542 11.375 5.702 11.375 4.767V4H12.626V4.767C12.626 5.702 13.202 6.542 14.115 6.919C15.006 7.291 16.009 7.104 16.671 6.442L17.216 5.897L18.103 6.784L17.562 7.323C16.896 7.986 16.707 8.991 17.092 9.911C17.458 10.8 18.299 11.375 19.234 11.375H20V12.625H19.234C18.299 12.625 17.458 13.201 17.094 14.084L17.083 14.112C17.083 14.1125 17.0828 14.113 17.0825 14.1133L17.082 14.114C16.709 15.005 16.896 16.009 17.559 16.671L18.104 17.215L17.216 18.103L16.677 17.562C16.015 16.896 15.01 16.708 14.09 17.091C13.201 17.458 12.626 18.298 12.626 19.233V20ZM12.0005 10.5C11.1735 10.5 10.5005 11.173 10.5005 12C10.5005 12.827 11.1735 13.5 12.0005 13.5C12.8275 13.5 13.5005 12.827 13.5005 12C13.5005 11.173 12.8275 10.5 12.0005 10.5ZM8.5005 12C8.5005 13.93 10.0705 15.5 12.0005 15.5C13.9305 15.5 15.5005 13.93 15.5005 12C15.5005 10.07 13.9305 8.5 12.0005 8.5C10.0705 8.5 8.5005 10.07 8.5005 12Z" fill="#383B46"/>
<mask id="mask0_11506_93723" style="mask-type:luminance" maskUnits="userSpaceOnUse" x="2" y="2" width="20" height="20">
<path id="&#240;&#159;&#142;&#168; Icon &#208;&#161;olor_2" fill-rule="evenodd" clip-rule="evenodd" d="M11.051 22H12.943C13.871 22 14.626 21.245 14.626 20.317V19.233C14.626 19.086 14.743 18.986 14.889 18.925C14.999 18.879 15.155 18.867 15.26 18.972L16.025 19.741C16.342 20.06 16.765 20.235 17.214 20.235H17.216C17.665 20.235 18.086 20.061 18.404 19.743L19.744 18.403C20.398 17.749 20.398 16.683 19.744 16.026L18.973 15.256C18.869 15.152 18.881 14.997 18.927 14.886L18.9312 14.8758L18.9344 14.8682C18.9375 14.8607 18.9405 14.8535 18.941 14.853C18.986 14.743 19.087 14.625 19.234 14.625H20.324C21.249 14.625 22 13.874 22 12.949V11.057C22 10.129 21.246 9.375 20.318 9.375H19.234C19.086 9.375 18.986 9.258 18.926 9.111C18.879 9 18.868 8.846 18.973 8.741L19.742 7.975C20.061 7.658 20.236 7.235 20.236 6.787C20.237 6.337 20.063 5.915 19.745 5.598L18.404 4.257C17.749 3.601 16.683 3.603 16.027 4.257L15.257 5.028C15.152 5.133 14.998 5.12 14.853 5.06C14.743 5.015 14.626 4.914 14.626 4.767V3.676C14.626 2.752 13.874 2 12.95 2H11.058C10.13 2 9.375 2.755 9.375 3.683V4.767C9.375 4.914 9.258 5.014 9.112 5.075C9.001 5.122 8.846 5.134 8.741 5.028L7.976 4.259C7.659 3.94 7.236 3.765 6.787 3.765H6.785C6.336 3.765 5.915 3.939 5.597 4.257L4.257 5.597C3.603 6.251 3.603 7.317 4.257 7.974L5.028 8.744C5.132 8.848 5.12 9.003 5.06 9.147C5.015 9.257 4.914 9.375 4.767 9.375H3.677C2.752 9.375 2 10.126 2 11.051V12.943C2 13.871 2.755 14.625 3.683 14.625H4.767C4.915 14.625 5.015 14.742 5.075 14.889C5.122 15 5.133 15.154 5.028 15.259L4.26 16.024C3.941 16.342 3.766 16.764 3.765 17.213C3.765 17.663 3.939 18.085 4.257 18.403L5.597 19.743C6.252 20.399 7.318 20.397 7.974 19.743L8.744 18.972C8.85 18.869 9.004 18.881 9.148 18.94C9.258 18.985 9.375 19.086 9.375 19.233V20.324C9.375 21.248 10.127 22 11.051 22ZM12.626 20H11.375V19.233C11.375 18.298 10.799 17.458 9.886 17.081C8.995 16.709 7.992 16.896 7.33 17.558L6.785 18.103L5.898 17.216L6.439 16.677C7.105 16.014 7.294 15.009 6.909 14.089C6.543 13.2 5.702 12.625 4.767 12.625H4V11.375H4.767C5.702 11.375 6.543 10.799 6.919 9.886C7.292 8.995 7.104 7.991 6.442 7.329L5.897 6.785L6.785 5.897L7.324 6.438C7.987 7.105 8.992 7.294 9.911 6.909C10.8 6.542 11.375 5.702 11.375 4.767V4H12.626V4.767C12.626 5.702 13.202 6.542 14.115 6.919C15.006 7.291 16.009 7.104 16.671 6.442L17.216 5.897L18.103 6.784L17.562 7.323C16.896 7.986 16.707 8.991 17.092 9.911C17.458 10.8 18.299 11.375 19.234 11.375H20V12.625H19.234C18.299 12.625 17.458 13.201 17.094 14.084L17.083 14.112C17.083 14.1125 17.0828 14.113 17.0825 14.1133L17.082 14.114C16.709 15.005 16.896 16.009 17.559 16.671L18.104 17.215L17.216 18.103L16.677 17.562C16.015 16.896 15.01 16.708 14.09 17.091C13.201 17.458 12.626 18.298 12.626 19.233V20ZM12.0005 10.5C11.1735 10.5 10.5005 11.173 10.5005 12C10.5005 12.827 11.1735 13.5 12.0005 13.5C12.8275 13.5 13.5005 12.827 13.5005 12C13.5005 11.173 12.8275 10.5 12.0005 10.5ZM8.5005 12C8.5005 13.93 10.0705 15.5 12.0005 15.5C13.9305 15.5 15.5005 13.93 15.5005 12C15.5005 10.07 13.9305 8.5 12.0005 8.5C10.0705 8.5 8.5005 10.07 8.5005 12Z" fill="white"/>
</mask>
<g mask="url(#mask0_11506_93723)">
</g>
</g>
</svg>
