<svg width="24" height="24" viewBox="0 0 24 24" fill="none" xmlns="http://www.w3.org/2000/svg">
<path fill-rule="evenodd" clip-rule="evenodd" d="M12 21C16.9706 21 21 16.9706 21 12C21 7.02944 16.9706 3 12 3C7.02944 3 3 7.02944 3 12C3 16.9706 7.02944 21 12 21ZM12 19.1C15.9212 19.1 19.1 15.9212 19.1 12C19.1 8.0788 15.9212 4.90002 12 4.90002C8.07877 4.90002 4.89999 8.0788 4.89999 12C4.89999 15.9212 8.07877 19.1 12 19.1Z" fill="black"/>
<path fill-rule="evenodd" clip-rule="evenodd" d="M12.9 2.00001C12.9 1.50295 12.4971 1.10001 12 1.10001C11.5029 1.10001 11.1 1.50295 11.1 2.00001V4.95652C11.3948 4.91924 11.6951 4.90002 12 4.90002C12.3049 4.90002 12.6053 4.91924 12.9 4.95653V2.00001ZM16.3438 6.38344C16.8199 6.75219 17.2479 7.18013 17.6166 7.65623L19.7075 5.56536C20.0589 5.21389 20.0589 4.64404 19.7075 4.29257C19.356 3.94109 18.7862 3.94109 18.4347 4.29257L16.3438 6.38344ZM19.0435 11.1C19.0808 11.3948 19.1 11.6951 19.1 12C19.1 12.3049 19.0808 12.6053 19.0435 12.9H22C22.4971 12.9 22.9 12.4971 22.9 12C22.9 11.503 22.4971 11.1 22 11.1H19.0435ZM17.6166 16.3438C17.2479 16.8199 16.8199 17.2479 16.3438 17.6166L18.4347 19.7075C18.7862 20.059 19.356 20.059 19.7075 19.7075C20.059 19.356 20.059 18.7862 19.7075 18.4347L17.6166 16.3438ZM12.9 19.0435C12.6053 19.0808 12.3049 19.1 12 19.1C11.6951 19.1 11.3948 19.0808 11.1 19.0435V22C11.1 22.4971 11.5029 22.9 12 22.9C12.4971 22.9 12.9 22.4971 12.9 22V19.0435ZM7.6562 17.6166C7.1801 17.2479 6.75216 16.8199 6.38341 16.3438L4.29255 18.4347C3.94108 18.7862 3.94108 19.356 4.29255 19.7075C4.64402 20.059 5.21387 20.059 5.56534 19.7075L7.6562 17.6166ZM4.95649 12.9C4.91921 12.6053 4.89999 12.3049 4.89999 12C4.89999 11.6951 4.91921 11.3948 4.9565 11.1H2.00001C1.50295 11.1 1.10001 11.503 1.10001 12C1.10001 12.4971 1.50295 12.9 2.00001 12.9H4.95649ZM6.38341 7.6562C6.75216 7.1801 7.1801 6.75216 7.65621 6.38341L5.56536 4.29257C5.21388 3.94109 4.64404 3.94109 4.29256 4.29257C3.94109 4.64404 3.94109 5.21389 4.29256 5.56536L6.38341 7.6562Z" fill="black"/>
</svg>
