<svg width="24" height="24" viewBox="0 0 24 24" fill="none" xmlns="http://www.w3.org/2000/svg">
<g id="icon/general/24x24/fill/settings-fill">
<path id="&#240;&#159;&#142;&#168; Icon &#208;&#161;olor" fill-rule="evenodd" clip-rule="evenodd" d="M21.1046 7.798L21.8916 10.319C22.2706 11.537 21.6136 12.851 20.4266 13.248L20.2256 13.315C19.6486 13.509 19.1966 13.989 19.0156 14.601C18.8496 15.162 18.9456 15.779 19.2736 16.253L19.5346 16.628C20.2486 17.66 20.0206 19.108 19.0266 19.857L16.9656 21.413C16.4706 21.787 15.8636 21.938 15.2546 21.841C14.6406 21.742 14.1046 21.402 13.7456 20.884L13.6276 20.712C13.2776 20.208 12.7176 19.902 12.1306 19.935C11.5416 19.951 11.0346 20.23 10.7026 20.702L10.4716 21.03C10.1096 21.543 9.57263 21.878 8.96063 21.974C8.84463 21.992 8.72863 22 8.61363 22C8.12663 22 7.65563 21.842 7.25763 21.54L5.18563 19.966C4.19563 19.216 3.97663 17.773 4.69663 16.75C5.07063 16.22 5.14663 15.539 4.92763 14.893L4.87263 14.725C4.68863 14.143 4.27163 13.691 3.75363 13.514L3.58963 13.458C2.37263 13.041 1.72263 11.749 2.10963 10.517L2.92563 7.922C3.11063 7.335 3.50963 6.861 4.04963 6.588C4.57763 6.322 5.17463 6.281 5.73263 6.472C6.33163 6.676 6.99663 6.565 7.50963 6.175L7.63863 6.077C8.09463 5.729 8.36963 5.165 8.37163 4.567L8.37263 4.326C8.37763 3.042 9.40163 2 10.6556 2H10.6596L13.2066 2.003C13.8086 2.004 14.3756 2.242 14.8046 2.673C15.2476 3.118 15.4896 3.713 15.4876 4.348L15.4856 4.627C15.4836 5.193 15.7426 5.728 16.1796 6.056L16.2866 6.137C16.7456 6.482 17.3436 6.582 17.8796 6.401L18.2196 6.288C18.7956 6.096 19.4106 6.143 19.9516 6.42C20.5066 6.704 20.9166 7.193 21.1046 7.798ZM11.9996 15.5C10.0696 15.5 8.49963 13.93 8.49963 12C8.49963 10.07 10.0696 8.5 11.9996 8.5C13.9296 8.5 15.4996 10.07 15.4996 12C15.4996 13.93 13.9296 15.5 11.9996 15.5ZM11.9996 10.5C11.1726 10.5 10.4996 11.173 10.4996 12C10.4996 12.827 11.1726 13.5 11.9996 13.5C12.8266 13.5 13.4996 12.827 13.4996 12C13.4996 11.173 12.8266 10.5 11.9996 10.5Z" fill="#383B46"/>
<mask id="mask0_11506_95737" style="mask-type:luminance" maskUnits="userSpaceOnUse" x="1" y="2" width="21" height="20">
<path id="&#240;&#159;&#142;&#168; Icon &#208;&#161;olor_2" fill-rule="evenodd" clip-rule="evenodd" d="M21.1046 7.798L21.8916 10.319C22.2706 11.537 21.6136 12.851 20.4266 13.248L20.2256 13.315C19.6486 13.509 19.1966 13.989 19.0156 14.601C18.8496 15.162 18.9456 15.779 19.2736 16.253L19.5346 16.628C20.2486 17.66 20.0206 19.108 19.0266 19.857L16.9656 21.413C16.4706 21.787 15.8636 21.938 15.2546 21.841C14.6406 21.742 14.1046 21.402 13.7456 20.884L13.6276 20.712C13.2776 20.208 12.7176 19.902 12.1306 19.935C11.5416 19.951 11.0346 20.23 10.7026 20.702L10.4716 21.03C10.1096 21.543 9.57263 21.878 8.96063 21.974C8.84463 21.992 8.72863 22 8.61363 22C8.12663 22 7.65563 21.842 7.25763 21.54L5.18563 19.966C4.19563 19.216 3.97663 17.773 4.69663 16.75C5.07063 16.22 5.14663 15.539 4.92763 14.893L4.87263 14.725C4.68863 14.143 4.27163 13.691 3.75363 13.514L3.58963 13.458C2.37263 13.041 1.72263 11.749 2.10963 10.517L2.92563 7.922C3.11063 7.335 3.50963 6.861 4.04963 6.588C4.57763 6.322 5.17463 6.281 5.73263 6.472C6.33163 6.676 6.99663 6.565 7.50963 6.175L7.63863 6.077C8.09463 5.729 8.36963 5.165 8.37163 4.567L8.37263 4.326C8.37763 3.042 9.40163 2 10.6556 2H10.6596L13.2066 2.003C13.8086 2.004 14.3756 2.242 14.8046 2.673C15.2476 3.118 15.4896 3.713 15.4876 4.348L15.4856 4.627C15.4836 5.193 15.7426 5.728 16.1796 6.056L16.2866 6.137C16.7456 6.482 17.3436 6.582 17.8796 6.401L18.2196 6.288C18.7956 6.096 19.4106 6.143 19.9516 6.42C20.5066 6.704 20.9166 7.193 21.1046 7.798ZM11.9996 15.5C10.0696 15.5 8.49963 13.93 8.49963 12C8.49963 10.07 10.0696 8.5 11.9996 8.5C13.9296 8.5 15.4996 10.07 15.4996 12C15.4996 13.93 13.9296 15.5 11.9996 15.5ZM11.9996 10.5C11.1726 10.5 10.4996 11.173 10.4996 12C10.4996 12.827 11.1726 13.5 11.9996 13.5C12.8266 13.5 13.4996 12.827 13.4996 12C13.4996 11.173 12.8266 10.5 11.9996 10.5Z" fill="white"/>
</mask>
<g mask="url(#mask0_11506_95737)">
</g>
</g>
</svg>
