<svg width="24" height="24" viewBox="0 0 24 24" fill="none" xmlns="http://www.w3.org/2000/svg">
<g id="icon/general/24x24/outline/shake">
<path id="&#240;&#159;&#142;&#168; Icon &#208;&#161;olor" fill-rule="evenodd" clip-rule="evenodd" d="M13.0005 7.14224C12.6795 7.05924 12.3475 7.00024 12.0005 7.00024C11.6535 7.00024 11.3215 7.05924 11.0005 7.14224V3.00024C11.0005 2.44724 11.4485 2.00024 12.0005 2.00024C12.5525 2.00024 13.0005 2.44724 13.0005 3.00024V7.14224ZM5.5 18.0002C5.272 18.0002 5.044 17.9232 4.856 17.7652C2.692 15.9432 1.5 13.5412 1.5 11.0002C1.5 8.45924 2.692 6.05724 4.856 4.23524C5.278 3.87824 5.909 3.93324 6.266 4.35624C6.621 4.77824 6.567 5.40924 6.145 5.76524C4.439 7.20024 3.5 9.06024 3.5 11.0002C3.5 12.9402 4.439 14.8002 6.145 16.2352C6.567 16.5912 6.621 17.2222 6.266 17.6442C6.068 17.8792 5.785 18.0002 5.5 18.0002ZM12.0005 12.0002C11.4495 12.0002 11.0005 11.5522 11.0005 11.0002C11.0005 10.4482 11.4495 10.0002 12.0005 10.0002C12.5515 10.0002 13.0005 10.4482 13.0005 11.0002C13.0005 11.5522 12.5515 12.0002 12.0005 12.0002ZM12.0005 15.0002C11.6535 15.0002 11.3215 14.9412 11.0005 14.8582V20.0002C11.0005 20.5532 11.4485 21.0002 12.0005 21.0002C12.5525 21.0002 13.0005 20.5532 13.0005 20.0002V14.8582C12.6795 14.9412 12.3475 15.0002 12.0005 15.0002ZM15.235 15.6452C15.434 15.8792 15.716 16.0002 16.001 16.0002C16.229 16.0002 16.457 15.9232 16.645 15.7652C18.164 14.4852 19.001 12.7932 19.001 11.0002C19.001 9.20724 18.164 7.51524 16.645 6.23524C16.223 5.87924 15.591 5.93424 15.235 6.35524C14.88 6.77824 14.934 7.40924 15.356 7.76524C16.417 8.65724 17.001 9.80724 17.001 11.0002C17.001 12.1932 16.417 13.3432 15.356 14.2352C14.934 14.5912 14.88 15.2222 15.235 15.6452ZM8 16.0002C7.772 16.0002 7.544 15.9232 7.356 15.7652C5.837 14.4852 5 12.7932 5 11.0002C5 9.20724 5.837 7.51524 7.356 6.23524C7.778 5.87924 8.409 5.93324 8.766 6.35524C9.121 6.77824 9.067 7.40924 8.645 7.76524C7.584 8.65724 7 9.80724 7 11.0002C7 12.1932 7.584 13.3432 8.645 14.2352C9.067 14.5912 9.121 15.2222 8.766 15.6452C8.568 15.8792 8.285 16.0002 8 16.0002ZM17.735 17.6442C17.933 17.8792 18.216 18.0002 18.501 18.0002C18.729 18.0002 18.957 17.9232 19.145 17.7652C21.309 15.9432 22.501 13.5412 22.501 11.0002C22.501 8.45924 21.309 6.05724 19.145 4.23524C18.722 3.87924 18.091 3.93324 17.735 4.35624C17.38 4.77824 17.434 5.40924 17.856 5.76524C19.562 7.20024 20.501 9.06024 20.501 11.0002C20.501 12.9402 19.562 14.8002 17.856 16.2352C17.434 16.5912 17.38 17.2222 17.735 17.6442Z" fill="#383B46"/>
<mask id="mask0_11506_94719" style="mask-type:luminance" maskUnits="userSpaceOnUse" x="1" y="2" width="22" height="20">
<path id="&#240;&#159;&#142;&#168; Icon &#208;&#161;olor_2" fill-rule="evenodd" clip-rule="evenodd" d="M13.0005 7.14224C12.6795 7.05924 12.3475 7.00024 12.0005 7.00024C11.6535 7.00024 11.3215 7.05924 11.0005 7.14224V3.00024C11.0005 2.44724 11.4485 2.00024 12.0005 2.00024C12.5525 2.00024 13.0005 2.44724 13.0005 3.00024V7.14224ZM5.5 18.0002C5.272 18.0002 5.044 17.9232 4.856 17.7652C2.692 15.9432 1.5 13.5412 1.5 11.0002C1.5 8.45924 2.692 6.05724 4.856 4.23524C5.278 3.87824 5.909 3.93324 6.266 4.35624C6.621 4.77824 6.567 5.40924 6.145 5.76524C4.439 7.20024 3.5 9.06024 3.5 11.0002C3.5 12.9402 4.439 14.8002 6.145 16.2352C6.567 16.5912 6.621 17.2222 6.266 17.6442C6.068 17.8792 5.785 18.0002 5.5 18.0002ZM12.0005 12.0002C11.4495 12.0002 11.0005 11.5522 11.0005 11.0002C11.0005 10.4482 11.4495 10.0002 12.0005 10.0002C12.5515 10.0002 13.0005 10.4482 13.0005 11.0002C13.0005 11.5522 12.5515 12.0002 12.0005 12.0002ZM12.0005 15.0002C11.6535 15.0002 11.3215 14.9412 11.0005 14.8582V20.0002C11.0005 20.5532 11.4485 21.0002 12.0005 21.0002C12.5525 21.0002 13.0005 20.5532 13.0005 20.0002V14.8582C12.6795 14.9412 12.3475 15.0002 12.0005 15.0002ZM15.235 15.6452C15.434 15.8792 15.716 16.0002 16.001 16.0002C16.229 16.0002 16.457 15.9232 16.645 15.7652C18.164 14.4852 19.001 12.7932 19.001 11.0002C19.001 9.20724 18.164 7.51524 16.645 6.23524C16.223 5.87924 15.591 5.93424 15.235 6.35524C14.88 6.77824 14.934 7.40924 15.356 7.76524C16.417 8.65724 17.001 9.80724 17.001 11.0002C17.001 12.1932 16.417 13.3432 15.356 14.2352C14.934 14.5912 14.88 15.2222 15.235 15.6452ZM8 16.0002C7.772 16.0002 7.544 15.9232 7.356 15.7652C5.837 14.4852 5 12.7932 5 11.0002C5 9.20724 5.837 7.51524 7.356 6.23524C7.778 5.87924 8.409 5.93324 8.766 6.35524C9.121 6.77824 9.067 7.40924 8.645 7.76524C7.584 8.65724 7 9.80724 7 11.0002C7 12.1932 7.584 13.3432 8.645 14.2352C9.067 14.5912 9.121 15.2222 8.766 15.6452C8.568 15.8792 8.285 16.0002 8 16.0002ZM17.735 17.6442C17.933 17.8792 18.216 18.0002 18.501 18.0002C18.729 18.0002 18.957 17.9232 19.145 17.7652C21.309 15.9432 22.501 13.5412 22.501 11.0002C22.501 8.45924 21.309 6.05724 19.145 4.23524C18.722 3.87924 18.091 3.93324 17.735 4.35624C17.38 4.77824 17.434 5.40924 17.856 5.76524C19.562 7.20024 20.501 9.06024 20.501 11.0002C20.501 12.9402 19.562 14.8002 17.856 16.2352C17.434 16.5912 17.38 17.2222 17.735 17.6442Z" fill="white"/>
</mask>
<g mask="url(#mask0_11506_94719)">
</g>
</g>
</svg>
