<svg width="24" height="24" viewBox="0 0 24 24" fill="none" xmlns="http://www.w3.org/2000/svg">
<g id="icon/general/24x24/outline/shield">
<path id="&#240;&#159;&#142;&#168; Icon &#208;&#161;olor" fill-rule="evenodd" clip-rule="evenodd" d="M11.021 21.5964C11.322 21.7664 11.661 21.8504 12 21.8504C12.339 21.8504 12.678 21.7654 12.98 21.5954L13.282 21.4254C18.043 18.7484 21 13.6914 21 8.22943V8.08443C21 7.36543 20.61 6.69743 19.98 6.34143L12.979 2.40343C12.376 2.06343 11.625 2.06443 11.02 2.40443L4.018 6.34243C3.39 6.69743 3 7.36543 3 8.08443V8.22943C3 13.6914 5.957 18.7484 10.718 21.4254L11.021 21.5964ZM5 8.08443L12 4.14643L19 8.08443V8.22943C19 12.9694 16.434 17.3584 12.302 19.6834L12 19.8534L11.698 19.6834C7.566 17.3584 5 12.9694 5 8.22943V8.08443Z" fill="#383B46"/>
<mask id="mask0_11506_93365" style="mask-type:luminance" maskUnits="userSpaceOnUse" x="3" y="2" width="18" height="20">
<path id="&#240;&#159;&#142;&#168; Icon &#208;&#161;olor_2" fill-rule="evenodd" clip-rule="evenodd" d="M11.021 21.5964C11.322 21.7664 11.661 21.8504 12 21.8504C12.339 21.8504 12.678 21.7654 12.98 21.5954L13.282 21.4254C18.043 18.7484 21 13.6914 21 8.22943V8.08443C21 7.36543 20.61 6.69743 19.98 6.34143L12.979 2.40343C12.376 2.06343 11.625 2.06443 11.02 2.40443L4.018 6.34243C3.39 6.69743 3 7.36543 3 8.08443V8.22943C3 13.6914 5.957 18.7484 10.718 21.4254L11.021 21.5964ZM5 8.08443L12 4.14643L19 8.08443V8.22943C19 12.9694 16.434 17.3584 12.302 19.6834L12 19.8534L11.698 19.6834C7.566 17.3584 5 12.9694 5 8.22943V8.08443Z" fill="white"/>
</mask>
<g mask="url(#mask0_11506_93365)">
</g>
</g>
</svg>
