<svg width="24" height="24" viewBox="0 0 24 24" fill="none" xmlns="http://www.w3.org/2000/svg">
<g id="icon/general/24x24/fill/shield-off-fill">
<path id="&#240;&#159;&#142;&#168; Icon &#208;&#161;olor" fill-rule="evenodd" clip-rule="evenodd" d="M18.8391 16.0112C20.2262 13.6972 21.0002 11.0172 21.0002 8.23016V8.08516C21.0002 7.36516 20.6101 6.69816 19.9811 6.34216L12.9802 2.40416C12.3762 2.06416 11.6252 2.06516 11.0202 2.40516L7.31615 4.48816L18.8391 16.0112ZM3.73165 6.55996C3.28065 6.93596 3.00065 7.48696 3.00065 8.08496V8.22996C3.00065 13.692 5.95765 18.748 10.7176 21.426L11.0207 21.597C11.3227 21.767 11.6616 21.851 12.0007 21.851C12.3386 21.851 12.6776 21.766 12.9806 21.596L13.2826 21.426C14.4046 20.795 15.4217 20.028 16.3297 19.158L3.73165 6.55996ZM3.29325 3.29336C3.68425 2.90236 4.31625 2.90236 4.70725 3.29336L20.7073 19.2934C21.0983 19.6844 21.0983 20.3164 20.7073 20.7074C20.5123 20.9024 20.2563 21.0004 20.0002 21.0004C19.7442 21.0004 19.4882 20.9024 19.2932 20.7074L3.29325 4.70736C2.90225 4.31636 2.90225 3.68436 3.29325 3.29336Z" fill="#383B46"/>
<mask id="mask0_11506_95508" style="mask-type:luminance" maskUnits="userSpaceOnUse" x="3" y="2" width="18" height="20">
<path id="&#240;&#159;&#142;&#168; Icon &#208;&#161;olor_2" fill-rule="evenodd" clip-rule="evenodd" d="M18.8391 16.0112C20.2262 13.6972 21.0002 11.0172 21.0002 8.23016V8.08516C21.0002 7.36516 20.6101 6.69816 19.9811 6.34216L12.9802 2.40416C12.3762 2.06416 11.6252 2.06516 11.0202 2.40516L7.31615 4.48816L18.8391 16.0112ZM3.73165 6.55996C3.28065 6.93596 3.00065 7.48696 3.00065 8.08496V8.22996C3.00065 13.692 5.95765 18.748 10.7176 21.426L11.0207 21.597C11.3227 21.767 11.6616 21.851 12.0007 21.851C12.3386 21.851 12.6776 21.766 12.9806 21.596L13.2826 21.426C14.4046 20.795 15.4217 20.028 16.3297 19.158L3.73165 6.55996ZM3.29325 3.29336C3.68425 2.90236 4.31625 2.90236 4.70725 3.29336L20.7073 19.2934C21.0983 19.6844 21.0983 20.3164 20.7073 20.7074C20.5123 20.9024 20.2563 21.0004 20.0002 21.0004C19.7442 21.0004 19.4882 20.9024 19.2932 20.7074L3.29325 4.70736C2.90225 4.31636 2.90225 3.68436 3.29325 3.29336Z" fill="white"/>
</mask>
<g mask="url(#mask0_11506_95508)">
</g>
</g>
</svg>
