<svg width="72" height="120" viewBox="0 0 72 120" fill="none" xmlns="http://www.w3.org/2000/svg">
<rect x="0.5" y="0.5" width="71" height="119" rx="4.5" stroke="#8C8C8C" stroke-dasharray="10 5"/>
<path fill-rule="evenodd" clip-rule="evenodd" d="M31.3333 41C31.1492 41 31 40.8508 31 40.6667V37C31 36.4477 30.5523 36 30 36C29.4477 36 29 36.4477 29 37V40.6667C29 41.9553 30.0447 43 31.3333 43H35C35.5523 43 36 42.5523 36 42C36 41.4477 35.5523 41 35 41H31.3333ZM40.6667 31C40.8508 31 41 31.1492 41 31.3333V35C41 35.5523 41.4477 36 42 36C42.5523 36 43 35.5523 43 35V31.3333C43 30.0447 41.9553 29 40.6667 29H37C36.4477 29 36 29.4477 36 30C36 30.5523 36.4477 31 37 31H40.6667Z" fill="black"/>
<rect x="26" y="26" width="20" height="20" rx="4" stroke="black" stroke-width="1.8"/>
<path fill-rule="evenodd" clip-rule="evenodd" d="M32.6667 87C32.8508 87 33 87.1492 33 87.3333V91C33 91.5523 33.4477 92 34 92C34.5523 92 35 91.5523 35 91V87.3333C35 86.0447 33.9553 85 32.6667 85H29C28.4477 85 28 85.4477 28 86C28 86.5523 28.4477 87 29 87H32.6667ZM39.3333 81C39.1492 81 39 80.8508 39 80.6667V77C39 76.4477 38.5523 76 38 76C37.4477 76 37 76.4477 37 77V80.6667C37 81.9553 38.0447 83 39.3333 83H43C43.5523 83 44 82.5523 44 82C44 81.4477 43.5523 81 43 81H39.3333Z" fill="black"/>
<rect x="26" y="74" width="20" height="20" rx="4" stroke="black" stroke-width="1.8"/>
</svg>
