<svg width="24" height="24" viewBox="0 0 24 24" fill="none" xmlns="http://www.w3.org/2000/svg">
<g id="icon/general/24x24/outline/skip-forward">
<path id="&#240;&#159;&#142;&#168; Icon &#208;&#161;olor" fill-rule="evenodd" clip-rule="evenodd" d="M15 7.00027C15 6.44727 15.448 6.00027 16 6.00027C16.552 6.00027 17 6.44727 17 7.00027V17.0003C17 17.5533 16.552 18.0003 16 18.0003C15.448 18.0003 15 17.5533 15 17.0003V13.1813C14.9853 13.1965 14.9713 13.2121 14.9572 13.2276C14.9263 13.2619 14.8955 13.296 14.859 13.3263L9.759 17.5393C9.391 17.8443 8.927 18.0013 8.456 18.0013C8.149 18.0013 7.839 17.9343 7.55 17.7993C6.902 17.4933 6.5 16.8863 6.5 16.2133V7.78727C6.5 7.11427 6.902 6.50727 7.55 6.20127C8.282 5.85627 9.15 5.95827 9.759 6.46027L14.858 10.6743C14.8965 10.7056 14.9283 10.7405 14.9605 10.7757C14.9735 10.7899 14.9865 10.8042 15 10.8183V7.00027ZM8.5 8.01427V15.9083L13.322 11.9983L8.5 8.01427Z" fill="#383B46"/>
<mask id="mask0_11506_94315" style="mask-type:luminance" maskUnits="userSpaceOnUse" x="6" y="5" width="11" height="14">
<path id="&#240;&#159;&#142;&#168; Icon &#208;&#161;olor_2" fill-rule="evenodd" clip-rule="evenodd" d="M15 7.00027C15 6.44727 15.448 6.00027 16 6.00027C16.552 6.00027 17 6.44727 17 7.00027V17.0003C17 17.5533 16.552 18.0003 16 18.0003C15.448 18.0003 15 17.5533 15 17.0003V13.1813C14.9853 13.1965 14.9713 13.2121 14.9572 13.2276C14.9263 13.2619 14.8955 13.296 14.859 13.3263L9.759 17.5393C9.391 17.8443 8.927 18.0013 8.456 18.0013C8.149 18.0013 7.839 17.9343 7.55 17.7993C6.902 17.4933 6.5 16.8863 6.5 16.2133V7.78727C6.5 7.11427 6.902 6.50727 7.55 6.20127C8.282 5.85627 9.15 5.95827 9.759 6.46027L14.858 10.6743C14.8965 10.7056 14.9283 10.7405 14.9605 10.7757C14.9735 10.7899 14.9865 10.8042 15 10.8183V7.00027ZM8.5 8.01427V15.9083L13.322 11.9983L8.5 8.01427Z" fill="white"/>
</mask>
<g mask="url(#mask0_11506_94315)">
</g>
</g>
</svg>
