<svg width="24" height="24" viewBox="0 0 24 24" fill="none" xmlns="http://www.w3.org/2000/svg">
<g id="icon/general/24x24/fill/skip-back-fill">
<path id="&#240;&#159;&#142;&#168; Icon &#208;&#161;olor" d="M16.45 6.20097C15.716 5.85597 14.848 5.95797 14.241 6.46097L9.141 10.674C9.088 10.718 9.047 10.769 9 10.818V6.99997C9 6.44697 8.552 5.99997 8 5.99997C7.448 5.99997 7 6.44697 7 6.99997V17C7 17.553 7.448 18 8 18C8.552 18 9 17.553 9 17V13.181C9.047 13.23 9.088 13.282 9.141 13.326L14.241 17.54C14.609 17.844 15.073 18.001 15.544 18.001C15.851 18.001 16.161 17.934 16.45 17.799C17.097 17.493 17.5 16.886 17.5 16.213V7.78697C17.5 7.11397 17.097 6.50697 16.45 6.20097Z" fill="#383B46"/>
<mask id="mask0_11506_96011" style="mask-type:luminance" maskUnits="userSpaceOnUse" x="7" y="5" width="11" height="14">
<path id="&#240;&#159;&#142;&#168; Icon &#208;&#161;olor_2" d="M16.45 6.20097C15.716 5.85597 14.848 5.95797 14.241 6.46097L9.141 10.674C9.088 10.718 9.047 10.769 9 10.818V6.99997C9 6.44697 8.552 5.99997 8 5.99997C7.448 5.99997 7 6.44697 7 6.99997V17C7 17.553 7.448 18 8 18C8.552 18 9 17.553 9 17V13.181C9.047 13.23 9.088 13.282 9.141 13.326L14.241 17.54C14.609 17.844 15.073 18.001 15.544 18.001C15.851 18.001 16.161 17.934 16.45 17.799C17.097 17.493 17.5 16.886 17.5 16.213V7.78697C17.5 7.11397 17.097 6.50697 16.45 6.20097Z" fill="white"/>
</mask>
<g mask="url(#mask0_11506_96011)">
</g>
</g>
</svg>
