<svg width="24" height="24" viewBox="0 0 24 24" fill="none" xmlns="http://www.w3.org/2000/svg">
<path fill-rule="evenodd" clip-rule="evenodd" d="M22 12C22 17.5228 17.5229 22 12 22C6.47716 22 2 17.5228 2 12C2 6.47715 6.47716 2 12 2C17.5229 2 22 6.47715 22 12ZM9 9C9 8.44772 8.55229 8 8 8C7.44772 8 7 8.44772 7 9V11C7 11.5523 7.44772 12 8 12C8.55229 12 9 11.5523 9 11V9ZM16 8C16.5523 8 17 8.44772 17 9V11C17 11.5523 16.5523 12 16 12C15.4477 12 15 11.5523 15 11V9C15 8.44772 15.4477 8 16 8ZM11.9997 17.2C10.7538 17.2 9.61485 16.5207 8.93988 15.4182C8.68058 14.9946 8.79213 14.427 9.18903 14.1503C9.58594 13.8736 10.1179 13.9926 10.3772 14.4161C10.7398 15.0084 11.3425 15.3679 11.9997 15.3679C12.6572 15.3679 13.2601 15.0081 13.6226 14.4154C13.8818 13.9918 14.4137 13.8725 14.8107 14.1491C15.2077 14.4256 15.3195 14.9932 15.0603 15.4169C14.3855 16.5201 13.2462 17.2 11.9997 17.2Z" fill="black"/>
</svg>
