<svg width="24" height="24" viewBox="0 0 24 24" fill="none" xmlns="http://www.w3.org/2000/svg">
<path d="M13.659 7.79883L17.6428 9.45873C18.1191 9.6608 18.1191 10.3248 17.6428 10.5268L13.659 12.2012C12.995 12.4754 12.4754 12.995 12.2012 13.659L10.5413 17.6428C10.3392 18.1191 9.67524 18.1191 9.47316 17.6428L7.79883 13.659C7.52458 12.995 7.00496 12.4754 6.341 12.2012L2.35724 10.5268C1.88092 10.3248 1.88092 9.6608 2.35724 9.45873L6.341 7.79883C7.00496 7.52458 7.52458 6.99053 7.79883 6.341L9.45873 2.35724C9.6608 1.88092 10.3248 1.88092 10.5268 2.35724L12.1867 6.341C12.4754 7.00496 12.995 7.52458 13.659 7.79883Z" stroke="black" stroke-width="1.8" stroke-linejoin="round"/>
<path d="M18.8721 18.1746L20.366 18.797C20.5447 18.8728 20.5447 19.1218 20.366 19.1976L18.8721 19.8254C18.6231 19.9283 18.4283 20.1231 18.3254 20.3721L17.703 21.866C17.6272 22.0447 17.3782 22.0447 17.3024 21.866L16.6746 20.3721C16.5717 20.1231 16.3769 19.9283 16.1279 19.8254L14.634 19.1976C14.4553 19.1218 14.4553 18.8728 14.634 18.797L16.1279 18.1746C16.3769 18.0717 16.5717 17.8714 16.6746 17.6279L17.297 16.134C17.3728 15.9553 17.6218 15.9553 17.6976 16.134L18.32 17.6279C18.4283 17.8769 18.6231 18.0717 18.8721 18.1746Z" stroke="black" stroke-width="1.2" stroke-linejoin="round"/>
</svg>
