<svg width="24" height="24" viewBox="0 0 24 24" fill="none" xmlns="http://www.w3.org/2000/svg">
<g id="icon/general/24x24/outline/square">
<path id="&#240;&#159;&#142;&#168; Icon &#208;&#161;olor" fill-rule="evenodd" clip-rule="evenodd" d="M6 21H18C19.654 21 21 19.654 21 18V6C21 4.346 19.654 3 18 3H6C4.346 3 3 4.346 3 6V18C3 19.654 4.346 21 6 21ZM5 6C5 5.449 5.449 5 6 5H18C18.551 5 19 5.449 19 6V18C19 18.551 18.551 19 18 19H6C5.449 19 5 18.551 5 18V6Z" fill="#383B46"/>
<mask id="mask0_11506_93586" style="mask-type:luminance" maskUnits="userSpaceOnUse" x="3" y="3" width="18" height="18">
<path id="&#240;&#159;&#142;&#168; Icon &#208;&#161;olor_2" fill-rule="evenodd" clip-rule="evenodd" d="M6 21H18C19.654 21 21 19.654 21 18V6C21 4.346 19.654 3 18 3H6C4.346 3 3 4.346 3 6V18C3 19.654 4.346 21 6 21ZM5 6C5 5.449 5.449 5 6 5H18C18.551 5 19 5.449 19 6V18C19 18.551 18.551 19 18 19H6C5.449 19 5 18.551 5 18V6Z" fill="white"/>
</mask>
<g mask="url(#mask0_11506_93586)">
</g>
</g>
</svg>
