<svg width="24" height="24" viewBox="0 0 24 24" fill="none" xmlns="http://www.w3.org/2000/svg">
<path d="M13.659 7.79883L17.6428 9.45873C18.1191 9.6608 18.1191 10.3248 17.6428 10.5268L13.659 12.2012C12.995 12.4754 12.4754 12.995 12.2012 13.659L10.5413 17.6428C10.3392 18.1191 9.67524 18.1191 9.47316 17.6428L7.79883 13.659C7.52458 12.995 7.00496 12.4754 6.341 12.2012L2.35724 10.5268C1.88092 10.3248 1.88092 9.6608 2.35724 9.45873L6.341 7.79883C7.00496 7.52458 7.52458 6.99053 7.79883 6.341L9.45873 2.35724C9.6608 1.88092 10.3248 1.88092 10.5268 2.35724L12.1867 6.341C12.4754 7.00496 12.995 7.52458 13.659 7.79883Z" fill="black"/>
<path d="M18.5582 16.7618L20.7991 17.6955C21.067 17.8092 21.067 18.1827 20.7991 18.2963L18.5582 19.2382C18.1847 19.3924 17.8924 19.6847 17.7382 20.0582L16.8045 22.2991C16.6908 22.567 16.3173 22.567 16.2037 22.2991L15.2618 20.0582C15.1076 19.6847 14.8153 19.3924 14.4418 19.2382L12.2009 18.2963C11.933 18.1827 11.933 17.8092 12.2009 17.6955L14.4418 16.7618C14.8153 16.6076 15.1076 16.3072 15.2618 15.9418L16.1955 13.7009C16.3092 13.433 16.6827 13.433 16.7963 13.7009L17.73 15.9418C17.8924 16.3153 18.1847 16.6076 18.5582 16.7618Z" fill="black"/>
</svg>
