<svg width="24" height="24" viewBox="0 0 24 24" fill="none" xmlns="http://www.w3.org/2000/svg">
<g id="icon/general/24x24/fill/trash-fill">
<path id="&#240;&#159;&#142;&#168; Icon &#208;&#161;olor" fill-rule="evenodd" clip-rule="evenodd" d="M20 5.99951H21C21.55 5.99951 22 6.45051 22 6.99951C22 7.54951 21.55 7.99951 21 7.99951H20V18.9995C20 20.6545 18.654 21.9995 17 21.9995H7C5.346 21.9995 4 20.6545 4 18.9995V7.99951H3C2.45 7.99951 2 7.54951 2 6.99951C2 6.45051 2.45 5.99951 3 5.99951H4H8V4.32751C8 3.04351 9.121 1.99951 10.5 1.99951H13.5C14.879 1.99951 16 3.04351 16 4.32751V5.99951H20ZM10.5 3.99951C10.214 3.99951 10 4.17251 10 4.32751V5.99951H14V4.32751C14 4.17251 13.786 3.99951 13.5 3.99951H10.5Z" fill="#383B46"/>
<mask id="mask0_11506_95945" style="mask-type:luminance" maskUnits="userSpaceOnUse" x="2" y="1" width="20" height="21">
<path id="&#240;&#159;&#142;&#168; Icon &#208;&#161;olor_2" fill-rule="evenodd" clip-rule="evenodd" d="M20 5.99951H21C21.55 5.99951 22 6.45051 22 6.99951C22 7.54951 21.55 7.99951 21 7.99951H20V18.9995C20 20.6545 18.654 21.9995 17 21.9995H7C5.346 21.9995 4 20.6545 4 18.9995V7.99951H3C2.45 7.99951 2 7.54951 2 6.99951C2 6.45051 2.45 5.99951 3 5.99951H4H8V4.32751C8 3.04351 9.121 1.99951 10.5 1.99951H13.5C14.879 1.99951 16 3.04351 16 4.32751V5.99951H20ZM10.5 3.99951C10.214 3.99951 10 4.17251 10 4.32751V5.99951H14V4.32751C14 4.17251 13.786 3.99951 13.5 3.99951H10.5Z" fill="white"/>
</mask>
<g mask="url(#mask0_11506_95945)">
</g>
</g>
</svg>
