<svg width="24" height="24" viewBox="0 0 24 24" fill="none" xmlns="http://www.w3.org/2000/svg">
<g id="icon/general/24x24/outline/umbrella">
<path id="&#240;&#159;&#142;&#168; Icon &#208;&#161;olor" fill-rule="evenodd" clip-rule="evenodd" d="M2 12C2 6.486 6.487 2 12 2C17.514 2 22 6.486 22 12C22 12.553 21.553 13 21 13H13.001V19C13.001 19.552 13.449 20 14.001 20C14.552 20 15.001 19.552 15.001 19C15.001 18.447 15.448 18 16.001 18C16.553 18 17.001 18.447 17.001 19C17.001 20.654 15.655 22 14.001 22C12.346 22 11 20.654 11 19V13H3.001C2.448 13 2 12.553 2 12ZM12 4C7.928 4 4.556 7.06 4.063 11H19.938C19.445 7.06 16.073 4 12 4Z" fill="#383B46"/>
<mask id="mask0_11506_93792" style="mask-type:luminance" maskUnits="userSpaceOnUse" x="2" y="2" width="20" height="20">
<path id="&#240;&#159;&#142;&#168; Icon &#208;&#161;olor_2" fill-rule="evenodd" clip-rule="evenodd" d="M2 12C2 6.486 6.487 2 12 2C17.514 2 22 6.486 22 12C22 12.553 21.553 13 21 13H13.001V19C13.001 19.552 13.449 20 14.001 20C14.552 20 15.001 19.552 15.001 19C15.001 18.447 15.448 18 16.001 18C16.553 18 17.001 18.447 17.001 19C17.001 20.654 15.655 22 14.001 22C12.346 22 11 20.654 11 19V13H3.001C2.448 13 2 12.553 2 12ZM12 4C7.928 4 4.556 7.06 4.063 11H19.938C19.445 7.06 16.073 4 12 4Z" fill="white"/>
</mask>
<g mask="url(#mask0_11506_93792)">
</g>
</g>
</svg>
