<svg width="24" height="24" viewBox="0 0 24 24" fill="none" xmlns="http://www.w3.org/2000/svg">
<path fill-rule="evenodd" clip-rule="evenodd" d="M14.5838 5.20189L13.7038 3.41868C13.0068 2.00652 10.9931 2.00652 10.2962 3.41868L8.19278 7.68066C8.17821 7.71018 8.15005 7.73063 8.11748 7.73537L3.41411 8.41881C1.85569 8.64526 1.23342 10.5604 2.36111 11.6596L5.28046 14.5053L6.55335 13.2324L3.61753 10.3707C3.5959 10.3496 3.59057 10.3342 3.58827 10.324C3.58515 10.3101 3.58502 10.2903 3.59222 10.2682C3.59942 10.246 3.61114 10.2301 3.62183 10.2207C3.62971 10.2138 3.64306 10.2044 3.67295 10.2001L8.37632 9.51666C8.99517 9.42673 9.53014 9.03805 9.8069 8.47728L11.9103 4.2153C11.9237 4.18822 11.9367 4.1784 11.9457 4.17305C11.9579 4.16579 11.9767 4.15956 12 4.15956C12.0233 4.15956 12.042 4.16579 12.0543 4.17305C12.0633 4.1784 12.0763 4.18822 12.0897 4.2153L13.2399 6.54587L14.5838 5.20189ZM7.5945 15.0197C7.59628 15.1359 7.58738 15.2531 7.56735 15.3699L6.76392 20.0543C6.75881 20.084 6.76355 20.0996 6.76771 20.1093C6.77334 20.1223 6.78485 20.1384 6.8037 20.1521C6.82255 20.1658 6.84139 20.1718 6.85556 20.1731C6.86601 20.1741 6.88228 20.1737 6.90902 20.1597L11.1158 17.948C11.6694 17.657 12.3306 17.657 12.8841 17.948L17.091 20.1597C17.1177 20.1737 17.134 20.1741 17.1444 20.1731C17.1586 20.1718 17.1774 20.1658 17.1963 20.1521C17.2151 20.1384 17.2266 20.1223 17.2323 20.1093C17.2364 20.0996 17.2412 20.084 17.2361 20.0543L16.4326 15.3699C16.3269 14.7536 16.5313 14.1247 16.9791 13.6882L20.3824 10.3707C20.4041 10.3496 20.4094 10.3342 20.4117 10.324C20.4148 10.3101 20.415 10.2903 20.4078 10.2682C20.4006 10.246 20.3888 10.2301 20.3781 10.2207C20.3703 10.2138 20.3569 10.2044 20.327 10.2001L15.6237 9.51666C15.0048 9.42673 14.4698 9.03805 14.1931 8.47728L14.1745 8.43966L15.5185 7.09567L15.8072 7.68066C15.8218 7.71018 15.8499 7.73063 15.8825 7.73537L20.5859 8.41881C22.1443 8.64526 22.7666 10.5604 21.6389 11.6596L18.2355 14.9771C18.2119 15.0001 18.2012 15.0332 18.2067 15.0656L19.0101 19.75C19.2764 21.3021 17.6472 22.4857 16.2533 21.7529L12.0465 19.5413C12.0174 19.526 11.9826 19.526 11.9535 19.5413L7.74663 21.7529C6.35274 22.4857 4.72362 21.3021 4.98983 19.75L5.42988 17.1843L7.5945 15.0197Z" fill="black"/>
<path d="M20 4L3 21" stroke="black" stroke-width="2" stroke-linecap="round"/>
<path d="M21 3L3 21" stroke="black" stroke-width="2" stroke-linecap="round"/>
</svg>
