<svg width="24" height="24" viewBox="0 0 24 24" fill="none" xmlns="http://www.w3.org/2000/svg">
<g id="icon/general/24x24/outline/undo">
<path id="&#240;&#159;&#142;&#168; Icon &#208;&#161;olor" fill-rule="evenodd" clip-rule="evenodd" d="M19.249 20.237C19.358 20.685 19.76 21 20.221 21C20.683 21 21.084 20.685 21.192 20.236C21.396 19.396 21.5 18.56 21.5 17.75C21.5 12.15 17.078 7.53698 11.454 7.04398V5.82598C11.454 5.11998 11.035 4.49098 10.361 4.18598C9.63 3.85298 8.777 3.97298 8.184 4.48998L3.118 8.91398C2.725 9.25798 2.5 9.74498 2.5 10.25C2.5 10.755 2.725 11.242 3.118 11.586L8.184 16.01C8.777 16.527 9.63 16.647 10.361 16.314C11.035 16.009 11.454 15.38 11.454 14.674V13.553C15.228 13.952 18.359 16.588 19.249 20.237ZM19.264 15.759C17.231 13.134 14.017 11.5 10.454 11.5C9.901 11.5 9.454 11.947 9.454 12.5V14.463L4.63 10.251L9.454 6.07698V7.99998C9.454 8.55298 9.901 8.99998 10.454 8.99998C14.734 8.99998 18.329 11.89 19.264 15.759Z" fill="#383B46"/>
<mask id="mask0_11506_95147" style="mask-type:luminance" maskUnits="userSpaceOnUse" x="2" y="3" width="20" height="18">
<path id="&#240;&#159;&#142;&#168; Icon &#208;&#161;olor_2" fill-rule="evenodd" clip-rule="evenodd" d="M19.249 20.237C19.358 20.685 19.76 21 20.221 21C20.683 21 21.084 20.685 21.192 20.236C21.396 19.396 21.5 18.56 21.5 17.75C21.5 12.15 17.078 7.53698 11.454 7.04398V5.82598C11.454 5.11998 11.035 4.49098 10.361 4.18598C9.63 3.85298 8.777 3.97298 8.184 4.48998L3.118 8.91398C2.725 9.25798 2.5 9.74498 2.5 10.25C2.5 10.755 2.725 11.242 3.118 11.586L8.184 16.01C8.777 16.527 9.63 16.647 10.361 16.314C11.035 16.009 11.454 15.38 11.454 14.674V13.553C15.228 13.952 18.359 16.588 19.249 20.237ZM19.264 15.759C17.231 13.134 14.017 11.5 10.454 11.5C9.901 11.5 9.454 11.947 9.454 12.5V14.463L4.63 10.251L9.454 6.07698V7.99998C9.454 8.55298 9.901 8.99998 10.454 8.99998C14.734 8.99998 18.329 11.89 19.264 15.759Z" fill="white"/>
</mask>
<g mask="url(#mask0_11506_95147)">
</g>
</g>
</svg>
