<svg width="24" height="24" viewBox="0 0 24 24" fill="none" xmlns="http://www.w3.org/2000/svg">
<g id="icon/general/24x24/fill/undo-fill">
<path id="&#240;&#159;&#142;&#168; Icon &#208;&#161;olor" d="M20.221 21C19.76 21 19.359 20.685 19.249 20.237C18.36 16.588 15.229 13.952 11.454 13.553V14.674C11.454 15.38 11.035 16.009 10.362 16.314C9.63 16.647 8.778 16.527 8.185 16.01L3.118 11.586C2.726 11.242 2.5 10.755 2.5 10.25C2.5 9.74498 2.726 9.25798 3.118 8.91398L8.185 4.48998C8.778 3.97298 9.63 3.85298 10.362 4.18598C11.035 4.49098 11.454 5.11998 11.454 5.82598V7.04398C17.078 7.53698 21.5 12.15 21.5 17.75C21.5 18.56 21.397 19.396 21.193 20.236C21.084 20.685 20.683 21 20.221 21Z" fill="#383B46"/>
<mask id="mask0_11506_96519" style="mask-type:luminance" maskUnits="userSpaceOnUse" x="2" y="3" width="20" height="18">
<path id="&#240;&#159;&#142;&#168; Icon &#208;&#161;olor_2" d="M20.221 21C19.76 21 19.359 20.685 19.249 20.237C18.36 16.588 15.229 13.952 11.454 13.553V14.674C11.454 15.38 11.035 16.009 10.362 16.314C9.63 16.647 8.778 16.527 8.185 16.01L3.118 11.586C2.726 11.242 2.5 10.755 2.5 10.25C2.5 9.74498 2.726 9.25798 3.118 8.91398L8.185 4.48998C8.778 3.97298 9.63 3.85298 10.362 4.18598C11.035 4.49098 11.454 5.11998 11.454 5.82598V7.04398C17.078 7.53698 21.5 12.15 21.5 17.75C21.5 18.56 21.397 19.396 21.193 20.236C21.084 20.685 20.683 21 20.221 21Z" fill="white"/>
</mask>
<g mask="url(#mask0_11506_96519)">
</g>
</g>
</svg>
