<svg width="24" height="24" viewBox="0 0 24 24" fill="none" xmlns="http://www.w3.org/2000/svg">
<path d="M16 21V19.3333C16 18.4493 15.5786 17.6014 14.8284 16.9763C14.0783 16.3512 13.0609 16 12 16H6C4.93913 16 3.92172 16.3512 3.17157 16.9763C2.42143 17.6014 2 18.4493 2 19.3333V21" stroke="black" stroke-width="1.8" stroke-linecap="round" stroke-linejoin="round"/>
<path d="M9 12C11.2091 12 13 10.2091 13 8C13 5.79086 11.2091 4 9 4C6.79086 4 5 5.79086 5 8C5 10.2091 6.79086 12 9 12Z" stroke="black" stroke-width="1.8" stroke-linecap="round" stroke-linejoin="round"/>
<path d="M21 21V20C20.9993 19.1137 20.7044 18.2528 20.1614 17.5523C19.6184 16.8519 18.8581 16.3516 18 16.13" stroke="black" stroke-width="1.8" stroke-linecap="round" stroke-linejoin="round"/>
<path d="M16 4.13C16.8604 4.35031 17.623 4.85071 18.1676 5.55232C18.7122 6.25392 19.0078 7.11683 19.0078 8.005C19.0078 8.89318 18.7122 9.75608 18.1676 10.4577C17.623 11.1593 16.8604 11.6597 16 11.88" stroke="black" stroke-width="1.8" stroke-linecap="round" stroke-linejoin="round"/>
</svg>
