<svg width="24" height="24" viewBox="0 0 24 24" fill="none" xmlns="http://www.w3.org/2000/svg">
<path d="M15 21V19C15 17.9391 14.5786 16.9217 13.8284 16.1716C13.0783 15.4214 12.0609 15 11 15H6C4.93913 15 3.92172 15.4214 3.17157 16.1716C2.42143 16.9217 2 17.9391 2 19V21" stroke="black" stroke-width="1.8" stroke-linecap="round" stroke-linejoin="round"/>
<path d="M8.5 11C10.7091 11 12.5 9.20914 12.5 7C12.5 4.79086 10.7091 3 8.5 3C6.29086 3 4.5 4.79086 4.5 7C4.5 9.20914 6.29086 11 8.5 11Z" stroke="black" stroke-width="1.8" stroke-linecap="round" stroke-linejoin="round"/>
<path d="M19 8V14" stroke="black" stroke-width="1.8" stroke-linecap="round" stroke-linejoin="round"/>
<path d="M22 11H16" stroke="black" stroke-width="1.8" stroke-linecap="round" stroke-linejoin="round"/>
</svg>
