<svg width="24" height="24" viewBox="0 0 24 24" fill="none" xmlns="http://www.w3.org/2000/svg">
<g id="icon/general/24x24/fill/video-off-fill">
<path id="&#240;&#159;&#142;&#168; Icon &#208;&#161;olor" fill-rule="evenodd" clip-rule="evenodd" d="M15.0004 13.586L17.0004 15.586L20.7074 19.293C21.0984 19.684 21.0984 20.316 20.7074 20.707C20.5124 20.902 20.2564 21 20.0004 21C19.7444 21 19.4884 20.902 19.2934 20.707L16.3864 17.8L14.9314 16.345L5.5864 7.00001L3.8264 5.24001L3.2934 4.70701C2.9024 4.31601 2.9024 3.68401 3.2934 3.29301C3.6844 2.90201 4.3164 2.90201 4.7074 3.29301L6.4144 5.00001L8.4144 7.00001L15.0004 13.586ZM21.0121 7.14551C20.3861 6.87351 19.6601 6.99151 19.1611 7.45151L17.0001 9.45151V7.99951C17.0001 6.34551 15.6551 4.99951 14.0001 4.99951H7.8281L9.1211 6.29251L15.7071 12.8785L17.7071 14.8785L19.7181 16.8895C19.9101 16.9615 20.1141 16.9995 20.3201 16.9995C20.5531 16.9995 20.7881 16.9525 21.0121 16.8545C21.6211 16.5885 22.0001 16.0195 22.0001 15.3705V8.62951C22.0001 7.98051 21.6211 7.41151 21.0121 7.14551ZM14.224 17.0518L4.879 7.70681L3.12 5.94781L2.974 5.80181C2.379 6.35081 2 7.12881 2 7.99981V15.9998C2 17.6548 3.346 18.9998 5 18.9998H14C14.617 18.9998 15.189 18.8128 15.665 18.4928L14.224 17.0518Z" fill="#383B46"/>
<mask id="mask0_11506_96570" style="mask-type:luminance" maskUnits="userSpaceOnUse" x="2" y="2" width="20" height="19">
<path id="&#240;&#159;&#142;&#168; Icon &#208;&#161;olor_2" fill-rule="evenodd" clip-rule="evenodd" d="M15.0004 13.586L17.0004 15.586L20.7074 19.293C21.0984 19.684 21.0984 20.316 20.7074 20.707C20.5124 20.902 20.2564 21 20.0004 21C19.7444 21 19.4884 20.902 19.2934 20.707L16.3864 17.8L14.9314 16.345L5.5864 7.00001L3.8264 5.24001L3.2934 4.70701C2.9024 4.31601 2.9024 3.68401 3.2934 3.29301C3.6844 2.90201 4.3164 2.90201 4.7074 3.29301L6.4144 5.00001L8.4144 7.00001L15.0004 13.586ZM21.0121 7.14551C20.3861 6.87351 19.6601 6.99151 19.1611 7.45151L17.0001 9.45151V7.99951C17.0001 6.34551 15.6551 4.99951 14.0001 4.99951H7.8281L9.1211 6.29251L15.7071 12.8785L17.7071 14.8785L19.7181 16.8895C19.9101 16.9615 20.1141 16.9995 20.3201 16.9995C20.5531 16.9995 20.7881 16.9525 21.0121 16.8545C21.6211 16.5885 22.0001 16.0195 22.0001 15.3705V8.62951C22.0001 7.98051 21.6211 7.41151 21.0121 7.14551ZM14.224 17.0518L4.879 7.70681L3.12 5.94781L2.974 5.80181C2.379 6.35081 2 7.12881 2 7.99981V15.9998C2 17.6548 3.346 18.9998 5 18.9998H14C14.617 18.9998 15.189 18.8128 15.665 18.4928L14.224 17.0518Z" fill="white"/>
</mask>
<g mask="url(#mask0_11506_96570)">
</g>
</g>
</svg>
