<svg width="24" height="24" viewBox="0 0 24 24" fill="none" xmlns="http://www.w3.org/2000/svg">
<g id="icon/general/24x24/outline/video">
<path id="&#240;&#159;&#142;&#168; Icon &#208;&#161;olor" fill-rule="evenodd" clip-rule="evenodd" d="M19.161 7.45151C19.66 6.99151 20.386 6.87251 21.012 7.14551C21.621 7.41151 22 7.98051 22 8.62951V15.3705C22 16.0195 21.621 16.5885 21.012 16.8545C20.788 16.9525 20.553 16.9995 20.319 16.9995C19.896 16.9995 19.481 16.8445 19.161 16.5475L17 14.5485V15.9995C17 17.6545 15.654 18.9995 14 18.9995H5C3.346 18.9995 2 17.6545 2 15.9995V7.99951C2 6.34551 3.346 4.99951 5 4.99951H14C15.654 4.99951 17 6.34551 17 7.99951V9.45151L19.161 7.45151ZM15 15.9995C15 16.5515 14.552 16.9995 14 16.9995H5C4.448 16.9995 4 16.5515 4 15.9995V7.99951C4 7.44851 4.448 6.99951 5 6.99951H14C14.552 6.99951 15 7.44851 15 7.99951V15.9995ZM20 14.5995L17.191 11.9995L20 9.40051V14.5995Z" fill="#383B46"/>
<mask id="mask0_11506_95138" style="mask-type:luminance" maskUnits="userSpaceOnUse" x="2" y="4" width="20" height="15">
<path id="&#240;&#159;&#142;&#168; Icon &#208;&#161;olor_2" fill-rule="evenodd" clip-rule="evenodd" d="M19.161 7.45151C19.66 6.99151 20.386 6.87251 21.012 7.14551C21.621 7.41151 22 7.98051 22 8.62951V15.3705C22 16.0195 21.621 16.5885 21.012 16.8545C20.788 16.9525 20.553 16.9995 20.319 16.9995C19.896 16.9995 19.481 16.8445 19.161 16.5475L17 14.5485V15.9995C17 17.6545 15.654 18.9995 14 18.9995H5C3.346 18.9995 2 17.6545 2 15.9995V7.99951C2 6.34551 3.346 4.99951 5 4.99951H14C15.654 4.99951 17 6.34551 17 7.99951V9.45151L19.161 7.45151ZM15 15.9995C15 16.5515 14.552 16.9995 14 16.9995H5C4.448 16.9995 4 16.5515 4 15.9995V7.99951C4 7.44851 4.448 6.99951 5 6.99951H14C14.552 6.99951 15 7.44851 15 7.99951V15.9995ZM20 14.5995L17.191 11.9995L20 9.40051V14.5995Z" fill="white"/>
</mask>
<g mask="url(#mask0_11506_95138)">
</g>
</g>
</svg>
