<svg width="24" height="24" viewBox="0 0 24 24" fill="none" xmlns="http://www.w3.org/2000/svg">
<g id="icon/general/24x24/fill/video-fill">
<path id="&#240;&#159;&#142;&#168; Icon &#208;&#161;olor" d="M21.012 7.14551C20.386 6.87351 19.66 6.99151 19.161 7.45151L17 9.45151V7.99951C17 6.34551 15.655 4.99951 14 4.99951H5C3.346 4.99951 2 6.34551 2 7.99951V15.9995C2 17.6545 3.346 18.9995 5 18.9995H14C15.655 18.9995 17 17.6545 17 15.9995V14.5485L19.161 16.5475C19.482 16.8445 19.897 16.9995 20.32 16.9995C20.553 16.9995 20.788 16.9525 21.012 16.8545C21.621 16.5885 22 16.0195 22 15.3705V8.62951C22 7.98051 21.621 7.41151 21.012 7.14551Z" fill="#383B46"/>
<mask id="mask0_11506_96516" style="mask-type:luminance" maskUnits="userSpaceOnUse" x="2" y="4" width="20" height="15">
<path id="&#240;&#159;&#142;&#168; Icon &#208;&#161;olor_2" d="M21.012 7.14551C20.386 6.87351 19.66 6.99151 19.161 7.45151L17 9.45151V7.99951C17 6.34551 15.655 4.99951 14 4.99951H5C3.346 4.99951 2 6.34551 2 7.99951V15.9995C2 17.6545 3.346 18.9995 5 18.9995H14C15.655 18.9995 17 17.6545 17 15.9995V14.5485L19.161 16.5475C19.482 16.8445 19.897 16.9995 20.32 16.9995C20.553 16.9995 20.788 16.9525 21.012 16.8545C21.621 16.5885 22 16.0195 22 15.3705V8.62951C22 7.98051 21.621 7.41151 21.012 7.14551Z" fill="white"/>
</mask>
<g mask="url(#mask0_11506_96516)">
</g>
</g>
</svg>
