<svg width="24" height="24" viewBox="0 0 24 24" fill="none" xmlns="http://www.w3.org/2000/svg">
<g id="icon/general/24x24/outline/video-off">
<path id="&#240;&#159;&#142;&#168; Icon &#208;&#161;olor" fill-rule="evenodd" clip-rule="evenodd" d="M20.707 20.7075C21.098 20.3165 21.098 19.6835 20.707 19.2935L17 15.5865L15 13.5865L8.414 7.00049L6.414 5.00049L4.707 3.29349C4.316 2.90249 3.684 2.90249 3.293 3.29349C2.902 3.68349 2.902 4.31649 3.293 4.70749L3.826 5.24049L5.586 7.00049L14.931 16.3445L16.386 17.7995L19.293 20.7075C19.488 20.9025 19.744 21.0005 20 21.0005C20.256 21.0005 20.512 20.9025 20.707 20.7075ZM22 15.3705V8.62949C22 7.98049 21.621 7.41149 21.012 7.14549C20.386 6.87349 19.66 6.99149 19.161 7.45149L17 9.45149V8.00049C17 6.34549 15.654 5.00049 14 5.00049H7.828L9.828 7.00049H14C14.552 7.00049 15 7.44849 15 8.00049V12.1715L19.718 16.8895C19.91 16.9625 20.113 17.0005 20.319 17.0005C20.553 17.0005 20.788 16.9525 21.012 16.8545C21.621 16.5885 22 16.0195 22 15.3705ZM17.191 12.0005L20 9.40049V14.5995L17.191 12.0005ZM14 17.0005H5C4.448 17.0005 4 16.5515 4 16.0005V8.00049C4 7.67949 4.161 7.40749 4.396 7.22349L2.974 5.80149C2.379 6.35049 2 7.12949 2 8.00049V16.0005C2 17.6545 3.346 19.0005 5 19.0005H14C14.616 19.0005 15.188 18.8125 15.665 18.4935L14.143 16.9705C14.1237 16.9736 14.1054 16.9789 14.0872 16.9842C14.059 16.9924 14.031 17.0005 14 17.0005Z" fill="#383B46"/>
</g>
</svg>
