<svg width="24" height="24" viewBox="0 0 24 24" fill="none" xmlns="http://www.w3.org/2000/svg">
<rect x="2" y="4" width="20" height="16" rx="2" stroke="black" stroke-width="1.8"/>
<path d="M10.0537 8.21606L15.8408 11.886C15.9027 11.9253 15.9027 12.0157 15.8408 12.0549L10.0537 15.7258C10.0305 15.7405 10.0141 15.7433 10.0029 15.7434C9.98885 15.7435 9.97071 15.7398 9.95215 15.7297C9.93332 15.7194 9.91961 15.7057 9.91211 15.6936C9.90623 15.6841 9.90042 15.6691 9.90039 15.6418V8.30005C9.90039 8.27261 9.90622 8.25784 9.91211 8.24829C9.9196 8.23616 9.93324 8.22256 9.95215 8.21216C9.97074 8.20202 9.98883 8.19839 10.0029 8.19849C10.0142 8.19863 10.0305 8.20137 10.0537 8.21606Z" stroke="black" stroke-width="1.8"/>
</svg>
