<svg width="24" height="24" viewBox="0 0 24 24" fill="none" xmlns="http://www.w3.org/2000/svg">
<g id="icon/general/24x24/fill/volume-down-fill">
<path id="&#240;&#159;&#142;&#168; Icon &#208;&#161;olor" fill-rule="evenodd" clip-rule="evenodd" d="M15.434 3.17523C15.74 2.96523 16.137 2.94123 16.466 3.11523C16.794 3.28823 17 3.62923 17 4.00023V20.0002C17 20.3712 16.794 20.7122 16.466 20.8852C16.32 20.9622 16.159 21.0002 16 21.0002C15.801 21.0002 15.604 20.9412 15.434 20.8252L9.023 16.4282H4C3.447 16.4282 3 15.9812 3 15.4282V8.57123C3 8.01823 3.447 7.57123 4 7.57123H9.023L15.434 3.17523ZM19.373 8.22103C19.802 7.87603 20.433 7.94303 20.779 8.37303C22.415 10.407 22.415 13.593 20.779 15.627C20.581 15.872 20.291 16 19.999 16C19.779 16 19.558 15.928 19.373 15.779C18.943 15.433 18.874 14.804 19.22 14.373C20.256 13.087 20.256 10.913 19.22 9.62703C18.874 9.19603 18.943 8.56703 19.373 8.22103Z" fill="#383B46"/>
<mask id="mask0_11506_95447" style="mask-type:luminance" maskUnits="userSpaceOnUse" x="3" y="2" width="20" height="19">
<path id="&#240;&#159;&#142;&#168; Icon &#208;&#161;olor_2" fill-rule="evenodd" clip-rule="evenodd" d="M15.434 3.17523C15.74 2.96523 16.137 2.94123 16.466 3.11523C16.794 3.28823 17 3.62923 17 4.00023V20.0002C17 20.3712 16.794 20.7122 16.466 20.8852C16.32 20.9622 16.159 21.0002 16 21.0002C15.801 21.0002 15.604 20.9412 15.434 20.8252L9.023 16.4282H4C3.447 16.4282 3 15.9812 3 15.4282V8.57123C3 8.01823 3.447 7.57123 4 7.57123H9.023L15.434 3.17523ZM19.373 8.22103C19.802 7.87603 20.433 7.94303 20.779 8.37303C22.415 10.407 22.415 13.593 20.779 15.627C20.581 15.872 20.291 16 19.999 16C19.779 16 19.558 15.928 19.373 15.779C18.943 15.433 18.874 14.804 19.22 14.373C20.256 13.087 20.256 10.913 19.22 9.62703C18.874 9.19603 18.943 8.56703 19.373 8.22103Z" fill="white"/>
</mask>
<g mask="url(#mask0_11506_95447)">
</g>
</g>
</svg>
