<svg width="24" height="24" viewBox="0 0 24 24" fill="none" xmlns="http://www.w3.org/2000/svg">
<g id="icon/general/24x24/outline/volume-up">
<path id="&#240;&#159;&#142;&#168; Icon &#208;&#161;olor" fill-rule="evenodd" clip-rule="evenodd" d="M15 20.0009V4.0009C15 3.6289 14.794 3.2889 14.466 3.1159C14.137 2.9419 13.74 2.9649 13.435 3.1749L7.023 7.5719H2C1.448 7.5719 1 8.0189 1 8.5719V15.4289C1 15.9819 1.448 16.4289 2 16.4289H7.023L13.435 20.8259C13.604 20.9419 13.802 21.0009 14 21.0009C14.16 21.0009 14.32 20.9619 14.466 20.8849C14.794 20.7119 15 20.3719 15 20.0009ZM7.899 9.3969L13 5.8989V18.1019L7.899 14.6039C7.732 14.4909 7.535 14.4289 7.333 14.4289H3V9.5719H7.333C7.535 9.5719 7.732 9.5099 7.899 9.3969ZM19.138 5.2299C18.712 4.8779 18.082 4.9369 17.73 5.3629C17.377 5.7879 17.437 6.4189 17.862 6.7709C19.563 8.1799 20.5 10.0369 20.5 12.0009C20.5 13.9639 19.563 15.8209 17.862 17.2299C17.437 17.5829 17.377 18.2129 17.73 18.6379C17.928 18.8779 18.213 19.0009 18.5 19.0009C18.725 19.0009 18.951 18.9249 19.138 18.7709C21.306 16.9749 22.5 14.5699 22.5 12.0009C22.5 9.4309 21.306 7.0259 19.138 5.2299ZM17 16.0009C17.292 16.0009 17.582 15.8729 17.779 15.6279C19.416 13.5929 19.416 10.4079 17.779 8.3739C17.433 7.9439 16.803 7.8769 16.373 8.2209C15.943 8.5679 15.875 9.1969 16.221 9.6279C17.256 10.9139 17.256 13.0869 16.221 14.3739C15.875 14.8039 15.943 15.4329 16.373 15.7799C16.558 15.9279 16.779 16.0009 17 16.0009Z" fill="#383B46"/>
</g>
</svg>
