<svg width="24" height="24" viewBox="0 0 24 24" fill="none" xmlns="http://www.w3.org/2000/svg">
<g id="icon/general/24x24/outline/volume-down">
<path id="&#240;&#159;&#142;&#168; Icon &#208;&#161;olor" fill-rule="evenodd" clip-rule="evenodd" d="M16 4.0009V20.0009C16 20.3719 15.794 20.7119 15.466 20.8849C15.32 20.9619 15.16 21.0009 15 21.0009C14.802 21.0009 14.604 20.9419 14.435 20.8259L8.023 16.4289H3C2.448 16.4289 2 15.9819 2 15.4289V8.5719C2 8.0189 2.448 7.5719 3 7.5719H8.023L14.435 3.1749C14.741 2.9649 15.138 2.9419 15.466 3.1159C15.794 3.2889 16 3.6289 16 4.0009ZM14 5.8989L8.899 9.3969C8.732 9.5099 8.535 9.5719 8.333 9.5719H4V14.4289H8.333C8.535 14.4289 8.732 14.4909 8.899 14.6039L14 18.1019V5.8989ZM19 16.0009C19.292 16.0009 19.582 15.8729 19.779 15.6279C21.416 13.5929 21.416 10.4079 19.779 8.3739C19.433 7.9439 18.803 7.8769 18.373 8.2209C17.943 8.5679 17.875 9.1969 18.221 9.6279C19.256 10.9139 19.256 13.0869 18.221 14.3739C17.875 14.8039 17.943 15.4329 18.373 15.7799C18.558 15.9279 18.779 16.0009 19 16.0009Z" fill="#383B46"/>
</g>
</svg>
