<svg width="24" height="24" viewBox="0 0 24 24" fill="none" xmlns="http://www.w3.org/2000/svg">
<g id="icon/general/24x24/fill/volume-up-fill">
<path id="&#240;&#159;&#142;&#168; Icon &#208;&#161;olor" fill-rule="evenodd" clip-rule="evenodd" d="M13.434 3.17523C13.74 2.96523 14.137 2.94123 14.466 3.11523C14.794 3.28823 15 3.62923 15 4.00023V20.0002C15 20.3712 14.794 20.7122 14.466 20.8852C14.32 20.9622 14.159 21.0002 14 21.0002C13.801 21.0002 13.604 20.9412 13.434 20.8252L7.023 16.4282H2C1.447 16.4282 1 15.9812 1 15.4282V8.57123C1 8.01823 1.447 7.57123 2 7.57123H7.023L13.434 3.17523ZM19.6374 5.22953C19.2124 4.87753 18.5814 4.93653 18.2294 5.36253C17.8774 5.78753 17.9364 6.41753 18.3624 6.77053C20.0624 8.17953 20.9994 10.0365 20.9994 12.0005C20.9994 13.9635 20.0624 15.8205 18.3624 17.2295C17.9364 17.5825 17.8774 18.2125 18.2294 18.6375C18.4274 18.8765 18.7124 19.0005 19.0004 19.0005C19.2244 19.0005 19.4504 18.9245 19.6374 18.7705C21.8054 16.9745 22.9994 14.5695 22.9994 12.0005C22.9994 9.43053 21.8054 7.02553 19.6374 5.22953ZM18.279 8.37303C17.932 7.94303 17.303 7.87603 16.873 8.22103C16.443 8.56703 16.374 9.19603 16.72 9.62703C17.756 10.913 17.756 13.087 16.72 14.373C16.374 14.804 16.443 15.433 16.873 15.779C17.058 15.928 17.279 16 17.499 16C17.791 16 18.081 15.872 18.279 15.627C19.915 13.593 19.915 10.407 18.279 8.37303Z" fill="#383B46"/>
<mask id="mask0_11506_95454" style="mask-type:luminance" maskUnits="userSpaceOnUse" x="1" y="2" width="22" height="19">
<path id="&#240;&#159;&#142;&#168; Icon &#208;&#161;olor_2" fill-rule="evenodd" clip-rule="evenodd" d="M13.434 3.17523C13.74 2.96523 14.137 2.94123 14.466 3.11523C14.794 3.28823 15 3.62923 15 4.00023V20.0002C15 20.3712 14.794 20.7122 14.466 20.8852C14.32 20.9622 14.159 21.0002 14 21.0002C13.801 21.0002 13.604 20.9412 13.434 20.8252L7.023 16.4282H2C1.447 16.4282 1 15.9812 1 15.4282V8.57123C1 8.01823 1.447 7.57123 2 7.57123H7.023L13.434 3.17523ZM19.6374 5.22953C19.2124 4.87753 18.5814 4.93653 18.2294 5.36253C17.8774 5.78753 17.9364 6.41753 18.3624 6.77053C20.0624 8.17953 20.9994 10.0365 20.9994 12.0005C20.9994 13.9635 20.0624 15.8205 18.3624 17.2295C17.9364 17.5825 17.8774 18.2125 18.2294 18.6375C18.4274 18.8765 18.7124 19.0005 19.0004 19.0005C19.2244 19.0005 19.4504 18.9245 19.6374 18.7705C21.8054 16.9745 22.9994 14.5695 22.9994 12.0005C22.9994 9.43053 21.8054 7.02553 19.6374 5.22953ZM18.279 8.37303C17.932 7.94303 17.303 7.87603 16.873 8.22103C16.443 8.56703 16.374 9.19603 16.72 9.62703C17.756 10.913 17.756 13.087 16.72 14.373C16.374 14.804 16.443 15.433 16.873 15.779C17.058 15.928 17.279 16 17.499 16C17.791 16 18.081 15.872 18.279 15.627C19.915 13.593 19.915 10.407 18.279 8.37303Z" fill="white"/>
</mask>
<g mask="url(#mask0_11506_95454)">
</g>
</g>
</svg>
