<svg width="24" height="24" viewBox="0 0 24 24" fill="none" xmlns="http://www.w3.org/2000/svg">
<path d="M15 12V11.1C14.5029 11.1 14.1 11.5029 14.1 12H15ZM21 12H21.9C21.9 11.5029 21.4971 11.1 21 11.1V12ZM3 12V11.1C2.50294 11.1 2.1 11.5029 2.1 12H3ZM9 12H9.9C9.9 11.5029 9.49706 11.1 9 11.1V12ZM14.1 12C14.1 13.1598 13.1598 14.1 12 14.1V15.9C14.1539 15.9 15.9 14.1539 15.9 12H14.1ZM21 11.1H15V12.9H21V11.1ZM21.9 17V12H20.1V17H21.9ZM19 19.9C20.6016 19.9 21.9 18.6016 21.9 17H20.1C20.1 17.6075 19.6075 18.1 19 18.1V19.9ZM5 19.9H19V18.1H5V19.9ZM2.1 17C2.1 18.6016 3.39837 19.9 5 19.9V18.1C4.39249 18.1 3.9 17.6075 3.9 17H2.1ZM2.1 12V17H3.9V12H2.1ZM9 11.1H3V12.9H9V11.1ZM12 14.1C10.8402 14.1 9.9 13.1598 9.9 12H8.1C8.1 14.1539 9.84609 15.9 12 15.9V14.1Z" fill="black"/>
<rect x="3" y="4" width="18" height="15" rx="2" stroke="black" stroke-width="1.8"/>
</svg>
