<svg width="24" height="24" viewBox="0 0 24 24" fill="none" xmlns="http://www.w3.org/2000/svg">
<path fill-rule="evenodd" clip-rule="evenodd" d="M11.3292 3.34165L2.5427 20.9146C2.29336 21.4133 2.65599 22 3.21352 22H20.7865C21.344 22 21.7066 21.4133 21.4573 20.9146L12.6708 3.34165C12.3944 2.78887 11.6056 2.78887 11.3292 3.34165ZM11.2 10.9C11.2 10.403 11.6029 10 12.1 10C12.5971 10 13 10.403 13 10.9V14.1C13 14.5971 12.5971 15 12.1 15C11.6029 15 11.2 14.5971 11.2 14.1V10.9ZM12.05 16.5C11.3596 16.5 10.8 17.0601 10.8 17.7511C10.8 18.442 11.3596 19.0022 12.05 19.0022C12.7404 19.0022 13.3 18.442 13.3 17.7511C13.3 17.0601 12.7404 16.5 12.05 16.5Z" fill="black"/>
</svg>
