<svg width="24" height="24" viewBox="0 0 24 24" fill="none" xmlns="http://www.w3.org/2000/svg">
<path d="M2.54271 20.9146L11.3292 3.34164C11.6056 2.78885 12.3944 2.78886 12.6708 3.34164L21.4573 20.9146C21.7066 21.4133 21.344 22 20.7865 22H3.21353C2.65599 22 2.29337 21.4133 2.54271 20.9146Z" stroke="black" stroke-width="1.8" stroke-linecap="round"/>
<path fill-rule="evenodd" clip-rule="evenodd" d="M12.1 10C11.6029 10 11.2 10.4029 11.2 10.9V14.1C11.2 14.5971 11.6029 15 12.1 15C12.5971 15 13 14.5971 13 14.1V10.9C13 10.4029 12.5971 10 12.1 10ZM10.8 17.7511C10.8 17.0601 11.3596 16.5 12.05 16.5C12.7404 16.5 13.3 17.0601 13.3 17.7511C13.3 18.442 12.7404 19.0022 12.05 19.0022C11.3596 19.0022 10.8 18.442 10.8 17.7511Z" fill="black"/>
</svg>
