<svg width="24" height="24" viewBox="0 0 24 24" fill="none" xmlns="http://www.w3.org/2000/svg">
<path fill-rule="evenodd" clip-rule="evenodd" d="M12 22C17.5228 22 22 17.5228 22 12C22 6.47715 17.5228 2 12 2C6.47715 2 2 6.47715 2 12C2 17.5228 6.47715 22 12 22ZM11.2 7.9C11.2 7.40294 11.6029 7 12.1 7C12.5971 7 13 7.40294 13 7.9V13.1C13 13.5971 12.5971 14 12.1 14C11.6029 14 11.2 13.5971 11.2 13.1V7.9ZM12.05 16C11.3596 16 10.8 16.5596 10.8 17.25C10.8 17.9404 11.3596 18.5 12.05 18.5C12.7404 18.5 13.3 17.9404 13.3 17.25C13.3 16.5596 12.7404 16 12.05 16Z" fill="black"/>
</svg>
