<svg width="24" height="24" viewBox="0 0 24 24" fill="none" xmlns="http://www.w3.org/2000/svg">
<g id="icon/general/24x24/outline/wifi-off">
<path id="&#240;&#159;&#142;&#168; Icon &#208;&#161;olor" fill-rule="evenodd" clip-rule="evenodd" d="M12.4372 11.0225L10.5452 9.13049L8.08316 6.66749L6.53216 5.11749L4.70816 3.29349C4.31716 2.90249 3.68416 2.90249 3.29316 3.29349C2.90316 3.68349 2.90316 4.31649 3.29316 4.70749L4.66916 6.08349L6.13016 7.54349L8.36416 9.77749L9.91016 11.3235L12.6492 14.0625L15.4422 16.8555L19.2932 20.7075C19.4892 20.9025 19.7452 21.0005 20.0002 21.0005C20.2562 21.0005 20.5122 20.9025 20.7082 20.7075C21.0982 20.3165 21.0982 19.6835 20.7082 19.2935L12.4372 11.0225ZM12.0007 18C11.4477 18 11.0007 18.448 11.0007 19C11.0007 19.552 11.4477 20 12.0007 20C12.5537 20 13.0007 19.552 13.0007 19C13.0007 18.448 12.5537 18 12.0007 18ZM12.0003 4.00019C15.6483 4.00019 19.1013 5.39519 21.7253 7.92919C22.1223 8.31219 22.1333 8.94619 21.7503 9.34319C21.5543 9.54619 21.2923 9.64819 21.0313 9.64819C20.7813 9.64819 20.5303 9.55519 20.3363 9.36719C18.0863 7.19619 15.1263 6.00019 12.0003 6.00019C11.0373 6.00019 10.0923 6.12719 9.17626 6.34719L7.56126 4.73219C8.97726 4.26019 10.4693 4.00019 12.0003 4.00019ZM3.82486 6.65279C3.28586 7.04279 2.76286 7.45979 2.27586 7.92879C1.87886 8.31279 1.86786 8.94579 2.25086 9.34279C2.63486 9.74079 3.26986 9.75179 3.66486 9.36779C4.16086 8.88879 4.69686 8.46579 5.25686 8.08379L3.82486 6.65279ZM17.7559 13.4427C17.4939 13.4427 17.2319 13.3407 17.0359 13.1377C16.2439 12.3167 15.2589 11.7117 14.1869 11.3587L11.8379 9.00869C11.8629 9.00823 11.888 9.00626 11.9132 9.00428C11.9422 9.00199 11.9714 8.99969 12.0009 8.99969C14.4289 8.99969 16.7889 10.0017 18.4749 11.7477C18.8579 12.1457 18.8479 12.7787 18.4499 13.1617C18.2569 13.3497 18.0059 13.4427 17.7559 13.4427ZM7.43226 10.2603C6.73826 10.6683 6.09126 11.1623 5.52626 11.7483C5.14326 12.1453 5.15426 12.7793 5.55126 13.1623C5.94726 13.5463 6.58126 13.5353 6.96526 13.1373C7.52726 12.5553 8.18926 12.0883 8.90626 11.7343L7.43226 10.2603ZM8.50296 16.8173C8.11996 16.4203 8.13096 15.7873 8.52796 15.4033C9.27996 14.6763 10.227 14.2273 11.245 14.0723L13.762 16.5903C12.62 15.7753 10.942 15.8523 9.91696 16.8413C9.52096 17.2263 8.88696 17.2153 8.50296 16.8173Z" fill="#383B46"/>
<mask id="mask0_11506_94457" style="mask-type:luminance" maskUnits="userSpaceOnUse" x="1" y="3" width="22" height="19">
<path id="&#240;&#159;&#142;&#168; Icon &#208;&#161;olor_2" fill-rule="evenodd" clip-rule="evenodd" d="M12.4372 11.0225L10.5452 9.13049L8.08316 6.66749L6.53216 5.11749L4.70816 3.29349C4.31716 2.90249 3.68416 2.90249 3.29316 3.29349C2.90316 3.68349 2.90316 4.31649 3.29316 4.70749L4.66916 6.08349L6.13016 7.54349L8.36416 9.77749L9.91016 11.3235L12.6492 14.0625L15.4422 16.8555L19.2932 20.7075C19.4892 20.9025 19.7452 21.0005 20.0002 21.0005C20.2562 21.0005 20.5122 20.9025 20.7082 20.7075C21.0982 20.3165 21.0982 19.6835 20.7082 19.2935L12.4372 11.0225ZM12.0007 18C11.4477 18 11.0007 18.448 11.0007 19C11.0007 19.552 11.4477 20 12.0007 20C12.5537 20 13.0007 19.552 13.0007 19C13.0007 18.448 12.5537 18 12.0007 18ZM12.0003 4.00019C15.6483 4.00019 19.1013 5.39519 21.7253 7.92919C22.1223 8.31219 22.1333 8.94619 21.7503 9.34319C21.5543 9.54619 21.2923 9.64819 21.0313 9.64819C20.7813 9.64819 20.5303 9.55519 20.3363 9.36719C18.0863 7.19619 15.1263 6.00019 12.0003 6.00019C11.0373 6.00019 10.0923 6.12719 9.17626 6.34719L7.56126 4.73219C8.97726 4.26019 10.4693 4.00019 12.0003 4.00019ZM3.82486 6.65279C3.28586 7.04279 2.76286 7.45979 2.27586 7.92879C1.87886 8.31279 1.86786 8.94579 2.25086 9.34279C2.63486 9.74079 3.26986 9.75179 3.66486 9.36779C4.16086 8.88879 4.69686 8.46579 5.25686 8.08379L3.82486 6.65279ZM17.7559 13.4427C17.4939 13.4427 17.2319 13.3407 17.0359 13.1377C16.2439 12.3167 15.2589 11.7117 14.1869 11.3587L11.8379 9.00869C11.8629 9.00823 11.888 9.00626 11.9132 9.00428C11.9422 9.00199 11.9714 8.99969 12.0009 8.99969C14.4289 8.99969 16.7889 10.0017 18.4749 11.7477C18.8579 12.1457 18.8479 12.7787 18.4499 13.1617C18.2569 13.3497 18.0059 13.4427 17.7559 13.4427ZM7.43226 10.2603C6.73826 10.6683 6.09126 11.1623 5.52626 11.7483C5.14326 12.1453 5.15426 12.7793 5.55126 13.1623C5.94726 13.5463 6.58126 13.5353 6.96526 13.1373C7.52726 12.5553 8.18926 12.0883 8.90626 11.7343L7.43226 10.2603ZM8.50296 16.8173C8.11996 16.4203 8.13096 15.7873 8.52796 15.4033C9.27996 14.6763 10.227 14.2273 11.245 14.0723L13.762 16.5903C12.62 15.7753 10.942 15.8523 9.91696 16.8413C9.52096 17.2263 8.88696 17.2153 8.50296 16.8173Z" fill="white"/>
</mask>
<g mask="url(#mask0_11506_94457)">
</g>
</g>
</svg>
