<svg width="24" height="24" viewBox="0 0 24 24" fill="none" xmlns="http://www.w3.org/2000/svg">
<g id="icon/general/24x24/outline/wifi">
<path id="&#240;&#159;&#142;&#168; Icon &#208;&#161;olor" fill-rule="evenodd" clip-rule="evenodd" d="M12.0004 4.00024C15.6484 4.00024 19.1014 5.39524 21.7254 7.92924C22.1224 8.31224 22.1334 8.94624 21.7504 9.34324C21.5544 9.54624 21.2924 9.64824 21.0314 9.64824C20.7814 9.64824 20.5304 9.55524 20.3364 9.36724C18.0864 7.19624 15.1264 6.00024 12.0004 6.00024C8.87436 6.00024 5.91436 7.19624 3.66436 9.36724C3.26936 9.75224 2.63536 9.74124 2.25036 9.34324C1.86836 8.94624 1.87836 8.31224 2.27636 7.92924C4.90036 5.39524 8.35336 4.00024 12.0004 4.00024ZM12.0008 9.00004C9.57276 9.00004 7.21276 10.001 5.52576 11.748C5.14376 12.146 5.15376 12.779 5.55176 13.162C5.94776 13.546 6.58276 13.535 6.96576 13.138C8.27676 11.779 10.1118 11 12.0008 11C13.8898 11 15.7248 11.779 17.0358 13.138C17.2318 13.341 17.4938 13.443 17.7558 13.443C18.0058 13.443 18.2568 13.35 18.4498 13.162C18.8478 12.779 18.8578 12.146 18.4758 11.748C16.7888 10.001 14.4288 9.00004 12.0008 9.00004ZM8.52776 15.403C9.46476 14.499 10.6978 14 12.0008 14C13.3038 14 14.5368 14.499 15.4738 15.403C15.8708 15.787 15.8818 16.42 15.4988 16.817C15.3028 17.021 15.0408 17.123 14.7788 17.123C14.5288 17.123 14.2778 17.029 14.0848 16.842C12.9598 15.756 11.0418 15.756 9.91676 16.842C9.52176 17.226 8.88776 17.215 8.50276 16.817C8.11976 16.42 8.13076 15.787 8.52776 15.403ZM11.0008 19C11.0008 18.448 11.4478 18 12.0008 18C12.5538 18 13.0008 18.448 13.0008 19C13.0008 19.552 12.5538 20 12.0008 20C11.4478 20 11.0008 19.552 11.0008 19Z" fill="#383B46"/>
<mask id="mask0_11506_94355" style="mask-type:luminance" maskUnits="userSpaceOnUse" x="1" y="4" width="22" height="16">
<path id="&#240;&#159;&#142;&#168; Icon &#208;&#161;olor_2" fill-rule="evenodd" clip-rule="evenodd" d="M12.0004 4.00024C15.6484 4.00024 19.1014 5.39524 21.7254 7.92924C22.1224 8.31224 22.1334 8.94624 21.7504 9.34324C21.5544 9.54624 21.2924 9.64824 21.0314 9.64824C20.7814 9.64824 20.5304 9.55524 20.3364 9.36724C18.0864 7.19624 15.1264 6.00024 12.0004 6.00024C8.87436 6.00024 5.91436 7.19624 3.66436 9.36724C3.26936 9.75224 2.63536 9.74124 2.25036 9.34324C1.86836 8.94624 1.87836 8.31224 2.27636 7.92924C4.90036 5.39524 8.35336 4.00024 12.0004 4.00024ZM12.0008 9.00004C9.57276 9.00004 7.21276 10.001 5.52576 11.748C5.14376 12.146 5.15376 12.779 5.55176 13.162C5.94776 13.546 6.58276 13.535 6.96576 13.138C8.27676 11.779 10.1118 11 12.0008 11C13.8898 11 15.7248 11.779 17.0358 13.138C17.2318 13.341 17.4938 13.443 17.7558 13.443C18.0058 13.443 18.2568 13.35 18.4498 13.162C18.8478 12.779 18.8578 12.146 18.4758 11.748C16.7888 10.001 14.4288 9.00004 12.0008 9.00004ZM8.52776 15.403C9.46476 14.499 10.6978 14 12.0008 14C13.3038 14 14.5368 14.499 15.4738 15.403C15.8708 15.787 15.8818 16.42 15.4988 16.817C15.3028 17.021 15.0408 17.123 14.7788 17.123C14.5288 17.123 14.2778 17.029 14.0848 16.842C12.9598 15.756 11.0418 15.756 9.91676 16.842C9.52176 17.226 8.88776 17.215 8.50276 16.817C8.11976 16.42 8.13076 15.787 8.52776 15.403ZM11.0008 19C11.0008 18.448 11.4478 18 12.0008 18C12.5538 18 13.0008 18.448 13.0008 19C13.0008 19.552 12.5538 20 12.0008 20C11.4478 20 11.0008 19.552 11.0008 19Z" fill="white"/>
</mask>
<g mask="url(#mask0_11506_94355)">
</g>
</g>
</svg>
